<svg width="62" height="62" viewBox="0 0 62 62" fill="none" xmlns="http://www.w3.org/2000/svg">
<rect width="62" height="62" rx="31" fill="#F4F4F4"/>
<path fill-rule="evenodd" clip-rule="evenodd" d="M26.0066 22.1028C24.8483 22.1028 23.7307 22.5305 22.8684 23.304L18.8561 26.9027C16.8626 28.6908 16.7637 31.7807 18.6389 33.6926L28.1145 43.3535C29.9762 45.2516 33.0403 45.2289 34.8737 43.3035L44.1912 33.518C45.9467 31.6743 45.9152 28.7681 44.1202 26.9629L40.6655 23.4888C39.7834 22.6016 38.5839 22.1028 37.3328 22.1028H26.0066ZM23.8032 24.3462C24.4087 23.8031 25.1933 23.5028 26.0066 23.5028H37.3328C38.2112 23.5028 39.0534 23.853 39.6728 24.4759L43.1275 27.9501C44.3878 29.2175 44.4099 31.2581 43.1773 32.5526L33.8598 42.3381C32.5725 43.69 30.4211 43.7059 29.114 42.3732L19.6384 32.7123C18.3218 31.3699 18.3912 29.2004 19.7909 27.9449L23.8032 24.3462ZM38.9655 26.7154C38.7161 26.42 38.2744 26.3828 37.9791 26.6323C37.6837 26.8817 37.6465 27.3234 37.896 27.6187L39.2695 29.245C40.0478 30.1664 39.9813 31.5327 39.1174 32.3718C38.6148 32.8599 38.1807 33.2805 37.7463 33.7012C36.8342 34.5848 35.921 35.4695 34.3703 36.9835C34.0937 37.2536 34.0884 37.6968 34.3585 37.9734C34.6286 38.25 35.0718 38.2553 35.3484 37.9852C36.8971 36.473 37.8072 35.5914 38.7184 34.7088L38.7221 34.7051C39.1556 34.2852 39.5895 33.8648 40.0928 33.376C41.4856 32.0232 41.5908 29.8236 40.3391 28.3416L38.9655 26.7154Z" fill="#343434"/>
<path d="M40.834 19.9766H43.834" stroke="#343434" stroke-width="1.3" stroke-linecap="round" stroke-linejoin="round"/>
<path d="M42.334 21.4766V18.4766" stroke="#343434" stroke-width="1.3" stroke-linecap="round" stroke-linejoin="round"/>
<path d="M16 38.123H19" stroke="#343434" stroke-width="1.3" stroke-linecap="round" stroke-linejoin="round"/>
<path d="M17.5 39.623V36.623" stroke="#343434" stroke-width="1.3" stroke-linecap="round" stroke-linejoin="round"/>
<path d="M49.2578 34.6504C49.9482 34.6504 50.5078 34.0907 50.5078 33.4004C50.5078 32.71 49.9482 32.1504 49.2578 32.1504C48.5675 32.1504 48.0078 32.71 48.0078 33.4004C48.0078 34.0907 48.5675 34.6504 49.2578 34.6504Z" fill="#F4F4F4" stroke="#343434" stroke-width="1.3" stroke-linecap="round" stroke-linejoin="round"/>
</svg>
