<svg width="62" height="62" viewBox="0 0 62 62" fill="none" xmlns="http://www.w3.org/2000/svg">
<rect width="62" height="62" rx="31" fill="#F4F4F4"/>
<path fill-rule="evenodd" clip-rule="evenodd" d="M33.7261 19.9521C34.2439 19.5019 35.0511 19.8697 35.0511 20.5558V23.0732C35.0511 24.2882 36.0361 25.2732 37.2511 25.2732H46.3563C46.8596 25.2732 47.2378 25.7324 47.1415 26.2264L44.803 38.2109C44.7297 38.5865 44.4006 38.8577 44.0178 38.8577H28.4109V24.5741L33.7261 19.9521ZM27.0109 25.2615C26.9359 25.2693 26.8602 25.2732 26.7842 25.2732H23.7285C23.2867 25.2732 22.9285 25.6314 22.9285 26.0732V38.0577C22.9285 38.4995 23.2867 38.8577 23.7285 38.8577H27.0109V25.2615ZM36.4511 20.5558C36.4511 18.6689 34.2314 17.6575 32.8075 18.8957L27.3091 23.6769C27.1635 23.8035 26.9771 23.8732 26.7842 23.8732H23.7285C22.5135 23.8732 21.5285 24.8582 21.5285 26.0732V38.0577C21.5285 39.2727 22.5135 40.2577 23.7285 40.2577H44.0178C45.0704 40.2577 45.9755 39.5121 46.1771 38.479L48.5155 26.4945C48.7806 25.136 47.7403 23.8732 46.3563 23.8732H37.2511C36.8093 23.8732 36.4511 23.515 36.4511 23.0732V20.5558Z" fill="#343434"/>
<path d="M21.711 29.5778C22.448 28.1036 24.5516 28.1036 25.2887 29.5777L26.0516 31.1033C26.3338 31.6676 26.8657 32.0657 27.4867 32.1773L29.603 32.5576C31.2151 32.8473 31.8145 34.8458 30.628 35.9749L29.2692 37.268C28.7882 37.7258 28.5657 38.3924 28.6754 39.0472L28.9784 40.8566C29.2564 42.5165 27.485 43.7566 26.0205 42.9273L24.4852 42.058C23.8739 41.7118 23.1257 41.7118 22.5143 42.058L20.9794 42.9271C19.5148 43.7564 17.7433 42.5162 18.0214 40.8563L18.3245 39.0473C18.4342 38.3924 18.2118 37.7257 17.7307 37.268L16.3718 35.975C15.1852 34.8459 15.7847 32.8473 17.3968 32.5576L19.5132 32.1773C20.1342 32.0657 20.6662 31.6676 20.9484 31.1032L21.711 29.5778Z" fill="#F4F4F4"/>
<path d="M22.5489 30.927C22.8483 30.0057 24.1517 30.0057 24.4511 30.9271L25.1839 33.1824C25.3177 33.5944 25.7017 33.8734 26.1349 33.8734L28.5063 33.8734C29.475 33.8734 29.8778 35.113 29.0941 35.6824L27.1756 37.0762C26.8251 37.3309 26.6784 37.7822 26.8123 38.1943L27.5451 40.4496C27.8445 41.3709 26.79 42.137 26.0063 41.5676L24.0878 40.1738C23.7373 39.9191 23.2627 39.9191 22.9122 40.1738L20.9937 41.5676C20.21 42.137 19.1555 41.3709 19.4549 40.4496L20.1877 38.1943C20.3216 37.7822 20.1749 37.3309 19.8244 37.0762L17.9059 35.6824C17.1222 35.113 17.525 33.8734 18.4937 33.8734L20.8651 33.8734C21.2983 33.8734 21.6823 33.5944 21.8161 33.1824L22.5489 30.927Z" fill="#F4F4F4" stroke="#343434" stroke-width="1.4"/>
</svg>
