<svg width="62" height="62" viewBox="0 0 62 62" fill="none" xmlns="http://www.w3.org/2000/svg">
<rect width="62" height="62" rx="31" fill="#F4F4F4"/>
<path fill-rule="evenodd" clip-rule="evenodd" d="M25.4002 18.7C25.4002 18.3134 25.0868 18 24.7002 18C24.3136 18 24.0002 18.3134 24.0002 18.7V19.999H20.7002C19.209 19.999 18.0002 21.2079 18.0002 22.699V40.699C18.0002 42.1902 19.209 43.399 20.7002 43.399H29.7234C30.11 43.399 30.4234 43.0856 30.4234 42.699C30.4234 42.3124 30.11 41.999 29.7234 41.999H20.7002C19.9822 41.999 19.4002 41.417 19.4002 40.699V22.699C19.4002 21.9811 19.9822 21.399 20.7002 21.399H24.0002V22.7C24.0002 23.0866 24.3136 23.4 24.7002 23.4C25.0868 23.4 25.4002 23.0866 25.4002 22.7V21.399H30.0002V22.7C30.0002 23.0866 30.3136 23.4 30.7002 23.4C31.0868 23.4 31.4002 23.0866 31.4002 22.7V21.399H36.0002V22.7C36.0002 23.0866 36.3136 23.4 36.7002 23.4C37.0868 23.4 37.4002 23.0866 37.4002 22.7V21.399H40.7002C41.4182 21.399 42.0002 21.9811 42.0002 22.699V29.7578C42.0002 30.1444 42.3136 30.4578 42.7002 30.4578C43.0868 30.4578 43.4002 30.1444 43.4002 29.7578V22.699C43.4002 21.2079 42.1914 19.999 40.7002 19.999H37.4002V18.7C37.4002 18.3134 37.0868 18 36.7002 18C36.3136 18 36.0002 18.3134 36.0002 18.7V19.999H31.4002V18.7C31.4002 18.3134 31.0868 18 30.7002 18C30.3136 18 30.0002 18.3134 30.0002 18.7V19.999H25.4002V18.7ZM37.7002 41.299C40.2407 41.299 42.3002 39.2395 42.3002 36.699C42.3002 34.1585 40.2407 32.099 37.7002 32.099C35.1597 32.099 33.1002 34.1585 33.1002 36.699C33.1002 39.2395 35.1597 41.299 37.7002 41.299ZM37.7002 42.699C41.0139 42.699 43.7002 40.0127 43.7002 36.699C43.7002 33.3853 41.0139 30.699 37.7002 30.699C34.3865 30.699 31.7002 33.3853 31.7002 36.699C31.7002 40.0127 34.3865 42.699 37.7002 42.699ZM38.4002 34.699C38.4002 34.3124 38.0868 33.999 37.7002 33.999C37.3136 33.999 37.0002 34.3124 37.0002 34.699V36.599C37.0002 37.0409 37.3584 37.399 37.8002 37.399H39.7002C40.0868 37.399 40.4002 37.0856 40.4002 36.699C40.4002 36.3124 40.0868 35.999 39.7002 35.999H38.4002V34.699ZM25.7002 28.699C25.7002 29.2513 25.2525 29.699 24.7002 29.699C24.1479 29.699 23.7002 29.2513 23.7002 28.699C23.7002 28.1467 24.1479 27.699 24.7002 27.699C25.2525 27.699 25.7002 28.1467 25.7002 28.699ZM28.7002 29.699C29.2525 29.699 29.7002 29.2513 29.7002 28.699C29.7002 28.1467 29.2525 27.699 28.7002 27.699C28.1479 27.699 27.7002 28.1467 27.7002 28.699C27.7002 29.2513 28.1479 29.699 28.7002 29.699ZM25.7002 32.699C25.7002 33.2513 25.2525 33.699 24.7002 33.699C24.1479 33.699 23.7002 33.2513 23.7002 32.699C23.7002 32.1467 24.1479 31.699 24.7002 31.699C25.2525 31.699 25.7002 32.1467 25.7002 32.699ZM28.7002 33.699C29.2525 33.699 29.7002 33.2513 29.7002 32.699C29.7002 32.1467 29.2525 31.699 28.7002 31.699C28.1479 31.699 27.7002 32.1467 27.7002 32.699C27.7002 33.2513 28.1479 33.699 28.7002 33.699ZM25.7002 36.699C25.7002 37.2513 25.2525 37.699 24.7002 37.699C24.1479 37.699 23.7002 37.2513 23.7002 36.699C23.7002 36.1467 24.1479 35.699 24.7002 35.699C25.2525 35.699 25.7002 36.1467 25.7002 36.699ZM28.7002 37.699C29.2525 37.699 29.7002 37.2513 29.7002 36.699C29.7002 36.1467 29.2525 35.699 28.7002 35.699C28.1479 35.699 27.7002 36.1467 27.7002 36.699C27.7002 37.2513 28.1479 37.699 28.7002 37.699ZM33.7002 28.699C33.7002 29.2513 33.2525 29.699 32.7002 29.699C32.1479 29.699 31.7002 29.2513 31.7002 28.699C31.7002 28.1467 32.1479 27.699 32.7002 27.699C33.2525 27.699 33.7002 28.1467 33.7002 28.699ZM36.7002 29.699C37.2525 29.699 37.7002 29.2513 37.7002 28.699C37.7002 28.1467 37.2525 27.699 36.7002 27.699C36.1479 27.699 35.7002 28.1467 35.7002 28.699C35.7002 29.2513 36.1479 29.699 36.7002 29.699Z" fill="#343434"/>
</svg>
