<svg width="62" height="62" viewBox="0 0 62 62" fill="none" xmlns="http://www.w3.org/2000/svg">
<rect width="62" height="62" rx="31" fill="#F4F4F4"/>
<path fill-rule="evenodd" clip-rule="evenodd" d="M17.7247 22.4247C17.559 22.4247 17.4247 22.559 17.4247 22.7247V26.2968C17.4247 26.4024 17.4903 26.5435 17.6507 26.6436C18.8078 27.3656 20.5859 28.9467 20.5859 31.2085C20.5859 32.3576 20.0141 34.7421 17.7276 35.8476C17.5076 35.954 17.4247 36.1215 17.4247 36.2337V39.6923C17.4247 39.8579 17.559 39.9923 17.7247 39.9923H24.1622V38.5283C24.1622 38.1417 24.4756 37.8283 24.8622 37.8283C25.2488 37.8283 25.5622 38.1417 25.5622 38.5283V39.9923H44.1761C44.3417 39.9923 44.476 39.8579 44.476 39.6923V22.7247C44.476 22.559 44.3417 22.4247 44.1761 22.4247L25.5622 22.4247V23.8886C25.5622 24.2752 25.2488 24.5886 24.8622 24.5886C24.4756 24.5886 24.1622 24.2752 24.1622 23.8886V22.4247H17.7247ZM16.0247 22.7247C16.0247 21.7858 16.7858 21.0247 17.7247 21.0247H44.1761C45.1149 21.0247 45.8761 21.7858 45.8761 22.7247V39.6923C45.8761 40.6311 45.1149 41.3923 44.1761 41.3923H17.7247C16.7858 41.3923 16.0247 40.6311 16.0247 39.6923V36.2337C16.0247 35.4587 16.5394 34.867 17.1182 34.5872C18.7318 33.8071 19.1859 32.0693 19.1859 31.2085C19.1859 29.7005 17.9568 28.4848 16.9096 27.8313C16.4127 27.5212 16.0247 26.966 16.0247 26.2968V22.7247ZM24.8622 26.1166C25.2488 26.1166 25.5622 26.43 25.5622 26.8166V29.7445C25.5622 30.1311 25.2488 30.4445 24.8622 30.4445C24.4756 30.4445 24.1622 30.1311 24.1622 29.7445V26.8166C24.1622 26.43 24.4756 26.1166 24.8622 26.1166ZM24.8622 31.9724C25.2488 31.9724 25.5622 32.2858 25.5622 32.6724V35.6004C25.5622 35.987 25.2488 36.3004 24.8622 36.3004C24.4756 36.3004 24.1622 35.987 24.1622 35.6004V32.6724C24.1622 32.2858 24.4756 31.9724 24.8622 31.9724ZM36.7449 29.4716C37.0183 29.1982 37.0183 28.755 36.7449 28.4816C36.4716 28.2083 36.0284 28.2083 35.755 28.4816L30.9201 33.3165C30.6467 33.5899 30.6467 34.0331 30.9201 34.3065C31.1935 34.5798 31.6367 34.5798 31.9101 34.3065L36.7449 29.4716ZM32.7161 28.9767C32.7161 29.4902 32.2998 29.9065 31.7863 29.9065C31.2728 29.9065 30.8565 29.4902 30.8565 28.9767C30.8565 28.4632 31.2728 28.0469 31.7863 28.0469C32.2998 28.0469 32.7161 28.4632 32.7161 28.9767ZM36.2501 34.7415C36.7637 34.7415 37.1799 34.3252 37.1799 33.8117C37.1799 33.2982 36.7637 32.8819 36.2501 32.8819C35.7366 32.8819 35.3204 33.2982 35.3204 33.8117C35.3204 34.3252 35.7366 34.7415 36.2501 34.7415Z" fill="#343434"/>
</svg>
