<svg width="62" height="62" viewBox="0 0 62 62" fill="none" xmlns="http://www.w3.org/2000/svg">
<rect width="62" height="62" rx="31" fill="#F4F4F4"/>
<path fill-rule="evenodd" clip-rule="evenodd" d="M24.0507 23.7002C24.0507 24.8048 23.1553 25.7002 22.0507 25.7002C20.9462 25.7002 20.0508 24.8048 20.0508 23.7002C20.0508 22.5956 20.9462 21.7002 22.0507 21.7002C23.1553 21.7002 24.0507 22.5956 24.0507 23.7002ZM32.0507 23.7002C32.0507 24.8048 31.1553 25.7002 30.0508 25.7002C28.9462 25.7002 28.0508 24.8048 28.0508 23.7002C28.0508 22.5956 28.9462 21.7002 30.0508 21.7002C31.1553 21.7002 32.0507 22.5956 32.0507 23.7002ZM38.0508 25.7002C39.1554 25.7002 40.0508 24.8048 40.0508 23.7002C40.0508 22.5956 39.1554 21.7002 38.0508 21.7002C36.9463 21.7002 36.0509 22.5956 36.0509 23.7002C36.0509 24.8048 36.9463 25.7002 38.0508 25.7002ZM24.0507 31.7002C24.0507 32.8048 23.1553 33.7002 22.0507 33.7002C20.9462 33.7002 20.0508 32.8048 20.0508 31.7002C20.0508 30.5956 20.9462 29.7002 22.0507 29.7002C23.1553 29.7002 24.0507 30.5956 24.0507 31.7002ZM30.0508 33.7002C31.1553 33.7002 32.0507 32.8048 32.0507 31.7002C32.0507 30.5956 31.1553 29.7002 30.0508 29.7002C28.9462 29.7002 28.0508 30.5956 28.0508 31.7002C28.0508 32.8048 28.9462 33.7002 30.0508 33.7002ZM40.0508 31.7002C40.0508 32.8048 39.1554 33.7002 38.0508 33.7002C36.9463 33.7002 36.0509 32.8048 36.0509 31.7002C36.0509 30.5956 36.9463 29.7002 38.0508 29.7002C39.1554 29.7002 40.0508 30.5956 40.0508 31.7002ZM22.0507 41.7001C23.1553 41.7001 24.0507 40.8047 24.0507 39.7001C24.0507 38.5955 23.1553 37.7001 22.0507 37.7001C20.9462 37.7001 20.0508 38.5955 20.0508 39.7001C20.0508 40.8047 20.9462 41.7001 22.0507 41.7001ZM32.0507 39.7002C32.0507 40.8048 31.1553 41.7002 30.0508 41.7002C28.9462 41.7002 28.0508 40.8048 28.0508 39.7002C28.0508 38.5956 28.9462 37.7002 30.0508 37.7002C31.1553 37.7002 32.0507 38.5956 32.0507 39.7002ZM38.0508 41.7002C39.1554 41.7002 40.0508 40.8048 40.0508 39.7002C40.0508 38.5956 39.1554 37.7002 38.0508 37.7002C36.9463 37.7002 36.0509 38.5956 36.0509 39.7002C36.0509 40.8048 36.9463 41.7002 38.0508 41.7002Z" fill="#343434"/>
</svg>
