<svg width="63" height="23" viewBox="0 0 63 23" fill="none" xmlns="http://www.w3.org/2000/svg">
<path fill-rule="evenodd" clip-rule="evenodd" d="M12.908 14.728C13.216 13.832 13.384 12.628 13.468 11.368H17.78C17.668 14 17.052 16.324 15.988 18.2L19.768 22.54H14.588L13.244 21C11.844 22.288 9.856 22.932 7.504 22.932C2.912 22.932 0 20.356 0 16.408C0 13.804 1.26 11.676 3.836 10.276C2.24 8.568 1.596 6.916 1.596 5.236C1.596 1.988 4.116 0 7.756 0C11.396 0 13.916 1.988 13.916 5.236V6.048H9.576V5.32C9.576 4.172 8.932 3.5 7.756 3.5C6.608 3.5 5.936 4.172 5.936 5.32C5.936 6.244 6.272 7.084 7.336 8.316L12.908 14.728ZM6.16 12.964C4.928 13.888 4.396 15.036 4.396 16.352C4.396 18.424 5.88 19.376 7.7 19.376C8.96 19.376 10.052 19.012 10.808 18.228L6.16 12.964ZM35.7638 14.324L32.6238 22.604H29.7238L26.5838 14.324V22.604H22.9038V6.64404H26.5638L31.1838 18.764L35.7638 6.64404H39.4438V22.604H35.7638V14.324ZM48.3152 22.604C48.1752 22.304 48.0752 21.804 48.0552 21.264C47.6552 22.184 46.5552 22.884 44.9552 22.884C42.6752 22.884 41.1152 21.504 41.1152 19.284C41.1152 17.044 42.6352 15.664 44.9552 15.664C46.4152 15.664 47.6152 16.244 48.0552 17.264V15.024C48.0552 14.144 47.5752 13.504 46.6352 13.504C45.7352 13.504 45.2752 14.004 45.1952 14.784H41.6552C41.7552 12.524 43.3952 10.924 46.6352 10.924C49.8952 10.924 51.6152 12.644 51.6152 15.024V20.884C51.6152 21.524 51.7352 22.224 51.9352 22.604H48.3152ZM44.6752 19.284C44.6752 20.144 45.2552 20.604 46.3752 20.604C47.4752 20.604 48.0552 20.144 48.0552 19.284C48.0552 18.424 47.5152 17.944 46.3752 17.944C45.2352 17.944 44.6752 18.424 44.6752 19.284ZM57.2037 22.604V6.64404H53.6637V22.604H57.2037ZM62.7701 6.64404V22.604H59.2301V6.64404H62.7701Z" fill="url(#paint0_linear_575_1962)"/>
<defs>
<linearGradient id="paint0_linear_575_1962" x1="-0.176025" y1="0.483888" x2="67.3239" y2="25.4838" gradientUnits="userSpaceOnUse">
<stop stop-color="#FF5C38"/>
<stop offset="1" stop-color="#FDAD36"/>
</linearGradient>
</defs>
</svg>
