<svg width="20" height="20" viewBox="0 0 20 20" fill="none" xmlns="http://www.w3.org/2000/svg">
<path fill-rule="evenodd" clip-rule="evenodd" d="M2 9C2 5.41015 4.91015 2.5 8.5 2.5C12.0899 2.5 15 5.41015 15 9C15 12.5899 12.0899 15.5 8.5 15.5C4.91015 15.5 2 12.5899 2 9ZM8.5 0.5C3.80558 0.5 0 4.30558 0 9C0 13.6944 3.80558 17.5 8.5 17.5C10.7418 17.5 12.781 16.6321 14.2998 15.214L18.2929 19.2071C18.6834 19.5976 19.3166 19.5976 19.7071 19.2071C20.0976 18.8166 20.0976 18.1834 19.7071 17.7929L15.7071 13.7929C15.6698 13.7556 15.6303 13.7219 15.589 13.6917C16.4806 12.3471 17 10.7342 17 9C17 4.30558 13.1944 0.5 8.5 0.5Z" fill="#343434"/>
</svg>
