<svg width="60" height="94" viewBox="0 0 60 94" fill="none" xmlns="http://www.w3.org/2000/svg">
<circle cx="30" cy="30" r="30" fill="#21C531"/>
<path d="M19.3436 84.368V88.864H28.8636V87.856H20.5436V84.368H19.3436ZM17.2956 83.008H22.6876V76.288H21.5516V78.64H18.4476V76.288H17.2956V83.008ZM18.4476 82.016V79.584H21.5516V82.016H18.4476ZM24.2556 85.136H25.4236V80.304H27.2796V85.632H28.4316V75.184H27.2796V79.28H25.4236V75.44H24.2556V85.136ZM32.256 76.48V82.912H41.856V81.904H33.456V77.472H41.712V76.48H32.256ZM30.64 87.248H43.328V86.256H30.64V87.248Z" fill="white"/>
<path d="M30.4986 23.2697C29.627 23.27 28.7588 23.372 27.9139 23.5732V21.7036C27.9137 21.6607 27.9088 21.618 27.8994 21.5761C27.8636 20.6163 27.4325 19.707 26.6971 19.0399C25.9617 18.3728 24.9793 18 23.957 18C22.9347 18 21.9523 18.3728 21.2168 19.0399C20.4814 19.707 20.0504 20.6163 20.0145 21.5761C20.0049 21.6186 20 28.5965 20 28.5965V33.1356C20 33.1675 20 33.1994 20 33.2312C20.0201 35.178 20.653 37.0757 21.8189 38.6853C22.9848 40.2948 24.6317 41.5443 26.552 42.2763C28.4724 43.0082 30.5803 43.19 32.6104 42.7987C34.6405 42.4073 36.5019 41.4604 37.9602 40.0771C39.4185 38.6938 40.4086 36.936 40.8056 35.0252C41.2025 33.1143 40.9887 31.1359 40.1911 29.3389C39.3935 27.542 38.0476 26.007 36.3231 24.9273C34.5986 23.8475 32.5726 23.2713 30.5002 23.2712L30.4986 23.2697ZM30.4986 41.4809C28.1422 41.4809 25.8823 40.6015 24.2161 39.0362C22.5499 37.4709 21.6138 35.3478 21.6138 33.1341V21.7749C21.6021 21.479 21.654 21.184 21.7665 20.9074C21.8789 20.6309 22.0496 20.3785 22.2682 20.1653C22.4869 19.9521 22.7491 19.7825 23.0391 19.6667C23.3291 19.5508 23.641 19.4911 23.9562 19.4911C24.2713 19.4911 24.5832 19.5508 24.8732 19.6667C25.1633 19.7825 25.4254 19.9521 25.6441 20.1653C25.8627 20.3785 26.0334 20.6309 26.1458 20.9074C26.2583 21.184 26.3102 21.479 26.2985 21.7749V33.0354C26.2936 34.0934 26.7309 35.1108 27.5164 35.8689C28.3019 36.627 29.3728 37.0651 30.4986 37.089C31.1687 37.0892 31.8292 36.9391 32.4251 36.6511C33.021 36.3631 33.5351 35.9456 33.9245 35.4333C34.314 34.921 34.5677 34.3288 34.6643 33.7058C34.761 33.0829 34.6978 32.4472 34.4802 31.8518C34.2626 31.2564 33.8968 30.7184 33.4132 30.2826C32.9296 29.8468 32.3422 29.5258 31.6999 29.3464C31.0576 29.1669 30.3789 29.1341 29.7204 29.2507C29.0619 29.3674 28.4426 29.6301 27.9139 30.017V28.3248C29.0288 27.7958 30.2971 27.6231 31.5259 27.8329C32.7548 28.0427 33.8772 28.6236 34.7227 29.4873C35.5681 30.351 36.0904 31.4504 36.2102 32.6184C36.3299 33.7863 36.0406 34.9591 35.3862 35.9586C34.7318 36.958 33.748 37.7295 32.5843 38.1558C31.4206 38.5821 30.1406 38.6399 28.9388 38.3205C27.7369 38.0011 26.6788 37.3219 25.9253 36.3861C25.1718 35.4503 24.764 34.309 24.7639 33.1356V21.7036C24.7639 21.5023 24.6788 21.3093 24.5273 21.167C24.3758 21.0247 24.1704 20.9448 23.9562 20.9448C23.742 20.9448 23.5365 21.0247 23.385 21.167C23.2335 21.3093 23.1485 21.5023 23.1485 21.7036V33.1356C23.1485 33.3086 23.1581 33.4816 23.171 33.6516C23.2875 35.0957 23.8847 36.4689 24.878 37.5765C25.8713 38.6841 27.2103 39.47 28.7055 39.8229C30.2006 40.1758 31.7761 40.0779 33.2087 39.5429C34.6413 39.0079 35.8584 38.063 36.6876 36.8421C37.5168 35.6212 37.9161 34.1861 37.8289 32.7401C37.7417 31.2941 37.1725 29.9106 36.2018 28.7855C35.2311 27.6603 33.9082 26.8506 32.4204 26.4711C30.9327 26.0915 29.3555 26.1613 27.9123 26.6707V25.15C29.1335 24.8043 30.4196 24.7095 31.6832 24.8723C32.9468 25.0351 34.1583 25.4515 35.2353 26.0933C36.3123 26.7351 37.2296 27.5872 37.9249 28.5917C38.6201 29.5962 39.0771 30.7296 39.2646 31.9147C39.4521 33.0999 39.3657 34.3091 39.0115 35.4601C38.6572 36.6112 38.0433 37.6771 37.2115 38.5854C36.3797 39.4937 35.3494 40.2231 34.1908 40.724C33.0322 41.2249 31.7724 41.4857 30.497 41.4885L30.4986 41.4809ZM27.9139 33.1341C27.9139 32.6539 28.0655 32.1844 28.3495 31.7851C28.6335 31.3858 29.0372 31.0746 29.5095 30.8908C29.9818 30.707 30.5015 30.6589 31.0028 30.7526C31.5042 30.8463 31.9648 31.0776 32.3263 31.4171C32.6877 31.7567 32.9339 32.1894 33.0336 32.6604C33.1333 33.1314 33.0822 33.6196 32.8865 34.0633C32.6909 34.507 32.3596 34.8862 31.9346 35.153C31.5095 35.4198 31.0098 35.5623 30.4986 35.5623C30.1591 35.5625 29.8228 35.4998 29.509 35.3779C29.1952 35.2559 28.9101 35.0771 28.6699 34.8516C28.4297 34.6261 28.2392 34.3584 28.1092 34.0637C27.9792 33.769 27.9123 33.4531 27.9123 33.1341H27.9139Z" fill="white"/>
</svg>
