<svg width="60" height="94" viewBox="0 0 60 94" fill="none" xmlns="http://www.w3.org/2000/svg">
<circle cx="30" cy="30" r="30" fill="#797F83"/>
<path d="M10.3877 83.504V76.448H9.23569V83.52C9.23569 85.52 7.66769 86.944 5.97169 86.944C4.08369 86.944 2.70769 85.52 2.70769 83.52V76.448H1.53969V83.504C1.53969 86.112 3.41169 88.112 5.97169 88.112C8.21169 88.112 10.3877 86.112 10.3877 83.504ZM17.4397 82.448H14.1917V77.552H17.4397C18.7997 77.552 19.8877 78.64 19.8877 79.984C19.8877 81.328 18.7997 82.448 17.4397 82.448ZM13.0237 88H14.1917V83.536H16.8637L20.1277 88H21.5357L18.2077 83.456C19.8237 83.136 21.0077 81.632 20.9917 80C20.9917 78.048 19.3917 76.448 17.4077 76.448H13.0237V88ZM24.8624 76.448H23.7104V88H30.8464V86.896H24.8624V76.448ZM32.4916 82.416V83.424H45.1476V82.416H39.4196V80.72H43.4996V75.504H42.2836V77.12H35.3716V75.504H34.1716V80.72H38.2196V82.416H32.4916ZM33.9156 85.808H42.3636V89.184H43.5796V84.832H33.9156V85.808ZM35.3716 79.728V78.064H42.2836V79.728H35.3716ZM49.9319 76.384V78.944C49.9319 81.52 48.2999 84.176 46.2839 85.2L47.0359 86.192C48.6039 85.344 49.9159 83.552 50.5399 81.488C51.1639 83.44 52.4599 85.104 53.9639 85.904L54.6999 84.944C52.7639 83.952 51.1319 81.424 51.1319 78.944V76.384H49.9319ZM55.9959 89.2H57.2119V81.904H59.5319V80.864H57.2119V75.168H55.9959V89.2Z" fill="white"/>
<path d="M27.5324 22.4365C25.5934 20.4975 22.4497 20.4975 20.5108 22.4365C18.5718 24.3754 18.5718 27.5191 20.5108 29.4581L22.3615 31.3087C24.3004 33.2477 27.4441 33.2477 29.383 31.3087C31.322 29.3698 31.322 26.2261 29.383 24.2872L27.5324 22.4365Z" fill="#797F83"/>
<path d="M26.7798 23.1888C25.2564 21.6653 22.7863 21.6653 21.2629 23.1888C19.7394 24.7123 19.7394 27.1823 21.2629 28.7057L23.1136 30.5564C24.637 32.0799 27.107 32.0799 28.6305 30.5564C30.154 29.033 30.154 26.5629 28.6305 25.0395L26.7798 23.1888Z" stroke="white" stroke-width="1.5"/>
<path d="M36.712 31.6181C34.7731 29.6792 31.6294 29.6792 29.6905 31.6181C27.7515 33.5571 27.7515 36.7007 29.6905 38.6397L31.5412 40.4904C33.4801 42.4293 36.6238 42.4293 38.5627 40.4904C40.5017 38.5514 40.5017 35.4078 38.5627 33.4688L36.712 31.6181Z" fill="#797F83"/>
<path d="M35.9595 32.3704C34.436 30.847 31.966 30.847 30.4426 32.3704C28.9191 33.8939 28.9191 36.3639 30.4426 37.8874L32.2932 39.7381C33.8167 41.2615 36.2867 41.2615 37.8102 39.7381C39.3337 38.2146 39.3337 35.7446 37.8102 34.2211L35.9595 32.3704Z" stroke="white" stroke-width="1.5"/>
<path d="M28.6389 27.7708C27.8079 26.9398 26.4606 26.9398 25.6296 27.7708C24.7986 28.6017 24.7986 29.949 25.6296 30.78L30.1435 35.2939C30.9745 36.1249 32.3218 36.1249 33.1527 35.2939C33.9837 34.4629 33.9837 33.1156 33.1527 32.2846L28.6389 27.7708Z" fill="white"/>
<path d="M27.8539 27.6822C27.195 27.0233 26.126 27.0239 25.4664 27.6835C24.8067 28.3432 24.8061 29.4121 25.4651 30.071L30.8341 35.4401C31.4931 36.099 32.562 36.0984 33.2216 35.4388C33.8813 34.7791 33.8819 33.7102 33.2229 33.0512L27.8539 27.6822Z" stroke="#797F83"/>
</svg>
