<svg width="60" height="94" viewBox="0 0 60 94" fill="none" xmlns="http://www.w3.org/2000/svg">
<circle cx="30" cy="30" r="30" fill="#FAE300"/>
<path fill-rule="evenodd" clip-rule="evenodd" d="M42.1905 30.4048C42.1905 36.1512 36.5514 40.8095 29.5952 40.8095C28.3399 40.8095 27.1274 40.6578 25.9832 40.3753L21.5126 42.7761C21.3569 42.8598 21.1771 42.715 21.2257 42.545L22.2748 38.8727C19.0813 36.9854 17 33.8958 17 30.4048C17 24.6584 22.6391 20 29.5952 20C36.5514 20 42.1905 24.6584 42.1905 30.4048Z" fill="#3C1E1E"/>
<path d="M9.85525 76.624H3.56725V77.632H8.65525C8.60725 78.496 8.46325 79.328 8.22325 80.128L2.86325 80.496L3.05525 81.584L7.85525 81.12C7.00725 83.008 5.43925 84.64 2.81525 85.904L3.48725 86.864C8.47925 84.368 9.85525 80.672 9.85525 76.624ZM12.1913 89.184H13.4073V81.904H15.6793V80.88H13.4073V75.152H12.1913V89.184ZM23.8396 76.624H17.5516V77.632H22.6396C22.5916 78.496 22.4476 79.328 22.2076 80.128L16.8476 80.496L17.0396 81.584L21.8396 81.12C20.9916 83.008 19.4236 84.64 16.7996 85.904L17.4716 86.864C22.4636 84.368 23.8396 80.672 23.8396 76.624ZM26.1756 89.184H27.3916V81.904H29.6636V80.88H27.3916V75.152H26.1756V89.184ZM36.96 76.112C34.016 76.112 31.888 77.552 31.888 79.76C31.888 81.824 33.728 83.2 36.352 83.392V86.368H30.64V87.392H43.328V86.368H37.552V83.392C40.192 83.216 42.048 81.84 42.048 79.76C42.048 77.552 39.92 76.112 36.96 76.112ZM33.056 79.76C33.056 78.16 34.72 77.088 36.96 77.088C39.216 77.088 40.848 78.16 40.848 79.76C40.848 81.376 39.216 82.432 36.96 82.432C34.72 82.432 33.056 81.376 33.056 79.76ZM44.6244 82.736V83.728H57.2644V82.736H51.5364V81.216H55.7764V80.272H47.5044V78.816H55.3284V77.872H47.5044V76.512H55.7124V75.552H46.2884V81.216H50.3364V82.736H44.6244ZM46.0484 85.984H54.4164V89.184H55.6324V84.992H46.0484V85.984Z" fill="white"/>
</svg>
