<svg width="60" height="94" viewBox="0 0 60 94" fill="none" xmlns="http://www.w3.org/2000/svg">
<circle cx="30" cy="30" r="30" fill="#3B5998"/>
<path d="M32.0953 44V31.2596H36.2411L36.86 26.2713H32.0995V23.0954C32.0995 21.6539 32.4887 20.6704 34.4797 20.6704H37V16.2165C35.7707 16.0815 34.5354 16.0156 33.2994 16.0192C32.4645 15.949 31.6251 16.0716 30.84 16.3783C30.0548 16.685 29.3429 17.1685 28.7541 17.7949C28.1652 18.4212 27.7137 19.1754 27.431 20.0045C27.1484 20.8336 27.0415 21.7177 27.1178 22.5948V26.2551H23V31.2493H27.129V44H32.0953Z" fill="white"/>
<path d="M13.4553 75.168V89.2H14.6393V75.168H13.4553ZM2.54325 84.672L2.68725 85.712C4.49525 85.712 7.42325 85.632 9.59925 85.232L9.53525 84.32C9.07125 84.384 8.57525 84.448 8.04725 84.496V77.968H9.21525V76.976H2.81525V77.968H3.99925V84.656L2.54325 84.672ZM5.11925 84.64V77.968H6.92725V84.576C6.31925 84.608 5.71125 84.624 5.11925 84.64ZM8.78325 81.6H10.7513V88.432H11.9033V75.52H10.7513V80.528H8.78325V81.6ZM26.8796 75.152V89.2H28.1116V75.152H26.8796ZM17.1836 81.12C17.1836 84.096 18.6716 86 20.7356 86C22.7996 86 24.2876 84.096 24.2876 81.12C24.2876 78.144 22.7996 76.256 20.7356 76.256C18.6716 76.256 17.1836 78.144 17.1836 81.12ZM18.3676 81.12C18.3676 78.832 19.3436 77.344 20.7356 77.344C22.1436 77.344 23.1196 78.832 23.1196 81.12C23.1196 83.424 22.1436 84.928 20.7356 84.928C19.3436 84.928 18.3676 83.424 18.3676 81.12ZM36.288 76.144V77.232C36.288 79.648 33.568 81.776 31.2 82.224L31.744 83.248C33.824 82.768 36.032 81.264 36.928 79.2C37.824 81.264 40.032 82.768 42.128 83.248L42.688 82.224C40.304 81.776 37.552 79.664 37.552 77.232V76.144H36.288ZM30.64 87.28H43.328V86.272H30.64V87.28ZM44.6244 82.032V83.024H50.3364V84.72H46.0484V85.696H54.4964V89.184H55.7124V84.72H51.5364V83.024H57.2804V82.032H44.6244ZM46.3044 80.72H55.6324V75.504H54.4164V77.12H47.5044V75.504H46.3044V80.72ZM47.5044 79.728V78.064H54.4164V79.728H47.5044Z" fill="white"/>
</svg>
