<svg width="83" height="94" viewBox="0 0 83 94" fill="none" xmlns="http://www.w3.org/2000/svg">
<circle cx="42" cy="30" r="30" fill="#FCCB00"/>
<path fill-rule="evenodd" clip-rule="evenodd" d="M37 17C35.8954 17 35 17.8954 35 19V29C35 30.1046 35.8954 31 37 31H42.5207C41.9791 33.4439 40.5422 35.9063 38.0955 37.6505C37.562 38.0308 37.444 38.8051 37.8981 39.2775L41.3326 42.8498C41.664 43.1946 42.194 43.2596 42.5781 42.9747C45.4855 40.8184 49.881 35.8535 49.9976 29.0982C49.9992 29.0657 50 29.0329 50 29V28.8274C50 28.8248 50 28.8222 50 28.8196V19C50 17.8954 49.1046 17 48 17H37Z" fill="white"/>
<path d="M7.87088 76.624H1.58288V77.632H6.67088C6.62288 78.496 6.47888 79.328 6.23888 80.128L0.878875 80.496L1.07088 81.584L5.87088 81.12C5.02288 83.008 3.45488 84.64 0.830875 85.904L1.50288 86.864C6.49488 84.368 7.87088 80.672 7.87088 76.624ZM10.2069 89.184H11.4229V81.904H13.6949V80.88H11.4229V75.152H10.2069V89.184ZM21.8553 76.624H15.5673V77.632H20.6553C20.6073 78.496 20.4633 79.328 20.2233 80.128L14.8633 80.496L15.0553 81.584L19.8553 81.12C19.0073 83.008 17.4393 84.64 14.8153 85.904L15.4873 86.864C20.4793 84.368 21.8553 80.672 21.8553 76.624ZM24.1913 89.184H25.4073V81.904H27.6793V80.88H25.4073V75.152H24.1913V89.184ZM34.9756 76.112C32.0316 76.112 29.9036 77.552 29.9036 79.76C29.9036 81.824 31.7436 83.2 34.3676 83.392V86.368H28.6556V87.392H41.3436V86.368H35.5676V83.392C38.2076 83.216 40.0636 81.84 40.0636 79.76C40.0636 77.552 37.9356 76.112 34.9756 76.112ZM31.0716 79.76C31.0716 78.16 32.7356 77.088 34.9756 77.088C37.2316 77.088 38.8636 78.16 38.8636 79.76C38.8636 81.376 37.2316 82.432 34.9756 82.432C32.7356 82.432 31.0716 81.376 31.0716 79.76ZM48.288 76.144V77.232C48.288 79.648 45.568 81.776 43.2 82.224L43.744 83.248C45.824 82.768 48.032 81.264 48.928 79.2C49.824 81.264 52.032 82.768 54.128 83.248L54.688 82.224C52.304 81.776 49.552 79.664 49.552 77.232V76.144H48.288ZM42.64 87.28H55.328V86.272H42.64V87.28ZM58.2724 76.32V83.472H62.3524V86.416H56.6244V87.424H69.3124V86.416H63.5524V83.472H67.8564V82.48H59.4884V80.32H67.4244V79.328H59.4884V77.328H67.7124V76.32H58.2724ZM80.8648 75.152V89.2H82.0648V75.152H80.8648ZM71.4088 77.488H76.6408V80.448H71.4408V85.792H72.5928C74.9768 85.792 77.1048 85.696 79.6488 85.28L79.5208 84.272C77.0408 84.704 74.9448 84.784 72.6568 84.784V81.456H77.8568V76.464H71.4088V77.488Z" fill="white"/>
</svg>
