<svg width="62" height="62" viewBox="0 0 62 62" fill="none" xmlns="http://www.w3.org/2000/svg">
<rect width="62" height="62" rx="31" fill="#F4F4F4"/>
<path fill-rule="evenodd" clip-rule="evenodd" d="M35.0597 18.1804C34.2136 17.3699 32.8749 17.3842 32.0464 18.2127C31.8519 18.4071 31.7025 18.6295 31.5979 18.8668C31.4933 18.6297 31.3439 18.4077 31.1497 18.2135C30.3209 17.3846 28.9815 17.3703 28.1351 18.1812L19.6191 26.3398H18.9492C17.8446 26.3398 16.9492 27.2353 16.9492 28.3398V28.8867C16.9492 29.9913 17.8447 30.8867 18.9492 30.8867H18.9934L20.8905 41.9193C21.1133 43.2149 22.2368 44.1617 23.5514 44.1617H39.4458C40.7604 44.1617 41.884 43.2149 42.1068 41.9193L44.0039 30.8867H44.0492C45.1538 30.8867 46.0492 29.9913 46.0492 28.8867V28.3398C46.0492 27.2353 45.1538 26.3398 44.0492 26.3398H43.5762L35.0597 18.1804ZM31.1526 21.2581C31.3458 21.0642 31.4945 20.8427 31.5985 20.6063C31.7025 20.8419 31.8508 21.0627 32.0435 21.2561L37.1079 26.3398H26.0903L31.1526 21.2581ZM33.0363 19.2026C33.3263 18.9126 33.795 18.9076 34.0911 19.1913L41.4519 26.2434L38.9871 26.2425L33.0353 20.268C32.7418 19.9734 32.7422 19.4967 33.0363 19.2026ZM29.1036 19.1921C29.4002 18.908 29.8694 18.913 30.1598 19.2034C30.4542 19.4978 30.4547 19.9751 30.1608 20.2701L24.2098 26.2439L21.7429 26.244L29.1036 19.1921ZM44.0492 27.7398H18.9492C18.6178 27.7398 18.3492 28.0085 18.3492 28.3398V28.8867C18.3492 29.2181 18.6178 29.4867 18.9492 29.4867H44.0492C44.3806 29.4867 44.6492 29.2181 44.6492 28.8867V28.3398C44.6492 28.0085 44.3806 27.7398 44.0492 27.7398ZM22.2702 41.682L20.4139 30.8867H42.5834L40.727 41.682C40.6198 42.3058 40.0788 42.7617 39.4458 42.7617H23.5514C22.9185 42.7617 22.3775 42.3058 22.2702 41.682ZM25.6787 31.8498C24.7398 31.8498 23.9787 32.6109 23.9787 33.5498V38.8248C23.9787 39.7637 24.7398 40.5248 25.6787 40.5248H26.4068C27.3457 40.5248 28.1068 39.7637 28.1068 38.8248V33.5498C28.1068 32.6109 27.3457 31.8498 26.4068 31.8498H25.6787ZM25.3787 33.5498C25.3787 33.3841 25.513 33.2498 25.6787 33.2498H26.4068C26.5725 33.2498 26.7068 33.3841 26.7068 33.5498V38.8248C26.7068 38.9905 26.5725 39.1248 26.4068 39.1248H25.6787C25.513 39.1248 25.3787 38.9905 25.3787 38.8248V33.5498ZM29.4348 33.5498C29.4348 32.6109 30.1959 31.8498 31.1348 31.8498H31.8629C32.8018 31.8498 33.5629 32.6109 33.5629 33.5498V38.8248C33.5629 39.7637 32.8018 40.5248 31.8629 40.5248H31.1348C30.1959 40.5248 29.4348 39.7637 29.4348 38.8248V33.5498ZM31.1348 33.2498C30.9691 33.2498 30.8348 33.3841 30.8348 33.5498V38.8248C30.8348 38.9905 30.9691 39.1248 31.1348 39.1248H31.8629C32.0286 39.1248 32.1629 38.9905 32.1629 38.8248V33.5498C32.1629 33.3841 32.0286 33.2498 31.8629 33.2498H31.1348ZM36.5918 31.8498C35.6529 31.8498 34.8918 32.6109 34.8918 33.5498V38.8248C34.8918 39.7637 35.6529 40.5248 36.5918 40.5248H37.3199C38.2588 40.5248 39.0199 39.7637 39.0199 38.8248V33.5498C39.0199 32.6109 38.2588 31.8498 37.3199 31.8498H36.5918ZM36.2918 33.5498C36.2918 33.3841 36.4261 33.2498 36.5918 33.2498H37.3199C37.4856 33.2498 37.6199 33.3841 37.6199 33.5498V38.8248C37.6199 38.9905 37.4856 39.1248 37.3199 39.1248H36.5918C36.4261 39.1248 36.2918 38.9905 36.2918 38.8248V33.5498Z" fill="#343434"/>
<path d="M22.9 36.3H21.6815C21.2396 36.3 20.8815 36.6582 20.8815 37.1V40.0035L18.4921 36.637C18.3421 36.4256 18.099 36.3 17.8397 36.3H16.1C15.6582 36.3 15.3 36.6582 15.3 37.1V43.9C15.3 44.3418 15.6582 44.7 16.1 44.7H17.3278C17.7696 44.7 18.1278 44.3418 18.1278 43.9V41.0368L20.4194 44.3546C20.5687 44.5709 20.8148 44.7 21.0776 44.7H22.9C23.3418 44.7 23.7 44.3418 23.7 43.9V37.1C23.7 36.6582 23.3418 36.3 22.9 36.3Z" fill="#343434" stroke="#F4F4F4" stroke-width="1.4"/>
</svg>
