<svg width="62" height="62" viewBox="0 0 62 62" fill="none" xmlns="http://www.w3.org/2000/svg">
<rect width="62" height="62" rx="31" fill="#F4F4F4"/>
<path fill-rule="evenodd" clip-rule="evenodd" d="M31.6584 19.3806C31.7459 19.2535 31.8428 19.1293 31.95 19.0098C32.6719 18.2055 33.7994 17.6864 35.3935 17.8764C35.4235 17.88 35.4532 17.8855 35.4825 17.8929C35.9845 18.0201 36.7032 18.3372 37.3091 18.8959C37.9294 19.4678 38.449 20.3135 38.449 21.4539C38.449 21.4703 38.4484 21.4867 38.4473 21.5031C38.4082 22.0581 38.2363 22.8931 37.829 23.6338C37.6521 23.9556 37.4199 24.2765 37.1232 24.5468H42.8451C43.3974 24.5468 43.8451 24.9945 43.8451 25.5468V28.83C43.8451 29.3572 43.4371 29.7891 42.9197 29.8272V41.3292C42.9197 42.8203 41.7109 44.0292 40.2197 44.0292H33.6855H29.6221H22.6807C21.1895 44.0292 19.9807 42.8203 19.9807 41.3292V29.83H19.6484C19.0962 29.83 18.6484 29.3823 18.6484 28.83V25.5468C18.6484 24.9945 19.0962 24.5468 19.6484 24.5468H26.2648C25.93 24.2667 25.6717 23.922 25.4785 23.5752C25.0702 22.8421 24.8977 22.0156 24.8584 21.4657C24.8572 21.4491 24.8566 21.4325 24.8566 21.4158C24.8566 20.2838 25.3794 19.4461 25.9999 18.8814C26.6062 18.3297 27.3245 18.0172 27.8252 17.892C27.8542 17.8847 27.8836 17.8793 27.9132 17.8759C29.5036 17.6888 30.6297 18.1993 31.3526 18.9942C31.4656 19.1185 31.5673 19.248 31.6584 19.3806ZM32.9919 19.9449C33.3856 19.5063 34.0403 19.1373 35.1806 19.2612C35.4932 19.3482 35.968 19.5636 36.3601 19.9251C36.751 20.2856 37.0419 20.7706 37.0489 21.4295C37.0167 21.8357 36.8835 22.4478 36.6022 22.9593C36.3191 23.4742 35.9449 23.7949 35.4433 23.8457C34.2811 23.9634 33.1131 23.9423 32.3531 23.8971V21.4771C32.384 21.0463 32.5671 20.4183 32.9919 19.9449ZM28.1234 19.261C29.2677 19.1381 29.924 19.5041 30.3168 19.9361C30.7399 20.4014 30.9218 21.0178 30.9526 21.4394V23.8181C30.1922 23.8628 29.0239 23.8835 27.8615 23.7673C27.3562 23.7168 26.9827 23.3986 26.7016 22.8938C26.4216 22.3913 26.2889 21.79 26.2568 21.3912C26.264 20.7477 26.5517 20.2722 26.9422 19.9169C27.3342 19.5601 27.8097 19.3471 28.1234 19.261ZM34.1447 25.9468H28.8357V28.43H34.1447V25.9468ZM35.5447 28.43V25.9468H42.4451V28.43H35.5447ZM20.0484 25.9468H27.4357V28.43H20.0484V25.9468ZM34.3855 42.6292H40.2197C40.9377 42.6292 41.5197 42.0471 41.5197 41.3292V29.83H34.3855V42.6292ZM32.9855 29.83V42.6292H30.3221V29.83H32.9855ZM28.9221 42.6292V29.83H21.3807V41.3292C21.3807 42.0471 21.9627 42.6292 22.6807 42.6292H28.9221Z" fill="#343434"/>
</svg>
