<svg width="32" height="36" viewBox="0 0 32 36" fill="none" xmlns="http://www.w3.org/2000/svg">
<path fill-rule="evenodd" clip-rule="evenodd" d="M23.4583 11.3942C23.7129 11.1412 23.7142 10.7296 23.4611 10.475C23.208 10.2204 22.7965 10.2191 22.5419 10.4722L16.0001 16.9742L9.45832 10.4722C9.2037 10.2191 8.79215 10.2204 8.53908 10.475C8.28601 10.7296 8.28727 11.1412 8.54188 11.3942L15.078 17.8907L8.54188 24.3872C8.28727 24.6402 8.28601 25.0518 8.53908 25.3064C8.79215 25.561 9.2037 25.5623 9.45832 25.3092L16.0001 18.8071L22.5419 25.3092C22.7965 25.5623 23.208 25.561 23.4611 25.3064C23.7142 25.0518 23.7129 24.6402 23.4583 24.3872L16.9221 17.8907L23.4583 11.3942Z" fill="#1A1A1A"/>
</svg>
