<svg width="32" height="36" viewBox="0 0 32 36" fill="none" xmlns="http://www.w3.org/2000/svg">
<path fill-rule="evenodd" clip-rule="evenodd" d="M23.4578 11.3942C23.7124 11.1412 23.7137 10.7296 23.4606 10.475C23.2076 10.2204 22.796 10.2191 22.5414 10.4722L15.9996 16.9742L9.45783 10.4722C9.20321 10.2191 8.79166 10.2204 8.53859 10.475C8.28553 10.7296 8.28678 11.1412 8.54139 11.3942L15.0776 17.8907L8.54139 24.3872C8.28678 24.6402 8.28553 25.0518 8.53859 25.3064C8.79166 25.561 9.20321 25.5623 9.45783 25.3092L15.9996 18.8071L22.5414 25.3092C22.796 25.5623 23.2076 25.561 23.4606 25.3064C23.7137 25.0518 23.7124 24.6402 23.4578 24.3872L16.9217 17.8907L23.4578 11.3942Z" fill="#1A1A1A"/>
</svg>
