<svg width="32" height="35" viewBox="0 0 32 35" fill="none" xmlns="http://www.w3.org/2000/svg">
<path fill-rule="evenodd" clip-rule="evenodd" d="M9.45271 10.2289C9.19532 9.97863 8.7838 9.98443 8.53356 10.2418C8.28332 10.4992 8.28912 10.9107 8.54651 11.161L15.0671 17.5005L8.54651 23.84C8.28912 24.0902 8.28332 24.5017 8.53356 24.7591C8.7838 25.0165 9.19532 25.0223 9.45271 24.7721L15.9996 18.407L22.5465 24.7721C22.8039 25.0223 23.2154 25.0165 23.4657 24.7591C23.7159 24.5017 23.7101 24.0902 23.4527 23.84L16.9321 17.5005L23.4527 11.161C23.7101 10.9107 23.7159 10.4992 23.4657 10.2418C23.2154 9.98443 22.8039 9.97863 22.5465 10.2289L15.9996 16.5939L9.45271 10.2289Z" fill="#1A1A1A"/>
</svg>
