<svg width="32" height="36" viewBox="0 0 32 36" fill="none" xmlns="http://www.w3.org/2000/svg">
<path fill-rule="evenodd" clip-rule="evenodd" d="M23.4597 11.4592C23.7136 11.2054 23.7136 10.7938 23.4597 10.54C23.2059 10.2861 22.7943 10.2861 22.5405 10.54L16.0001 17.0804L9.45972 10.54C9.20588 10.2861 8.79432 10.2861 8.54048 10.54C8.28664 10.7938 8.28664 11.2054 8.54048 11.4592L15.0809 17.9996L8.54048 24.54C8.28664 24.7938 8.28664 25.2054 8.54048 25.4592C8.79432 25.7131 9.20588 25.7131 9.45972 25.4592L16.0001 18.9188L22.5405 25.4592C22.7943 25.7131 23.2059 25.7131 23.4597 25.4592C23.7136 25.2054 23.7136 24.7938 23.4597 24.54L16.9193 17.9996L23.4597 11.4592Z" fill="#1A1A1A"/>
</svg>
