<svg width="16" height="16" viewBox="0 0 16 16" fill="none" xmlns="http://www.w3.org/2000/svg">
<path fill-rule="evenodd" clip-rule="evenodd" d="M15.4592 1.45923C15.7131 1.20539 15.7131 0.793831 15.4592 0.53999C15.2054 0.286149 14.7938 0.286149 14.54 0.53999L7.99961 7.08037L1.45923 0.53999C1.20539 0.286149 0.793831 0.286149 0.53999 0.53999C0.286149 0.793831 0.286149 1.20539 0.53999 1.45923L7.08037 7.99961L0.53999 14.54C0.286149 14.7938 0.286149 15.2054 0.53999 15.4592C0.79383 15.7131 1.20539 15.7131 1.45923 15.4592L7.99961 8.91885L14.54 15.4592C14.7938 15.7131 15.2054 15.7131 15.4592 15.4592C15.7131 15.2054 15.7131 14.7938 15.4592 14.54L8.91885 7.99961L15.4592 1.45923Z" fill="#1A1A1A"/>
</svg>
