<svg width="32" height="36" viewBox="0 0 32 36" fill="none" xmlns="http://www.w3.org/2000/svg">
<path fill-rule="evenodd" clip-rule="evenodd" d="M23.4592 11.4592C23.7131 11.2054 23.7131 10.7938 23.4592 10.54C23.2054 10.2861 22.7938 10.2861 22.54 10.54L15.9996 17.0804L9.45923 10.54C9.20539 10.2861 8.79383 10.2861 8.53999 10.54C8.28615 10.7938 8.28615 11.2054 8.53999 11.4592L15.0804 17.9996L8.53999 24.54C8.28615 24.7938 8.28615 25.2054 8.53999 25.4592C8.79383 25.7131 9.20539 25.7131 9.45923 25.4592L15.9996 18.9188L22.54 25.4592C22.7938 25.7131 23.2054 25.7131 23.4592 25.4592C23.7131 25.2054 23.7131 24.7938 23.4592 24.54L16.9188 17.9996L23.4592 11.4592Z" fill="#1A1A1A"/>
</svg>
