<svg width="14" height="14" viewBox="0 0 14 14" fill="none" xmlns="http://www.w3.org/2000/svg">
<path fill-rule="evenodd" clip-rule="evenodd" d="M2.10962 1.19038C1.85578 0.93654 1.44422 0.93654 1.19038 1.19038C0.93654 1.44422 0.93654 1.85578 1.19038 2.10962L6.17802 7.09726L1.19046 12.0848C0.936616 12.3387 0.936616 12.7502 1.19046 13.0041C1.4443 13.2579 1.85585 13.2579 2.1097 13.0041L7.09726 8.0165L12.0848 13.0041C12.3387 13.2579 12.7502 13.2579 13.0041 13.0041C13.2579 12.7502 13.2579 12.3387 13.0041 12.0848L8.0165 7.09726L13.0041 2.10962C13.258 1.85578 13.258 1.44422 13.0041 1.19038C12.7503 0.93654 12.3387 0.93654 12.0849 1.19038L7.09726 6.17802L2.10962 1.19038Z" fill="#919191"/>
</svg>
