<svg width="16" height="16" viewBox="0 0 16 16" fill="none" xmlns="http://www.w3.org/2000/svg">
<path fill-rule="evenodd" clip-rule="evenodd" d="M15.4597 1.45923C15.7136 1.20539 15.7136 0.793831 15.4597 0.53999C15.2059 0.286149 14.7943 0.286149 14.5405 0.53999L8.0001 7.08037L1.45972 0.53999C1.20588 0.286149 0.794319 0.286149 0.540478 0.53999C0.286638 0.793831 0.286638 1.20539 0.540478 1.45923L7.08086 7.99961L0.540478 14.54C0.286638 14.7938 0.286638 15.2054 0.540478 15.4592C0.794318 15.7131 1.20588 15.7131 1.45972 15.4592L8.0001 8.91885L14.5405 15.4592C14.7943 15.7131 15.2059 15.7131 15.4597 15.4592C15.7136 15.2054 15.7136 14.7938 15.4597 14.54L8.91934 7.99961L15.4597 1.45923Z" fill="white"/>
</svg>
