<svg width="9" height="6" viewBox="0 0 9 6" fill="none" xmlns="http://www.w3.org/2000/svg">
<path d="M1.375 0.655606C1.19234 0.448501 0.876381 0.428679 0.669277 0.611333C0.462172 0.793987 0.44235 1.10995 0.625004 1.31705L1.375 0.655606ZM8.37758 1.31409C8.5586 1.10556 8.5363 0.789764 8.32777 0.608745C8.11923 0.427724 7.80344 0.450028 7.62242 0.658562L8.37758 1.31409ZM4.60267 4.90002L4.98026 5.22779L4.60267 4.90002ZM0.625004 1.31705L4.07716 5.23134L4.82715 4.56989L1.375 0.655606L0.625004 1.31705ZM4.98026 5.22779L8.37758 1.31409L7.62242 0.658562L4.22509 4.57225L4.98026 5.22779ZM4.07716 5.23134C4.31728 5.5036 4.74228 5.50193 4.98026 5.22779L4.22509 4.57225C4.38374 4.38949 4.66707 4.38838 4.82715 4.56989L4.07716 5.23134Z" fill="#797979"/>
</svg>
