<svg width="80" height="80" viewBox="0 0 80 80" fill="none" xmlns="http://www.w3.org/2000/svg">
<circle cx="40" cy="40" r="39.5" stroke="#D8D8D8"/>
<circle cx="33.3039" cy="52.8694" r="3.13108" fill="#919191"/>
<circle cx="47.4397" cy="52.8694" r="3.13108" fill="#919191"/>
<path d="M49.7199 46.3452H31.3674C30.9015 46.3452 30.4974 46.0235 30.3929 45.5695L27.4503 32.7857H52.4397C53.0846 32.7857 53.5608 33.387 53.4132 34.0147L50.6933 45.5743C50.587 46.026 50.1839 46.3452 49.7199 46.3452Z" fill="#919191"/>
<path d="M21 28H25.0748C25.5004 28 25.8794 28.2694 26.0193 28.6715L27.4503 32.7857M27.4503 32.7857L30.3929 45.5695C30.4974 46.0235 30.9015 46.3452 31.3674 46.3452H49.7199C50.1839 46.3452 50.587 46.026 50.6933 45.5743L53.4132 34.0147C53.5608 33.387 53.0846 32.7857 52.4397 32.7857H27.4503Z" stroke="#919191" stroke-width="1.2"/>
<circle cx="36" cy="39" r="1" fill="white"/>
<circle cx="41" cy="39" r="1" fill="white"/>
<circle cx="46" cy="39" r="1" fill="white"/>
</svg>
