<svg width="140" height="140" viewBox="0 0 140 140" fill="none" xmlns="http://www.w3.org/2000/svg">
<circle opacity="0.6" cx="70" cy="70" r="70" fill="#1A1A1A"/>
<ellipse cx="62.2613" cy="53.0524" rx="3.20413" ry="3.15789" stroke="white" stroke-width="1.6"/>
<ellipse cx="76.6797" cy="53.0524" rx="3.20413" ry="3.15789" stroke="white" stroke-width="1.6"/>
<path d="M49.4443 27.79H53.6559C54.082 27.79 54.4613 28.06 54.6008 28.4627L56.0803 32.7328M56.0803 32.7328L59.1132 45.9609C59.2173 46.4153 59.6217 46.7374 60.0879 46.7374H79.0127C79.4771 46.7374 79.8804 46.4177 79.9864 45.9656L82.7999 33.961C82.947 33.3335 82.4708 32.7328 81.8263 32.7328H56.0803Z" stroke="white" stroke-width="1.6"/>
<path d="M65.4648 39.2372L69.0381 42.4067C69.2793 42.6207 69.6464 42.6058 69.8695 42.373L76.2788 35.6846" stroke="white" stroke-width="1.6" stroke-linecap="round"/>
<path d="M32.5177 69.682V70.564H35.2897V71.096C35.2897 72.874 34.0157 74.456 32.1957 75.086L32.7557 75.94C34.1977 75.408 35.3177 74.316 35.8357 72.902C36.3677 74.134 37.4317 75.1 38.8037 75.562L39.3217 74.736C37.5437 74.148 36.3537 72.706 36.3537 71.082V70.564H39.0837V69.682H32.5177ZM33.8197 78.754C33.8197 80.168 35.3457 81.008 37.8377 81.008C40.3157 81.008 41.8557 80.168 41.8557 78.754C41.8557 77.34 40.3157 76.514 37.8377 76.514C35.3457 76.514 33.8197 77.34 33.8197 78.754ZM34.8557 78.754C34.8557 77.872 36.0037 77.368 37.8377 77.368C39.6717 77.368 40.8057 77.872 40.8057 78.754C40.8057 79.622 39.6717 80.154 37.8377 80.154C36.0037 80.154 34.8557 79.622 34.8557 78.754ZM40.6657 76.164H41.7437V72.804H43.5637V71.908H41.7437V68.772H40.6657V76.164ZM52.7901 68.772V81.05H53.8681V74.526H55.8841V73.616H53.8681V68.772H52.7901ZM44.9501 78.082H50.6621V69.808H49.5981V73.084H46.0141V69.808H44.9501V78.082ZM46.0141 77.2V73.924H49.5981V77.2H46.0141ZM58.1244 69.57V70.424H65.2784V70.634C65.2784 71.782 65.2784 73.098 64.9004 74.848H56.7104V75.716H61.6944V81.036H62.7584V75.716H67.7844V74.848H65.9644C66.3144 73.084 66.3144 71.81 66.3144 70.634V69.57H58.1244ZM77.9207 68.758V81.036H78.9707V68.758H77.9207ZM69.7447 77.858H70.7387C72.6707 77.858 74.6167 77.718 76.7447 77.27L76.6047 76.36C74.5467 76.78 72.6567 76.92 70.7947 76.92V69.962H69.7447V77.858ZM92.8236 68.772V75.716H93.9016V72.664H95.7216V71.796H93.9016V68.772H92.8236ZM84.9696 75.002H85.9076C88.4696 75.002 89.9256 74.932 91.6196 74.582L91.5076 73.714C89.8836 74.036 88.4696 74.12 86.0196 74.12V70.466H90.3596V69.598H84.9696V75.002ZM86.2296 80.854H93.9016V76.388H86.2296V80.854ZM87.2656 80V77.242H92.8516V80H87.2656ZM105.648 68.758V81.036H106.698V68.758H105.648ZM96.8279 77.872L97.3879 78.726C101.462 76.724 103.1 73.616 103.1 70.088H97.3739V70.97H102.022C101.798 73.91 100.118 76.29 96.8279 77.872Z" fill="white"/>
<path d="M53.1314 98.376V108.9H54.0554V103.308H55.7834V102.528H54.0554V98.376H53.1314ZM46.4114 106.356H51.3074V99.264H50.3954V102.072H47.3234V99.264H46.4114V106.356ZM47.3234 105.6V102.792H50.3954V105.6H47.3234ZM56.4917 106.824V107.58H66.0077V106.824H61.6757V104.82H65.0717V104.076H58.5917V102.324H64.8317V99.156H57.6677V99.912H63.9197V101.592H57.6917V104.82H60.7757V106.824H56.4917ZM74.12 98.364V108.888H75.032V103.428H76.736V102.66H75.032V98.364H74.12ZM67.064 106.164L67.568 106.872C70.952 105.18 72.332 102.48 72.332 99.504H67.532V100.26H71.42C71.216 102.756 69.752 104.808 67.064 106.164ZM85.1843 98.364V108.888H86.0843V98.364H85.1843ZM77.6243 106.176L78.1043 106.908C81.5963 105.192 83.0003 102.528 83.0003 99.504H78.0923V100.26H82.0763C81.8843 102.78 80.4443 104.82 77.6243 106.176Z" fill="white"/>
<path d="M91.5 101.5L94.5 104L91.5 101.5ZM91.5 106.5L94.5 104L91.5 106.5Z" stroke="#F9F9F9" stroke-width="0.8" stroke-linecap="round" stroke-linejoin="round"/>
<rect x="39.8" y="93.3" width="60.4" height="21.4" rx="5.7" stroke="white" stroke-width="0.6"/>
</svg>
