<svg width="140" height="140" viewBox="0 0 140 140" fill="none" xmlns="http://www.w3.org/2000/svg">
<circle cx="70" cy="70" r="70" fill="black" fill-opacity="0.6"/>
<ellipse cx="61.2136" cy="69.2631" rx="3.84496" ry="3.78947" stroke="white" stroke-width="1.6"/>
<ellipse cx="78.5159" cy="69.2631" rx="3.84496" ry="3.78947" stroke="white" stroke-width="1.6"/>
<path d="M45.833 38.9482H51.0293C51.4554 38.9482 51.8347 39.2182 51.9742 39.6209L53.7961 44.8796M53.7961 44.8796L57.4712 60.9086C57.5754 61.363 57.9797 61.6851 58.4459 61.6851H81.4736C81.938 61.6851 82.3413 61.3654 82.4473 60.9133L85.9172 46.1078C86.0643 45.4803 85.5881 44.8796 84.9436 44.8796H53.7961Z" stroke="white" stroke-width="1.6"/>
<path d="M65.0576 52.6841L69.4319 56.5641C69.6731 56.778 70.0402 56.7631 70.2633 56.5304L78.0344 48.4209" stroke="white" stroke-width="1.6" stroke-linecap="round"/>
<path d="M54.4801 85.772V88.796H56.3001V89.65H54.4801V92.716H53.4301V85.772H54.4801ZM45.5761 86.598H50.9521V87.452H46.6121V91.12C47.9001 91.12 48.9361 91.092 49.7201 91.036C50.5134 90.98 51.3021 90.8727 52.0861 90.714L52.2121 91.568C51.3907 91.736 50.5694 91.848 49.7481 91.904C48.9361 91.96 47.8581 91.988 46.5141 91.988H45.5761V86.598ZM46.8221 93.374H54.4801V97.84H46.8221V93.374ZM53.4441 96.986V94.214H47.8441V96.986H53.4441ZM67.2344 85.772V98.022H66.1844V85.772H67.2344ZM57.3644 94.872C58.9884 94.0973 60.2297 93.1267 61.0884 91.96C61.9564 90.784 62.4464 89.4493 62.5584 87.956H57.9104V87.088H63.6224C63.6224 88.936 63.1604 90.5973 62.2364 92.072C61.3217 93.5373 59.8844 94.7507 57.9244 95.712L57.3644 94.872ZM76.3833 86.346C76.9713 86.346 77.4893 86.4487 77.9373 86.654C78.3946 86.85 78.7493 87.13 79.0013 87.494C79.2626 87.858 79.3933 88.278 79.3933 88.754C79.3933 89.3887 79.1693 89.9207 78.7213 90.35C78.2733 90.77 77.6806 91.0267 76.9433 91.12V92.352C78.2219 92.2867 79.3419 92.1793 80.3033 92.03L80.3873 92.8C79.2579 93.0147 78.0726 93.1547 76.8313 93.22C75.5899 93.276 74.2459 93.304 72.7993 93.304L72.6593 92.436C74.0406 92.436 75.1186 92.422 75.8933 92.394V91.12C75.1373 91.0453 74.5259 90.7933 74.0593 90.364C73.6019 89.9347 73.3733 89.398 73.3733 88.754C73.3733 88.278 73.4993 87.858 73.7513 87.494C74.0126 87.13 74.3673 86.85 74.8153 86.654C75.2726 86.4487 75.7953 86.346 76.3833 86.346ZM74.3673 88.754C74.3673 89.23 74.5539 89.6173 74.9273 89.916C75.3006 90.2053 75.7859 90.35 76.3833 90.35C76.9899 90.35 77.4799 90.2053 77.8533 89.916C78.2266 89.6173 78.4133 89.23 78.4133 88.754C78.4133 88.2873 78.2219 87.9047 77.8393 87.606C77.4659 87.3073 76.9806 87.158 76.3833 87.158C75.7859 87.158 75.3006 87.3073 74.9273 87.606C74.5539 87.9047 74.3673 88.2873 74.3673 88.754ZM74.4513 94.354H75.5013V96.86H82.5713V97.728H74.4513V94.354ZM81.0873 85.786H82.1373V89.944H83.9713V90.826H82.1373V95.152H81.0873V85.786ZM88.0456 95.614V93.248H86.3096V89.496H93.5896V87.536H86.2816V86.682H94.6256V90.336H87.3456V92.38H94.9056V93.248H92.9876V95.614H96.0116V96.482H84.9096V95.614H88.0456ZM91.9656 95.614V93.248H89.0816V95.614H91.9656Z" fill="white"/>
</svg>
