<svg width="328" height="116" viewBox="0 0 328 116" fill="none" xmlns="http://www.w3.org/2000/svg">
<g clip-path="url(#clip0_1588_4081)">
<mask id="path-1-inside-1_1588_4081" fill="white">
<path fill-rule="evenodd" clip-rule="evenodd" d="M6 0.994141C2.68629 0.994141 0 3.68043 0 6.99414V45.9941C7.09203 45.9943 12.8412 51.8145 12.8412 58.9941C12.8412 66.1738 7.09203 71.994 0 71.9941V108.994C0 112.308 2.68629 114.994 6 114.994H318C321.314 114.994 324 112.308 324 108.994V6.99414C324 3.68043 321.314 0.994141 318 0.994141H6Z"/>
</mask>
<path fill-rule="evenodd" clip-rule="evenodd" d="M6 0.994141C2.68629 0.994141 0 3.68043 0 6.99414V45.9941C7.09203 45.9943 12.8412 51.8145 12.8412 58.9941C12.8412 66.1738 7.09203 71.994 0 71.9941V108.994C0 112.308 2.68629 114.994 6 114.994H318C321.314 114.994 324 112.308 324 108.994V6.99414C324 3.68043 321.314 0.994141 318 0.994141H6Z" fill="white"/>
<path d="M0 45.9941H-1V46.9941L-1.93639e-05 46.9941L0 45.9941ZM0 71.9941L-1.93639e-05 70.9941L-1 70.9942V71.9941H0ZM1 6.99414C1 4.23271 3.23858 1.99414 6 1.99414V-0.00585938C2.13401 -0.00585938 -1 3.12814 -1 6.99414H1ZM1 45.9941V6.99414H-1V45.9941H1ZM-1.93639e-05 46.9941C6.5282 46.9943 11.8412 52.3552 11.8412 58.9941H13.8412C13.8412 51.2738 7.65586 44.9943 1.93639e-05 44.9941L-1.93639e-05 46.9941ZM11.8412 58.9941C11.8412 65.6331 6.5282 70.994 -1.93639e-05 70.9941L1.93639e-05 72.9941C7.65586 72.994 13.8412 66.7144 13.8412 58.9941H11.8412ZM1 108.994V71.9941H-1V108.994H1ZM6 113.994C3.23857 113.994 1 111.756 1 108.994H-1C-1 112.86 2.134 115.994 6 115.994V113.994ZM318 113.994H6V115.994H318V113.994ZM323 108.994C323 111.756 320.761 113.994 318 113.994V115.994C321.866 115.994 325 112.86 325 108.994H323ZM323 6.99414V108.994H325V6.99414H323ZM318 1.99414C320.761 1.99414 323 4.23272 323 6.99414H325C325 3.12815 321.866 -0.00585938 318 -0.00585938V1.99414ZM6 1.99414H318V-0.00585938H6V1.99414Z" fill="#E7342C" mask="url(#path-1-inside-1_1588_4081)"/>
<path d="M284 1.99414H318C321.314 1.99414 324 4.68043 324 7.99414V108.994C324 112.308 321.314 114.994 318 114.994H284V1.99414Z" fill="#E7342C"/>
</g>
<defs>
<clipPath id="clip0_1588_4081">
<rect width="328" height="115" fill="white" transform="translate(0 0.994141)"/>
</clipPath>
</defs>
</svg>
