<svg width="80" height="80" viewBox="0 0 80 80" fill="none" xmlns="http://www.w3.org/2000/svg">
<g clip-path="url(#clip0_147_59065)">
<circle cx="40" cy="40" r="39.5" stroke="white"/>
<path d="M34.8717 28.14V29.904H39.8837V30.758H28.8237V29.904H33.8217V28.14H34.8717ZM29.4537 27.888C30.163 27.8133 30.8397 27.6547 31.4837 27.412C32.1277 27.16 32.6503 26.8427 33.0517 26.46C33.453 26.068 33.663 25.648 33.6817 25.2H29.8457V24.36H38.8897V25.2H35.0397C35.0583 25.648 35.2683 26.068 35.6697 26.46C36.071 26.8427 36.5937 27.16 37.2377 27.412C37.8817 27.6547 38.5583 27.8133 39.2677 27.888L38.8897 28.728C37.863 28.5973 36.9343 28.3173 36.1037 27.888C35.273 27.4493 34.6943 26.9033 34.3677 26.25C34.041 26.9033 33.4623 27.4493 32.6317 27.888C31.8103 28.3173 30.877 28.5973 29.8317 28.728L29.4537 27.888ZM30.1677 33.894C30.1677 33.222 30.5317 32.704 31.2597 32.34C31.997 31.976 33.0283 31.794 34.3537 31.794C35.6697 31.794 36.6963 31.976 37.4337 32.34C38.171 32.704 38.5397 33.222 38.5397 33.894C38.5397 34.566 38.171 35.084 37.4337 35.448C36.6963 35.812 35.6697 35.994 34.3537 35.994C33.0283 35.994 31.997 35.812 31.2597 35.448C30.5317 35.084 30.1677 34.566 30.1677 33.894ZM31.2177 33.894C31.2177 34.3047 31.493 34.622 32.0437 34.846C32.5943 35.07 33.3643 35.182 34.3537 35.182C35.343 35.182 36.1083 35.07 36.6497 34.846C37.2003 34.622 37.4757 34.3047 37.4757 33.894C37.4757 33.4927 37.2003 33.18 36.6497 32.956C36.099 32.732 35.3337 32.62 34.3537 32.62C33.3643 32.62 32.5943 32.732 32.0437 32.956C31.493 33.18 31.2177 33.4927 31.2177 33.894ZM44.196 33.614V31.248H42.46V27.496H49.74V25.536H42.432V24.682H50.776V28.336H43.496V30.38H51.056V31.248H49.138V33.614H52.162V34.482H41.06V33.614H44.196ZM48.116 33.614V31.248H45.232V33.614H48.116ZM32.7015 44.758V57.036H31.6515V44.758H32.7015ZM23.1535 49.98C23.1535 49.1307 23.2842 48.384 23.5455 47.74C23.8068 47.096 24.1708 46.6013 24.6375 46.256C25.1135 45.9013 25.6548 45.724 26.2615 45.724C26.8588 45.724 27.3908 45.9013 27.8575 46.256C28.3335 46.6013 28.7022 47.096 28.9635 47.74C29.2248 48.384 29.3555 49.1307 29.3555 49.98C29.3555 50.8293 29.2248 51.5807 28.9635 52.234C28.7022 52.878 28.3335 53.3773 27.8575 53.732C27.3908 54.0773 26.8588 54.25 26.2615 54.25C25.6548 54.25 25.1135 54.0773 24.6375 53.732C24.1708 53.3773 23.8068 52.878 23.5455 52.234C23.2842 51.59 23.1535 50.8387 23.1535 49.98ZM24.1755 49.98C24.1755 50.6427 24.2642 51.226 24.4415 51.73C24.6188 52.234 24.8615 52.626 25.1695 52.906C25.4868 53.1767 25.8508 53.312 26.2615 53.312C26.6628 53.312 27.0222 53.1767 27.3395 52.906C27.6568 52.626 27.9042 52.234 28.0815 51.73C28.2588 51.2167 28.3475 50.6333 28.3475 49.98C28.3475 49.3267 28.2588 48.748 28.0815 48.244C27.9042 47.74 27.6568 47.3527 27.3395 47.082C27.0222 46.802 26.6628 46.662 26.2615 46.662C25.8508 46.662 25.4868 46.802 25.1695 47.082C24.8615 47.3527 24.6188 47.74 24.4415 48.244C24.2642 48.7387 24.1755 49.3173 24.1755 49.98ZM45.2598 44.772V54.068H44.2518V44.772H45.2598ZM35.5158 45.752H36.4958V47.838H39.2398V45.752H40.2338V48.342H41.9278V45.01H42.9358V53.718H41.9278V49.196H40.2338V51.73H35.5158V45.752ZM39.2398 50.876V48.678H36.4958V50.876H39.2398ZM37.2938 52.808H38.3438V55.874H45.6238V56.742H37.2938V52.808ZM56.8802 45.836V46.69H49.6842V48.566H56.6142V49.42H49.6842V51.394H57.0062V52.262H48.6202V45.836H56.8802ZM47.1782 54.544H58.2802V55.412H47.1782V54.544Z" fill="white"/>
</g>
<defs>
<clipPath id="clip0_147_59065">
<rect width="80" height="80" fill="white"/>
</clipPath>
</defs>
</svg>
