<?xml version="1.0" encoding="utf-8"?>
<!-- Generator: Adobe Illustrator 26.2.1, SVG Export Plug-In . SVG Version: 6.00 Build 0)  -->
<svg version="1.1" id="레이어_1" xmlns="http://www.w3.org/2000/svg" xmlns:xlink="http://www.w3.org/1999/xlink" x="0px"
	 y="0px" viewBox="0 0 292 114" style="enable-background:new 0 0 292 114;" xml:space="preserve">
<style type="text/css">
	.st0{fill-rule:evenodd;clip-rule:evenodd;fill:#FFFFFF;}
	.st1{fill-rule:evenodd;clip-rule:evenodd;fill:#FFFFFF;filter:url(#Adobe_OpacityMaskFilter);}
	.st2{mask:url(#path-1-inside-1_970_19728_00000044150335071734933900000012363968430911059374_);fill:#FF5C38;}
	.st3{fill:#FF5C38;}
</style>
<g id="coupon">
	<g id="coupon_2">
		<path class="st0" d="M6,0C2.7,0,0,2.7,0,6v39c6.8,0,12.4,5.8,12.4,13S6.8,71,0,71v37c0,3.3,2.7,6,6,6h280c3.3,0,6-2.7,6-6V6
			c0-3.3-2.7-6-6-6H6z"/>
		<defs>
			<filter id="Adobe_OpacityMaskFilter" filterUnits="userSpaceOnUse" x="-1" y="-1" width="294" height="116">
				<feColorMatrix  type="matrix" values="1 0 0 0 0  0 1 0 0 0  0 0 1 0 0  0 0 0 1 0"/>
			</filter>
		</defs>
		
			<mask maskUnits="userSpaceOnUse" x="-1" y="-1" width="294" height="116" id="path-1-inside-1_970_19728_00000044150335071734933900000012363968430911059374_">
			<path class="st1" d="M6,0C2.7,0,0,2.7,0,6v39c6.8,0,12.4,5.8,12.4,13S6.8,71,0,71v37c0,3.3,2.7,6,6,6h280c3.3,0,6-2.7,6-6V6
				c0-3.3-2.7-6-6-6H6z"/>
		</mask>
		<path class="st2" d="M0,45h-1v1h1L0,45z M0,71l0-1h-1v1H0z M1,6c0-2.8,2.2-5,5-5v-2C2.1-1-1,2.1-1,6H1z M1,45V6h-2v39H1z M0,46
			c6.2,0,11.4,5.3,11.4,12h2c0-7.7-5.9-14-13.4-14L0,46z M11.4,58c0,6.7-5.1,12-11.4,12l0,2c7.4,0,13.4-6.3,13.4-14H11.4z M1,108V71
			h-2v37H1z M6,113c-2.8,0-5-2.2-5-5h-2c0,3.9,3.1,7,7,7V113z M286,113H6v2h280V113z M291,108c0,2.8-2.2,5-5,5v2c3.9,0,7-3.1,7-7
			H291z M291,6v102h2V6H291z M286,1c2.8,0,5,2.2,5,5h2c0-3.9-3.1-7-7-7V1z M6,1h280v-2H6V1z"/>
	</g>
	<path id="Rectangle_6404" class="st3" d="M252,1h34c3.3,0,6,2.7,6,6v101c0,3.3-2.7,6-6,6h-34V1z"/>
</g>
<g id="ico_evnt_cpn_dwn_all">
	<path id="ico_download" class="st0" d="M272,48.7c0.5,0,0.9,0.4,0.9,0.9v9.6l3.5-3.5c0.4-0.4,0.9-0.4,1.3,0c0.4,0.4,0.4,0.9,0,1.3
		l-3.7,3.7l0,0l-1.2,1.2c-0.4,0.4-0.9,0.4-1.3,0l-5-5c-0.4-0.4-0.4-0.9,0-1.3c0.4-0.4,0.9-0.4,1.3,0l3.5,3.5v-9.6
		C271.1,49.1,271.5,48.7,272,48.7z M265.5,63.5c-0.5,0-0.9,0.4-0.9,0.9c0,0.5,0.4,0.9,0.9,0.9h13c0.5,0,0.9-0.4,0.9-0.9
		c0-0.5-0.4-0.9-0.9-0.9H265.5z"/>
</g>
</svg>
