<?xml version="1.0" encoding="utf-8"?>
<!-- Generator: Adobe Illustrator 26.3.1, SVG Export Plug-In . SVG Version: 6.00 Build 0)  -->
<svg version="1.1" id="레이어_1" xmlns="http://www.w3.org/2000/svg" xmlns:xlink="http://www.w3.org/1999/xlink" x="0px"
	 y="0px" viewBox="0 0 324 114" style="enable-background:new 0 0 324 114;" xml:space="preserve">
<style type="text/css">
	.st0{fill-rule:evenodd;clip-rule:evenodd;fill:#FFFFFF;}
	.st1{fill-rule:evenodd;clip-rule:evenodd;fill:#FFFFFF;filter:url(#Adobe_OpacityMaskFilter);}
	.st2{mask:url(#path-3-inside-1_1107_30704_00000044166263615384600170000001631742773773252528_);fill:#E7342C;}
	.st3{fill:#E7342C;}
	.st4{fill:#FFFFFF;}
	.st5{fill:#1A1A1A;}
	.st6{fill:#797979;}
	.st7{fill:none;stroke:#CCCCCC;}
	.st8{fill:none;stroke:#CCCCCC;stroke-width:1.6;stroke-linecap:round;stroke-linejoin:round;}
</style>
<path class="st0" d="M38,0c-3.31,0-6,2.69-6,6v39c6.83,0,12.38,5.82,12.38,13S38.83,71,32,71v37c0,3.31,2.69,6,6,6h280
	c3.31,0,6-2.69,6-6V6c0-3.31-2.69-6-6-6H38z"/>
<defs>
	<filter id="Adobe_OpacityMaskFilter" filterUnits="userSpaceOnUse" x="31" y="-1" width="294" height="116">
		<feColorMatrix  type="matrix" values="1 0 0 0 0  0 1 0 0 0  0 0 1 0 0  0 0 0 1 0"/>
	</filter>
</defs>
<mask maskUnits="userSpaceOnUse" x="31" y="-1" width="294" height="116" id="path-3-inside-1_1107_30704_00000044166263615384600170000001631742773773252528_">
	<path class="st1" d="M38,0c-3.31,0-6,2.69-6,6v39c6.83,0,12.38,5.82,12.38,13S38.83,71,32,71v37c0,3.31,2.69,6,6,6h280
		c3.31,0,6-2.69,6-6V6c0-3.31-2.69-6-6-6H38z"/>
</mask>
<path class="st2" d="M32,45h-1v1h1V45z M32,71v-1h-1v1H32z M33,6c0-2.76,2.24-5,5-5v-2c-3.87,0-7,3.13-7,7H33z M33,45V6h-2v39H33z
	 M32,46c6.24,0,11.38,5.33,11.38,12h2c0-7.68-5.94-14-13.38-14V46z M43.38,58c0,6.67-5.14,12-11.38,12v2c7.43,0,13.38-6.32,13.38-14
	H43.38z M33,108V71h-2v37H33z M38,113c-2.76,0-5-2.24-5-5h-2c0,3.87,3.13,7,7,7V113z M318,113H38v2h280V113z M323,108
	c0,2.76-2.24,5-5,5v2c3.87,0,7-3.13,7-7H323z M323,6v102h2V6H323z M318,1c2.76,0,5,2.24,5,5h2c0-3.87-3.13-7-7-7V1z M38,1h280v-2H38
	V1z"/>
<path class="st3" d="M284,1h34c3.31,0,6,2.69,6,6v101c0,3.31-2.69,6-6,6h-34V1z"/>
<path class="st4" d="M310.1,95.84c0,0.85-0.2,1.6-0.59,2.24c-0.4,0.65-0.94,1.15-1.61,1.5c-0.68,0.35-1.42,0.53-2.23,0.53
	s-1.55-0.18-2.22-0.53c-0.68-0.35-1.22-0.85-1.61-1.5c-0.4-0.65-0.6-1.4-0.6-2.24c0-0.58,0.12-1.14,0.35-1.66
	c0.22-0.52,0.54-0.98,0.95-1.37l0.6,0.64c-0.32,0.31-0.57,0.67-0.74,1.08c-0.18,0.41-0.26,0.84-0.26,1.31
	c0,0.68,0.16,1.28,0.47,1.79c0.31,0.51,0.74,0.91,1.28,1.19c0.54,0.27,1.13,0.41,1.79,0.41c0.66,0,1.27-0.14,1.81-0.41
	c0.54-0.28,0.96-0.68,1.27-1.19c0.31-0.51,0.47-1.11,0.47-1.79c0-0.46-0.09-0.9-0.26-1.31c-0.18-0.41-0.44-0.77-0.76-1.08l0.6-0.64
	c0.41,0.39,0.73,0.85,0.96,1.37C309.98,94.7,310.1,95.26,310.1,95.84z M309.22,80.84c0-0.65-0.16-1.23-0.47-1.74
	c-0.32-0.52-0.75-0.92-1.28-1.21c-0.54-0.29-1.14-0.43-1.8-0.43c-0.65,0-1.24,0.14-1.78,0.43c-0.54,0.29-0.97,0.69-1.28,1.21
	c-0.32,0.51-0.48,1.09-0.48,1.74c0,0.65,0.16,1.23,0.47,1.75c0.31,0.51,0.74,0.91,1.28,1.2c0.54,0.29,1.13,0.43,1.79,0.43
	s1.26-0.14,1.8-0.43c0.54-0.29,0.96-0.69,1.28-1.2C309.06,82.07,309.22,81.49,309.22,80.84z M305.67,85.1
	c-0.8,0-1.54-0.18-2.22-0.54c-0.68-0.37-1.22-0.88-1.61-1.52c-0.4-0.65-0.6-1.38-0.6-2.2c0-0.82,0.2-1.55,0.6-2.2
	c0.39-0.65,0.93-1.15,1.61-1.51c0.68-0.37,1.42-0.55,2.22-0.55c0.81,0,1.55,0.18,2.23,0.55c0.67,0.36,1.21,0.86,1.61,1.51
	c0.39,0.65,0.59,1.38,0.59,2.2c0,0.82-0.2,1.55-0.59,2.2c-0.4,0.65-0.94,1.16-1.61,1.52C307.22,84.92,306.48,85.1,305.67,85.1z
	 M309.2,65.19c0,0.46-0.11,0.88-0.32,1.26c-0.22,0.37-0.52,0.66-0.91,0.88c-0.39,0.22-0.83,0.32-1.32,0.32h-5.3v0.86h5.29
	c0.64,0,1.22-0.15,1.75-0.44c0.53-0.3,0.94-0.71,1.25-1.22c0.3-0.51,0.46-1.06,0.46-1.66s-0.15-1.14-0.46-1.66
	c-0.3-0.51-0.72-0.92-1.25-1.21c-0.53-0.3-1.11-0.46-1.75-0.46h-5.29v0.86h5.3c0.49,0,0.93,0.11,1.32,0.32s0.7,0.51,0.91,0.89
	C309.09,64.31,309.2,64.73,309.2,65.19z M305.81,50.12c0-0.33-0.08-0.63-0.25-0.91c-0.17-0.29-0.39-0.51-0.67-0.67
	c-0.28-0.17-0.58-0.25-0.9-0.25c-0.33,0-0.63,0.08-0.91,0.25c-0.28,0.16-0.5,0.38-0.66,0.67c-0.17,0.28-0.25,0.58-0.25,0.91v2.42
	h3.65V50.12z M301.34,53.44V50.1c0-0.48,0.12-0.92,0.36-1.32c0.23-0.4,0.55-0.72,0.96-0.95c0.41-0.24,0.85-0.36,1.33-0.36
	c0.48,0,0.92,0.12,1.33,0.36c0.4,0.23,0.72,0.55,0.96,0.95c0.24,0.4,0.36,0.84,0.36,1.32v2.45H310v0.89H301.34z M309.22,35.61
	c0-0.65-0.16-1.23-0.47-1.74c-0.32-0.52-0.75-0.92-1.28-1.21c-0.54-0.29-1.14-0.43-1.8-0.43c-0.65,0-1.24,0.14-1.78,0.43
	c-0.54,0.29-0.97,0.69-1.28,1.21c-0.32,0.51-0.48,1.09-0.48,1.74c0,0.65,0.16,1.23,0.47,1.75c0.31,0.51,0.74,0.91,1.28,1.2
	c0.54,0.29,1.13,0.43,1.79,0.43s1.26-0.14,1.8-0.43c0.54-0.29,0.96-0.69,1.28-1.2C309.06,36.84,309.22,36.25,309.22,35.61z
	 M305.67,39.87c-0.8,0-1.54-0.18-2.22-0.54c-0.68-0.37-1.22-0.88-1.61-1.52c-0.4-0.65-0.6-1.38-0.6-2.2c0-0.82,0.2-1.55,0.6-2.2
	c0.39-0.65,0.93-1.15,1.61-1.51c0.68-0.37,1.42-0.55,2.22-0.55c0.81,0,1.55,0.18,2.23,0.55c0.67,0.36,1.21,0.86,1.61,1.51
	c0.39,0.65,0.59,1.38,0.59,2.2c0,0.82-0.2,1.55-0.59,2.2c-0.4,0.65-0.94,1.16-1.61,1.52C307.22,39.69,306.48,39.87,305.67,39.87z
	 M310,16.45v0.85l-7.19,5.27H310v0.88h-8.66v-0.88l7.18-5.27h-7.18v-0.85H310z"/>
<path class="st3" d="M59.51,39h-3.04V23.58l-2.55,0.86l-0.99-2.94l3.54-1.27h3.04V39z M70.35,36.04c1.37,0,2.4-0.51,3.09-1.53
	c0.71-1.04,1.07-2.68,1.07-4.91s-0.36-3.87-1.07-4.89c-0.69-1.02-1.72-1.53-3.09-1.53c-1.39,0-2.44,0.51-3.15,1.53
	c-0.69,1.02-1.04,2.65-1.04,4.89s0.35,3.87,1.04,4.91C67.92,35.52,68.96,36.04,70.35,36.04z M63.05,29.59
	c0-1.94,0.29-3.63,0.88-5.07c0.61-1.44,1.46-2.54,2.57-3.3c1.11-0.78,2.39-1.17,3.85-1.17c1.46,0,2.73,0.39,3.82,1.17
	c1.11,0.76,1.96,1.86,2.55,3.3c0.61,1.44,0.91,3.13,0.91,5.07s-0.3,3.63-0.91,5.07c-0.59,1.44-1.44,2.55-2.55,3.33
	c-1.09,0.78-2.37,1.17-3.82,1.17c-1.46,0-2.74-0.39-3.85-1.17c-1.11-0.78-1.97-1.89-2.57-3.33C63.34,33.22,63.05,31.53,63.05,29.59z
	 M92.91,24.34h2.4l-9.34,14.84h-2.34L92.91,24.34z M80.21,28.14c0-0.73,0.17-1.41,0.52-2.02c0.36-0.63,0.84-1.12,1.44-1.48
	c0.6-0.36,1.26-0.54,1.98-0.54s1.38,0.18,1.98,0.54c0.6,0.36,1.07,0.85,1.42,1.48c0.35,0.61,0.52,1.29,0.52,2.02
	c0,0.72-0.17,1.39-0.52,2.02c-0.35,0.61-0.82,1.11-1.42,1.48c-0.6,0.36-1.26,0.54-1.98,0.54s-1.38-0.18-1.98-0.54
	c-0.6-0.37-1.08-0.87-1.44-1.48C80.38,29.53,80.21,28.86,80.21,28.14z M82.43,28.14c0,0.49,0.17,0.92,0.5,1.28
	c0.35,0.36,0.75,0.54,1.22,0.54c0.47,0,0.87-0.18,1.2-0.54c0.35-0.36,0.52-0.79,0.52-1.28c0-0.51-0.17-0.93-0.52-1.28
	c-0.33-0.36-0.73-0.54-1.2-0.54c-0.47,0-0.87,0.18-1.22,0.54C82.6,27.21,82.43,27.63,82.43,28.14z M90.69,35.26
	c0-0.73,0.17-1.41,0.52-2.02c0.36-0.63,0.84-1.12,1.44-1.48c0.6-0.36,1.26-0.54,1.98-0.54s1.37,0.18,1.96,0.54
	c0.6,0.36,1.07,0.85,1.42,1.48c0.35,0.61,0.52,1.29,0.52,2.02c0,0.72-0.17,1.39-0.52,2.02c-0.35,0.61-0.82,1.11-1.42,1.48
	c-0.59,0.36-1.24,0.54-1.96,0.54s-1.38-0.18-1.98-0.54c-0.6-0.37-1.08-0.87-1.44-1.48C90.86,36.65,90.69,35.98,90.69,35.26z
	 M92.89,35.26c0,0.49,0.17,0.92,0.52,1.28c0.35,0.36,0.75,0.54,1.22,0.54c0.47,0,0.87-0.17,1.2-0.52c0.33-0.36,0.5-0.79,0.5-1.3
	c0-0.51-0.17-0.93-0.5-1.28c-0.33-0.36-0.73-0.54-1.2-0.54c-0.48,0-0.89,0.18-1.24,0.54C93.06,34.33,92.89,34.75,92.89,35.26z"/>
<path class="st5" d="M56,56.19h-1.61v9.55H56v0.95h-2.56V55.25H56V56.19z M67.46,54.76v12.28h-1.05V54.76H67.46z M57.92,59.98
	c0-0.85,0.13-1.6,0.39-2.24c0.26-0.64,0.63-1.14,1.09-1.48c0.48-0.35,1.02-0.53,1.62-0.53c0.6,0,1.13,0.18,1.6,0.53
	c0.48,0.35,0.84,0.84,1.11,1.48c0.26,0.64,0.39,1.39,0.39,2.24s-0.13,1.6-0.39,2.25c-0.26,0.64-0.63,1.14-1.11,1.5
	c-0.47,0.35-1,0.52-1.6,0.52c-0.61,0-1.15-0.17-1.62-0.52c-0.47-0.35-0.83-0.85-1.09-1.5C58.05,61.59,57.92,60.84,57.92,59.98z
	 M58.94,59.98c0,0.66,0.09,1.25,0.27,1.75c0.18,0.5,0.42,0.9,0.73,1.18c0.32,0.27,0.68,0.41,1.09,0.41c0.4,0,0.76-0.14,1.08-0.41
	c0.32-0.28,0.56-0.67,0.74-1.18c0.18-0.51,0.27-1.1,0.27-1.75s-0.09-1.23-0.27-1.74c-0.18-0.5-0.42-0.89-0.74-1.16
	c-0.32-0.28-0.68-0.42-1.08-0.42c-0.41,0-0.77,0.14-1.09,0.42c-0.31,0.27-0.55,0.66-0.73,1.16C59.03,58.74,58.94,59.32,58.94,59.98z
	 M80.02,54.77v9.3h-1.01v-9.3H80.02z M70.28,55.75h0.98v2.09H74v-2.09H75v2.59h1.69v-3.33h1.01v8.71h-1.01V59.2H75v2.53h-4.72V55.75
	z M74,60.88v-2.2h-2.74v2.2H74z M72.06,62.81h1.05v3.07h7.28v0.87h-8.33V62.81z M91.64,55.84v0.85h-7.2v1.88h6.93v0.85h-6.93v1.97
	h7.32v0.87h-8.39v-6.43H91.64z M81.94,64.54h11.1v0.87h-11.1V64.54z M97.09,55.25v11.44h-2.56v-0.95h1.61v-9.55h-1.61v-0.94H97.09z
	 M108.73,55.56v1.12c0,0.88-0.02,1.66-0.07,2.35c-0.05,0.69-0.17,1.48-0.36,2.37h1.86v0.87h-5.01v4.77h-1.04v-4.77h-5.03v-0.87h8.15
	c0.21-0.86,0.34-1.65,0.39-2.38l-7.34,0.36l-0.14-0.91l7.53-0.27c0.02-0.36,0.03-0.87,0.03-1.53v-0.25h-7.21v-0.87H108.73z
	 M121.32,55.35v0.85h-1.88v2.87h1.83v0.84h-3.91v1.53h5.01v0.85h-11.06v-0.85h5.01v-1.53h-3.93v-0.84h1.83V56.2h-1.88v-0.85H121.32z
	 M112.76,63.4h1.05v2.49h7.35v0.87h-8.4V63.4z M118.41,59.07V56.2h-3.11v2.87H118.41z M133.61,54.77v7.25h-1.05v-1.96h-2.87v1.06
	h-5.56V55.7h5.56v1.08h2.87v-2H133.61z M128.67,60.29v-3.74h-3.51v3.74H128.67z M125.52,64.7c0-0.73,0.36-1.29,1.08-1.69
	c0.73-0.41,1.73-0.62,3-0.62s2.26,0.21,2.98,0.62c0.73,0.4,1.09,0.97,1.09,1.69c0,0.73-0.36,1.29-1.09,1.69
	c-0.72,0.4-1.71,0.6-2.98,0.6s-2.27-0.2-3-0.6C125.88,65.99,125.52,65.43,125.52,64.7z M126.57,64.7c0,0.46,0.27,0.82,0.81,1.08
	s1.28,0.39,2.21,0.39s1.67-0.13,2.21-0.39s0.81-0.62,0.81-1.08s-0.27-0.82-0.81-1.08c-0.53-0.26-1.27-0.39-2.21-0.39
	c-0.94,0-1.68,0.13-2.23,0.39C126.83,63.88,126.57,64.24,126.57,64.7z M132.56,59.21v-1.57h-2.87v1.57H132.56z M145.44,55.56v1.12
	c0,0.88-0.02,1.66-0.07,2.35c-0.05,0.69-0.17,1.48-0.36,2.37h1.86v0.87h-5.01v4.77h-1.04v-4.77h-5.03v-0.87h8.15
	c0.21-0.86,0.34-1.65,0.39-2.38L137,59.38l-0.14-0.91l7.53-0.27c0.02-0.36,0.03-0.87,0.03-1.53v-0.25h-7.21v-0.87H145.44z
	 M158.03,55.35v0.85h-1.88v2.87h1.83v0.84h-3.91v1.53h5.01v0.85h-11.06v-0.85h5.01v-1.53h-3.93v-0.84h1.83V56.2h-1.88v-0.85H158.03z
	 M149.47,63.4h1.05v2.49h7.35v0.87h-8.4V63.4z M155.12,59.07V56.2h-3.11v2.87H155.12z M170.32,54.77v7.25h-1.05v-1.96h-2.87v1.06
	h-5.56V55.7h5.56v1.08h2.87v-2H170.32z M165.38,60.29v-3.74h-3.51v3.74H165.38z M162.23,64.7c0-0.73,0.36-1.29,1.08-1.69
	c0.73-0.41,1.73-0.62,3-0.62c1.27,0,2.26,0.21,2.98,0.62c0.73,0.4,1.09,0.97,1.09,1.69c0,0.73-0.36,1.29-1.09,1.69
	c-0.72,0.4-1.71,0.6-2.98,0.6c-1.27,0-2.27-0.2-3-0.6C162.59,65.99,162.23,65.43,162.23,64.7z M163.28,64.7
	c0,0.46,0.27,0.82,0.81,1.08s1.28,0.39,2.21,0.39s1.67-0.13,2.21-0.39s0.81-0.62,0.81-1.08s-0.27-0.82-0.81-1.08
	c-0.53-0.26-1.27-0.39-2.21-0.39c-0.94,0-1.68,0.13-2.23,0.39C163.54,63.88,163.28,64.24,163.28,64.7z M169.27,59.21v-1.57h-2.87
	v1.57H169.27z M182.15,55.56v1.12c0,0.88-0.02,1.66-0.07,2.35c-0.05,0.69-0.17,1.48-0.36,2.37h1.86v0.87h-5.01v4.77h-1.04v-4.77
	h-5.03v-0.87h8.15c0.21-0.86,0.34-1.65,0.39-2.38l-7.34,0.36l-0.14-0.91l7.53-0.27c0.02-0.36,0.03-0.87,0.03-1.53v-0.25h-7.21v-0.87
	H182.15z M194.74,55.35v0.85h-1.88v2.87h1.83v0.84h-3.91v1.53h5.01v0.85h-11.06v-0.85h5.01v-1.53h-3.93v-0.84h1.83V56.2h-1.88v-0.85
	H194.74z M186.18,63.4h1.05v2.49h7.35v0.87h-8.4V63.4z M191.82,59.07V56.2h-3.11v2.87H191.82z M207.03,54.77v7.25h-1.05v-1.96h-2.87
	v1.06h-5.56V55.7h5.56v1.08h2.87v-2H207.03z M202.09,60.29v-3.74h-3.51v3.74H202.09z M198.94,64.7c0-0.73,0.36-1.29,1.08-1.69
	c0.73-0.41,1.73-0.62,3-0.62c1.27,0,2.26,0.21,2.98,0.62c0.73,0.4,1.09,0.97,1.09,1.69c0,0.73-0.36,1.29-1.09,1.69
	c-0.72,0.4-1.71,0.6-2.98,0.6c-1.27,0-2.27-0.2-3-0.6C199.29,65.99,198.94,65.43,198.94,64.7z M199.99,64.7
	c0,0.46,0.27,0.82,0.81,1.08s1.28,0.39,2.21,0.39s1.67-0.13,2.21-0.39s0.81-0.62,0.81-1.08s-0.27-0.82-0.81-1.08
	c-0.53-0.26-1.27-0.39-2.21-0.39c-0.94,0-1.68,0.13-2.23,0.39C200.25,63.88,199.99,64.24,199.99,64.7z M205.98,59.21v-1.57h-2.87
	v1.57H205.98z M218.86,55.56v1.12c0,0.88-0.02,1.66-0.07,2.35c-0.05,0.69-0.17,1.48-0.36,2.37h1.86v0.87h-5.01v4.77h-1.04v-4.77
	h-5.03v-0.87h8.15c0.21-0.86,0.34-1.65,0.39-2.38l-7.34,0.36l-0.14-0.91l7.53-0.27c0.02-0.36,0.03-0.87,0.03-1.53v-0.25h-7.21v-0.87
	H218.86z M231.45,55.35v0.85h-1.88v2.87h1.83v0.84h-3.91v1.53h5.01v0.85h-11.06v-0.85h5.01v-1.53h-3.93v-0.84h1.83V56.2h-1.88v-0.85
	H231.45z M222.89,63.4h1.05v2.49h7.35v0.87h-8.4V63.4z M228.53,59.07V56.2h-3.11v2.87H228.53z M243.74,54.77v7.25h-1.05v-1.96h-2.87
	v1.06h-5.56V55.7h5.56v1.08h2.87v-2H243.74z M238.79,60.29v-3.74h-3.51v3.74H238.79z M235.65,64.7c0-0.73,0.36-1.29,1.08-1.69
	c0.73-0.41,1.73-0.62,3-0.62c1.27,0,2.26,0.21,2.98,0.62c0.73,0.4,1.09,0.97,1.09,1.69c0,0.73-0.36,1.29-1.09,1.69
	c-0.72,0.4-1.71,0.6-2.98,0.6c-1.27,0-2.27-0.2-3-0.6C236,65.99,235.65,65.43,235.65,64.7z M236.7,64.7c0,0.46,0.27,0.82,0.81,1.08
	s1.28,0.39,2.21,0.39s1.67-0.13,2.21-0.39s0.81-0.62,0.81-1.08s-0.27-0.82-0.81-1.08c-0.53-0.26-1.27-0.39-2.21-0.39
	c-0.94,0-1.68,0.13-2.23,0.39C236.96,63.88,236.7,64.24,236.7,64.7z M242.69,59.21v-1.57h-2.87v1.57H242.69z M255.57,55.56v1.12
	c0,0.88-0.02,1.66-0.07,2.35c-0.05,0.69-0.17,1.48-0.36,2.37h1.86v0.87h-5.01v4.77h-1.04v-4.77h-5.03v-0.87h8.15
	c0.21-0.86,0.34-1.65,0.39-2.38l-7.34,0.36l-0.14-0.91l7.53-0.27c0.02-0.36,0.03-0.87,0.03-1.53v-0.25h-7.21v-0.87H255.57z
	 M268.15,55.35v0.85h-1.88v2.87h1.83v0.84h-3.91v1.53h5.01v0.85h-11.06v-0.85h5.01v-1.53h-3.93v-0.84h1.83V56.2h-1.88v-0.85H268.15z
	 M259.6,63.4h1.05v2.49H268v0.87h-8.4V63.4z M265.24,59.07V56.2h-3.11v2.87H265.24z M271.98,60.23c0.19,0,0.34,0.06,0.45,0.18
	c0.11,0.11,0.17,0.26,0.17,0.43c0,0.19-0.06,0.34-0.17,0.46c-0.1,0.11-0.25,0.17-0.45,0.17c-0.2,0-0.35-0.06-0.46-0.17
	c-0.11-0.12-0.17-0.28-0.17-0.46c0-0.18,0.06-0.32,0.17-0.43C271.63,60.29,271.78,60.23,271.98,60.23z M274.8,60.83
	c0-0.18,0.06-0.32,0.17-0.43c0.11-0.12,0.27-0.18,0.46-0.18c0.19,0,0.34,0.06,0.45,0.18c0.11,0.11,0.17,0.26,0.17,0.43
	c0,0.19-0.06,0.34-0.17,0.46c-0.1,0.11-0.25,0.17-0.45,0.17c-0.2,0-0.35-0.06-0.46-0.17C274.86,61.17,274.8,61.02,274.8,60.83z
	 M278.29,60.83c0-0.18,0.06-0.32,0.17-0.43c0.11-0.12,0.27-0.18,0.46-0.18c0.19,0,0.34,0.06,0.45,0.18
	c0.11,0.11,0.17,0.26,0.17,0.43c0,0.19-0.06,0.34-0.17,0.46c-0.1,0.11-0.25,0.17-0.45,0.17c-0.2,0-0.35-0.06-0.46-0.17
	C278.35,61.17,278.29,61.02,278.29,60.83z"/>
<path class="st6" d="M56.78,80.82V79.5h0.9v1.32h4.28v0.74h-9.48v-0.74H56.78z M53.04,79.31c0.66-0.06,1.26-0.19,1.81-0.38
	c0.55-0.19,1-0.44,1.33-0.76c0.34-0.31,0.53-0.66,0.55-1.04h-3.28v-0.72h3.31v-1.07h0.9v1.07H61v0.72h-3.29
	c0.02,0.38,0.2,0.73,0.54,1.04c0.34,0.31,0.78,0.56,1.33,0.76c0.55,0.19,1.16,0.32,1.81,0.38l-0.28,0.71c-0.9-0.1-1.7-0.31-2.4-0.62
	c-0.7-0.32-1.2-0.73-1.5-1.24c-0.3,0.5-0.8,0.92-1.5,1.24c-0.7,0.31-1.49,0.52-2.39,0.62L53.04,79.31z M53.63,84.12
	c0-0.56,0.31-0.99,0.94-1.28c0.62-0.3,1.51-0.46,2.65-0.46c1.14,0,2.02,0.15,2.64,0.46c0.63,0.3,0.95,0.72,0.95,1.28
	c0,0.55-0.32,0.98-0.95,1.27c-0.62,0.3-1.5,0.46-2.64,0.46c-1.14,0-2.03-0.15-2.65-0.46C53.94,85.1,53.63,84.68,53.63,84.12z
	 M54.53,84.12c0,0.33,0.24,0.58,0.71,0.77s1.13,0.28,1.98,0.28c0.84,0,1.5-0.09,1.97-0.28s0.71-0.44,0.71-0.77
	c0-0.34-0.24-0.6-0.71-0.78c-0.46-0.18-1.12-0.28-1.97-0.28c-0.86,0-1.52,0.09-1.99,0.28C54.76,83.53,54.53,83.79,54.53,84.12z
	 M69.2,75.92v1.15c0,0.71,0.24,1.37,0.72,1.98c0.49,0.61,1.11,1.04,1.86,1.31l-0.47,0.7c-0.58-0.21-1.08-0.52-1.52-0.95
	c-0.44-0.42-0.77-0.92-1-1.48c-0.22,0.63-0.56,1.18-1.01,1.66c-0.45,0.46-0.98,0.82-1.6,1.07l-0.49-0.72
	c0.79-0.29,1.43-0.76,1.91-1.42c0.48-0.66,0.72-1.4,0.72-2.21v-1.09H69.2z M67.1,83.96c0-0.6,0.3-1.06,0.91-1.39
	c0.61-0.34,1.45-0.5,2.52-0.5c1.08,0,1.92,0.17,2.53,0.5c0.61,0.33,0.91,0.79,0.91,1.39s-0.3,1.06-0.91,1.39
	c-0.61,0.34-1.45,0.5-2.53,0.5c-1.07,0-1.91-0.17-2.52-0.5C67.41,85.02,67.1,84.56,67.1,83.96z M67.98,83.96
	c0,0.37,0.23,0.66,0.68,0.88c0.46,0.21,1.08,0.31,1.87,0.31s1.42-0.1,1.87-0.31c0.46-0.22,0.68-0.51,0.68-0.88
	c0-0.37-0.23-0.66-0.68-0.86c-0.46-0.22-1.08-0.32-1.87-0.32s-1.42,0.11-1.87,0.32C68.21,83.3,67.98,83.59,67.98,83.96z
	 M72.97,75.38h0.9v2.75h1.57v0.76h-1.57v2.89h-0.9V75.38z M85.7,80.46v0.73h-4.3v1.27h3.13v3.26H77.4v-3.26h3.12V81.2h-4.3v-0.73
	H85.7z M77.11,75.72h7.68v0.73h-1.61v2.27h1.57v0.73h-7.61v-0.73h1.57v-2.27h-1.61V75.72z M83.66,85v-1.81h-5.39V85H83.66z
	 M82.29,78.72v-2.27h-2.66v2.27H82.29z M93.88,80.52c0.38,0.22,0.7,0.51,0.94,0.85c0.25,0.34,0.37,0.72,0.37,1.12
	c0,0.46-0.13,0.87-0.38,1.25s-0.6,0.67-1.03,0.89c-0.43,0.21-0.89,0.31-1.38,0.31s-0.95-0.1-1.38-0.31
	c-0.42-0.22-0.76-0.51-1.02-0.89c-0.26-0.38-0.38-0.79-0.38-1.25h0.86c0,0.26,0.08,0.52,0.24,0.77c0.17,0.25,0.4,0.45,0.68,0.6
	c0.3,0.15,0.63,0.23,1,0.23c0.37,0,0.7-0.08,1-0.23s0.53-0.35,0.7-0.59c0.17-0.25,0.25-0.5,0.25-0.77c0-0.44-0.16-0.81-0.48-1.12
	c-0.31-0.3-0.79-0.46-1.44-0.46h-0.64v-0.84h0.64c0.57,0,1.01-0.14,1.33-0.42c0.32-0.28,0.48-0.62,0.48-1.01
	c0-0.23-0.08-0.46-0.23-0.67c-0.15-0.22-0.36-0.4-0.64-0.54c-0.26-0.14-0.56-0.22-0.9-0.22c-0.34,0-0.64,0.07-0.91,0.2
	c-0.26,0.14-0.47,0.32-0.62,0.54c-0.14,0.22-0.22,0.46-0.22,0.71h-0.86c0-0.42,0.12-0.81,0.36-1.16c0.25-0.35,0.57-0.63,0.97-0.83
	c0.4-0.2,0.83-0.3,1.28-0.3c0.46,0,0.88,0.1,1.28,0.3c0.4,0.2,0.72,0.48,0.96,0.83c0.24,0.34,0.36,0.73,0.36,1.16
	c0,0.36-0.11,0.7-0.34,1.02C94.52,80.03,94.23,80.3,93.88,80.52z M99.49,84.08c0.7,0,1.25-0.28,1.63-0.85
	c0.38-0.57,0.58-1.42,0.58-2.56s-0.19-1.98-0.58-2.54c-0.38-0.57-0.93-0.85-1.63-0.85c-0.7,0-1.25,0.28-1.64,0.85
	c-0.38,0.56-0.58,1.41-0.58,2.54s0.19,1.99,0.58,2.56C98.24,83.79,98.78,84.08,99.49,84.08z M96.4,80.67c0-0.88,0.13-1.64,0.38-2.28
	c0.26-0.64,0.62-1.13,1.08-1.46c0.46-0.34,1-0.52,1.62-0.52c0.62,0,1.16,0.17,1.62,0.52c0.46,0.34,0.82,0.82,1.07,1.46
	c0.26,0.64,0.38,1.4,0.38,2.28s-0.13,1.64-0.38,2.29c-0.25,0.64-0.6,1.13-1.07,1.48c-0.46,0.34-1,0.5-1.62,0.5
	c-0.62,0-1.16-0.17-1.62-0.5c-0.46-0.34-0.82-0.84-1.08-1.48C96.53,82.31,96.4,81.55,96.4,80.67z M104.34,86.31h-0.64l0.36-2.22H105
	L104.34,86.31z M110.14,84.08c0.7,0,1.25-0.28,1.63-0.85c0.38-0.57,0.58-1.42,0.58-2.56s-0.19-1.98-0.58-2.54
	c-0.38-0.57-0.93-0.85-1.63-0.85s-1.25,0.28-1.64,0.85c-0.38,0.56-0.58,1.41-0.58,2.54s0.19,1.99,0.58,2.56
	C108.89,83.79,109.44,84.08,110.14,84.08z M107.06,80.67c0-0.88,0.13-1.64,0.38-2.28c0.26-0.64,0.62-1.13,1.08-1.46
	c0.46-0.34,1-0.52,1.62-0.52c0.62,0,1.16,0.17,1.62,0.52c0.46,0.34,0.82,0.82,1.07,1.46c0.26,0.64,0.38,1.4,0.38,2.28
	s-0.13,1.64-0.38,2.29c-0.25,0.64-0.6,1.13-1.07,1.48c-0.46,0.34-1,0.5-1.62,0.5c-0.62,0-1.16-0.17-1.62-0.5
	c-0.46-0.34-0.82-0.84-1.08-1.48C107.18,82.31,107.06,81.55,107.06,80.67z M117.51,84.08c0.7,0,1.25-0.28,1.63-0.85
	c0.38-0.57,0.58-1.42,0.58-2.56s-0.19-1.98-0.58-2.54c-0.38-0.57-0.93-0.85-1.63-0.85s-1.25,0.28-1.64,0.85
	c-0.38,0.56-0.58,1.41-0.58,2.54s0.19,1.99,0.58,2.56C116.26,83.79,116.81,84.08,117.51,84.08z M114.43,80.67
	c0-0.88,0.13-1.64,0.38-2.28c0.26-0.64,0.62-1.13,1.08-1.46c0.46-0.34,1-0.52,1.62-0.52s1.16,0.17,1.62,0.52
	c0.46,0.34,0.82,0.82,1.07,1.46c0.26,0.64,0.38,1.4,0.38,2.28s-0.13,1.64-0.38,2.29c-0.25,0.64-0.6,1.13-1.07,1.48
	c-0.46,0.34-1,0.5-1.62,0.5s-1.16-0.17-1.62-0.5c-0.46-0.34-0.82-0.84-1.08-1.48C114.56,82.31,114.43,81.55,114.43,80.67z
	 M124.88,84.08c0.7,0,1.25-0.28,1.63-0.85s0.58-1.42,0.58-2.56s-0.19-1.98-0.58-2.54c-0.38-0.57-0.93-0.85-1.63-0.85
	c-0.7,0-1.25,0.28-1.64,0.85c-0.38,0.56-0.58,1.41-0.58,2.54s0.19,1.99,0.58,2.56C123.63,83.79,124.18,84.08,124.88,84.08z
	 M121.8,80.67c0-0.88,0.13-1.64,0.38-2.28c0.26-0.64,0.62-1.13,1.08-1.46c0.46-0.34,1-0.52,1.62-0.52c0.62,0,1.16,0.17,1.62,0.52
	c0.46,0.34,0.82,0.82,1.07,1.46c0.26,0.64,0.38,1.4,0.38,2.28s-0.13,1.64-0.38,2.29c-0.25,0.64-0.6,1.13-1.07,1.48
	c-0.46,0.34-1,0.5-1.62,0.5c-0.62,0-1.16-0.17-1.62-0.5c-0.46-0.34-0.82-0.84-1.08-1.48C121.93,82.31,121.8,81.55,121.8,80.67z
	 M137.61,75.38v7.99h-0.9v-1.12h-2.15v-0.66h2.15v-6.22H137.61z M128.98,80.25c1.29,0,2.49-0.02,3.61-0.06
	c1.12-0.04,2.18-0.12,3.18-0.24l0.06,0.65c-0.89,0.15-1.85,0.25-2.88,0.3v2.09h-0.9v-2.04c-0.88,0.04-1.86,0.06-2.94,0.06
	L128.98,80.25z M129.82,77.63c0-0.55,0.24-0.99,0.71-1.32c0.48-0.34,1.1-0.5,1.87-0.5c0.77,0,1.39,0.17,1.86,0.5
	c0.48,0.33,0.72,0.77,0.72,1.32c0,0.55-0.24,1-0.71,1.33c-0.47,0.33-1.1,0.49-1.87,0.49s-1.4-0.16-1.87-0.49
	C130.05,78.63,129.82,78.18,129.82,77.63z M130.49,82.59h0.9v2.3h6.48v0.74h-7.38V82.59z M130.67,77.63c0,0.34,0.16,0.62,0.48,0.83
	c0.32,0.21,0.74,0.31,1.25,0.31c0.51,0,0.92-0.1,1.24-0.31c0.32-0.21,0.48-0.48,0.48-0.83c0-0.34-0.16-0.62-0.48-0.83
	c-0.31-0.22-0.72-0.32-1.24-0.32c-0.51,0-0.93,0.11-1.25,0.32C130.83,77.01,130.67,77.29,130.67,77.63z M150.87,75.36v10.52h-0.9
	V75.36H150.87z M142.69,79.84c0-0.73,0.11-1.37,0.34-1.92s0.54-0.98,0.94-1.27c0.41-0.3,0.87-0.46,1.39-0.46
	c0.51,0,0.97,0.15,1.37,0.46c0.41,0.3,0.72,0.72,0.95,1.27s0.34,1.19,0.34,1.92c0,0.73-0.11,1.37-0.34,1.93
	c-0.22,0.55-0.54,0.98-0.95,1.28c-0.4,0.3-0.86,0.44-1.37,0.44c-0.52,0-0.98-0.15-1.39-0.44c-0.4-0.3-0.71-0.73-0.94-1.28
	C142.8,81.22,142.69,80.58,142.69,79.84z M143.56,79.84c0,0.57,0.08,1.07,0.23,1.5c0.15,0.43,0.36,0.77,0.62,1.01
	c0.27,0.23,0.58,0.35,0.94,0.35c0.34,0,0.65-0.12,0.92-0.35c0.27-0.24,0.48-0.58,0.64-1.01c0.15-0.44,0.23-0.94,0.23-1.5
	c0-0.56-0.08-1.06-0.23-1.49c-0.15-0.43-0.36-0.76-0.64-1C146,77.12,145.7,77,145.35,77c-0.35,0-0.66,0.12-0.94,0.36
	c-0.26,0.23-0.47,0.56-0.62,1C143.64,78.78,143.56,79.27,143.56,79.84z M156.26,75.92v1.15c0,0.71,0.24,1.37,0.72,1.98
	c0.49,0.61,1.11,1.04,1.86,1.31l-0.47,0.7c-0.57-0.21-1.08-0.52-1.52-0.95c-0.44-0.42-0.77-0.92-1-1.48
	c-0.22,0.63-0.56,1.18-1.01,1.66c-0.45,0.46-0.98,0.82-1.6,1.07l-0.49-0.72c0.79-0.29,1.43-0.76,1.91-1.42
	c0.48-0.66,0.72-1.4,0.72-2.21v-1.09H156.26z M154.16,83.96c0-0.6,0.3-1.06,0.91-1.39c0.61-0.34,1.45-0.5,2.52-0.5
	c1.08,0,1.92,0.17,2.53,0.5c0.61,0.33,0.91,0.79,0.91,1.39s-0.3,1.06-0.91,1.39c-0.61,0.34-1.45,0.5-2.53,0.5
	c-1.07,0-1.91-0.17-2.52-0.5C154.46,85.02,154.16,84.56,154.16,83.96z M155.04,83.96c0,0.37,0.23,0.66,0.68,0.88
	c0.46,0.21,1.08,0.31,1.87,0.31c0.79,0,1.42-0.1,1.87-0.31c0.46-0.22,0.68-0.51,0.68-0.88c0-0.37-0.23-0.66-0.68-0.86
	c-0.46-0.22-1.08-0.32-1.87-0.32c-0.79,0-1.42,0.11-1.87,0.32C155.26,83.3,155.04,83.59,155.04,83.96z M160.03,75.38h0.9v2.75h1.57
	v0.76h-1.57v2.89h-0.9V75.38z M174.28,76.07v0.91c0,0.68-0.02,1.28-0.05,1.81c-0.03,0.52-0.12,1.12-0.25,1.79h1.56v0.76h-4.31v4.56
	h-0.91v-4.56h-4.27v-0.76h7.02c0.14-0.66,0.23-1.26,0.26-1.79c0.04-0.53,0.06-1.13,0.06-1.81V76.8h-6.13v-0.73H174.28z
	 M185.44,75.38v10.5h-0.86V80.3h-1.48v5.04h-0.85v-9.72h0.85v3.94h1.48v-4.18H185.44z M176.93,76.6h3.97v6.43h-3.97V76.6z
	 M180.06,82.32v-5h-2.29v5H180.06z M193.46,76.3v1.91c0,0.62,0.13,1.24,0.38,1.86c0.26,0.61,0.6,1.15,1.03,1.63
	c0.43,0.48,0.9,0.84,1.4,1.07l-0.54,0.72c-0.6-0.3-1.14-0.74-1.62-1.33c-0.48-0.6-0.84-1.28-1.09-2.03c-0.24,0.8-0.6,1.52-1.09,2.15
	c-0.49,0.63-1.04,1.1-1.66,1.4l-0.55-0.74c0.5-0.24,0.97-0.61,1.4-1.1c0.44-0.5,0.79-1.06,1.04-1.69c0.26-0.64,0.38-1.28,0.38-1.93
	V76.3H193.46z M197.45,75.36h0.9v10.52h-0.9V75.36z M62,96.36v0.76h-2.52v3.76h-0.91v-3.76h-2.69v3.76h-0.92v-3.76h-2.47v-0.76H62z
	 M53.55,93.09c0-0.46,0.15-0.86,0.46-1.2c0.3-0.34,0.73-0.61,1.28-0.79c0.55-0.18,1.19-0.28,1.92-0.28s1.37,0.09,1.92,0.28
	c0.55,0.18,0.98,0.45,1.28,0.79c0.3,0.34,0.46,0.74,0.46,1.2c0,0.46-0.15,0.87-0.46,1.21c-0.3,0.34-0.73,0.61-1.28,0.79
	c-0.55,0.18-1.19,0.28-1.92,0.28s-1.37-0.09-1.92-0.28c-0.55-0.18-0.98-0.45-1.28-0.79C53.7,93.96,53.55,93.55,53.55,93.09z
	 M54.47,93.09c0,0.47,0.25,0.85,0.74,1.13c0.5,0.28,1.17,0.42,1.99,0.42s1.49-0.14,1.99-0.42c0.5-0.28,0.76-0.66,0.76-1.13
	c0-0.46-0.26-0.84-0.77-1.12c-0.5-0.29-1.16-0.43-1.98-0.43c-0.82,0-1.48,0.14-1.98,0.43C54.72,92.25,54.47,92.62,54.47,93.09z
	 M67.26,91.94v-1.4h0.9v1.4h3.79v0.74h-8.51v-0.74H67.26z M62.97,98.9h2.53v-1.97c-0.39-0.16-0.69-0.37-0.9-0.64
	c-0.21-0.27-0.31-0.58-0.31-0.94c0-0.62,0.3-1.11,0.91-1.45c0.61-0.34,1.44-0.52,2.51-0.52c1.06,0,1.9,0.17,2.51,0.52
	s0.91,0.83,0.91,1.45c0,0.35-0.1,0.66-0.31,0.94c-0.21,0.26-0.51,0.48-0.9,0.64v1.97h2.57v0.74h-9.52V98.9z M65.19,95.36
	c0,0.38,0.22,0.69,0.67,0.91c0.45,0.22,1.06,0.32,1.85,0.32c0.78,0,1.39-0.11,1.84-0.32c0.45-0.22,0.67-0.53,0.67-0.91
	c0-0.39-0.22-0.7-0.67-0.92c-0.44-0.23-1.05-0.35-1.84-0.35c-0.78,0-1.4,0.12-1.85,0.35C65.41,94.66,65.19,94.96,65.19,95.36z
	 M69.03,98.9v-1.7c-0.39,0.07-0.83,0.11-1.32,0.11c-0.48,0-0.92-0.04-1.32-0.11v1.7H69.03z M82.05,90.38v10.5h-0.9v-10.5H82.05z
	 M73.59,98.18c1.39-0.66,2.46-1.5,3.19-2.5c0.74-1.01,1.16-2.15,1.26-3.43h-3.98V91.5h4.9c0,1.58-0.4,3.01-1.19,4.27
	c-0.78,1.26-2.02,2.3-3.7,3.12L73.59,98.18z M92.08,90.38v3.2h1.57v0.76h-1.57v3.72h-0.9v-7.68H92.08z M83.97,96.11
	c1.26-0.39,2.28-0.95,3.04-1.68c0.77-0.73,1.2-1.56,1.3-2.5h-3.9v-0.74h4.87c0,1.33-0.44,2.48-1.31,3.46
	c-0.87,0.98-2.08,1.71-3.61,2.2L83.97,96.11z M85.56,97.28h0.9v2.62h6.1v0.74h-7V97.28z M97.38,98.9c0.29-0.28,0.75-0.7,1.39-1.26
	c0.62-0.54,1.12-1,1.5-1.37c0.38-0.37,0.69-0.75,0.95-1.14c0.26-0.39,0.38-0.77,0.38-1.13c0-0.52-0.16-0.93-0.49-1.24
	c-0.32-0.3-0.72-0.46-1.19-0.46c-0.82,0-1.42,0.42-1.8,1.26l-0.79-0.36c0.28-0.64,0.66-1.1,1.13-1.37c0.48-0.27,0.97-0.41,1.46-0.41
	c0.42,0,0.83,0.11,1.22,0.32c0.4,0.21,0.72,0.51,0.96,0.9c0.25,0.39,0.37,0.84,0.37,1.34c0,0.49-0.15,0.98-0.46,1.48
	c-0.3,0.49-0.67,0.94-1.1,1.37c-0.42,0.42-0.98,0.94-1.67,1.54l-0.58,0.52h3.92v0.88h-5.22V98.9z M106.89,99.08
	c0.7,0,1.25-0.28,1.63-0.85s0.58-1.42,0.58-2.56s-0.19-1.98-0.58-2.54c-0.38-0.57-0.93-0.85-1.63-0.85c-0.7,0-1.25,0.28-1.64,0.85
	c-0.38,0.56-0.58,1.41-0.58,2.54s0.19,1.99,0.58,2.56C105.64,98.79,106.19,99.08,106.89,99.08z M103.81,95.67
	c0-0.88,0.13-1.64,0.38-2.28s0.62-1.13,1.08-1.46c0.46-0.34,1-0.52,1.62-0.52c0.62,0,1.16,0.17,1.62,0.52
	c0.46,0.34,0.82,0.82,1.07,1.46c0.26,0.64,0.38,1.4,0.38,2.28s-0.13,1.64-0.38,2.29c-0.25,0.64-0.6,1.13-1.07,1.48
	c-0.46,0.34-1,0.5-1.62,0.5c-0.62,0-1.16-0.17-1.62-0.5c-0.46-0.34-0.82-0.84-1.08-1.48C103.94,97.31,103.81,96.55,103.81,95.67z
	 M111.24,98.9c0.29-0.28,0.75-0.7,1.39-1.26c0.62-0.54,1.12-1,1.5-1.37c0.38-0.37,0.69-0.75,0.95-1.14
	c0.26-0.39,0.38-0.77,0.38-1.13c0-0.52-0.16-0.93-0.49-1.24c-0.32-0.3-0.72-0.46-1.19-0.46c-0.82,0-1.42,0.42-1.8,1.26l-0.79-0.36
	c0.28-0.64,0.66-1.1,1.13-1.37c0.48-0.27,0.97-0.41,1.46-0.41c0.42,0,0.83,0.11,1.22,0.32c0.4,0.21,0.72,0.51,0.96,0.9
	c0.25,0.39,0.37,0.84,0.37,1.34c0,0.49-0.15,0.98-0.46,1.48c-0.3,0.49-0.67,0.94-1.1,1.37c-0.42,0.42-0.98,0.94-1.67,1.54
	l-0.58,0.52h3.92v0.88h-5.22V98.9z M117.73,98.9c0.29-0.28,0.75-0.7,1.39-1.26c0.62-0.54,1.12-1,1.5-1.37
	c0.38-0.37,0.69-0.75,0.95-1.14c0.26-0.39,0.38-0.77,0.38-1.13c0-0.52-0.16-0.93-0.49-1.24c-0.32-0.3-0.72-0.46-1.19-0.46
	c-0.82,0-1.42,0.42-1.8,1.26l-0.79-0.36c0.28-0.64,0.66-1.1,1.13-1.37c0.48-0.27,0.97-0.41,1.46-0.41c0.42,0,0.83,0.11,1.22,0.32
	c0.4,0.21,0.72,0.51,0.96,0.9c0.25,0.39,0.37,0.84,0.37,1.34c0,0.49-0.15,0.98-0.46,1.48c-0.3,0.49-0.67,0.94-1.1,1.37
	c-0.42,0.42-0.98,0.94-1.67,1.54l-0.58,0.52h3.92v0.88h-5.22V98.9z M124.92,98.96c0.18,0,0.33,0.06,0.43,0.17
	c0.1,0.11,0.16,0.25,0.16,0.42c0,0.18-0.05,0.33-0.16,0.44c-0.1,0.11-0.25,0.17-0.43,0.17c-0.19,0-0.34-0.06-0.46-0.17
	c-0.1-0.12-0.16-0.27-0.16-0.44c0-0.17,0.05-0.31,0.16-0.42C124.58,99.01,124.73,98.96,124.92,98.96z M130.41,99.08
	c0.7,0,1.25-0.28,1.63-0.85c0.38-0.57,0.58-1.42,0.58-2.56s-0.19-1.98-0.58-2.54c-0.38-0.57-0.93-0.85-1.63-0.85
	s-1.25,0.28-1.64,0.85c-0.38,0.56-0.58,1.41-0.58,2.54s0.19,1.99,0.58,2.56C129.16,98.79,129.71,99.08,130.41,99.08z M127.33,95.67
	c0-0.88,0.13-1.64,0.38-2.28c0.26-0.64,0.62-1.13,1.08-1.46c0.46-0.34,1-0.52,1.62-0.52s1.16,0.17,1.62,0.52
	c0.46,0.34,0.82,0.82,1.07,1.46c0.26,0.64,0.38,1.4,0.38,2.28s-0.13,1.64-0.38,2.29c-0.25,0.64-0.6,1.13-1.07,1.48
	c-0.46,0.34-1,0.5-1.62,0.5s-1.16-0.17-1.62-0.5c-0.46-0.34-0.82-0.84-1.08-1.48C127.46,97.31,127.33,96.55,127.33,95.67z
	 M137.79,99.08c0.7,0,1.25-0.28,1.63-0.85s0.58-1.42,0.58-2.56s-0.19-1.98-0.58-2.54c-0.38-0.57-0.93-0.85-1.63-0.85
	c-0.7,0-1.25,0.28-1.64,0.85c-0.38,0.56-0.58,1.41-0.58,2.54s0.19,1.99,0.58,2.56C136.53,98.79,137.08,99.08,137.79,99.08z
	 M134.7,95.67c0-0.88,0.13-1.64,0.38-2.28s0.62-1.13,1.08-1.46c0.46-0.34,1-0.52,1.62-0.52s1.16,0.17,1.62,0.52
	c0.46,0.34,0.82,0.82,1.07,1.46c0.26,0.64,0.38,1.4,0.38,2.28s-0.13,1.64-0.38,2.29c-0.25,0.64-0.6,1.13-1.07,1.48
	c-0.46,0.34-1,0.5-1.62,0.5s-1.16-0.17-1.62-0.5c-0.46-0.34-0.82-0.84-1.08-1.48C134.83,97.31,134.7,96.55,134.7,95.67z
	 M142.83,98.96c0.18,0,0.33,0.06,0.43,0.17s0.16,0.25,0.16,0.42c0,0.18-0.05,0.33-0.16,0.44s-0.25,0.17-0.43,0.17
	c-0.19,0-0.34-0.06-0.46-0.17c-0.1-0.12-0.16-0.27-0.16-0.44c0-0.17,0.05-0.31,0.16-0.42C142.49,99.01,142.64,98.96,142.83,98.96z
	 M148.32,99.08c0.7,0,1.25-0.28,1.63-0.85s0.58-1.42,0.58-2.56s-0.19-1.98-0.58-2.54c-0.38-0.57-0.93-0.85-1.63-0.85
	s-1.25,0.28-1.64,0.85c-0.38,0.56-0.58,1.41-0.58,2.54s0.19,1.99,0.58,2.56C147.07,98.79,147.62,99.08,148.32,99.08z M145.24,95.67
	c0-0.88,0.13-1.64,0.38-2.28s0.62-1.13,1.08-1.46c0.46-0.34,1-0.52,1.62-0.52s1.16,0.17,1.62,0.52c0.46,0.34,0.82,0.82,1.07,1.46
	c0.26,0.64,0.38,1.4,0.38,2.28s-0.13,1.64-0.38,2.29c-0.25,0.64-0.6,1.13-1.07,1.48c-0.46,0.34-1,0.5-1.62,0.5s-1.16-0.17-1.62-0.5
	c-0.46-0.34-0.82-0.84-1.08-1.48C145.37,97.31,145.24,96.55,145.24,95.67z M155.69,99.08c0.7,0,1.25-0.28,1.63-0.85
	c0.38-0.57,0.58-1.42,0.58-2.56s-0.19-1.98-0.58-2.54c-0.38-0.57-0.93-0.85-1.63-0.85s-1.25,0.28-1.64,0.85
	c-0.38,0.56-0.58,1.41-0.58,2.54s0.19,1.99,0.58,2.56C154.44,98.79,154.99,99.08,155.69,99.08z M152.61,95.67
	c0-0.88,0.13-1.64,0.38-2.28c0.26-0.64,0.62-1.13,1.08-1.46c0.46-0.34,1-0.52,1.62-0.52s1.16,0.17,1.62,0.52
	c0.46,0.34,0.82,0.82,1.07,1.46c0.26,0.64,0.38,1.4,0.38,2.28s-0.13,1.64-0.38,2.29c-0.25,0.64-0.6,1.13-1.07,1.48
	c-0.46,0.34-1,0.5-1.62,0.5s-1.16-0.17-1.62-0.5c-0.46-0.34-0.82-0.84-1.08-1.48C152.74,97.31,152.61,96.55,152.61,95.67z"/>
<g>
	<path class="st7" d="M21.5,56.95c0,5.8-4.7,10.5-10.5,10.5c-5.8,0-10.5-4.7-10.5-10.5s4.7-10.5,10.5-10.5
		C16.8,46.45,21.5,51.15,21.5,56.95z"/>
	<path class="st8" d="M6.33,56.87l4,3.82l6-5.62"/>
</g>
</svg>
