<svg width="292" height="114" viewBox="0 0 292 114" fill="none" xmlns="http://www.w3.org/2000/svg">
<mask id="path-1-inside-1_1107_30686" fill="white">
<path fill-rule="evenodd" clip-rule="evenodd" d="M6 0C2.68629 0 0 2.68629 0 6V45C6.83458 45.0001 12.3751 50.8204 12.3751 58C12.3751 65.1796 6.83458 70.9999 0 71V108C0 111.314 2.68629 114 5.99999 114H286C289.314 114 292 111.314 292 108V6C292 2.68629 289.314 0 286 0H6Z"/>
</mask>
<path fill-rule="evenodd" clip-rule="evenodd" d="M6 0C2.68629 0 0 2.68629 0 6V45C6.83458 45.0001 12.3751 50.8204 12.3751 58C12.3751 65.1796 6.83458 70.9999 0 71V108C0 111.314 2.68629 114 5.99999 114H286C289.314 114 292 111.314 292 108V6C292 2.68629 289.314 0 286 0H6Z" fill="white"/>
<path d="M0 45H-1V46L-1.78607e-05 46L0 45ZM0 71L-1.78607e-05 70L-1 70V71H0ZM1 6C1 3.23857 3.23858 1 6 1V-1C2.13401 -1 -1 2.134 -1 6H1ZM1 45V6H-1V45H1ZM-1.78607e-05 46C6.23644 46.0001 11.3751 51.3257 11.3751 58H13.3751C13.3751 50.3151 7.43271 44.0001 1.78607e-05 44L-1.78607e-05 46ZM11.3751 58C11.3751 64.6743 6.23644 69.9999 -1.78607e-05 70L1.78607e-05 72C7.43271 71.9999 13.3751 65.6849 13.3751 58H11.3751ZM1 108V71H-1V108H1ZM5.99999 113C3.23857 113 1 110.761 1 108H-1C-1 111.866 2.134 115 5.99999 115V113ZM286 113H5.99999V115H286V113ZM291 108C291 110.761 288.761 113 286 113V115C289.866 115 293 111.866 293 108H291ZM291 6V108H293V6H291ZM286 1C288.761 1 291 3.23857 291 6H293C293 2.13401 289.866 -1 286 -1V1ZM6 1H286V-1H6V1Z" fill="#E7342C" mask="url(#path-1-inside-1_1107_30686)"/>
<path d="M252 1H286C289.314 1 292 3.68629 292 7V108C292 111.314 289.314 114 286 114H252V1Z" fill="#E7342C"/>
<path d="M278.096 95.84C278.096 96.688 277.9 97.436 277.508 98.084C277.108 98.732 276.572 99.232 275.9 99.584C275.22 99.936 274.476 100.112 273.668 100.112C272.86 100.112 272.12 99.936 271.448 99.584C270.768 99.232 270.232 98.732 269.84 98.084C269.44 97.436 269.24 96.688 269.24 95.84C269.24 95.256 269.356 94.704 269.588 94.184C269.812 93.664 270.128 93.208 270.536 92.816L271.136 93.452C270.816 93.764 270.568 94.124 270.392 94.532C270.216 94.94 270.128 95.376 270.128 95.84C270.128 96.52 270.284 97.116 270.596 97.628C270.908 98.14 271.336 98.536 271.88 98.816C272.416 99.088 273.012 99.224 273.668 99.224C274.332 99.224 274.936 99.088 275.48 98.816C276.016 98.536 276.44 98.14 276.752 97.628C277.064 97.116 277.22 96.52 277.22 95.84C277.22 95.376 277.132 94.94 276.956 94.532C276.772 94.124 276.52 93.764 276.2 93.452L276.8 92.816C277.208 93.208 277.528 93.664 277.76 94.184C277.984 94.704 278.096 95.256 278.096 95.84ZM277.22 80.8399C277.22 80.1919 277.064 79.6119 276.752 79.0999C276.432 78.5799 276.004 78.1759 275.468 77.8879C274.924 77.5999 274.324 77.4559 273.668 77.4559C273.02 77.4559 272.428 77.5999 271.892 77.8879C271.348 78.1759 270.92 78.5799 270.608 79.0999C270.288 79.6119 270.128 80.1919 270.128 80.8399C270.128 81.4879 270.284 82.0719 270.596 82.5919C270.908 83.1039 271.336 83.5039 271.88 83.7919C272.416 84.0799 273.012 84.2239 273.668 84.2239C274.324 84.2239 274.924 84.0799 275.468 83.7919C276.004 83.5039 276.432 83.1039 276.752 82.5919C277.064 82.0719 277.22 81.4879 277.22 80.8399ZM273.668 85.0999C272.868 85.0999 272.128 84.9199 271.448 84.5599C270.768 84.1919 270.232 83.6839 269.84 83.0359C269.44 82.3879 269.24 81.6559 269.24 80.8399C269.24 80.0239 269.44 79.2919 269.84 78.6439C270.232 77.9959 270.768 77.4919 271.448 77.1319C272.128 76.7639 272.868 76.5799 273.668 76.5799C274.476 76.5799 275.22 76.7639 275.9 77.1319C276.572 77.4919 277.108 77.9959 277.508 78.6439C277.9 79.2919 278.096 80.0239 278.096 80.8399C278.096 81.6559 277.9 82.3879 277.508 83.0359C277.108 83.6839 276.572 84.1919 275.9 84.5599C275.22 84.9199 274.476 85.0999 273.668 85.0999ZM277.196 65.1921C277.196 65.6561 277.088 66.0761 276.872 66.4521C276.656 66.8201 276.352 67.1121 275.96 67.3281C275.568 67.5441 275.128 67.6521 274.64 67.6521L269.336 67.6521L269.336 68.5161L274.628 68.5161C275.268 68.5161 275.852 68.3681 276.38 68.0721C276.908 67.7681 277.324 67.3601 277.628 66.8481C277.932 66.3361 278.084 65.7841 278.084 65.1921C278.084 64.6001 277.932 64.0481 277.628 63.5361C277.324 63.0241 276.908 62.6201 276.38 62.3241C275.852 62.0201 275.268 61.8681 274.628 61.8681L269.336 61.8681L269.336 62.7321L274.64 62.7321C275.128 62.7321 275.568 62.8401 275.96 63.0561C276.352 63.2721 276.656 63.5681 276.872 63.9441C277.088 64.3121 277.196 64.7281 277.196 65.1921ZM273.812 50.1231C273.812 49.7951 273.728 49.4911 273.56 49.2111C273.392 48.9231 273.168 48.6991 272.888 48.5391C272.608 48.3711 272.308 48.2871 271.988 48.2871C271.66 48.2871 271.356 48.3711 271.076 48.5391C270.796 48.6991 270.576 48.9231 270.416 49.2111C270.248 49.4911 270.164 49.7951 270.164 50.1231L270.164 52.5471L273.812 52.5471L273.812 50.1231ZM269.336 53.4351L269.336 50.0991C269.336 49.6191 269.456 49.1791 269.696 48.7791C269.928 48.3791 270.248 48.0631 270.656 47.8311C271.064 47.5911 271.508 47.4711 271.988 47.4711C272.468 47.4711 272.912 47.5911 273.32 47.8311C273.72 48.0631 274.04 48.3791 274.28 48.7791C274.52 49.1791 274.64 49.6191 274.64 50.0991L274.64 52.5471L278 52.5471L278 53.4351L269.336 53.4351ZM277.22 35.6069C277.22 34.9589 277.064 34.3789 276.752 33.8669C276.432 33.3469 276.004 32.9429 275.468 32.6549C274.924 32.3669 274.324 32.2229 273.668 32.2229C273.02 32.2229 272.428 32.3669 271.892 32.6549C271.348 32.9429 270.92 33.3469 270.608 33.8669C270.288 34.3789 270.128 34.9589 270.128 35.6069C270.128 36.2549 270.284 36.8389 270.596 37.3589C270.908 37.8709 271.336 38.2709 271.88 38.5589C272.416 38.8469 273.012 38.9909 273.668 38.9909C274.324 38.9909 274.924 38.8469 275.468 38.5589C276.004 38.2709 276.432 37.8709 276.752 37.3589C277.064 36.8389 277.22 36.2549 277.22 35.6069ZM273.668 39.8669C272.868 39.8669 272.128 39.6869 271.448 39.3269C270.768 38.9589 270.232 38.4509 269.84 37.8029C269.44 37.1549 269.24 36.4229 269.24 35.6069C269.24 34.7909 269.44 34.0589 269.84 33.4109C270.232 32.7629 270.768 32.2589 271.448 31.8989C272.128 31.5309 272.868 31.3469 273.668 31.3469C274.476 31.3469 275.22 31.5309 275.9 31.8989C276.572 32.2589 277.108 32.7629 277.508 33.4109C277.9 34.0589 278.096 34.7909 278.096 35.6069C278.096 36.4229 277.9 37.1549 277.508 37.8029C277.108 38.4509 276.572 38.9589 275.9 39.3269C275.22 39.6869 274.476 39.8669 273.668 39.8669ZM278 16.4523L278 17.3043L270.812 22.5723L278 22.5723L278 23.4483L269.336 23.4483L269.336 22.5723L276.512 17.3043L269.336 17.3043L269.336 16.4523L278 16.4523Z" fill="white"/>
<path d="M27.514 39H24.472V23.582L21.924 24.44L20.936 21.502L24.472 20.228H27.514V39ZM38.3511 36.036C39.7205 36.036 40.7518 35.5247 41.4451 34.502C42.1558 33.462 42.5111 31.824 42.5111 29.588C42.5111 27.352 42.1558 25.7227 41.4451 24.7C40.7518 23.6773 39.7205 23.166 38.3511 23.166C36.9645 23.166 35.9158 23.6773 35.2051 24.7C34.5118 25.7227 34.1651 27.352 34.1651 29.588C34.1651 31.824 34.5118 33.462 35.2051 34.502C35.9158 35.5247 36.9645 36.036 38.3511 36.036ZM31.0451 29.588C31.0451 27.6467 31.3398 25.9567 31.9291 24.518C32.5358 23.0793 33.3938 21.9787 34.5031 21.216C35.6125 20.436 36.8951 20.046 38.3511 20.046C39.8071 20.046 41.0811 20.436 42.1731 21.216C43.2825 21.9787 44.1318 23.0793 44.7211 24.518C45.3278 25.9567 45.6311 27.6467 45.6311 29.588C45.6311 31.5293 45.3278 33.2193 44.7211 34.658C44.1318 36.0967 43.2825 37.206 42.1731 37.986C41.0811 38.766 39.8071 39.156 38.3511 39.156C36.8951 39.156 35.6125 38.766 34.5031 37.986C33.3938 37.206 32.5358 36.0967 31.9291 34.658C31.3398 33.2193 31.0451 31.5293 31.0451 29.588ZM60.9109 24.34H63.3109L53.9709 39.18H51.6309L60.9109 24.34ZM48.2109 28.14C48.2109 27.4067 48.3843 26.7333 48.7309 26.12C49.0909 25.4933 49.5709 25 50.1709 24.64C50.7709 24.28 51.4309 24.1 52.1509 24.1C52.8709 24.1 53.5309 24.28 54.1309 24.64C54.7309 25 55.2043 25.4933 55.5509 26.12C55.8976 26.7333 56.0709 27.4067 56.0709 28.14C56.0709 28.86 55.8976 29.5333 55.5509 30.16C55.2043 30.7733 54.7309 31.2667 54.1309 31.64C53.5309 32 52.8709 32.18 52.1509 32.18C51.4309 32.18 50.7709 32 50.1709 31.64C49.5709 31.2667 49.0909 30.7733 48.7309 30.16C48.3843 29.5333 48.2109 28.86 48.2109 28.14ZM50.4309 28.14C50.4309 28.6333 50.5976 29.06 50.9309 29.42C51.2776 29.78 51.6843 29.96 52.1509 29.96C52.6176 29.96 53.0176 29.78 53.3509 29.42C53.6976 29.06 53.8709 28.6333 53.8709 28.14C53.8709 27.6333 53.6976 27.2067 53.3509 26.86C53.0176 26.5 52.6176 26.32 52.1509 26.32C51.6843 26.32 51.2776 26.5 50.9309 26.86C50.5976 27.2067 50.4309 27.6333 50.4309 28.14ZM58.6909 35.26C58.6909 34.5267 58.8643 33.8533 59.2109 33.24C59.5709 32.6133 60.0509 32.12 60.6509 31.76C61.2509 31.4 61.9109 31.22 62.6309 31.22C63.3509 31.22 64.0043 31.4 64.5909 31.76C65.1909 32.12 65.6643 32.6133 66.0109 33.24C66.3576 33.8533 66.5309 34.5267 66.5309 35.26C66.5309 35.98 66.3576 36.6533 66.0109 37.28C65.6643 37.8933 65.1909 38.3867 64.5909 38.76C64.0043 39.12 63.3509 39.3 62.6309 39.3C61.9109 39.3 61.2509 39.12 60.6509 38.76C60.0509 38.3867 59.5709 37.8933 59.2109 37.28C58.8643 36.6533 58.6909 35.98 58.6909 35.26ZM60.8909 35.26C60.8909 35.7533 61.0643 36.18 61.4109 36.54C61.7576 36.9 62.1643 37.08 62.6309 37.08C63.0976 37.08 63.4976 36.9067 63.8309 36.56C64.1643 36.2 64.3309 35.7667 64.3309 35.26C64.3309 34.7533 64.1643 34.3267 63.8309 33.98C63.4976 33.62 63.0976 33.44 62.6309 33.44C62.1509 33.44 61.7376 33.62 61.3909 33.98C61.0576 34.3267 60.8909 34.7533 60.8909 35.26Z" fill="#E7342C"/>
<path d="M24.004 56.186H22.394V65.734H24.004V66.686H21.442V55.248H24.004V56.186ZM35.4642 54.758V67.036H34.4142V54.758H35.4642ZM25.9162 59.98C25.9162 59.1307 26.0469 58.384 26.3082 57.74C26.5695 57.096 26.9335 56.6013 27.4002 56.256C27.8762 55.9013 28.4175 55.724 29.0242 55.724C29.6215 55.724 30.1535 55.9013 30.6202 56.256C31.0962 56.6013 31.4649 57.096 31.7262 57.74C31.9875 58.384 32.1182 59.1307 32.1182 59.98C32.1182 60.8293 31.9875 61.5807 31.7262 62.234C31.4649 62.878 31.0962 63.3773 30.6202 63.732C30.1535 64.0773 29.6215 64.25 29.0242 64.25C28.4175 64.25 27.8762 64.0773 27.4002 63.732C26.9335 63.3773 26.5695 62.878 26.3082 62.234C26.0469 61.59 25.9162 60.8387 25.9162 59.98ZM26.9382 59.98C26.9382 60.6427 27.0269 61.226 27.2042 61.73C27.3815 62.234 27.6242 62.626 27.9322 62.906C28.2495 63.1767 28.6135 63.312 29.0242 63.312C29.4255 63.312 29.7849 63.1767 30.1022 62.906C30.4195 62.626 30.6669 62.234 30.8442 61.73C31.0215 61.2167 31.1102 60.6333 31.1102 59.98C31.1102 59.3267 31.0215 58.748 30.8442 58.244C30.6669 57.74 30.4195 57.3527 30.1022 57.082C29.7849 56.802 29.4255 56.662 29.0242 56.662C28.6135 56.662 28.2495 56.802 27.9322 57.082C27.6242 57.3527 27.3815 57.74 27.2042 58.244C27.0269 58.7387 26.9382 59.3173 26.9382 59.98ZM48.0225 54.772V64.068H47.0145V54.772H48.0225ZM38.2785 55.752H39.2585V57.838H42.0025V55.752H42.9965V58.342H44.6905V55.01H45.6985V63.718H44.6905V59.196H42.9965V61.73H38.2785V55.752ZM42.0025 60.876V58.678H39.2585V60.876H42.0025ZM40.0565 62.808H41.1065V65.874H48.3865V66.742H40.0565V62.808ZM59.6429 55.836V56.69H52.4469V58.566H59.3769V59.42H52.4469V61.394H59.7689V62.262H51.3829V55.836H59.6429ZM49.9409 64.544H61.0429V65.412H49.9409V64.544ZM65.0892 55.248V66.686H62.5272V65.734H64.1372V56.186H62.5272V55.248H65.0892ZM76.7314 55.556V56.676C76.7314 57.5533 76.7081 58.3373 76.6614 59.028C76.6147 59.7187 76.4934 60.5073 76.2974 61.394H78.1594V62.262H73.1474V67.036H72.1114V62.262H67.0854V61.394H75.2334C75.4387 60.5353 75.5694 59.742 75.6254 59.014L68.2894 59.378L68.1494 58.468L75.6814 58.202C75.7001 57.838 75.7094 57.3293 75.7094 56.676V56.424H68.4994V55.556H76.7314ZM89.3177 55.346V56.2H87.4417V59.07H89.2757V59.91H85.3697V61.436H90.3817V62.29H79.3217V61.436H84.3337V59.91H80.3997V59.07H82.2337V56.2H80.3577V55.346H89.3177ZM80.7637 63.396H81.8137V65.888H89.1637V66.756H80.7637V63.396ZM86.4057 59.07V56.2H83.2977V59.07H86.4057ZM101.61 54.772V62.024H100.56V60.064H97.69V61.128H92.132V55.696H97.69V56.774H100.56V54.772H101.61ZM96.668 60.288V56.55H93.154V60.288H96.668ZM93.518 64.698C93.518 63.97 93.8774 63.4053 94.596 63.004C95.324 62.5933 96.3227 62.388 97.592 62.388C98.8614 62.388 99.8554 62.5933 100.574 63.004C101.302 63.4053 101.666 63.97 101.666 64.698C101.666 65.426 101.302 65.9907 100.574 66.392C99.8554 66.7933 98.8614 66.994 97.592 66.994C96.3227 66.994 95.324 66.7933 94.596 66.392C93.8774 65.9907 93.518 65.426 93.518 64.698ZM94.568 64.698C94.568 65.1553 94.8387 65.5147 95.38 65.776C95.9214 66.0373 96.6587 66.168 97.592 66.168C98.5254 66.168 99.2627 66.0373 99.804 65.776C100.345 65.5147 100.616 65.1553 100.616 64.698C100.616 64.2407 100.345 63.8813 99.804 63.62C99.272 63.3587 98.5347 63.228 97.592 63.228C96.6494 63.228 95.9074 63.3587 95.366 63.62C94.834 63.8813 94.568 64.2407 94.568 64.698ZM100.56 59.21V57.642H97.69V59.21H100.56ZM113.44 55.556V56.676C113.44 57.5533 113.417 58.3373 113.37 59.028C113.324 59.7187 113.202 60.5073 113.006 61.394H114.868V62.262H109.856V67.036H108.82V62.262H103.794V61.394H111.942C112.148 60.5353 112.278 59.742 112.334 59.014L104.998 59.378L104.858 58.468L112.39 58.202C112.409 57.838 112.418 57.3293 112.418 56.676V56.424H105.208V55.556H113.44ZM126.027 55.346V56.2H124.151V59.07H125.985V59.91H122.079V61.436H127.091V62.29H116.031V61.436H121.043V59.91H117.109V59.07H118.943V56.2H117.067V55.346H126.027ZM117.473 63.396H118.523V65.888H125.873V66.756H117.473V63.396ZM123.115 59.07V56.2H120.007V59.07H123.115ZM138.319 54.772V62.024H137.269V60.064H134.399V61.128H128.841V55.696H134.399V56.774H137.269V54.772H138.319ZM133.377 60.288V56.55H129.863V60.288H133.377ZM130.227 64.698C130.227 63.97 130.586 63.4053 131.305 63.004C132.033 62.5933 133.032 62.388 134.301 62.388C135.57 62.388 136.564 62.5933 137.283 63.004C138.011 63.4053 138.375 63.97 138.375 64.698C138.375 65.426 138.011 65.9907 137.283 66.392C136.564 66.7933 135.57 66.994 134.301 66.994C133.032 66.994 132.033 66.7933 131.305 66.392C130.586 65.9907 130.227 65.426 130.227 64.698ZM131.277 64.698C131.277 65.1553 131.548 65.5147 132.089 65.776C132.63 66.0373 133.368 66.168 134.301 66.168C135.234 66.168 135.972 66.0373 136.513 65.776C137.054 65.5147 137.325 65.1553 137.325 64.698C137.325 64.2407 137.054 63.8813 136.513 63.62C135.981 63.3587 135.244 63.228 134.301 63.228C133.358 63.228 132.616 63.3587 132.075 63.62C131.543 63.8813 131.277 64.2407 131.277 64.698ZM137.269 59.21V57.642H134.399V59.21H137.269ZM150.149 55.556V56.676C150.149 57.5533 150.126 58.3373 150.079 59.028C150.033 59.7187 149.911 60.5073 149.715 61.394H151.577V62.262H146.565V67.036H145.529V62.262H140.503V61.394H148.651C148.857 60.5353 148.987 59.742 149.043 59.014L141.707 59.378L141.567 58.468L149.099 58.202C149.118 57.838 149.127 57.3293 149.127 56.676V56.424H141.917V55.556H150.149ZM162.736 55.346V56.2H160.86V59.07H162.694V59.91H158.788V61.436H163.8V62.29H152.74V61.436H157.752V59.91H153.818V59.07H155.652V56.2H153.776V55.346H162.736ZM154.182 63.396H155.232V65.888H162.582V66.756H154.182V63.396ZM159.824 59.07V56.2H156.716V59.07H159.824ZM175.028 54.772V62.024H173.978V60.064H171.108V61.128H165.55V55.696H171.108V56.774H173.978V54.772H175.028ZM170.086 60.288V56.55H166.572V60.288H170.086ZM166.936 64.698C166.936 63.97 167.295 63.4053 168.014 63.004C168.742 62.5933 169.741 62.388 171.01 62.388C172.279 62.388 173.273 62.5933 173.992 63.004C174.72 63.4053 175.084 63.97 175.084 64.698C175.084 65.426 174.72 65.9907 173.992 66.392C173.273 66.7933 172.279 66.994 171.01 66.994C169.741 66.994 168.742 66.7933 168.014 66.392C167.295 65.9907 166.936 65.426 166.936 64.698ZM167.986 64.698C167.986 65.1553 168.257 65.5147 168.798 65.776C169.339 66.0373 170.077 66.168 171.01 66.168C171.943 66.168 172.681 66.0373 173.222 65.776C173.763 65.5147 174.034 65.1553 174.034 64.698C174.034 64.2407 173.763 63.8813 173.222 63.62C172.69 63.3587 171.953 63.228 171.01 63.228C170.067 63.228 169.325 63.3587 168.784 63.62C168.252 63.8813 167.986 64.2407 167.986 64.698ZM173.978 59.21V57.642H171.108V59.21H173.978ZM186.858 55.556V56.676C186.858 57.5533 186.835 58.3373 186.788 59.028C186.742 59.7187 186.62 60.5073 186.424 61.394H188.286V62.262H183.274V67.036H182.238V62.262H177.212V61.394H185.36C185.566 60.5353 185.696 59.742 185.752 59.014L178.416 59.378L178.276 58.468L185.808 58.202C185.827 57.838 185.836 57.3293 185.836 56.676V56.424H178.626V55.556H186.858ZM199.445 55.346V56.2H197.569V59.07H199.403V59.91H195.497V61.436H200.509V62.29H189.449V61.436H194.461V59.91H190.527V59.07H192.361V56.2H190.485V55.346H199.445ZM190.891 63.396H191.941V65.888H199.291V66.756H190.891V63.396ZM196.533 59.07V56.2H193.425V59.07H196.533ZM211.737 54.772V62.024H210.687V60.064H207.817V61.128H202.259V55.696H207.817V56.774H210.687V54.772H211.737ZM206.795 60.288V56.55H203.281V60.288H206.795ZM203.645 64.698C203.645 63.97 204.004 63.4053 204.723 63.004C205.451 62.5933 206.45 62.388 207.719 62.388C208.988 62.388 209.982 62.5933 210.701 63.004C211.429 63.4053 211.793 63.97 211.793 64.698C211.793 65.426 211.429 65.9907 210.701 66.392C209.982 66.7933 208.988 66.994 207.719 66.994C206.45 66.994 205.451 66.7933 204.723 66.392C204.004 65.9907 203.645 65.426 203.645 64.698ZM204.695 64.698C204.695 65.1553 204.966 65.5147 205.507 65.776C206.048 66.0373 206.786 66.168 207.719 66.168C208.652 66.168 209.39 66.0373 209.931 65.776C210.472 65.5147 210.743 65.1553 210.743 64.698C210.743 64.2407 210.472 63.8813 209.931 63.62C209.399 63.3587 208.662 63.228 207.719 63.228C206.776 63.228 206.034 63.3587 205.493 63.62C204.961 63.8813 204.695 64.2407 204.695 64.698ZM210.687 59.21V57.642H207.817V59.21H210.687ZM223.567 55.556V56.676C223.567 57.5533 223.544 58.3373 223.497 59.028C223.451 59.7187 223.329 60.5073 223.133 61.394H224.995V62.262H219.983V67.036H218.947V62.262H213.921V61.394H222.069C222.275 60.5353 222.405 59.742 222.461 59.014L215.125 59.378L214.985 58.468L222.517 58.202C222.536 57.838 222.545 57.3293 222.545 56.676V56.424H215.335V55.556H223.567ZM236.154 55.346V56.2H234.278V59.07H236.112V59.91H232.206V61.436H237.218V62.29H226.158V61.436H231.17V59.91H227.236V59.07H229.07V56.2H227.194V55.346H236.154ZM227.6 63.396H228.65V65.888H236V66.756H227.6V63.396ZM233.242 59.07V56.2H230.134V59.07H233.242ZM239.976 60.232C240.163 60.232 240.312 60.2927 240.424 60.414C240.536 60.526 240.592 60.6707 240.592 60.848C240.592 61.0347 240.536 61.1887 240.424 61.31C240.321 61.422 240.172 61.478 239.976 61.478C239.78 61.478 239.626 61.422 239.514 61.31C239.402 61.1887 239.346 61.0347 239.346 60.848C239.346 60.6707 239.402 60.526 239.514 60.414C239.626 60.2927 239.78 60.232 239.976 60.232ZM242.804 60.834C242.804 60.6567 242.86 60.512 242.972 60.4C243.084 60.2787 243.238 60.218 243.434 60.218C243.621 60.218 243.77 60.2787 243.882 60.4C243.994 60.512 244.05 60.6567 244.05 60.834C244.05 61.0207 243.994 61.1747 243.882 61.296C243.779 61.408 243.63 61.464 243.434 61.464C243.238 61.464 243.084 61.408 242.972 61.296C242.86 61.1747 242.804 61.0207 242.804 60.834ZM246.29 60.834C246.29 60.6567 246.346 60.512 246.458 60.4C246.57 60.2787 246.724 60.218 246.92 60.218C247.107 60.218 247.256 60.2787 247.368 60.4C247.48 60.512 247.536 60.6567 247.536 60.834C247.536 61.0207 247.48 61.1747 247.368 61.296C247.265 61.408 247.116 61.464 246.92 61.464C246.724 61.464 246.57 61.408 246.458 61.296C246.346 61.1747 246.29 61.0207 246.29 60.834Z" fill="#1A1A1A"/>
<path d="M24.776 80.824V79.504H25.676V80.824H29.96V81.568H20.48V80.824H24.776ZM21.044 79.312C21.7 79.248 22.304 79.12 22.856 78.928C23.408 78.736 23.852 78.484 24.188 78.172C24.532 77.86 24.716 77.512 24.74 77.128H21.464V76.408H24.776V75.34H25.676V76.408H29V77.128H25.712C25.736 77.512 25.916 77.86 26.252 78.172C26.588 78.484 27.032 78.736 27.584 78.928C28.136 79.12 28.74 79.248 29.396 79.312L29.12 80.02C28.224 79.916 27.424 79.708 26.72 79.396C26.024 79.076 25.524 78.664 25.22 78.16C24.916 78.664 24.416 79.076 23.72 79.396C23.024 79.708 22.228 79.916 21.332 80.02L21.044 79.312ZM21.632 84.124C21.632 83.564 21.944 83.136 22.568 82.84C23.192 82.536 24.076 82.384 25.22 82.384C26.356 82.384 27.236 82.536 27.86 82.84C28.492 83.136 28.808 83.564 28.808 84.124C28.808 84.676 28.492 85.1 27.86 85.396C27.236 85.7 26.356 85.852 25.22 85.852C24.076 85.852 23.192 85.7 22.568 85.396C21.944 85.1 21.632 84.676 21.632 84.124ZM22.532 84.124C22.532 84.452 22.768 84.708 23.24 84.892C23.712 85.076 24.372 85.168 25.22 85.168C26.06 85.168 26.716 85.076 27.188 84.892C27.66 84.708 27.896 84.452 27.896 84.124C27.896 83.788 27.66 83.528 27.188 83.344C26.724 83.16 26.068 83.068 25.22 83.068C24.364 83.068 23.7 83.16 23.228 83.344C22.764 83.528 22.532 83.788 22.532 84.124ZM37.2019 75.916V77.068C37.2019 77.78 37.4419 78.44 37.9219 79.048C38.4099 79.656 39.0299 80.092 39.7819 80.356L39.3139 81.052C38.7379 80.844 38.2299 80.528 37.7899 80.104C37.3499 79.68 37.0179 79.188 36.7939 78.628C36.5699 79.26 36.2339 79.812 35.7859 80.284C35.3379 80.748 34.8059 81.104 34.1899 81.352L33.6979 80.632C34.4899 80.344 35.1259 79.872 35.6059 79.216C36.0859 78.552 36.3259 77.816 36.3259 77.008V75.916H37.2019ZM35.1019 83.956C35.1019 83.356 35.4059 82.892 36.0139 82.564C36.6219 82.228 37.4619 82.06 38.5339 82.06C39.6139 82.06 40.4579 82.228 41.0659 82.564C41.6739 82.892 41.9779 83.356 41.9779 83.956C41.9779 84.556 41.6739 85.02 41.0659 85.348C40.4579 85.684 39.6139 85.852 38.5339 85.852C37.4619 85.852 36.6219 85.684 36.0139 85.348C35.4059 85.02 35.1019 84.556 35.1019 83.956ZM35.9779 83.956C35.9779 84.324 36.2059 84.616 36.6619 84.832C37.1179 85.04 37.7419 85.144 38.5339 85.144C39.3259 85.144 39.9499 85.04 40.4059 84.832C40.8619 84.616 41.0899 84.324 41.0899 83.956C41.0899 83.588 40.8619 83.3 40.4059 83.092C39.9499 82.876 39.3259 82.768 38.5339 82.768C37.7419 82.768 37.1179 82.876 36.6619 83.092C36.2059 83.3 35.9779 83.588 35.9779 83.956ZM40.9699 75.376H41.8699V78.124H43.4419V78.88H41.8699V81.772H40.9699V75.376ZM53.7022 80.464V81.196H49.4062V82.468H52.5382V85.732H45.3982V82.468H48.5182V81.196H44.2222V80.464H53.7022ZM45.1102 75.724H52.7902V76.456H51.1822V78.724H52.7542V79.456H45.1462V78.724H46.7182V76.456H45.1102V75.724ZM51.6622 85V83.188H46.2742V85H51.6622ZM50.2942 78.724V76.456H47.6302V78.724H50.2942ZM61.8801 80.524C62.2641 80.748 62.5761 81.032 62.8161 81.376C63.0641 81.72 63.1881 82.092 63.1881 82.492C63.1881 82.948 63.0601 83.364 62.8041 83.74C62.5481 84.116 62.2041 84.412 61.7721 84.628C61.3401 84.836 60.8801 84.94 60.3921 84.94C59.9041 84.94 59.4441 84.836 59.0121 84.628C58.5881 84.412 58.2481 84.116 57.9921 83.74C57.7361 83.364 57.6081 82.948 57.6081 82.492H58.4721C58.4721 82.756 58.5521 83.012 58.7121 83.26C58.8801 83.508 59.1081 83.708 59.3961 83.86C59.6921 84.012 60.0241 84.088 60.3921 84.088C60.7601 84.088 61.0921 84.012 61.3881 83.86C61.6841 83.708 61.9161 83.512 62.0841 83.272C62.2521 83.024 62.3361 82.768 62.3361 82.504C62.3361 82.064 62.1761 81.692 61.8561 81.388C61.5441 81.084 61.0641 80.932 60.4161 80.932H59.7801V80.092H60.4161C60.9841 80.092 61.4281 79.952 61.7481 79.672C62.0681 79.392 62.2281 79.056 62.2281 78.664C62.2281 78.432 62.1521 78.208 62.0001 77.992C61.8481 77.768 61.6361 77.588 61.3641 77.452C61.1001 77.308 60.8001 77.236 60.4641 77.236C60.1281 77.236 59.8241 77.304 59.5521 77.44C59.2881 77.576 59.0801 77.756 58.9281 77.98C58.7841 78.204 58.7121 78.44 58.7121 78.688H57.8481C57.8481 78.264 57.9681 77.876 58.2081 77.524C58.4561 77.172 58.7801 76.896 59.1801 76.696C59.5801 76.496 60.0081 76.396 60.4641 76.396C60.9201 76.396 61.3481 76.496 61.7481 76.696C62.1481 76.896 62.4681 77.172 62.7081 77.524C62.9481 77.868 63.0681 78.256 63.0681 78.688C63.0681 79.048 62.9561 79.388 62.7321 79.708C62.5161 80.028 62.2321 80.3 61.8801 80.524ZM67.4887 84.076C68.1927 84.076 68.7367 83.792 69.1207 83.224C69.5047 82.656 69.6967 81.804 69.6967 80.668C69.6967 79.532 69.5047 78.684 69.1207 78.124C68.7367 77.556 68.1927 77.272 67.4887 77.272C66.7847 77.272 66.2367 77.556 65.8447 78.124C65.4607 78.684 65.2687 79.532 65.2687 80.668C65.2687 81.804 65.4607 82.656 65.8447 83.224C66.2367 83.792 66.7847 84.076 67.4887 84.076ZM64.4047 80.668C64.4047 79.788 64.5327 79.028 64.7887 78.388C65.0447 77.748 65.4047 77.26 65.8687 76.924C66.3327 76.58 66.8727 76.408 67.4887 76.408C68.1047 76.408 68.6447 76.58 69.1087 76.924C69.5727 77.26 69.9287 77.748 70.1767 78.388C70.4327 79.028 70.5607 79.788 70.5607 80.668C70.5607 81.548 70.4327 82.312 70.1767 82.96C69.9287 83.6 69.5727 84.092 69.1087 84.436C68.6447 84.772 68.1047 84.94 67.4887 84.94C66.8727 84.94 66.3327 84.772 65.8687 84.436C65.4047 84.092 65.0447 83.6 64.7887 82.96C64.5327 82.312 64.4047 81.548 64.4047 80.668ZM72.3398 86.308H71.7038L72.0638 84.088H72.9998L72.3398 86.308ZM78.141 84.076C78.845 84.076 79.389 83.792 79.773 83.224C80.157 82.656 80.349 81.804 80.349 80.668C80.349 79.532 80.157 78.684 79.773 78.124C79.389 77.556 78.845 77.272 78.141 77.272C77.437 77.272 76.889 77.556 76.497 78.124C76.113 78.684 75.921 79.532 75.921 80.668C75.921 81.804 76.113 82.656 76.497 83.224C76.889 83.792 77.437 84.076 78.141 84.076ZM75.057 80.668C75.057 79.788 75.185 79.028 75.441 78.388C75.697 77.748 76.057 77.26 76.521 76.924C76.985 76.58 77.525 76.408 78.141 76.408C78.757 76.408 79.297 76.58 79.761 76.924C80.225 77.26 80.581 77.748 80.829 78.388C81.085 79.028 81.213 79.788 81.213 80.668C81.213 81.548 81.085 82.312 80.829 82.96C80.581 83.6 80.225 84.092 79.761 84.436C79.297 84.772 78.757 84.94 78.141 84.94C77.525 84.94 76.985 84.772 76.521 84.436C76.057 84.092 75.697 83.6 75.441 82.96C75.185 82.312 75.057 81.548 75.057 80.668ZM85.5121 84.076C86.2161 84.076 86.7601 83.792 87.1441 83.224C87.5281 82.656 87.7201 81.804 87.7201 80.668C87.7201 79.532 87.5281 78.684 87.1441 78.124C86.7601 77.556 86.2161 77.272 85.5121 77.272C84.8081 77.272 84.2601 77.556 83.8681 78.124C83.4841 78.684 83.2921 79.532 83.2921 80.668C83.2921 81.804 83.4841 82.656 83.8681 83.224C84.2601 83.792 84.8081 84.076 85.5121 84.076ZM82.4281 80.668C82.4281 79.788 82.5561 79.028 82.8121 78.388C83.0681 77.748 83.4281 77.26 83.8921 76.924C84.3561 76.58 84.8961 76.408 85.5121 76.408C86.1281 76.408 86.6681 76.58 87.1321 76.924C87.5961 77.26 87.9521 77.748 88.2001 78.388C88.4561 79.028 88.5841 79.788 88.5841 80.668C88.5841 81.548 88.4561 82.312 88.2001 82.96C87.9521 83.6 87.5961 84.092 87.1321 84.436C86.6681 84.772 86.1281 84.94 85.5121 84.94C84.8961 84.94 84.3561 84.772 83.8921 84.436C83.4281 84.092 83.0681 83.6 82.8121 82.96C82.5561 82.312 82.4281 81.548 82.4281 80.668ZM92.8832 84.076C93.5872 84.076 94.1312 83.792 94.5152 83.224C94.8992 82.656 95.0912 81.804 95.0912 80.668C95.0912 79.532 94.8992 78.684 94.5152 78.124C94.1312 77.556 93.5872 77.272 92.8832 77.272C92.1792 77.272 91.6312 77.556 91.2392 78.124C90.8552 78.684 90.6632 79.532 90.6632 80.668C90.6632 81.804 90.8552 82.656 91.2392 83.224C91.6312 83.792 92.1792 84.076 92.8832 84.076ZM89.7992 80.668C89.7992 79.788 89.9272 79.028 90.1832 78.388C90.4392 77.748 90.7992 77.26 91.2632 76.924C91.7272 76.58 92.2672 76.408 92.8832 76.408C93.4992 76.408 94.0392 76.58 94.5032 76.924C94.9672 77.26 95.3232 77.748 95.5712 78.388C95.8272 79.028 95.9552 79.788 95.9552 80.668C95.9552 81.548 95.8272 82.312 95.5712 82.96C95.3232 83.6 94.9672 84.092 94.5032 84.436C94.0392 84.772 93.4992 84.94 92.8832 84.94C92.2672 84.94 91.7272 84.772 91.2632 84.436C90.7992 84.092 90.4392 83.6 90.1832 82.96C89.9272 82.312 89.7992 81.548 89.7992 80.668ZM105.606 75.376V83.368H104.706V82.252H102.558V81.592H104.706V75.376H105.606ZM96.9783 80.248C98.2663 80.248 99.4703 80.228 100.59 80.188C101.71 80.148 102.77 80.068 103.77 79.948L103.83 80.596C102.942 80.748 101.982 80.848 100.95 80.896V82.984H100.05V80.944C99.1703 80.984 98.1903 81.004 97.1103 81.004L96.9783 80.248ZM97.8183 77.632C97.8183 77.08 98.0543 76.64 98.5263 76.312C99.0063 75.976 99.6303 75.808 100.398 75.808C101.166 75.808 101.786 75.976 102.258 76.312C102.738 76.64 102.978 77.08 102.978 77.632C102.978 78.184 102.742 78.628 102.27 78.964C101.798 79.292 101.174 79.456 100.398 79.456C99.6223 79.456 98.9983 79.292 98.5263 78.964C98.0543 78.628 97.8183 78.184 97.8183 77.632ZM98.4903 82.588H99.3903V84.892H105.87V85.636H98.4903V82.588ZM98.6703 77.632C98.6703 77.976 98.8303 78.252 99.1503 78.46C99.4703 78.668 99.8863 78.772 100.398 78.772C100.91 78.772 101.322 78.668 101.634 78.46C101.954 78.252 102.114 77.976 102.114 77.632C102.114 77.288 101.954 77.012 101.634 76.804C101.322 76.588 100.91 76.48 100.398 76.48C99.8863 76.48 99.4703 76.588 99.1503 76.804C98.8303 77.012 98.6703 77.288 98.6703 77.632ZM118.872 75.364V85.888H117.972V75.364H118.872ZM110.688 79.84C110.688 79.112 110.8 78.472 111.024 77.92C111.248 77.368 111.56 76.944 111.96 76.648C112.368 76.344 112.832 76.192 113.352 76.192C113.864 76.192 114.32 76.344 114.72 76.648C115.128 76.944 115.444 77.368 115.668 77.92C115.892 78.472 116.004 79.112 116.004 79.84C116.004 80.568 115.892 81.212 115.668 81.772C115.444 82.324 115.128 82.752 114.72 83.056C114.32 83.352 113.864 83.5 113.352 83.5C112.832 83.5 112.368 83.352 111.96 83.056C111.56 82.752 111.248 82.324 111.024 81.772C110.8 81.22 110.688 80.576 110.688 79.84ZM111.564 79.84C111.564 80.408 111.64 80.908 111.792 81.34C111.944 81.772 112.152 82.108 112.416 82.348C112.688 82.58 113 82.696 113.352 82.696C113.696 82.696 114.004 82.58 114.276 82.348C114.548 82.108 114.76 81.772 114.912 81.34C115.064 80.9 115.14 80.4 115.14 79.84C115.14 79.28 115.064 78.784 114.912 78.352C114.76 77.92 114.548 77.588 114.276 77.356C114.004 77.116 113.696 76.996 113.352 76.996C113 76.996 112.688 77.116 112.416 77.356C112.152 77.588 111.944 77.92 111.792 78.352C111.64 78.776 111.564 79.272 111.564 79.84ZM124.261 75.916V77.068C124.261 77.78 124.501 78.44 124.981 79.048C125.469 79.656 126.089 80.092 126.841 80.356L126.372 81.052C125.797 80.844 125.289 80.528 124.849 80.104C124.409 79.68 124.077 79.188 123.853 78.628C123.629 79.26 123.293 79.812 122.845 80.284C122.397 80.748 121.865 81.104 121.249 81.352L120.757 80.632C121.549 80.344 122.185 79.872 122.665 79.216C123.145 78.552 123.385 77.816 123.385 77.008V75.916H124.261ZM122.161 83.956C122.161 83.356 122.465 82.892 123.073 82.564C123.681 82.228 124.521 82.06 125.593 82.06C126.673 82.06 127.517 82.228 128.125 82.564C128.733 82.892 129.037 83.356 129.037 83.956C129.037 84.556 128.733 85.02 128.125 85.348C127.517 85.684 126.673 85.852 125.593 85.852C124.521 85.852 123.681 85.684 123.073 85.348C122.465 85.02 122.161 84.556 122.161 83.956ZM123.037 83.956C123.037 84.324 123.265 84.616 123.721 84.832C124.177 85.04 124.801 85.144 125.593 85.144C126.385 85.144 127.009 85.04 127.465 84.832C127.921 84.616 128.149 84.324 128.149 83.956C128.149 83.588 127.921 83.3 127.465 83.092C127.009 82.876 126.385 82.768 125.593 82.768C124.801 82.768 124.177 82.876 123.721 83.092C123.265 83.3 123.037 83.588 123.037 83.956ZM128.029 75.376H128.929V78.124H130.501V78.88H128.929V81.772H128.029V75.376ZM142.278 76.072V76.984C142.278 77.664 142.262 78.268 142.23 78.796C142.198 79.316 142.114 79.912 141.978 80.584H143.538V81.34H139.23V85.9H138.318V81.34H134.046V80.584H141.066C141.21 79.92 141.298 79.324 141.33 78.796C141.37 78.268 141.39 77.664 141.39 76.984V76.804H135.258V76.072H142.278ZM153.439 75.376V85.876H152.575V80.296H151.099V85.336H150.247V75.616H151.099V79.552H152.575V75.376H153.439ZM144.931 76.6H148.903V83.032H144.931V76.6ZM148.063 82.324V77.32H145.771V82.324H148.063ZM161.461 76.3V78.208C161.461 78.832 161.589 79.452 161.845 80.068C162.101 80.676 162.445 81.22 162.877 81.7C163.309 82.18 163.777 82.536 164.281 82.768L163.741 83.488C163.141 83.192 162.601 82.748 162.121 82.156C161.641 81.556 161.277 80.88 161.029 80.128C160.789 80.928 160.425 81.644 159.937 82.276C159.449 82.908 158.897 83.376 158.281 83.68L157.729 82.936C158.233 82.696 158.701 82.328 159.133 81.832C159.573 81.336 159.921 80.772 160.177 80.14C160.433 79.5 160.561 78.856 160.561 78.208V76.3H161.461ZM165.445 75.364H166.345V85.888H165.445V75.364ZM29.996 96.364V97.12H27.476V100.876H26.564V97.12H23.876V100.876H22.952V97.12H20.48V96.364H29.996ZM21.548 93.088C21.548 92.624 21.7 92.224 22.004 91.888C22.308 91.544 22.736 91.28 23.288 91.096C23.84 90.912 24.48 90.82 25.208 90.82C25.936 90.82 26.576 90.912 27.128 91.096C27.68 91.28 28.108 91.544 28.412 91.888C28.716 92.224 28.868 92.624 28.868 93.088C28.868 93.552 28.716 93.956 28.412 94.3C28.108 94.644 27.68 94.908 27.128 95.092C26.576 95.276 25.936 95.368 25.208 95.368C24.48 95.368 23.84 95.276 23.288 95.092C22.736 94.908 22.308 94.644 22.004 94.3C21.7 93.956 21.548 93.552 21.548 93.088ZM22.472 93.088C22.472 93.56 22.72 93.936 23.216 94.216C23.72 94.496 24.384 94.636 25.208 94.636C26.032 94.636 26.696 94.496 27.2 94.216C27.704 93.936 27.956 93.56 27.956 93.088C27.956 92.624 27.7 92.252 27.188 91.972C26.684 91.684 26.024 91.54 25.208 91.54C24.392 91.54 23.732 91.684 23.228 91.972C22.724 92.252 22.472 92.624 22.472 93.088ZM35.2643 91.936V90.532H36.1643V91.936H39.9563V92.68H31.4483V91.936H35.2643ZM30.9683 98.896H33.5003V96.928C33.1083 96.768 32.8083 96.556 32.6003 96.292C32.3923 96.02 32.2883 95.708 32.2883 95.356C32.2883 94.732 32.5923 94.248 33.2003 93.904C33.8083 93.56 34.6443 93.388 35.7083 93.388C36.7723 93.388 37.6083 93.56 38.2163 93.904C38.8243 94.248 39.1283 94.732 39.1283 95.356C39.1283 95.708 39.0243 96.02 38.8163 96.292C38.6083 96.556 38.3083 96.768 37.9163 96.928V98.896H40.4843V99.64H30.9683V98.896ZM33.1883 95.356C33.1883 95.74 33.4123 96.044 33.8603 96.268C34.3083 96.484 34.9243 96.592 35.7083 96.592C36.4843 96.592 37.0963 96.484 37.5443 96.268C37.9923 96.044 38.2163 95.74 38.2163 95.356C38.2163 94.964 37.9923 94.656 37.5443 94.432C37.1043 94.2 36.4923 94.084 35.7083 94.084C34.9243 94.084 34.3083 94.2 33.8603 94.432C33.4123 94.656 33.1883 94.964 33.1883 95.356ZM37.0283 98.896V97.192C36.6363 97.264 36.1963 97.3 35.7083 97.3C35.2283 97.3 34.7883 97.264 34.3883 97.192V98.896H37.0283ZM50.0486 90.376V100.876H49.1486V90.376H50.0486ZM41.5886 98.176C42.9806 97.512 44.0446 96.68 44.7806 95.68C45.5246 94.672 45.9446 93.528 46.0406 92.248H42.0566V91.504H46.9526C46.9526 93.088 46.5566 94.512 45.7646 95.776C44.9806 97.032 43.7486 98.072 42.0686 98.896L41.5886 98.176ZM60.0808 90.376V93.58H61.6528V94.336H60.0808V98.056H59.1808V90.376H60.0808ZM51.9688 96.112C53.2328 95.72 54.2448 95.16 55.0048 94.432C55.7728 93.704 56.2048 92.872 56.3008 91.936H52.4008V91.192H57.2728C57.2728 92.52 56.8368 93.672 55.9648 94.648C55.0928 95.624 53.8888 96.356 52.3528 96.844L51.9688 96.112ZM53.5648 97.276H54.4648V99.892H60.5608V100.636H53.5648V97.276ZM65.3788 98.896C65.6668 98.616 66.1308 98.196 66.7708 97.636C67.3948 97.092 67.8948 96.636 68.2708 96.268C68.6468 95.9 68.9628 95.52 69.2188 95.128C69.4748 94.736 69.6028 94.36 69.6028 94C69.6028 93.48 69.4388 93.068 69.1108 92.764C68.7908 92.46 68.3948 92.308 67.9228 92.308C67.0988 92.308 66.4988 92.728 66.1228 93.568L65.3308 93.208C65.6108 92.568 65.9868 92.112 66.4588 91.84C66.9388 91.568 67.4268 91.432 67.9228 91.432C68.3468 91.432 68.7548 91.54 69.1468 91.756C69.5468 91.964 69.8668 92.264 70.1068 92.656C70.3548 93.048 70.4788 93.496 70.4788 94C70.4788 94.488 70.3268 94.98 70.0228 95.476C69.7188 95.964 69.3508 96.42 68.9188 96.844C68.4948 97.268 67.9388 97.78 67.2508 98.38L66.6748 98.896H70.5988V99.772H65.3788V98.896ZM74.8949 99.076C75.5989 99.076 76.1429 98.792 76.5269 98.224C76.9109 97.656 77.1029 96.804 77.1029 95.668C77.1029 94.532 76.9109 93.684 76.5269 93.124C76.1429 92.556 75.5989 92.272 74.8949 92.272C74.1909 92.272 73.6429 92.556 73.2509 93.124C72.8669 93.684 72.6749 94.532 72.6749 95.668C72.6749 96.804 72.8669 97.656 73.2509 98.224C73.6429 98.792 74.1909 99.076 74.8949 99.076ZM71.8109 95.668C71.8109 94.788 71.9389 94.028 72.1949 93.388C72.4509 92.748 72.8109 92.26 73.2749 91.924C73.7389 91.58 74.2789 91.408 74.8949 91.408C75.5109 91.408 76.0509 91.58 76.5149 91.924C76.9789 92.26 77.3349 92.748 77.5829 93.388C77.8389 94.028 77.9669 94.788 77.9669 95.668C77.9669 96.548 77.8389 97.312 77.5829 97.96C77.3349 98.6 76.9789 99.092 76.5149 99.436C76.0509 99.772 75.5109 99.94 74.8949 99.94C74.2789 99.94 73.7389 99.772 73.2749 99.436C72.8109 99.092 72.4509 98.6 72.1949 97.96C71.9389 97.312 71.8109 96.548 71.8109 95.668ZM79.242 98.896C79.53 98.616 79.994 98.196 80.634 97.636C81.258 97.092 81.758 96.636 82.134 96.268C82.51 95.9 82.826 95.52 83.082 95.128C83.338 94.736 83.466 94.36 83.466 94C83.466 93.48 83.302 93.068 82.974 92.764C82.654 92.46 82.258 92.308 81.786 92.308C80.962 92.308 80.362 92.728 79.986 93.568L79.194 93.208C79.474 92.568 79.85 92.112 80.322 91.84C80.802 91.568 81.29 91.432 81.786 91.432C82.21 91.432 82.618 91.54 83.01 91.756C83.41 91.964 83.73 92.264 83.97 92.656C84.218 93.048 84.342 93.496 84.342 94C84.342 94.488 84.19 94.98 83.886 95.476C83.582 95.964 83.214 96.42 82.782 96.844C82.358 97.268 81.802 97.78 81.114 98.38L80.538 98.896H84.462V99.772H79.242V98.896ZM85.7342 98.896C86.0222 98.616 86.4862 98.196 87.1262 97.636C87.7502 97.092 88.2502 96.636 88.6262 96.268C89.0022 95.9 89.3182 95.52 89.5742 95.128C89.8302 94.736 89.9582 94.36 89.9582 94C89.9582 93.48 89.7942 93.068 89.4662 92.764C89.1462 92.46 88.7502 92.308 88.2782 92.308C87.4542 92.308 86.8542 92.728 86.4782 93.568L85.6862 93.208C85.9662 92.568 86.3422 92.112 86.8142 91.84C87.2942 91.568 87.7822 91.432 88.2782 91.432C88.7022 91.432 89.1102 91.54 89.5022 91.756C89.9022 91.964 90.2222 92.264 90.4622 92.656C90.7102 93.048 90.8342 93.496 90.8342 94C90.8342 94.488 90.6822 94.98 90.3782 95.476C90.0742 95.964 89.7062 96.42 89.2742 96.844C88.8502 97.268 88.2942 97.78 87.6062 98.38L87.0302 98.896H90.9542V99.772H85.7342V98.896ZM92.9224 98.956C93.1064 98.956 93.2504 99.012 93.3544 99.124C93.4584 99.236 93.5104 99.376 93.5104 99.544C93.5104 99.728 93.4584 99.876 93.3544 99.988C93.2504 100.1 93.1064 100.156 92.9224 100.156C92.7304 100.156 92.5784 100.1 92.4664 99.988C92.3624 99.868 92.3104 99.72 92.3104 99.544C92.3104 99.376 92.3624 99.236 92.4664 99.124C92.5784 99.012 92.7304 98.956 92.9224 98.956ZM98.4145 99.076C99.1185 99.076 99.6625 98.792 100.046 98.224C100.43 97.656 100.622 96.804 100.622 95.668C100.622 94.532 100.43 93.684 100.046 93.124C99.6625 92.556 99.1185 92.272 98.4145 92.272C97.7105 92.272 97.1625 92.556 96.7705 93.124C96.3865 93.684 96.1945 94.532 96.1945 95.668C96.1945 96.804 96.3865 97.656 96.7705 98.224C97.1625 98.792 97.7105 99.076 98.4145 99.076ZM95.3305 95.668C95.3305 94.788 95.4585 94.028 95.7145 93.388C95.9705 92.748 96.3305 92.26 96.7945 91.924C97.2585 91.58 97.7985 91.408 98.4145 91.408C99.0305 91.408 99.5705 91.58 100.034 91.924C100.498 92.26 100.854 92.748 101.102 93.388C101.358 94.028 101.486 94.788 101.486 95.668C101.486 96.548 101.358 97.312 101.102 97.96C100.854 98.6 100.498 99.092 100.034 99.436C99.5705 99.772 99.0305 99.94 98.4145 99.94C97.7985 99.94 97.2585 99.772 96.7945 99.436C96.3305 99.092 95.9705 98.6 95.7145 97.96C95.4585 97.312 95.3305 96.548 95.3305 95.668ZM105.786 99.076C106.49 99.076 107.034 98.792 107.418 98.224C107.802 97.656 107.994 96.804 107.994 95.668C107.994 94.532 107.802 93.684 107.418 93.124C107.034 92.556 106.49 92.272 105.786 92.272C105.082 92.272 104.534 92.556 104.142 93.124C103.758 93.684 103.566 94.532 103.566 95.668C103.566 96.804 103.758 97.656 104.142 98.224C104.534 98.792 105.082 99.076 105.786 99.076ZM102.702 95.668C102.702 94.788 102.83 94.028 103.086 93.388C103.342 92.748 103.702 92.26 104.166 91.924C104.63 91.58 105.17 91.408 105.786 91.408C106.402 91.408 106.942 91.58 107.406 91.924C107.87 92.26 108.226 92.748 108.474 93.388C108.73 94.028 108.858 94.788 108.858 95.668C108.858 96.548 108.73 97.312 108.474 97.96C108.226 98.6 107.87 99.092 107.406 99.436C106.942 99.772 106.402 99.94 105.786 99.94C105.17 99.94 104.63 99.772 104.166 99.436C103.702 99.092 103.342 98.6 103.086 97.96C102.83 97.312 102.702 96.548 102.702 95.668ZM110.829 98.956C111.013 98.956 111.157 99.012 111.261 99.124C111.365 99.236 111.417 99.376 111.417 99.544C111.417 99.728 111.365 99.876 111.261 99.988C111.157 100.1 111.013 100.156 110.829 100.156C110.637 100.156 110.485 100.1 110.373 99.988C110.269 99.868 110.217 99.72 110.217 99.544C110.217 99.376 110.269 99.236 110.373 99.124C110.485 99.012 110.637 98.956 110.829 98.956ZM116.321 99.076C117.025 99.076 117.569 98.792 117.953 98.224C118.337 97.656 118.529 96.804 118.529 95.668C118.529 94.532 118.337 93.684 117.953 93.124C117.569 92.556 117.025 92.272 116.321 92.272C115.617 92.272 115.069 92.556 114.677 93.124C114.293 93.684 114.101 94.532 114.101 95.668C114.101 96.804 114.293 97.656 114.677 98.224C115.069 98.792 115.617 99.076 116.321 99.076ZM113.237 95.668C113.237 94.788 113.365 94.028 113.621 93.388C113.877 92.748 114.237 92.26 114.701 91.924C115.165 91.58 115.705 91.408 116.321 91.408C116.937 91.408 117.477 91.58 117.941 91.924C118.405 92.26 118.761 92.748 119.009 93.388C119.265 94.028 119.393 94.788 119.393 95.668C119.393 96.548 119.265 97.312 119.009 97.96C118.761 98.6 118.405 99.092 117.941 99.436C117.477 99.772 116.937 99.94 116.321 99.94C115.705 99.94 115.165 99.772 114.701 99.436C114.237 99.092 113.877 98.6 113.621 97.96C113.365 97.312 113.237 96.548 113.237 95.668ZM123.692 99.076C124.396 99.076 124.94 98.792 125.324 98.224C125.708 97.656 125.9 96.804 125.9 95.668C125.9 94.532 125.708 93.684 125.324 93.124C124.94 92.556 124.396 92.272 123.692 92.272C122.988 92.272 122.44 92.556 122.048 93.124C121.664 93.684 121.472 94.532 121.472 95.668C121.472 96.804 121.664 97.656 122.048 98.224C122.44 98.792 122.988 99.076 123.692 99.076ZM120.608 95.668C120.608 94.788 120.736 94.028 120.992 93.388C121.248 92.748 121.608 92.26 122.072 91.924C122.536 91.58 123.076 91.408 123.692 91.408C124.308 91.408 124.848 91.58 125.312 91.924C125.776 92.26 126.132 92.748 126.38 93.388C126.636 94.028 126.764 94.788 126.764 95.668C126.764 96.548 126.636 97.312 126.38 97.96C126.132 98.6 125.776 99.092 125.312 99.436C124.848 99.772 124.308 99.94 123.692 99.94C123.076 99.94 122.536 99.772 122.072 99.436C121.608 99.092 121.248 98.6 120.992 97.96C120.736 97.312 120.608 96.548 120.608 95.668Z" fill="#797979"/>
</svg>
