<svg width="324" height="114" viewBox="0 0 324 114" fill="none" xmlns="http://www.w3.org/2000/svg">
<path d="M21.5 57C21.5 62.799 16.799 67.5 11 67.5C5.20101 67.5 0.5 62.799 0.5 57C0.5 51.201 5.20101 46.5 11 46.5C16.799 46.5 21.5 51.201 21.5 57Z" stroke="#CCCCCC"/>
<path d="M6.32788 56.9277L10.3279 60.7507L16.3279 55.1289" stroke="#CCCCCC" stroke-width="1.6" stroke-linecap="round" stroke-linejoin="round"/>
<mask id="path-3-inside-1_1107_30736" fill="white">
<path fill-rule="evenodd" clip-rule="evenodd" d="M38 0C34.6863 0 32 2.68629 32 6V45C38.8346 45.0001 44.3751 50.8204 44.3751 58C44.3751 65.1796 38.8346 70.9999 32 71V108C32 111.314 34.6863 114 38 114H318C321.314 114 324 111.314 324 108V6C324 2.68629 321.314 0 318 0H38Z"/>
</mask>
<path fill-rule="evenodd" clip-rule="evenodd" d="M38 0C34.6863 0 32 2.68629 32 6V45C38.8346 45.0001 44.3751 50.8204 44.3751 58C44.3751 65.1796 38.8346 70.9999 32 71V108C32 111.314 34.6863 114 38 114H318C321.314 114 324 111.314 324 108V6C324 2.68629 321.314 0 318 0H38Z" fill="white"/>
<path d="M32 45H31V46L32 46L32 45ZM32 71L32 70L31 70V71H32ZM33 6C33 3.23857 35.2386 1 38 1V-1C34.134 -1 31 2.134 31 6H33ZM33 45V6H31V45H33ZM32 46C38.2364 46.0001 43.3751 51.3257 43.3751 58H45.3751C45.3751 50.3151 39.4327 44.0001 32 44L32 46ZM43.3751 58C43.3751 64.6743 38.2364 69.9999 32 70L32 72C39.4327 71.9999 45.3751 65.6849 45.3751 58H43.3751ZM33 108V71H31V108H33ZM38 113C35.2386 113 33 110.761 33 108H31C31 111.866 34.134 115 38 115V113ZM318 113H38V115H318V113ZM323 108C323 110.761 320.761 113 318 113V115C321.866 115 325 111.866 325 108H323ZM323 6V108H325V6H323ZM318 1C320.761 1 323 3.23857 323 6H325C325 2.13401 321.866 -1 318 -1V1ZM38 1H318V-1H38V1Z" fill="#E7342C" mask="url(#path-3-inside-1_1107_30736)"/>
<path d="M284 1H318C321.314 1 324 3.68629 324 7V108C324 111.314 321.314 114 318 114H284V1Z" fill="#E7342C"/>
<path d="M310.096 95.84C310.096 96.688 309.9 97.436 309.508 98.084C309.108 98.732 308.572 99.232 307.9 99.584C307.22 99.936 306.476 100.112 305.668 100.112C304.86 100.112 304.12 99.936 303.448 99.584C302.768 99.232 302.232 98.732 301.84 98.084C301.44 97.436 301.24 96.688 301.24 95.84C301.24 95.256 301.356 94.704 301.588 94.184C301.812 93.664 302.128 93.208 302.536 92.816L303.136 93.452C302.816 93.764 302.568 94.124 302.392 94.532C302.216 94.94 302.128 95.376 302.128 95.84C302.128 96.52 302.284 97.116 302.596 97.628C302.908 98.14 303.336 98.536 303.88 98.816C304.416 99.088 305.012 99.224 305.668 99.224C306.332 99.224 306.936 99.088 307.48 98.816C308.016 98.536 308.44 98.14 308.752 97.628C309.064 97.116 309.22 96.52 309.22 95.84C309.22 95.376 309.132 94.94 308.956 94.532C308.772 94.124 308.52 93.764 308.2 93.452L308.8 92.816C309.208 93.208 309.528 93.664 309.76 94.184C309.984 94.704 310.096 95.256 310.096 95.84ZM309.22 80.8399C309.22 80.1919 309.064 79.6119 308.752 79.0999C308.432 78.5799 308.004 78.1759 307.468 77.8879C306.924 77.5999 306.324 77.4559 305.668 77.4559C305.02 77.4559 304.428 77.5999 303.892 77.8879C303.348 78.1759 302.92 78.5799 302.608 79.0999C302.288 79.6119 302.128 80.1919 302.128 80.8399C302.128 81.4879 302.284 82.0719 302.596 82.5919C302.908 83.1039 303.336 83.5039 303.88 83.7919C304.416 84.0799 305.012 84.2239 305.668 84.2239C306.324 84.2239 306.924 84.0799 307.468 83.7919C308.004 83.5039 308.432 83.1039 308.752 82.5919C309.064 82.0719 309.22 81.4879 309.22 80.8399ZM305.668 85.0999C304.868 85.0999 304.128 84.9199 303.448 84.5599C302.768 84.1919 302.232 83.6839 301.84 83.0359C301.44 82.3879 301.24 81.6559 301.24 80.8399C301.24 80.0239 301.44 79.2919 301.84 78.6439C302.232 77.9959 302.768 77.4919 303.448 77.1319C304.128 76.7639 304.868 76.5799 305.668 76.5799C306.476 76.5799 307.22 76.7639 307.9 77.1319C308.572 77.4919 309.108 77.9959 309.508 78.6439C309.9 79.2919 310.096 80.0239 310.096 80.8399C310.096 81.6559 309.9 82.3879 309.508 83.0359C309.108 83.6839 308.572 84.1919 307.9 84.5599C307.22 84.9199 306.476 85.0999 305.668 85.0999ZM309.196 65.1921C309.196 65.6561 309.088 66.0761 308.872 66.4521C308.656 66.8201 308.352 67.1121 307.96 67.3281C307.568 67.5441 307.128 67.6521 306.64 67.6521L301.336 67.6521L301.336 68.5161L306.628 68.5161C307.268 68.5161 307.852 68.3681 308.38 68.0721C308.908 67.7681 309.324 67.3601 309.628 66.8481C309.932 66.3361 310.084 65.7841 310.084 65.1921C310.084 64.6001 309.932 64.0481 309.628 63.5361C309.324 63.0241 308.908 62.6201 308.38 62.3241C307.852 62.0201 307.268 61.8681 306.628 61.8681L301.336 61.8681L301.336 62.7321L306.64 62.7321C307.128 62.7321 307.568 62.8401 307.96 63.0561C308.352 63.2721 308.656 63.5681 308.872 63.9441C309.088 64.3121 309.196 64.7281 309.196 65.1921ZM305.812 50.1231C305.812 49.7951 305.728 49.4911 305.56 49.2111C305.392 48.9231 305.168 48.6991 304.888 48.5391C304.608 48.3711 304.308 48.2871 303.988 48.2871C303.66 48.2871 303.356 48.3711 303.076 48.5391C302.796 48.6991 302.576 48.9231 302.416 49.2111C302.248 49.4911 302.164 49.7951 302.164 50.1231L302.164 52.5471L305.812 52.5471L305.812 50.1231ZM301.336 53.4351L301.336 50.0991C301.336 49.6191 301.456 49.1791 301.696 48.7791C301.928 48.3791 302.248 48.0631 302.656 47.8311C303.064 47.5911 303.508 47.4711 303.988 47.4711C304.468 47.4711 304.912 47.5911 305.32 47.8311C305.72 48.0631 306.04 48.3791 306.28 48.7791C306.52 49.1791 306.64 49.6191 306.64 50.0991L306.64 52.5471L310 52.5471L310 53.4351L301.336 53.4351ZM309.22 35.6069C309.22 34.9589 309.064 34.3789 308.752 33.8669C308.432 33.3469 308.004 32.9429 307.468 32.6549C306.924 32.3669 306.324 32.2229 305.668 32.2229C305.02 32.2229 304.428 32.3669 303.892 32.6549C303.348 32.9429 302.92 33.3469 302.608 33.8669C302.288 34.3789 302.128 34.9589 302.128 35.6069C302.128 36.2549 302.284 36.8389 302.596 37.3589C302.908 37.8709 303.336 38.2709 303.88 38.5589C304.416 38.8469 305.012 38.9909 305.668 38.9909C306.324 38.9909 306.924 38.8469 307.468 38.5589C308.004 38.2709 308.432 37.8709 308.752 37.3589C309.064 36.8389 309.22 36.2549 309.22 35.6069ZM305.668 39.8669C304.868 39.8669 304.128 39.6869 303.448 39.3269C302.768 38.9589 302.232 38.4509 301.84 37.8029C301.44 37.1549 301.24 36.4229 301.24 35.6069C301.24 34.7909 301.44 34.0589 301.84 33.4109C302.232 32.7629 302.768 32.2589 303.448 31.8989C304.128 31.5309 304.868 31.3469 305.668 31.3469C306.476 31.3469 307.22 31.5309 307.9 31.8989C308.572 32.2589 309.108 32.7629 309.508 33.4109C309.9 34.0589 310.096 34.7909 310.096 35.6069C310.096 36.4229 309.9 37.1549 309.508 37.8029C309.108 38.4509 308.572 38.9589 307.9 39.3269C307.22 39.6869 306.476 39.8669 305.668 39.8669ZM310 16.4523L310 17.3043L302.812 22.5723L310 22.5723L310 23.4483L301.336 23.4483L301.336 22.5723L308.512 17.3043L301.336 17.3043L301.336 16.4523L310 16.4523Z" fill="white"/>
<path d="M54.678 39.156L62.01 23.66H53.56V20.54H65.494V23.66L58.162 39.156H54.678ZM80.7996 24.34H83.1996L73.8596 39.18H71.5196L80.7996 24.34ZM68.0996 28.14C68.0996 27.4067 68.2729 26.7333 68.6196 26.12C68.9796 25.4933 69.4596 25 70.0596 24.64C70.6596 24.28 71.3196 24.1 72.0396 24.1C72.7596 24.1 73.4196 24.28 74.0196 24.64C74.6196 25 75.0929 25.4933 75.4396 26.12C75.7863 26.7333 75.9596 27.4067 75.9596 28.14C75.9596 28.86 75.7863 29.5333 75.4396 30.16C75.0929 30.7733 74.6196 31.2667 74.0196 31.64C73.4196 32 72.7596 32.18 72.0396 32.18C71.3196 32.18 70.6596 32 70.0596 31.64C69.4596 31.2667 68.9796 30.7733 68.6196 30.16C68.2729 29.5333 68.0996 28.86 68.0996 28.14ZM70.3196 28.14C70.3196 28.6333 70.4863 29.06 70.8196 29.42C71.1663 29.78 71.5729 29.96 72.0396 29.96C72.5063 29.96 72.9063 29.78 73.2396 29.42C73.5863 29.06 73.7596 28.6333 73.7596 28.14C73.7596 27.6333 73.5863 27.2067 73.2396 26.86C72.9063 26.5 72.5063 26.32 72.0396 26.32C71.5729 26.32 71.1663 26.5 70.8196 26.86C70.4863 27.2067 70.3196 27.6333 70.3196 28.14ZM78.5796 35.26C78.5796 34.5267 78.7529 33.8533 79.0996 33.24C79.4596 32.6133 79.9396 32.12 80.5396 31.76C81.1396 31.4 81.7996 31.22 82.5196 31.22C83.2396 31.22 83.8929 31.4 84.4796 31.76C85.0796 32.12 85.5529 32.6133 85.8996 33.24C86.2463 33.8533 86.4196 34.5267 86.4196 35.26C86.4196 35.98 86.2463 36.6533 85.8996 37.28C85.5529 37.8933 85.0796 38.3867 84.4796 38.76C83.8929 39.12 83.2396 39.3 82.5196 39.3C81.7996 39.3 81.1396 39.12 80.5396 38.76C79.9396 38.3867 79.4596 37.8933 79.0996 37.28C78.7529 36.6533 78.5796 35.98 78.5796 35.26ZM80.7796 35.26C80.7796 35.7533 80.9529 36.18 81.2996 36.54C81.6463 36.9 82.0529 37.08 82.5196 37.08C82.9863 37.08 83.3863 36.9067 83.7196 36.56C84.0529 36.2 84.2196 35.7667 84.2196 35.26C84.2196 34.7533 84.0529 34.3267 83.7196 33.98C83.3863 33.62 82.9863 33.44 82.5196 33.44C82.0396 33.44 81.6263 33.62 81.2796 33.98C80.9463 34.3267 80.7796 34.7533 80.7796 35.26Z" fill="#E7342C"/>
<path d="M56.004 56.186H54.394V65.734H56.004V66.686H53.442V55.248H56.004V56.186ZM67.4642 54.758V67.036H66.4142V54.758H67.4642ZM57.9162 59.98C57.9162 59.1307 58.0469 58.384 58.3082 57.74C58.5695 57.096 58.9335 56.6013 59.4002 56.256C59.8762 55.9013 60.4175 55.724 61.0242 55.724C61.6215 55.724 62.1535 55.9013 62.6202 56.256C63.0962 56.6013 63.4649 57.096 63.7262 57.74C63.9875 58.384 64.1182 59.1307 64.1182 59.98C64.1182 60.8293 63.9875 61.5807 63.7262 62.234C63.4649 62.878 63.0962 63.3773 62.6202 63.732C62.1535 64.0773 61.6215 64.25 61.0242 64.25C60.4175 64.25 59.8762 64.0773 59.4002 63.732C58.9335 63.3773 58.5695 62.878 58.3082 62.234C58.0469 61.59 57.9162 60.8387 57.9162 59.98ZM58.9382 59.98C58.9382 60.6427 59.0269 61.226 59.2042 61.73C59.3815 62.234 59.6242 62.626 59.9322 62.906C60.2495 63.1767 60.6135 63.312 61.0242 63.312C61.4255 63.312 61.7849 63.1767 62.1022 62.906C62.4195 62.626 62.6669 62.234 62.8442 61.73C63.0215 61.2167 63.1102 60.6333 63.1102 59.98C63.1102 59.3267 63.0215 58.748 62.8442 58.244C62.6669 57.74 62.4195 57.3527 62.1022 57.082C61.7849 56.802 61.4255 56.662 61.0242 56.662C60.6135 56.662 60.2495 56.802 59.9322 57.082C59.6242 57.3527 59.3815 57.74 59.2042 58.244C59.0269 58.7387 58.9382 59.3173 58.9382 59.98ZM80.0225 54.772V64.068H79.0145V54.772H80.0225ZM70.2785 55.752H71.2585V57.838H74.0025V55.752H74.9965V58.342H76.6905V55.01H77.6985V63.718H76.6905V59.196H74.9965V61.73H70.2785V55.752ZM74.0025 60.876V58.678H71.2585V60.876H74.0025ZM72.0565 62.808H73.1065V65.874H80.3865V66.742H72.0565V62.808ZM91.6429 55.836V56.69H84.4469V58.566H91.3769V59.42H84.4469V61.394H91.7689V62.262H83.3829V55.836H91.6429ZM81.9409 64.544H93.0429V65.412H81.9409V64.544ZM97.0892 55.248V66.686H94.5272V65.734H96.1372V56.186H94.5272V55.248H97.0892ZM108.731 55.556V56.676C108.731 57.5533 108.708 58.3373 108.661 59.028C108.615 59.7187 108.493 60.5073 108.297 61.394H110.159V62.262H105.147V67.036H104.111V62.262H99.0854V61.394H107.233C107.439 60.5353 107.569 59.742 107.625 59.014L100.289 59.378L100.149 58.468L107.681 58.202C107.7 57.838 107.709 57.3293 107.709 56.676V56.424H100.499V55.556H108.731ZM121.318 55.346V56.2H119.442V59.07H121.276V59.91H117.37V61.436H122.382V62.29H111.322V61.436H116.334V59.91H112.4V59.07H114.234V56.2H112.358V55.346H121.318ZM112.764 63.396H113.814V65.888H121.164V66.756H112.764V63.396ZM118.406 59.07V56.2H115.298V59.07H118.406ZM133.61 54.772V62.024H132.56V60.064H129.69V61.128H124.132V55.696H129.69V56.774H132.56V54.772H133.61ZM128.668 60.288V56.55H125.154V60.288H128.668ZM125.518 64.698C125.518 63.97 125.877 63.4053 126.596 63.004C127.324 62.5933 128.323 62.388 129.592 62.388C130.861 62.388 131.855 62.5933 132.574 63.004C133.302 63.4053 133.666 63.97 133.666 64.698C133.666 65.426 133.302 65.9907 132.574 66.392C131.855 66.7933 130.861 66.994 129.592 66.994C128.323 66.994 127.324 66.7933 126.596 66.392C125.877 65.9907 125.518 65.426 125.518 64.698ZM126.568 64.698C126.568 65.1553 126.839 65.5147 127.38 65.776C127.921 66.0373 128.659 66.168 129.592 66.168C130.525 66.168 131.263 66.0373 131.804 65.776C132.345 65.5147 132.616 65.1553 132.616 64.698C132.616 64.2407 132.345 63.8813 131.804 63.62C131.272 63.3587 130.535 63.228 129.592 63.228C128.649 63.228 127.907 63.3587 127.366 63.62C126.834 63.8813 126.568 64.2407 126.568 64.698ZM132.56 59.21V57.642H129.69V59.21H132.56ZM145.44 55.556V56.676C145.44 57.5533 145.417 58.3373 145.37 59.028C145.324 59.7187 145.202 60.5073 145.006 61.394H146.868V62.262H141.856V67.036H140.82V62.262H135.794V61.394H143.942C144.148 60.5353 144.278 59.742 144.334 59.014L136.998 59.378L136.858 58.468L144.39 58.202C144.409 57.838 144.418 57.3293 144.418 56.676V56.424H137.208V55.556H145.44ZM158.027 55.346V56.2H156.151V59.07H157.985V59.91H154.079V61.436H159.091V62.29H148.031V61.436H153.043V59.91H149.109V59.07H150.943V56.2H149.067V55.346H158.027ZM149.473 63.396H150.523V65.888H157.873V66.756H149.473V63.396ZM155.115 59.07V56.2H152.007V59.07H155.115ZM170.319 54.772V62.024H169.269V60.064H166.399V61.128H160.841V55.696H166.399V56.774H169.269V54.772H170.319ZM165.377 60.288V56.55H161.863V60.288H165.377ZM162.227 64.698C162.227 63.97 162.586 63.4053 163.305 63.004C164.033 62.5933 165.032 62.388 166.301 62.388C167.57 62.388 168.564 62.5933 169.283 63.004C170.011 63.4053 170.375 63.97 170.375 64.698C170.375 65.426 170.011 65.9907 169.283 66.392C168.564 66.7933 167.57 66.994 166.301 66.994C165.032 66.994 164.033 66.7933 163.305 66.392C162.586 65.9907 162.227 65.426 162.227 64.698ZM163.277 64.698C163.277 65.1553 163.548 65.5147 164.089 65.776C164.63 66.0373 165.368 66.168 166.301 66.168C167.234 66.168 167.972 66.0373 168.513 65.776C169.054 65.5147 169.325 65.1553 169.325 64.698C169.325 64.2407 169.054 63.8813 168.513 63.62C167.981 63.3587 167.244 63.228 166.301 63.228C165.358 63.228 164.616 63.3587 164.075 63.62C163.543 63.8813 163.277 64.2407 163.277 64.698ZM169.269 59.21V57.642H166.399V59.21H169.269ZM182.149 55.556V56.676C182.149 57.5533 182.126 58.3373 182.079 59.028C182.033 59.7187 181.911 60.5073 181.715 61.394H183.577V62.262H178.565V67.036H177.529V62.262H172.503V61.394H180.651C180.857 60.5353 180.987 59.742 181.043 59.014L173.707 59.378L173.567 58.468L181.099 58.202C181.118 57.838 181.127 57.3293 181.127 56.676V56.424H173.917V55.556H182.149ZM194.736 55.346V56.2H192.86V59.07H194.694V59.91H190.788V61.436H195.8V62.29H184.74V61.436H189.752V59.91H185.818V59.07H187.652V56.2H185.776V55.346H194.736ZM186.182 63.396H187.232V65.888H194.582V66.756H186.182V63.396ZM191.824 59.07V56.2H188.716V59.07H191.824ZM207.028 54.772V62.024H205.978V60.064H203.108V61.128H197.55V55.696H203.108V56.774H205.978V54.772H207.028ZM202.086 60.288V56.55H198.572V60.288H202.086ZM198.936 64.698C198.936 63.97 199.295 63.4053 200.014 63.004C200.742 62.5933 201.741 62.388 203.01 62.388C204.279 62.388 205.273 62.5933 205.992 63.004C206.72 63.4053 207.084 63.97 207.084 64.698C207.084 65.426 206.72 65.9907 205.992 66.392C205.273 66.7933 204.279 66.994 203.01 66.994C201.741 66.994 200.742 66.7933 200.014 66.392C199.295 65.9907 198.936 65.426 198.936 64.698ZM199.986 64.698C199.986 65.1553 200.257 65.5147 200.798 65.776C201.339 66.0373 202.077 66.168 203.01 66.168C203.943 66.168 204.681 66.0373 205.222 65.776C205.763 65.5147 206.034 65.1553 206.034 64.698C206.034 64.2407 205.763 63.8813 205.222 63.62C204.69 63.3587 203.953 63.228 203.01 63.228C202.067 63.228 201.325 63.3587 200.784 63.62C200.252 63.8813 199.986 64.2407 199.986 64.698ZM205.978 59.21V57.642H203.108V59.21H205.978ZM218.858 55.556V56.676C218.858 57.5533 218.835 58.3373 218.788 59.028C218.742 59.7187 218.62 60.5073 218.424 61.394H220.286V62.262H215.274V67.036H214.238V62.262H209.212V61.394H217.36C217.566 60.5353 217.696 59.742 217.752 59.014L210.416 59.378L210.276 58.468L217.808 58.202C217.827 57.838 217.836 57.3293 217.836 56.676V56.424H210.626V55.556H218.858ZM231.445 55.346V56.2H229.569V59.07H231.403V59.91H227.497V61.436H232.509V62.29H221.449V61.436H226.461V59.91H222.527V59.07H224.361V56.2H222.485V55.346H231.445ZM222.891 63.396H223.941V65.888H231.291V66.756H222.891V63.396ZM228.533 59.07V56.2H225.425V59.07H228.533ZM243.737 54.772V62.024H242.687V60.064H239.817V61.128H234.259V55.696H239.817V56.774H242.687V54.772H243.737ZM238.795 60.288V56.55H235.281V60.288H238.795ZM235.645 64.698C235.645 63.97 236.004 63.4053 236.723 63.004C237.451 62.5933 238.45 62.388 239.719 62.388C240.988 62.388 241.982 62.5933 242.701 63.004C243.429 63.4053 243.793 63.97 243.793 64.698C243.793 65.426 243.429 65.9907 242.701 66.392C241.982 66.7933 240.988 66.994 239.719 66.994C238.45 66.994 237.451 66.7933 236.723 66.392C236.004 65.9907 235.645 65.426 235.645 64.698ZM236.695 64.698C236.695 65.1553 236.966 65.5147 237.507 65.776C238.048 66.0373 238.786 66.168 239.719 66.168C240.652 66.168 241.39 66.0373 241.931 65.776C242.472 65.5147 242.743 65.1553 242.743 64.698C242.743 64.2407 242.472 63.8813 241.931 63.62C241.399 63.3587 240.662 63.228 239.719 63.228C238.776 63.228 238.034 63.3587 237.493 63.62C236.961 63.8813 236.695 64.2407 236.695 64.698ZM242.687 59.21V57.642H239.817V59.21H242.687ZM255.567 55.556V56.676C255.567 57.5533 255.544 58.3373 255.497 59.028C255.451 59.7187 255.329 60.5073 255.133 61.394H256.995V62.262H251.983V67.036H250.947V62.262H245.921V61.394H254.069C254.275 60.5353 254.405 59.742 254.461 59.014L247.125 59.378L246.985 58.468L254.517 58.202C254.536 57.838 254.545 57.3293 254.545 56.676V56.424H247.335V55.556H255.567ZM268.154 55.346V56.2H266.278V59.07H268.112V59.91H264.206V61.436H269.218V62.29H258.158V61.436H263.17V59.91H259.236V59.07H261.07V56.2H259.194V55.346H268.154ZM259.6 63.396H260.65V65.888H268V66.756H259.6V63.396ZM265.242 59.07V56.2H262.134V59.07H265.242ZM271.976 60.232C272.163 60.232 272.312 60.2927 272.424 60.414C272.536 60.526 272.592 60.6707 272.592 60.848C272.592 61.0347 272.536 61.1887 272.424 61.31C272.321 61.422 272.172 61.478 271.976 61.478C271.78 61.478 271.626 61.422 271.514 61.31C271.402 61.1887 271.346 61.0347 271.346 60.848C271.346 60.6707 271.402 60.526 271.514 60.414C271.626 60.2927 271.78 60.232 271.976 60.232ZM274.804 60.834C274.804 60.6567 274.86 60.512 274.972 60.4C275.084 60.2787 275.238 60.218 275.434 60.218C275.621 60.218 275.77 60.2787 275.882 60.4C275.994 60.512 276.05 60.6567 276.05 60.834C276.05 61.0207 275.994 61.1747 275.882 61.296C275.779 61.408 275.63 61.464 275.434 61.464C275.238 61.464 275.084 61.408 274.972 61.296C274.86 61.1747 274.804 61.0207 274.804 60.834ZM278.29 60.834C278.29 60.6567 278.346 60.512 278.458 60.4C278.57 60.2787 278.724 60.218 278.92 60.218C279.107 60.218 279.256 60.2787 279.368 60.4C279.48 60.512 279.536 60.6567 279.536 60.834C279.536 61.0207 279.48 61.1747 279.368 61.296C279.265 61.408 279.116 61.464 278.92 61.464C278.724 61.464 278.57 61.408 278.458 61.296C278.346 61.1747 278.29 61.0207 278.29 60.834Z" fill="#1A1A1A"/>
<path d="M56.776 80.824V79.504H57.676V80.824H61.96V81.568H52.48V80.824H56.776ZM53.044 79.312C53.7 79.248 54.304 79.12 54.856 78.928C55.408 78.736 55.852 78.484 56.188 78.172C56.532 77.86 56.716 77.512 56.74 77.128H53.464V76.408H56.776V75.34H57.676V76.408H61V77.128H57.712C57.736 77.512 57.916 77.86 58.252 78.172C58.588 78.484 59.032 78.736 59.584 78.928C60.136 79.12 60.74 79.248 61.396 79.312L61.12 80.02C60.224 79.916 59.424 79.708 58.72 79.396C58.024 79.076 57.524 78.664 57.22 78.16C56.916 78.664 56.416 79.076 55.72 79.396C55.024 79.708 54.228 79.916 53.332 80.02L53.044 79.312ZM53.632 84.124C53.632 83.564 53.944 83.136 54.568 82.84C55.192 82.536 56.076 82.384 57.22 82.384C58.356 82.384 59.236 82.536 59.86 82.84C60.492 83.136 60.808 83.564 60.808 84.124C60.808 84.676 60.492 85.1 59.86 85.396C59.236 85.7 58.356 85.852 57.22 85.852C56.076 85.852 55.192 85.7 54.568 85.396C53.944 85.1 53.632 84.676 53.632 84.124ZM54.532 84.124C54.532 84.452 54.768 84.708 55.24 84.892C55.712 85.076 56.372 85.168 57.22 85.168C58.06 85.168 58.716 85.076 59.188 84.892C59.66 84.708 59.896 84.452 59.896 84.124C59.896 83.788 59.66 83.528 59.188 83.344C58.724 83.16 58.068 83.068 57.22 83.068C56.364 83.068 55.7 83.16 55.228 83.344C54.764 83.528 54.532 83.788 54.532 84.124ZM69.2019 75.916V77.068C69.2019 77.78 69.4419 78.44 69.9219 79.048C70.4099 79.656 71.0299 80.092 71.7819 80.356L71.3139 81.052C70.7379 80.844 70.2299 80.528 69.7899 80.104C69.3499 79.68 69.0179 79.188 68.7939 78.628C68.5699 79.26 68.2339 79.812 67.7859 80.284C67.3379 80.748 66.8059 81.104 66.1899 81.352L65.6979 80.632C66.4899 80.344 67.1259 79.872 67.6059 79.216C68.0859 78.552 68.3259 77.816 68.3259 77.008V75.916H69.2019ZM67.1019 83.956C67.1019 83.356 67.4059 82.892 68.0139 82.564C68.6219 82.228 69.4619 82.06 70.5339 82.06C71.6139 82.06 72.4579 82.228 73.0659 82.564C73.6739 82.892 73.9779 83.356 73.9779 83.956C73.9779 84.556 73.6739 85.02 73.0659 85.348C72.4579 85.684 71.6139 85.852 70.5339 85.852C69.4619 85.852 68.6219 85.684 68.0139 85.348C67.4059 85.02 67.1019 84.556 67.1019 83.956ZM67.9779 83.956C67.9779 84.324 68.2059 84.616 68.6619 84.832C69.1179 85.04 69.7419 85.144 70.5339 85.144C71.3259 85.144 71.9499 85.04 72.4059 84.832C72.8619 84.616 73.0899 84.324 73.0899 83.956C73.0899 83.588 72.8619 83.3 72.4059 83.092C71.9499 82.876 71.3259 82.768 70.5339 82.768C69.7419 82.768 69.1179 82.876 68.6619 83.092C68.2059 83.3 67.9779 83.588 67.9779 83.956ZM72.9699 75.376H73.8699V78.124H75.4419V78.88H73.8699V81.772H72.9699V75.376ZM85.7022 80.464V81.196H81.4062V82.468H84.5382V85.732H77.3982V82.468H80.5182V81.196H76.2222V80.464H85.7022ZM77.1102 75.724H84.7902V76.456H83.1822V78.724H84.7542V79.456H77.1462V78.724H78.7182V76.456H77.1102V75.724ZM83.6622 85V83.188H78.2742V85H83.6622ZM82.2942 78.724V76.456H79.6302V78.724H82.2942ZM93.8801 80.524C94.2641 80.748 94.5761 81.032 94.8161 81.376C95.0641 81.72 95.1881 82.092 95.1881 82.492C95.1881 82.948 95.0601 83.364 94.8041 83.74C94.5481 84.116 94.2041 84.412 93.7721 84.628C93.3401 84.836 92.8801 84.94 92.3921 84.94C91.9041 84.94 91.4441 84.836 91.0121 84.628C90.5881 84.412 90.2481 84.116 89.9921 83.74C89.7361 83.364 89.6081 82.948 89.6081 82.492H90.4721C90.4721 82.756 90.5521 83.012 90.7121 83.26C90.8801 83.508 91.1081 83.708 91.3961 83.86C91.6921 84.012 92.0241 84.088 92.3921 84.088C92.7601 84.088 93.0921 84.012 93.3881 83.86C93.6841 83.708 93.9161 83.512 94.0841 83.272C94.2521 83.024 94.3361 82.768 94.3361 82.504C94.3361 82.064 94.1761 81.692 93.8561 81.388C93.5441 81.084 93.0641 80.932 92.4161 80.932H91.7801V80.092H92.4161C92.9841 80.092 93.4281 79.952 93.7481 79.672C94.0681 79.392 94.2281 79.056 94.2281 78.664C94.2281 78.432 94.1521 78.208 94.0001 77.992C93.8481 77.768 93.6361 77.588 93.3641 77.452C93.1001 77.308 92.8001 77.236 92.4641 77.236C92.1281 77.236 91.8241 77.304 91.5521 77.44C91.2881 77.576 91.0801 77.756 90.9281 77.98C90.7841 78.204 90.7121 78.44 90.7121 78.688H89.8481C89.8481 78.264 89.9681 77.876 90.2081 77.524C90.4561 77.172 90.7801 76.896 91.1801 76.696C91.5801 76.496 92.0081 76.396 92.4641 76.396C92.9201 76.396 93.3481 76.496 93.7481 76.696C94.1481 76.896 94.4681 77.172 94.7081 77.524C94.9481 77.868 95.0681 78.256 95.0681 78.688C95.0681 79.048 94.9561 79.388 94.7321 79.708C94.5161 80.028 94.2321 80.3 93.8801 80.524ZM99.4887 84.076C100.193 84.076 100.737 83.792 101.121 83.224C101.505 82.656 101.697 81.804 101.697 80.668C101.697 79.532 101.505 78.684 101.121 78.124C100.737 77.556 100.193 77.272 99.4887 77.272C98.7847 77.272 98.2367 77.556 97.8447 78.124C97.4607 78.684 97.2687 79.532 97.2687 80.668C97.2687 81.804 97.4607 82.656 97.8447 83.224C98.2367 83.792 98.7847 84.076 99.4887 84.076ZM96.4047 80.668C96.4047 79.788 96.5327 79.028 96.7887 78.388C97.0447 77.748 97.4047 77.26 97.8687 76.924C98.3327 76.58 98.8727 76.408 99.4887 76.408C100.105 76.408 100.645 76.58 101.109 76.924C101.573 77.26 101.929 77.748 102.177 78.388C102.433 79.028 102.561 79.788 102.561 80.668C102.561 81.548 102.433 82.312 102.177 82.96C101.929 83.6 101.573 84.092 101.109 84.436C100.645 84.772 100.105 84.94 99.4887 84.94C98.8727 84.94 98.3327 84.772 97.8687 84.436C97.4047 84.092 97.0447 83.6 96.7887 82.96C96.5327 82.312 96.4047 81.548 96.4047 80.668ZM104.34 86.308H103.704L104.064 84.088H105L104.34 86.308ZM110.141 84.076C110.845 84.076 111.389 83.792 111.773 83.224C112.157 82.656 112.349 81.804 112.349 80.668C112.349 79.532 112.157 78.684 111.773 78.124C111.389 77.556 110.845 77.272 110.141 77.272C109.437 77.272 108.889 77.556 108.497 78.124C108.113 78.684 107.921 79.532 107.921 80.668C107.921 81.804 108.113 82.656 108.497 83.224C108.889 83.792 109.437 84.076 110.141 84.076ZM107.057 80.668C107.057 79.788 107.185 79.028 107.441 78.388C107.697 77.748 108.057 77.26 108.521 76.924C108.985 76.58 109.525 76.408 110.141 76.408C110.757 76.408 111.297 76.58 111.761 76.924C112.225 77.26 112.581 77.748 112.829 78.388C113.085 79.028 113.213 79.788 113.213 80.668C113.213 81.548 113.085 82.312 112.829 82.96C112.581 83.6 112.225 84.092 111.761 84.436C111.297 84.772 110.757 84.94 110.141 84.94C109.525 84.94 108.985 84.772 108.521 84.436C108.057 84.092 107.697 83.6 107.441 82.96C107.185 82.312 107.057 81.548 107.057 80.668ZM117.512 84.076C118.216 84.076 118.76 83.792 119.144 83.224C119.528 82.656 119.72 81.804 119.72 80.668C119.72 79.532 119.528 78.684 119.144 78.124C118.76 77.556 118.216 77.272 117.512 77.272C116.808 77.272 116.26 77.556 115.868 78.124C115.484 78.684 115.292 79.532 115.292 80.668C115.292 81.804 115.484 82.656 115.868 83.224C116.26 83.792 116.808 84.076 117.512 84.076ZM114.428 80.668C114.428 79.788 114.556 79.028 114.812 78.388C115.068 77.748 115.428 77.26 115.892 76.924C116.356 76.58 116.896 76.408 117.512 76.408C118.128 76.408 118.668 76.58 119.132 76.924C119.596 77.26 119.952 77.748 120.2 78.388C120.456 79.028 120.584 79.788 120.584 80.668C120.584 81.548 120.456 82.312 120.2 82.96C119.952 83.6 119.596 84.092 119.132 84.436C118.668 84.772 118.128 84.94 117.512 84.94C116.896 84.94 116.356 84.772 115.892 84.436C115.428 84.092 115.068 83.6 114.812 82.96C114.556 82.312 114.428 81.548 114.428 80.668ZM124.883 84.076C125.587 84.076 126.131 83.792 126.515 83.224C126.899 82.656 127.091 81.804 127.091 80.668C127.091 79.532 126.899 78.684 126.515 78.124C126.131 77.556 125.587 77.272 124.883 77.272C124.179 77.272 123.631 77.556 123.239 78.124C122.855 78.684 122.663 79.532 122.663 80.668C122.663 81.804 122.855 82.656 123.239 83.224C123.631 83.792 124.179 84.076 124.883 84.076ZM121.799 80.668C121.799 79.788 121.927 79.028 122.183 78.388C122.439 77.748 122.799 77.26 123.263 76.924C123.727 76.58 124.267 76.408 124.883 76.408C125.499 76.408 126.039 76.58 126.503 76.924C126.967 77.26 127.323 77.748 127.571 78.388C127.827 79.028 127.955 79.788 127.955 80.668C127.955 81.548 127.827 82.312 127.571 82.96C127.323 83.6 126.967 84.092 126.503 84.436C126.039 84.772 125.499 84.94 124.883 84.94C124.267 84.94 123.727 84.772 123.263 84.436C122.799 84.092 122.439 83.6 122.183 82.96C121.927 82.312 121.799 81.548 121.799 80.668ZM137.606 75.376V83.368H136.706V82.252H134.558V81.592H136.706V75.376H137.606ZM128.978 80.248C130.266 80.248 131.47 80.228 132.59 80.188C133.71 80.148 134.77 80.068 135.77 79.948L135.83 80.596C134.942 80.748 133.982 80.848 132.95 80.896V82.984H132.05V80.944C131.17 80.984 130.19 81.004 129.11 81.004L128.978 80.248ZM129.818 77.632C129.818 77.08 130.054 76.64 130.526 76.312C131.006 75.976 131.63 75.808 132.398 75.808C133.166 75.808 133.786 75.976 134.258 76.312C134.738 76.64 134.978 77.08 134.978 77.632C134.978 78.184 134.742 78.628 134.27 78.964C133.798 79.292 133.174 79.456 132.398 79.456C131.622 79.456 130.998 79.292 130.526 78.964C130.054 78.628 129.818 78.184 129.818 77.632ZM130.49 82.588H131.39V84.892H137.87V85.636H130.49V82.588ZM130.67 77.632C130.67 77.976 130.83 78.252 131.15 78.46C131.47 78.668 131.886 78.772 132.398 78.772C132.91 78.772 133.322 78.668 133.634 78.46C133.954 78.252 134.114 77.976 134.114 77.632C134.114 77.288 133.954 77.012 133.634 76.804C133.322 76.588 132.91 76.48 132.398 76.48C131.886 76.48 131.47 76.588 131.15 76.804C130.83 77.012 130.67 77.288 130.67 77.632ZM150.872 75.364V85.888H149.972V75.364H150.872ZM142.688 79.84C142.688 79.112 142.8 78.472 143.024 77.92C143.248 77.368 143.56 76.944 143.96 76.648C144.368 76.344 144.832 76.192 145.352 76.192C145.864 76.192 146.32 76.344 146.72 76.648C147.128 76.944 147.444 77.368 147.668 77.92C147.892 78.472 148.004 79.112 148.004 79.84C148.004 80.568 147.892 81.212 147.668 81.772C147.444 82.324 147.128 82.752 146.72 83.056C146.32 83.352 145.864 83.5 145.352 83.5C144.832 83.5 144.368 83.352 143.96 83.056C143.56 82.752 143.248 82.324 143.024 81.772C142.8 81.22 142.688 80.576 142.688 79.84ZM143.564 79.84C143.564 80.408 143.64 80.908 143.792 81.34C143.944 81.772 144.152 82.108 144.416 82.348C144.688 82.58 145 82.696 145.352 82.696C145.696 82.696 146.004 82.58 146.276 82.348C146.548 82.108 146.76 81.772 146.912 81.34C147.064 80.9 147.14 80.4 147.14 79.84C147.14 79.28 147.064 78.784 146.912 78.352C146.76 77.92 146.548 77.588 146.276 77.356C146.004 77.116 145.696 76.996 145.352 76.996C145 76.996 144.688 77.116 144.416 77.356C144.152 77.588 143.944 77.92 143.792 78.352C143.64 78.776 143.564 79.272 143.564 79.84ZM156.261 75.916V77.068C156.261 77.78 156.501 78.44 156.981 79.048C157.469 79.656 158.089 80.092 158.841 80.356L158.372 81.052C157.797 80.844 157.289 80.528 156.849 80.104C156.409 79.68 156.077 79.188 155.853 78.628C155.629 79.26 155.293 79.812 154.845 80.284C154.397 80.748 153.865 81.104 153.249 81.352L152.757 80.632C153.549 80.344 154.185 79.872 154.665 79.216C155.145 78.552 155.385 77.816 155.385 77.008V75.916H156.261ZM154.161 83.956C154.161 83.356 154.465 82.892 155.073 82.564C155.681 82.228 156.521 82.06 157.593 82.06C158.673 82.06 159.517 82.228 160.125 82.564C160.733 82.892 161.037 83.356 161.037 83.956C161.037 84.556 160.733 85.02 160.125 85.348C159.517 85.684 158.673 85.852 157.593 85.852C156.521 85.852 155.681 85.684 155.073 85.348C154.465 85.02 154.161 84.556 154.161 83.956ZM155.037 83.956C155.037 84.324 155.265 84.616 155.721 84.832C156.177 85.04 156.801 85.144 157.593 85.144C158.385 85.144 159.009 85.04 159.465 84.832C159.921 84.616 160.149 84.324 160.149 83.956C160.149 83.588 159.921 83.3 159.465 83.092C159.009 82.876 158.385 82.768 157.593 82.768C156.801 82.768 156.177 82.876 155.721 83.092C155.265 83.3 155.037 83.588 155.037 83.956ZM160.029 75.376H160.929V78.124H162.501V78.88H160.929V81.772H160.029V75.376ZM174.278 76.072V76.984C174.278 77.664 174.262 78.268 174.23 78.796C174.198 79.316 174.114 79.912 173.978 80.584H175.538V81.34H171.23V85.9H170.318V81.34H166.046V80.584H173.066C173.21 79.92 173.298 79.324 173.33 78.796C173.37 78.268 173.39 77.664 173.39 76.984V76.804H167.258V76.072H174.278ZM185.439 75.376V85.876H184.575V80.296H183.099V85.336H182.247V75.616H183.099V79.552H184.575V75.376H185.439ZM176.931 76.6H180.903V83.032H176.931V76.6ZM180.063 82.324V77.32H177.771V82.324H180.063ZM193.461 76.3V78.208C193.461 78.832 193.589 79.452 193.845 80.068C194.101 80.676 194.445 81.22 194.877 81.7C195.309 82.18 195.777 82.536 196.281 82.768L195.741 83.488C195.141 83.192 194.601 82.748 194.121 82.156C193.641 81.556 193.277 80.88 193.029 80.128C192.789 80.928 192.425 81.644 191.937 82.276C191.449 82.908 190.897 83.376 190.281 83.68L189.729 82.936C190.233 82.696 190.701 82.328 191.133 81.832C191.573 81.336 191.921 80.772 192.177 80.14C192.433 79.5 192.561 78.856 192.561 78.208V76.3H193.461ZM197.445 75.364H198.345V85.888H197.445V75.364ZM61.996 96.364V97.12H59.476V100.876H58.564V97.12H55.876V100.876H54.952V97.12H52.48V96.364H61.996ZM53.548 93.088C53.548 92.624 53.7 92.224 54.004 91.888C54.308 91.544 54.736 91.28 55.288 91.096C55.84 90.912 56.48 90.82 57.208 90.82C57.936 90.82 58.576 90.912 59.128 91.096C59.68 91.28 60.108 91.544 60.412 91.888C60.716 92.224 60.868 92.624 60.868 93.088C60.868 93.552 60.716 93.956 60.412 94.3C60.108 94.644 59.68 94.908 59.128 95.092C58.576 95.276 57.936 95.368 57.208 95.368C56.48 95.368 55.84 95.276 55.288 95.092C54.736 94.908 54.308 94.644 54.004 94.3C53.7 93.956 53.548 93.552 53.548 93.088ZM54.472 93.088C54.472 93.56 54.72 93.936 55.216 94.216C55.72 94.496 56.384 94.636 57.208 94.636C58.032 94.636 58.696 94.496 59.2 94.216C59.704 93.936 59.956 93.56 59.956 93.088C59.956 92.624 59.7 92.252 59.188 91.972C58.684 91.684 58.024 91.54 57.208 91.54C56.392 91.54 55.732 91.684 55.228 91.972C54.724 92.252 54.472 92.624 54.472 93.088ZM67.2643 91.936V90.532H68.1643V91.936H71.9563V92.68H63.4483V91.936H67.2643ZM62.9683 98.896H65.5003V96.928C65.1083 96.768 64.8083 96.556 64.6003 96.292C64.3923 96.02 64.2883 95.708 64.2883 95.356C64.2883 94.732 64.5923 94.248 65.2003 93.904C65.8083 93.56 66.6443 93.388 67.7083 93.388C68.7723 93.388 69.6083 93.56 70.2163 93.904C70.8243 94.248 71.1283 94.732 71.1283 95.356C71.1283 95.708 71.0243 96.02 70.8163 96.292C70.6083 96.556 70.3083 96.768 69.9163 96.928V98.896H72.4843V99.64H62.9683V98.896ZM65.1883 95.356C65.1883 95.74 65.4123 96.044 65.8603 96.268C66.3083 96.484 66.9243 96.592 67.7083 96.592C68.4843 96.592 69.0963 96.484 69.5443 96.268C69.9923 96.044 70.2163 95.74 70.2163 95.356C70.2163 94.964 69.9923 94.656 69.5443 94.432C69.1043 94.2 68.4923 94.084 67.7083 94.084C66.9243 94.084 66.3083 94.2 65.8603 94.432C65.4123 94.656 65.1883 94.964 65.1883 95.356ZM69.0283 98.896V97.192C68.6363 97.264 68.1963 97.3 67.7083 97.3C67.2283 97.3 66.7883 97.264 66.3883 97.192V98.896H69.0283ZM82.0486 90.376V100.876H81.1486V90.376H82.0486ZM73.5886 98.176C74.9806 97.512 76.0446 96.68 76.7806 95.68C77.5246 94.672 77.9446 93.528 78.0406 92.248H74.0566V91.504H78.9526C78.9526 93.088 78.5566 94.512 77.7646 95.776C76.9806 97.032 75.7486 98.072 74.0686 98.896L73.5886 98.176ZM92.0808 90.376V93.58H93.6528V94.336H92.0808V98.056H91.1808V90.376H92.0808ZM83.9688 96.112C85.2328 95.72 86.2448 95.16 87.0048 94.432C87.7728 93.704 88.2048 92.872 88.3008 91.936H84.4008V91.192H89.2728C89.2728 92.52 88.8368 93.672 87.9648 94.648C87.0928 95.624 85.8888 96.356 84.3528 96.844L83.9688 96.112ZM85.5648 97.276H86.4648V99.892H92.5608V100.636H85.5648V97.276ZM97.3788 98.896C97.6668 98.616 98.1308 98.196 98.7708 97.636C99.3948 97.092 99.8948 96.636 100.271 96.268C100.647 95.9 100.963 95.52 101.219 95.128C101.475 94.736 101.603 94.36 101.603 94C101.603 93.48 101.439 93.068 101.111 92.764C100.791 92.46 100.395 92.308 99.9228 92.308C99.0988 92.308 98.4988 92.728 98.1228 93.568L97.3308 93.208C97.6108 92.568 97.9868 92.112 98.4588 91.84C98.9388 91.568 99.4268 91.432 99.9228 91.432C100.347 91.432 100.755 91.54 101.147 91.756C101.547 91.964 101.867 92.264 102.107 92.656C102.355 93.048 102.479 93.496 102.479 94C102.479 94.488 102.327 94.98 102.023 95.476C101.719 95.964 101.351 96.42 100.919 96.844C100.495 97.268 99.9388 97.78 99.2508 98.38L98.6748 98.896H102.599V99.772H97.3788V98.896ZM106.895 99.076C107.599 99.076 108.143 98.792 108.527 98.224C108.911 97.656 109.103 96.804 109.103 95.668C109.103 94.532 108.911 93.684 108.527 93.124C108.143 92.556 107.599 92.272 106.895 92.272C106.191 92.272 105.643 92.556 105.251 93.124C104.867 93.684 104.675 94.532 104.675 95.668C104.675 96.804 104.867 97.656 105.251 98.224C105.643 98.792 106.191 99.076 106.895 99.076ZM103.811 95.668C103.811 94.788 103.939 94.028 104.195 93.388C104.451 92.748 104.811 92.26 105.275 91.924C105.739 91.58 106.279 91.408 106.895 91.408C107.511 91.408 108.051 91.58 108.515 91.924C108.979 92.26 109.335 92.748 109.583 93.388C109.839 94.028 109.967 94.788 109.967 95.668C109.967 96.548 109.839 97.312 109.583 97.96C109.335 98.6 108.979 99.092 108.515 99.436C108.051 99.772 107.511 99.94 106.895 99.94C106.279 99.94 105.739 99.772 105.275 99.436C104.811 99.092 104.451 98.6 104.195 97.96C103.939 97.312 103.811 96.548 103.811 95.668ZM111.242 98.896C111.53 98.616 111.994 98.196 112.634 97.636C113.258 97.092 113.758 96.636 114.134 96.268C114.51 95.9 114.826 95.52 115.082 95.128C115.338 94.736 115.466 94.36 115.466 94C115.466 93.48 115.302 93.068 114.974 92.764C114.654 92.46 114.258 92.308 113.786 92.308C112.962 92.308 112.362 92.728 111.986 93.568L111.194 93.208C111.474 92.568 111.85 92.112 112.322 91.84C112.802 91.568 113.29 91.432 113.786 91.432C114.21 91.432 114.618 91.54 115.01 91.756C115.41 91.964 115.73 92.264 115.97 92.656C116.218 93.048 116.342 93.496 116.342 94C116.342 94.488 116.19 94.98 115.886 95.476C115.582 95.964 115.214 96.42 114.782 96.844C114.358 97.268 113.802 97.78 113.114 98.38L112.538 98.896H116.462V99.772H111.242V98.896ZM117.734 98.896C118.022 98.616 118.486 98.196 119.126 97.636C119.75 97.092 120.25 96.636 120.626 96.268C121.002 95.9 121.318 95.52 121.574 95.128C121.83 94.736 121.958 94.36 121.958 94C121.958 93.48 121.794 93.068 121.466 92.764C121.146 92.46 120.75 92.308 120.278 92.308C119.454 92.308 118.854 92.728 118.478 93.568L117.686 93.208C117.966 92.568 118.342 92.112 118.814 91.84C119.294 91.568 119.782 91.432 120.278 91.432C120.702 91.432 121.11 91.54 121.502 91.756C121.902 91.964 122.222 92.264 122.462 92.656C122.71 93.048 122.834 93.496 122.834 94C122.834 94.488 122.682 94.98 122.378 95.476C122.074 95.964 121.706 96.42 121.274 96.844C120.85 97.268 120.294 97.78 119.606 98.38L119.03 98.896H122.954V99.772H117.734V98.896ZM124.922 98.956C125.106 98.956 125.25 99.012 125.354 99.124C125.458 99.236 125.51 99.376 125.51 99.544C125.51 99.728 125.458 99.876 125.354 99.988C125.25 100.1 125.106 100.156 124.922 100.156C124.73 100.156 124.578 100.1 124.466 99.988C124.362 99.868 124.31 99.72 124.31 99.544C124.31 99.376 124.362 99.236 124.466 99.124C124.578 99.012 124.73 98.956 124.922 98.956ZM130.414 99.076C131.118 99.076 131.662 98.792 132.046 98.224C132.43 97.656 132.622 96.804 132.622 95.668C132.622 94.532 132.43 93.684 132.046 93.124C131.662 92.556 131.118 92.272 130.414 92.272C129.71 92.272 129.162 92.556 128.77 93.124C128.386 93.684 128.194 94.532 128.194 95.668C128.194 96.804 128.386 97.656 128.77 98.224C129.162 98.792 129.71 99.076 130.414 99.076ZM127.33 95.668C127.33 94.788 127.458 94.028 127.714 93.388C127.97 92.748 128.33 92.26 128.794 91.924C129.258 91.58 129.798 91.408 130.414 91.408C131.03 91.408 131.57 91.58 132.034 91.924C132.498 92.26 132.854 92.748 133.102 93.388C133.358 94.028 133.486 94.788 133.486 95.668C133.486 96.548 133.358 97.312 133.102 97.96C132.854 98.6 132.498 99.092 132.034 99.436C131.57 99.772 131.03 99.94 130.414 99.94C129.798 99.94 129.258 99.772 128.794 99.436C128.33 99.092 127.97 98.6 127.714 97.96C127.458 97.312 127.33 96.548 127.33 95.668ZM137.786 99.076C138.49 99.076 139.034 98.792 139.418 98.224C139.802 97.656 139.994 96.804 139.994 95.668C139.994 94.532 139.802 93.684 139.418 93.124C139.034 92.556 138.49 92.272 137.786 92.272C137.082 92.272 136.534 92.556 136.142 93.124C135.758 93.684 135.566 94.532 135.566 95.668C135.566 96.804 135.758 97.656 136.142 98.224C136.534 98.792 137.082 99.076 137.786 99.076ZM134.702 95.668C134.702 94.788 134.83 94.028 135.086 93.388C135.342 92.748 135.702 92.26 136.166 91.924C136.63 91.58 137.17 91.408 137.786 91.408C138.402 91.408 138.942 91.58 139.406 91.924C139.87 92.26 140.226 92.748 140.474 93.388C140.73 94.028 140.858 94.788 140.858 95.668C140.858 96.548 140.73 97.312 140.474 97.96C140.226 98.6 139.87 99.092 139.406 99.436C138.942 99.772 138.402 99.94 137.786 99.94C137.17 99.94 136.63 99.772 136.166 99.436C135.702 99.092 135.342 98.6 135.086 97.96C134.83 97.312 134.702 96.548 134.702 95.668ZM142.829 98.956C143.013 98.956 143.157 99.012 143.261 99.124C143.365 99.236 143.417 99.376 143.417 99.544C143.417 99.728 143.365 99.876 143.261 99.988C143.157 100.1 143.013 100.156 142.829 100.156C142.637 100.156 142.485 100.1 142.373 99.988C142.269 99.868 142.217 99.72 142.217 99.544C142.217 99.376 142.269 99.236 142.373 99.124C142.485 99.012 142.637 98.956 142.829 98.956ZM148.321 99.076C149.025 99.076 149.569 98.792 149.953 98.224C150.337 97.656 150.529 96.804 150.529 95.668C150.529 94.532 150.337 93.684 149.953 93.124C149.569 92.556 149.025 92.272 148.321 92.272C147.617 92.272 147.069 92.556 146.677 93.124C146.293 93.684 146.101 94.532 146.101 95.668C146.101 96.804 146.293 97.656 146.677 98.224C147.069 98.792 147.617 99.076 148.321 99.076ZM145.237 95.668C145.237 94.788 145.365 94.028 145.621 93.388C145.877 92.748 146.237 92.26 146.701 91.924C147.165 91.58 147.705 91.408 148.321 91.408C148.937 91.408 149.477 91.58 149.941 91.924C150.405 92.26 150.761 92.748 151.009 93.388C151.265 94.028 151.393 94.788 151.393 95.668C151.393 96.548 151.265 97.312 151.009 97.96C150.761 98.6 150.405 99.092 149.941 99.436C149.477 99.772 148.937 99.94 148.321 99.94C147.705 99.94 147.165 99.772 146.701 99.436C146.237 99.092 145.877 98.6 145.621 97.96C145.365 97.312 145.237 96.548 145.237 95.668ZM155.692 99.076C156.396 99.076 156.94 98.792 157.324 98.224C157.708 97.656 157.9 96.804 157.9 95.668C157.9 94.532 157.708 93.684 157.324 93.124C156.94 92.556 156.396 92.272 155.692 92.272C154.988 92.272 154.44 92.556 154.048 93.124C153.664 93.684 153.472 94.532 153.472 95.668C153.472 96.804 153.664 97.656 154.048 98.224C154.44 98.792 154.988 99.076 155.692 99.076ZM152.608 95.668C152.608 94.788 152.736 94.028 152.992 93.388C153.248 92.748 153.608 92.26 154.072 91.924C154.536 91.58 155.076 91.408 155.692 91.408C156.308 91.408 156.848 91.58 157.312 91.924C157.776 92.26 158.132 92.748 158.38 93.388C158.636 94.028 158.764 94.788 158.764 95.668C158.764 96.548 158.636 97.312 158.38 97.96C158.132 98.6 157.776 99.092 157.312 99.436C156.848 99.772 156.308 99.94 155.692 99.94C155.076 99.94 154.536 99.772 154.072 99.436C153.608 99.092 153.248 98.6 152.992 97.96C152.736 97.312 152.608 96.548 152.608 95.668Z" fill="#797979"/>
</svg>
