<?xml version="1.0" encoding="utf-8"?>
<!-- Generator: Adobe Illustrator 26.2.1, SVG Export Plug-In . SVG Version: 6.00 Build 0)  -->
<svg version="1.1" id="레이어_1" xmlns="http://www.w3.org/2000/svg" xmlns:xlink="http://www.w3.org/1999/xlink" x="0px"
	 y="0px" viewBox="0 0 292 114" style="enable-background:new 0 0 292 114;" xml:space="preserve">
<style type="text/css">
	.st0{fill-rule:evenodd;clip-rule:evenodd;fill:#FFFFFF;}
	.st1{fill-rule:evenodd;clip-rule:evenodd;fill:#FFFFFF;filter:url(#Adobe_OpacityMaskFilter);}
	.st2{mask:url(#path-1-inside-1_990_19782_00000129912908540346057950000005682842053862277261_);fill:#CCCCCC;}
	.st3{fill:#CCCCCC;}
</style>
<path class="st0" d="M6,0C2.7,0,0,2.7,0,6v39c6.8,0,12.4,5.8,12.4,13S6.8,71,0,71v37c0,3.3,2.7,6,6,6h280c3.3,0,6-2.7,6-6V6
	c0-3.3-2.7-6-6-6H6z"/>
<defs>
	<filter id="Adobe_OpacityMaskFilter" filterUnits="userSpaceOnUse" x="-1" y="-1" width="294" height="116">
		<feColorMatrix  type="matrix" values="1 0 0 0 0  0 1 0 0 0  0 0 1 0 0  0 0 0 1 0"/>
	</filter>
</defs>
<mask maskUnits="userSpaceOnUse" x="-1" y="-1" width="294" height="116" id="path-1-inside-1_990_19782_00000129912908540346057950000005682842053862277261_">
	<path class="st1" d="M6,0C2.7,0,0,2.7,0,6v39c6.8,0,12.4,5.8,12.4,13S6.8,71,0,71v37c0,3.3,2.7,6,6,6h280c3.3,0,6-2.7,6-6V6
		c0-3.3-2.7-6-6-6H6z"/>
</mask>
<path class="st2" d="M0,45h-1v1h1L0,45z M0,71l0-1h-1v1H0z M1,6c0-2.8,2.2-5,5-5v-2C2.1-1-1,2.1-1,6H1z M1,45V6h-2v39H1z M0,46
	c6.2,0,11.4,5.3,11.4,12h2c0-7.7-5.9-14-13.4-14L0,46z M11.4,58c0,6.7-5.1,12-11.4,12l0,2c7.4,0,13.4-6.3,13.4-14H11.4z M1,108V71
	h-2v37H1z M6,113c-2.8,0-5-2.2-5-5h-2c0,3.9,3.1,7,7,7V113z M286,113H6v2h280V113z M291,108c0,2.8-2.2,5-5,5v2c3.9,0,7-3.1,7-7H291z
	 M291,6v102h2V6H291z M286,1c2.8,0,5,2.2,5,5h2c0-3.9-3.1-7-7-7V1z M6,1h280v-2H6V1z"/>
<path class="st3" d="M252,1h34c3.3,0,6,2.7,6,6v101c0,3.3-2.7,6-6,6h-34V1z"/>
<g>
	<path class="st0" d="M272,67.3c5.4,0,9.8-4.4,9.8-9.8c0-5.4-4.4-9.8-9.8-9.8c-5.4,0-9.8,4.4-9.8,9.8
		C262.2,62.9,266.6,67.3,272,67.3z M280,57.5c0,4.4-3.6,8-8,8c-4.4,0-8-3.6-8-8c0-4.4,3.6-8,8-8C276.4,49.5,280,53.1,280,57.5z
		 M276.1,55.5c0.4-0.4,0.4-0.9,0-1.3c-0.4-0.4-0.9-0.4-1.3,0l-4.2,4.2l-1.9-1.7c-0.4-0.3-0.9-0.3-1.3,0c-0.3,0.4-0.3,0.9,0,1.3
		l2.5,2.3l0.6,0.6l0.6-0.6L276.1,55.5z"/>
</g>
</svg>
