<?xml version="1.0" encoding="utf-8"?>
<!-- Generator: Adobe Illustrator 26.3.1, SVG Export Plug-In . SVG Version: 6.00 Build 0)  -->
<svg version="1.1" id="레이어_1" xmlns="http://www.w3.org/2000/svg" xmlns:xlink="http://www.w3.org/1999/xlink" x="0px"
	 y="0px" viewBox="0 0 324 114" style="enable-background:new 0 0 324 114;" xml:space="preserve">
<style type="text/css">
	.st0{fill:none;stroke:#CCCCCC;stroke-width:1.6;stroke-linecap:round;stroke-linejoin:round;}
	.st1{fill-rule:evenodd;clip-rule:evenodd;fill:#FFFFFF;}
	.st2{fill-rule:evenodd;clip-rule:evenodd;fill:#FFFFFF;filter:url(#Adobe_OpacityMaskFilter);}
	.st3{mask:url(#path-3-inside-1_1107_30736_00000116227282758673645040000010191480106199096205_);fill:#E7342C;}
	.st4{fill:#E7342C;}
	.st5{fill:#FFFFFF;}
	.st6{fill:#1A1A1A;}
	.st7{fill:#797979;}
	.st8{fill:none;stroke:#FFFFFF;stroke-width:1.6;stroke-linecap:round;stroke-linejoin:round;}
</style>
<path class="st0" d="M6.3,56.9l4,3.8l6-5.6"/>
<g>
	<path class="st1" d="M38,0c-3.3,0-6,2.7-6,6v39c6.8,0,12.4,5.8,12.4,13S38.8,71,32,71v37c0,3.3,2.7,6,6,6h280c3.3,0,6-2.7,6-6V6
		c0-3.3-2.7-6-6-6H38z"/>
	<defs>
		<filter id="Adobe_OpacityMaskFilter" filterUnits="userSpaceOnUse" x="31" y="-1" width="294" height="116">
			<feColorMatrix  type="matrix" values="1 0 0 0 0  0 1 0 0 0  0 0 1 0 0  0 0 0 1 0"/>
		</filter>
	</defs>
	
		<mask maskUnits="userSpaceOnUse" x="31" y="-1" width="294" height="116" id="path-3-inside-1_1107_30736_00000116227282758673645040000010191480106199096205_">
		<path class="st2" d="M38,0c-3.3,0-6,2.7-6,6v39c6.8,0,12.4,5.8,12.4,13S38.8,71,32,71v37c0,3.3,2.7,6,6,6h280c3.3,0,6-2.7,6-6V6
			c0-3.3-2.7-6-6-6H38z"/>
	</mask>
	<path class="st3" d="M32,45h-1v1h1V45z M32,71v-1h-1v1H32z M33,6c0-2.8,2.2-5,5-5v-2c-3.9,0-7,3.1-7,7H33z M33,45V6h-2v39H33z
		 M32,46c6.2,0,11.4,5.3,11.4,12h2c0-7.7-5.9-14-13.4-14V46z M43.4,58c0,6.7-5.1,12-11.4,12v2c7.4,0,13.4-6.3,13.4-14H43.4z M33,108
		V71h-2v37H33z M38,113c-2.8,0-5-2.2-5-5h-2c0,3.9,3.1,7,7,7V113z M318,113H38v2h280V113z M323,108c0,2.8-2.2,5-5,5v2
		c3.9,0,7-3.1,7-7H323z M323,6v102h2V6H323z M318,1c2.8,0,5,2.2,5,5h2c0-3.9-3.1-7-7-7V1z M38,1h280v-2H38V1z"/>
	<path class="st4" d="M284,1h34c3.3,0,6,2.7,6,6v101c0,3.3-2.7,6-6,6h-34V1z"/>
	<path class="st5" d="M310.1,95.8c0,0.8-0.2,1.6-0.6,2.2c-0.4,0.6-0.9,1.1-1.6,1.5c-0.7,0.4-1.4,0.5-2.2,0.5s-1.5-0.2-2.2-0.5
		c-0.7-0.4-1.2-0.9-1.6-1.5c-0.4-0.6-0.6-1.4-0.6-2.2c0-0.6,0.1-1.1,0.3-1.7c0.2-0.5,0.5-1,0.9-1.4l0.6,0.6
		c-0.3,0.3-0.6,0.7-0.7,1.1c-0.2,0.4-0.3,0.8-0.3,1.3c0,0.7,0.2,1.3,0.5,1.8c0.3,0.5,0.7,0.9,1.3,1.2c0.5,0.3,1.1,0.4,1.8,0.4
		c0.7,0,1.3-0.1,1.8-0.4c0.5-0.3,1-0.7,1.3-1.2c0.3-0.5,0.5-1.1,0.5-1.8c0-0.5-0.1-0.9-0.3-1.3c-0.2-0.4-0.4-0.8-0.8-1.1l0.6-0.6
		c0.4,0.4,0.7,0.8,1,1.4C310,94.7,310.1,95.3,310.1,95.8z M309.2,80.8c0-0.6-0.2-1.2-0.5-1.7c-0.3-0.5-0.7-0.9-1.3-1.2
		c-0.5-0.3-1.1-0.4-1.8-0.4c-0.6,0-1.2,0.1-1.8,0.4c-0.5,0.3-1,0.7-1.3,1.2c-0.3,0.5-0.5,1.1-0.5,1.7c0,0.6,0.2,1.2,0.5,1.8
		c0.3,0.5,0.7,0.9,1.3,1.2c0.5,0.3,1.1,0.4,1.8,0.4s1.3-0.1,1.8-0.4c0.5-0.3,1-0.7,1.3-1.2C309.1,82.1,309.2,81.5,309.2,80.8z
		 M305.7,85.1c-0.8,0-1.5-0.2-2.2-0.5c-0.7-0.4-1.2-0.9-1.6-1.5c-0.4-0.6-0.6-1.4-0.6-2.2c0-0.8,0.2-1.5,0.6-2.2
		c0.4-0.6,0.9-1.2,1.6-1.5c0.7-0.4,1.4-0.6,2.2-0.6c0.8,0,1.6,0.2,2.2,0.6c0.7,0.4,1.2,0.9,1.6,1.5c0.4,0.6,0.6,1.4,0.6,2.2
		c0,0.8-0.2,1.5-0.6,2.2c-0.4,0.6-0.9,1.2-1.6,1.5C307.2,84.9,306.5,85.1,305.7,85.1z M309.2,65.2c0,0.5-0.1,0.9-0.3,1.3
		c-0.2,0.4-0.5,0.7-0.9,0.9c-0.4,0.2-0.8,0.3-1.3,0.3h-5.3v0.9h5.3c0.6,0,1.2-0.1,1.8-0.4c0.5-0.3,0.9-0.7,1.2-1.2
		c0.3-0.5,0.5-1.1,0.5-1.7s-0.2-1.1-0.5-1.7c-0.3-0.5-0.7-0.9-1.2-1.2c-0.5-0.3-1.1-0.5-1.8-0.5h-5.3v0.9h5.3c0.5,0,0.9,0.1,1.3,0.3
		s0.7,0.5,0.9,0.9C309.1,64.3,309.2,64.7,309.2,65.2z M305.8,50.1c0-0.3-0.1-0.6-0.3-0.9c-0.2-0.3-0.4-0.5-0.7-0.7
		c-0.3-0.2-0.6-0.3-0.9-0.3c-0.3,0-0.6,0.1-0.9,0.3c-0.3,0.2-0.5,0.4-0.7,0.7c-0.2,0.3-0.3,0.6-0.3,0.9v2.4h3.6V50.1z M301.3,53.4
		v-3.3c0-0.5,0.1-0.9,0.4-1.3c0.2-0.4,0.6-0.7,1-0.9c0.4-0.2,0.9-0.4,1.3-0.4c0.5,0,0.9,0.1,1.3,0.4c0.4,0.2,0.7,0.5,1,0.9
		c0.2,0.4,0.4,0.8,0.4,1.3v2.4h3.4v0.9H301.3z M309.2,35.6c0-0.6-0.2-1.2-0.5-1.7c-0.3-0.5-0.7-0.9-1.3-1.2
		c-0.5-0.3-1.1-0.4-1.8-0.4c-0.6,0-1.2,0.1-1.8,0.4c-0.5,0.3-1,0.7-1.3,1.2c-0.3,0.5-0.5,1.1-0.5,1.7c0,0.6,0.2,1.2,0.5,1.8
		c0.3,0.5,0.7,0.9,1.3,1.2c0.5,0.3,1.1,0.4,1.8,0.4s1.3-0.1,1.8-0.4c0.5-0.3,1-0.7,1.3-1.2C309.1,36.8,309.2,36.3,309.2,35.6z
		 M305.7,39.9c-0.8,0-1.5-0.2-2.2-0.5c-0.7-0.4-1.2-0.9-1.6-1.5c-0.4-0.6-0.6-1.4-0.6-2.2c0-0.8,0.2-1.5,0.6-2.2
		c0.4-0.6,0.9-1.2,1.6-1.5c0.7-0.4,1.4-0.6,2.2-0.6c0.8,0,1.6,0.2,2.2,0.6c0.7,0.4,1.2,0.9,1.6,1.5c0.4,0.6,0.6,1.4,0.6,2.2
		c0,0.8-0.2,1.5-0.6,2.2c-0.4,0.6-0.9,1.2-1.6,1.5C307.2,39.7,306.5,39.9,305.7,39.9z M310,16.5v0.9l-7.2,5.3h7.2v0.9h-8.7v-0.9
		l7.2-5.3h-7.2v-0.9H310z"/>
	<path class="st4" d="M54.7,39.2L62,23.7h-8.4v-3.1h11.9v3.1l-7.3,15.5H54.7z M80.8,24.3h2.4l-9.3,14.8h-2.3L80.8,24.3z M68.1,28.1
		c0-0.7,0.2-1.4,0.5-2c0.4-0.6,0.8-1.1,1.4-1.5c0.6-0.4,1.3-0.5,2-0.5c0.7,0,1.4,0.2,2,0.5c0.6,0.4,1.1,0.9,1.4,1.5
		c0.3,0.6,0.5,1.3,0.5,2c0,0.7-0.2,1.4-0.5,2c-0.3,0.6-0.8,1.1-1.4,1.5c-0.6,0.4-1.3,0.5-2,0.5c-0.7,0-1.4-0.2-2-0.5
		c-0.6-0.4-1.1-0.9-1.4-1.5C68.3,29.5,68.1,28.9,68.1,28.1z M70.3,28.1c0,0.5,0.2,0.9,0.5,1.3c0.3,0.4,0.8,0.5,1.2,0.5
		c0.5,0,0.9-0.2,1.2-0.5c0.3-0.4,0.5-0.8,0.5-1.3c0-0.5-0.2-0.9-0.5-1.3c-0.3-0.4-0.7-0.5-1.2-0.5c-0.5,0-0.9,0.2-1.2,0.5
		C70.5,27.2,70.3,27.6,70.3,28.1z M78.6,35.3c0-0.7,0.2-1.4,0.5-2c0.4-0.6,0.8-1.1,1.4-1.5c0.6-0.4,1.3-0.5,2-0.5s1.4,0.2,2,0.5
		c0.6,0.4,1.1,0.9,1.4,1.5c0.3,0.6,0.5,1.3,0.5,2c0,0.7-0.2,1.4-0.5,2c-0.3,0.6-0.8,1.1-1.4,1.5c-0.6,0.4-1.2,0.5-2,0.5
		s-1.4-0.2-2-0.5c-0.6-0.4-1.1-0.9-1.4-1.5C78.8,36.7,78.6,36,78.6,35.3z M80.8,35.3c0,0.5,0.2,0.9,0.5,1.3c0.3,0.4,0.8,0.5,1.2,0.5
		s0.9-0.2,1.2-0.5c0.3-0.4,0.5-0.8,0.5-1.3c0-0.5-0.2-0.9-0.5-1.3c-0.3-0.4-0.7-0.5-1.2-0.5c-0.5,0-0.9,0.2-1.2,0.5
		C80.9,34.3,80.8,34.8,80.8,35.3z"/>
	<path class="st6" d="M56,56.2h-1.6v9.5H56v1h-2.6V55.2H56V56.2z M67.5,54.8V67h-1.1V54.8H67.5z M57.9,60c0-0.8,0.1-1.6,0.4-2.2
		c0.3-0.6,0.6-1.1,1.1-1.5c0.5-0.4,1-0.5,1.6-0.5c0.6,0,1.1,0.2,1.6,0.5c0.5,0.3,0.8,0.8,1.1,1.5c0.3,0.6,0.4,1.4,0.4,2.2
		s-0.1,1.6-0.4,2.3c-0.3,0.6-0.6,1.1-1.1,1.5c-0.5,0.3-1,0.5-1.6,0.5c-0.6,0-1.1-0.2-1.6-0.5c-0.5-0.4-0.8-0.9-1.1-1.5
		C58,61.6,57.9,60.8,57.9,60z M58.9,60c0,0.7,0.1,1.2,0.3,1.8c0.2,0.5,0.4,0.9,0.7,1.2c0.3,0.3,0.7,0.4,1.1,0.4
		c0.4,0,0.8-0.1,1.1-0.4c0.3-0.3,0.6-0.7,0.7-1.2c0.2-0.5,0.3-1.1,0.3-1.8s-0.1-1.2-0.3-1.7c-0.2-0.5-0.4-0.9-0.7-1.2
		c-0.3-0.3-0.7-0.4-1.1-0.4c-0.4,0-0.8,0.1-1.1,0.4c-0.3,0.3-0.6,0.7-0.7,1.2C59,58.7,58.9,59.3,58.9,60z M80,54.8v9.3h-1v-9.3H80z
		 M70.3,55.8h1v2.1H74v-2.1h1v2.6h1.7V55h1v8.7h-1v-4.5H75v2.5h-4.7V55.8z M74,60.9v-2.2h-2.7v2.2H74z M72.1,62.8h1v3.1h7.3v0.9
		h-8.3V62.8z M91.6,55.8v0.9h-7.2v1.9h6.9v0.9h-6.9v2h7.3v0.9h-8.4v-6.4H91.6z M81.9,64.5H93v0.9H81.9V64.5z M97.1,55.2v11.4h-2.6
		v-1h1.6v-9.5h-1.6v-0.9H97.1z M108.7,55.6v1.1c0,0.9,0,1.7-0.1,2.4c0,0.7-0.2,1.5-0.4,2.4h1.9v0.9h-5V67h-1v-4.8h-5v-0.9h8.1
		c0.2-0.9,0.3-1.7,0.4-2.4l-7.3,0.4l-0.1-0.9l7.5-0.3c0-0.4,0-0.9,0-1.5v-0.3h-7.2v-0.9H108.7z M121.3,55.3v0.9h-1.9v2.9h1.8v0.8
		h-3.9v1.5h5v0.9h-11.1v-0.9h5v-1.5h-3.9v-0.8h1.8v-2.9h-1.9v-0.9H121.3z M112.8,63.4h1.1v2.5h7.3v0.9h-8.4V63.4z M118.4,59.1v-2.9
		h-3.1v2.9H118.4z M133.6,54.8V62h-1.1v-2h-2.9v1.1h-5.6v-5.4h5.6v1.1h2.9v-2H133.6z M128.7,60.3v-3.7h-3.5v3.7H128.7z M125.5,64.7
		c0-0.7,0.4-1.3,1.1-1.7c0.7-0.4,1.7-0.6,3-0.6s2.3,0.2,3,0.6c0.7,0.4,1.1,1,1.1,1.7c0,0.7-0.4,1.3-1.1,1.7c-0.7,0.4-1.7,0.6-3,0.6
		s-2.3-0.2-3-0.6C125.9,66,125.5,65.4,125.5,64.7z M126.6,64.7c0,0.5,0.3,0.8,0.8,1.1s1.3,0.4,2.2,0.4s1.7-0.1,2.2-0.4
		s0.8-0.6,0.8-1.1s-0.3-0.8-0.8-1.1c-0.5-0.3-1.3-0.4-2.2-0.4c-0.9,0-1.7,0.1-2.2,0.4C126.8,63.9,126.6,64.2,126.6,64.7z
		 M132.6,59.2v-1.6h-2.9v1.6H132.6z M145.4,55.6v1.1c0,0.9,0,1.7-0.1,2.4c0,0.7-0.2,1.5-0.4,2.4h1.9v0.9h-5V67h-1v-4.8h-5v-0.9h8.1
		c0.2-0.9,0.3-1.7,0.4-2.4l-7.3,0.4l-0.1-0.9l7.5-0.3c0-0.4,0-0.9,0-1.5v-0.3h-7.2v-0.9H145.4z M158,55.3v0.9h-1.9v2.9h1.8v0.8h-3.9
		v1.5h5v0.9H148v-0.9h5v-1.5h-3.9v-0.8h1.8v-2.9h-1.9v-0.9H158z M149.5,63.4h1v2.5h7.4v0.9h-8.4V63.4z M155.1,59.1v-2.9H152v2.9
		H155.1z M170.3,54.8V62h-1.1v-2h-2.9v1.1h-5.6v-5.4h5.6v1.1h2.9v-2H170.3z M165.4,60.3v-3.7h-3.5v3.7H165.4z M162.2,64.7
		c0-0.7,0.4-1.3,1.1-1.7c0.7-0.4,1.7-0.6,3-0.6c1.3,0,2.3,0.2,3,0.6c0.7,0.4,1.1,1,1.1,1.7c0,0.7-0.4,1.3-1.1,1.7
		c-0.7,0.4-1.7,0.6-3,0.6c-1.3,0-2.3-0.2-3-0.6C162.6,66,162.2,65.4,162.2,64.7z M163.3,64.7c0,0.5,0.3,0.8,0.8,1.1s1.3,0.4,2.2,0.4
		s1.7-0.1,2.2-0.4s0.8-0.6,0.8-1.1s-0.3-0.8-0.8-1.1c-0.5-0.3-1.3-0.4-2.2-0.4c-0.9,0-1.7,0.1-2.2,0.4
		C163.5,63.9,163.3,64.2,163.3,64.7z M169.3,59.2v-1.6h-2.9v1.6H169.3z M182.1,55.6v1.1c0,0.9,0,1.7-0.1,2.4c0,0.7-0.2,1.5-0.4,2.4
		h1.9v0.9h-5V67h-1v-4.8h-5v-0.9h8.1c0.2-0.9,0.3-1.7,0.4-2.4l-7.3,0.4l-0.1-0.9l7.5-0.3c0-0.4,0-0.9,0-1.5v-0.3h-7.2v-0.9H182.1z
		 M194.7,55.3v0.9h-1.9v2.9h1.8v0.8h-3.9v1.5h5v0.9h-11.1v-0.9h5v-1.5h-3.9v-0.8h1.8v-2.9h-1.9v-0.9H194.7z M186.2,63.4h1v2.5h7.4
		v0.9h-8.4V63.4z M191.8,59.1v-2.9h-3.1v2.9H191.8z M207,54.8V62H206v-2h-2.9v1.1h-5.6v-5.4h5.6v1.1h2.9v-2H207z M202.1,60.3v-3.7
		h-3.5v3.7H202.1z M198.9,64.7c0-0.7,0.4-1.3,1.1-1.7c0.7-0.4,1.7-0.6,3-0.6c1.3,0,2.3,0.2,3,0.6c0.7,0.4,1.1,1,1.1,1.7
		c0,0.7-0.4,1.3-1.1,1.7c-0.7,0.4-1.7,0.6-3,0.6c-1.3,0-2.3-0.2-3-0.6C199.3,66,198.9,65.4,198.9,64.7z M200,64.7
		c0,0.5,0.3,0.8,0.8,1.1s1.3,0.4,2.2,0.4s1.7-0.1,2.2-0.4s0.8-0.6,0.8-1.1s-0.3-0.8-0.8-1.1c-0.5-0.3-1.3-0.4-2.2-0.4
		c-0.9,0-1.7,0.1-2.2,0.4C200.3,63.9,200,64.2,200,64.7z M206,59.2v-1.6h-2.9v1.6H206z M218.9,55.6v1.1c0,0.9,0,1.7-0.1,2.4
		c0,0.7-0.2,1.5-0.4,2.4h1.9v0.9h-5V67h-1v-4.8h-5v-0.9h8.1c0.2-0.9,0.3-1.7,0.4-2.4l-7.3,0.4l-0.1-0.9l7.5-0.3c0-0.4,0-0.9,0-1.5
		v-0.3h-7.2v-0.9H218.9z M231.4,55.3v0.9h-1.9v2.9h1.8v0.8h-3.9v1.5h5v0.9h-11.1v-0.9h5v-1.5h-3.9v-0.8h1.8v-2.9h-1.9v-0.9H231.4z
		 M222.9,63.4h1v2.5h7.4v0.9h-8.4V63.4z M228.5,59.1v-2.9h-3.1v2.9H228.5z M243.7,54.8V62h-1.1v-2h-2.9v1.1h-5.6v-5.4h5.6v1.1h2.9
		v-2H243.7z M238.8,60.3v-3.7h-3.5v3.7H238.8z M235.6,64.7c0-0.7,0.4-1.3,1.1-1.7c0.7-0.4,1.7-0.6,3-0.6c1.3,0,2.3,0.2,3,0.6
		c0.7,0.4,1.1,1,1.1,1.7c0,0.7-0.4,1.3-1.1,1.7c-0.7,0.4-1.7,0.6-3,0.6c-1.3,0-2.3-0.2-3-0.6C236,66,235.6,65.4,235.6,64.7z
		 M236.7,64.7c0,0.5,0.3,0.8,0.8,1.1s1.3,0.4,2.2,0.4s1.7-0.1,2.2-0.4s0.8-0.6,0.8-1.1s-0.3-0.8-0.8-1.1c-0.5-0.3-1.3-0.4-2.2-0.4
		c-0.9,0-1.7,0.1-2.2,0.4C237,63.9,236.7,64.2,236.7,64.7z M242.7,59.2v-1.6h-2.9v1.6H242.7z M255.6,55.6v1.1c0,0.9,0,1.7-0.1,2.4
		c0,0.7-0.2,1.5-0.4,2.4h1.9v0.9h-5V67h-1v-4.8h-5v-0.9h8.1c0.2-0.9,0.3-1.7,0.4-2.4l-7.3,0.4l-0.1-0.9l7.5-0.3c0-0.4,0-0.9,0-1.5
		v-0.3h-7.2v-0.9H255.6z M268.2,55.3v0.9h-1.9v2.9h1.8v0.8h-3.9v1.5h5v0.9h-11.1v-0.9h5v-1.5h-3.9v-0.8h1.8v-2.9h-1.9v-0.9H268.2z
		 M259.6,63.4h1v2.5h7.4v0.9h-8.4V63.4z M265.2,59.1v-2.9h-3.1v2.9H265.2z M272,60.2c0.2,0,0.3,0.1,0.4,0.2c0.1,0.1,0.2,0.3,0.2,0.4
		c0,0.2-0.1,0.3-0.2,0.5c-0.1,0.1-0.3,0.2-0.4,0.2c-0.2,0-0.4-0.1-0.5-0.2c-0.1-0.1-0.2-0.3-0.2-0.5c0-0.2,0.1-0.3,0.2-0.4
		C271.6,60.3,271.8,60.2,272,60.2z M274.8,60.8c0-0.2,0.1-0.3,0.2-0.4c0.1-0.1,0.3-0.2,0.5-0.2c0.2,0,0.3,0.1,0.4,0.2
		c0.1,0.1,0.2,0.3,0.2,0.4c0,0.2-0.1,0.3-0.2,0.5c-0.1,0.1-0.3,0.2-0.4,0.2c-0.2,0-0.3-0.1-0.5-0.2C274.9,61.2,274.8,61,274.8,60.8z
		 M278.3,60.8c0-0.2,0.1-0.3,0.2-0.4c0.1-0.1,0.3-0.2,0.5-0.2c0.2,0,0.3,0.1,0.4,0.2c0.1,0.1,0.2,0.3,0.2,0.4c0,0.2-0.1,0.3-0.2,0.5
		c-0.1,0.1-0.3,0.2-0.4,0.2c-0.2,0-0.4-0.1-0.5-0.2C278.3,61.2,278.3,61,278.3,60.8z"/>
	<path class="st7" d="M56.8,80.8v-1.3h0.9v1.3H62v0.7h-9.5v-0.7H56.8z M53,79.3c0.7-0.1,1.3-0.2,1.8-0.4c0.6-0.2,1-0.4,1.3-0.8
		c0.3-0.3,0.5-0.7,0.6-1h-3.3v-0.7h3.3v-1.1h0.9v1.1H61v0.7h-3.3c0,0.4,0.2,0.7,0.5,1c0.3,0.3,0.8,0.6,1.3,0.8
		c0.6,0.2,1.2,0.3,1.8,0.4L61.1,80c-0.9-0.1-1.7-0.3-2.4-0.6c-0.7-0.3-1.2-0.7-1.5-1.2c-0.3,0.5-0.8,0.9-1.5,1.2
		c-0.7,0.3-1.5,0.5-2.4,0.6L53,79.3z M53.6,84.1c0-0.6,0.3-1,0.9-1.3c0.6-0.3,1.5-0.5,2.7-0.5c1.1,0,2,0.2,2.6,0.5
		c0.6,0.3,0.9,0.7,0.9,1.3c0,0.6-0.3,1-0.9,1.3c-0.6,0.3-1.5,0.5-2.6,0.5c-1.1,0-2-0.2-2.7-0.5C53.9,85.1,53.6,84.7,53.6,84.1z
		 M54.5,84.1c0,0.3,0.2,0.6,0.7,0.8s1.1,0.3,2,0.3c0.8,0,1.5-0.1,2-0.3s0.7-0.4,0.7-0.8c0-0.3-0.2-0.6-0.7-0.8
		c-0.5-0.2-1.1-0.3-2-0.3c-0.9,0-1.5,0.1-2,0.3C54.8,83.5,54.5,83.8,54.5,84.1z M69.2,75.9v1.2c0,0.7,0.2,1.4,0.7,2
		c0.5,0.6,1.1,1,1.9,1.3l-0.5,0.7c-0.6-0.2-1.1-0.5-1.5-0.9c-0.4-0.4-0.8-0.9-1-1.5c-0.2,0.6-0.6,1.2-1,1.7c-0.4,0.5-1,0.8-1.6,1.1
		l-0.5-0.7c0.8-0.3,1.4-0.8,1.9-1.4c0.5-0.7,0.7-1.4,0.7-2.2v-1.1H69.2z M67.1,84c0-0.6,0.3-1.1,0.9-1.4c0.6-0.3,1.4-0.5,2.5-0.5
		c1.1,0,1.9,0.2,2.5,0.5c0.6,0.3,0.9,0.8,0.9,1.4s-0.3,1.1-0.9,1.4c-0.6,0.3-1.5,0.5-2.5,0.5c-1.1,0-1.9-0.2-2.5-0.5
		C67.4,85,67.1,84.6,67.1,84z M68,84c0,0.4,0.2,0.7,0.7,0.9c0.5,0.2,1.1,0.3,1.9,0.3s1.4-0.1,1.9-0.3c0.5-0.2,0.7-0.5,0.7-0.9
		c0-0.4-0.2-0.7-0.7-0.9c-0.5-0.2-1.1-0.3-1.9-0.3s-1.4,0.1-1.9,0.3C68.2,83.3,68,83.6,68,84z M73,75.4h0.9v2.7h1.6v0.8h-1.6v2.9H73
		V75.4z M85.7,80.5v0.7h-4.3v1.3h3.1v3.3h-7.1v-3.3h3.1v-1.3h-4.3v-0.7H85.7z M77.1,75.7h7.7v0.7h-1.6v2.3h1.6v0.7h-7.6v-0.7h1.6
		v-2.3h-1.6V75.7z M83.7,85v-1.8h-5.4V85H83.7z M82.3,78.7v-2.3h-2.7v2.3H82.3z M93.9,80.5c0.4,0.2,0.7,0.5,0.9,0.9
		c0.2,0.3,0.4,0.7,0.4,1.1c0,0.5-0.1,0.9-0.4,1.2s-0.6,0.7-1,0.9c-0.4,0.2-0.9,0.3-1.4,0.3s-0.9-0.1-1.4-0.3c-0.4-0.2-0.8-0.5-1-0.9
		c-0.3-0.4-0.4-0.8-0.4-1.2h0.9c0,0.3,0.1,0.5,0.2,0.8c0.2,0.2,0.4,0.4,0.7,0.6c0.3,0.2,0.6,0.2,1,0.2c0.4,0,0.7-0.1,1-0.2
		s0.5-0.3,0.7-0.6c0.2-0.2,0.3-0.5,0.3-0.8c0-0.4-0.2-0.8-0.5-1.1c-0.3-0.3-0.8-0.5-1.4-0.5h-0.6v-0.8h0.6c0.6,0,1-0.1,1.3-0.4
		c0.3-0.3,0.5-0.6,0.5-1c0-0.2-0.1-0.5-0.2-0.7c-0.2-0.2-0.4-0.4-0.6-0.5c-0.3-0.1-0.6-0.2-0.9-0.2c-0.3,0-0.6,0.1-0.9,0.2
		c-0.3,0.1-0.5,0.3-0.6,0.5c-0.1,0.2-0.2,0.5-0.2,0.7h-0.9c0-0.4,0.1-0.8,0.4-1.2c0.2-0.4,0.6-0.6,1-0.8c0.4-0.2,0.8-0.3,1.3-0.3
		c0.5,0,0.9,0.1,1.3,0.3c0.4,0.2,0.7,0.5,1,0.8c0.2,0.3,0.4,0.7,0.4,1.2c0,0.4-0.1,0.7-0.3,1C94.5,80,94.2,80.3,93.9,80.5z
		 M99.5,84.1c0.7,0,1.2-0.3,1.6-0.9c0.4-0.6,0.6-1.4,0.6-2.6s-0.2-2-0.6-2.5c-0.4-0.6-0.9-0.9-1.6-0.9c-0.7,0-1.3,0.3-1.6,0.9
		c-0.4,0.6-0.6,1.4-0.6,2.5s0.2,2,0.6,2.6C98.2,83.8,98.8,84.1,99.5,84.1z M96.4,80.7c0-0.9,0.1-1.6,0.4-2.3
		c0.3-0.6,0.6-1.1,1.1-1.5c0.5-0.3,1-0.5,1.6-0.5c0.6,0,1.2,0.2,1.6,0.5c0.5,0.3,0.8,0.8,1.1,1.5c0.3,0.6,0.4,1.4,0.4,2.3
		s-0.1,1.6-0.4,2.3c-0.2,0.6-0.6,1.1-1.1,1.5c-0.5,0.3-1,0.5-1.6,0.5c-0.6,0-1.2-0.2-1.6-0.5c-0.5-0.3-0.8-0.8-1.1-1.5
		C96.5,82.3,96.4,81.5,96.4,80.7z M104.3,86.3h-0.6l0.4-2.2h0.9L104.3,86.3z M110.1,84.1c0.7,0,1.2-0.3,1.6-0.9
		c0.4-0.6,0.6-1.4,0.6-2.6s-0.2-2-0.6-2.5c-0.4-0.6-0.9-0.9-1.6-0.9s-1.3,0.3-1.6,0.9c-0.4,0.6-0.6,1.4-0.6,2.5s0.2,2,0.6,2.6
		C108.9,83.8,109.4,84.1,110.1,84.1z M107.1,80.7c0-0.9,0.1-1.6,0.4-2.3c0.3-0.6,0.6-1.1,1.1-1.5c0.5-0.3,1-0.5,1.6-0.5
		c0.6,0,1.2,0.2,1.6,0.5c0.5,0.3,0.8,0.8,1.1,1.5c0.3,0.6,0.4,1.4,0.4,2.3s-0.1,1.6-0.4,2.3c-0.2,0.6-0.6,1.1-1.1,1.5
		c-0.5,0.3-1,0.5-1.6,0.5c-0.6,0-1.2-0.2-1.6-0.5c-0.5-0.3-0.8-0.8-1.1-1.5C107.2,82.3,107.1,81.5,107.1,80.7z M117.5,84.1
		c0.7,0,1.2-0.3,1.6-0.9c0.4-0.6,0.6-1.4,0.6-2.6s-0.2-2-0.6-2.5c-0.4-0.6-0.9-0.9-1.6-0.9s-1.3,0.3-1.6,0.9
		c-0.4,0.6-0.6,1.4-0.6,2.5s0.2,2,0.6,2.6C116.3,83.8,116.8,84.1,117.5,84.1z M114.4,80.7c0-0.9,0.1-1.6,0.4-2.3
		c0.3-0.6,0.6-1.1,1.1-1.5c0.5-0.3,1-0.5,1.6-0.5s1.2,0.2,1.6,0.5c0.5,0.3,0.8,0.8,1.1,1.5c0.3,0.6,0.4,1.4,0.4,2.3
		s-0.1,1.6-0.4,2.3c-0.2,0.6-0.6,1.1-1.1,1.5c-0.5,0.3-1,0.5-1.6,0.5s-1.2-0.2-1.6-0.5c-0.5-0.3-0.8-0.8-1.1-1.5
		C114.6,82.3,114.4,81.5,114.4,80.7z M124.9,84.1c0.7,0,1.2-0.3,1.6-0.9s0.6-1.4,0.6-2.6s-0.2-2-0.6-2.5c-0.4-0.6-0.9-0.9-1.6-0.9
		c-0.7,0-1.3,0.3-1.6,0.9c-0.4,0.6-0.6,1.4-0.6,2.5s0.2,2,0.6,2.6C123.6,83.8,124.2,84.1,124.9,84.1z M121.8,80.7
		c0-0.9,0.1-1.6,0.4-2.3c0.3-0.6,0.6-1.1,1.1-1.5c0.5-0.3,1-0.5,1.6-0.5c0.6,0,1.2,0.2,1.6,0.5c0.5,0.3,0.8,0.8,1.1,1.5
		c0.3,0.6,0.4,1.4,0.4,2.3s-0.1,1.6-0.4,2.3c-0.2,0.6-0.6,1.1-1.1,1.5c-0.5,0.3-1,0.5-1.6,0.5c-0.6,0-1.2-0.2-1.6-0.5
		c-0.5-0.3-0.8-0.8-1.1-1.5C121.9,82.3,121.8,81.5,121.8,80.7z M137.6,75.4v8h-0.9v-1.1h-2.1v-0.7h2.1v-6.2H137.6z M129,80.2
		c1.3,0,2.5,0,3.6-0.1c1.1,0,2.2-0.1,3.2-0.2l0.1,0.6c-0.9,0.2-1.8,0.3-2.9,0.3V83h-0.9v-2c-0.9,0-1.9,0.1-2.9,0.1L129,80.2z
		 M129.8,77.6c0-0.6,0.2-1,0.7-1.3c0.5-0.3,1.1-0.5,1.9-0.5c0.8,0,1.4,0.2,1.9,0.5c0.5,0.3,0.7,0.8,0.7,1.3c0,0.6-0.2,1-0.7,1.3
		c-0.5,0.3-1.1,0.5-1.9,0.5s-1.4-0.2-1.9-0.5C130.1,78.6,129.8,78.2,129.8,77.6z M130.5,82.6h0.9v2.3h6.5v0.7h-7.4V82.6z
		 M130.7,77.6c0,0.3,0.2,0.6,0.5,0.8c0.3,0.2,0.7,0.3,1.2,0.3c0.5,0,0.9-0.1,1.2-0.3c0.3-0.2,0.5-0.5,0.5-0.8c0-0.3-0.2-0.6-0.5-0.8
		c-0.3-0.2-0.7-0.3-1.2-0.3c-0.5,0-0.9,0.1-1.2,0.3C130.8,77,130.7,77.3,130.7,77.6z M150.9,75.4v10.5H150V75.4H150.9z M142.7,79.8
		c0-0.7,0.1-1.4,0.3-1.9s0.5-1,0.9-1.3c0.4-0.3,0.9-0.5,1.4-0.5c0.5,0,1,0.2,1.4,0.5c0.4,0.3,0.7,0.7,0.9,1.3s0.3,1.2,0.3,1.9
		c0,0.7-0.1,1.4-0.3,1.9c-0.2,0.6-0.5,1-0.9,1.3c-0.4,0.3-0.9,0.4-1.4,0.4c-0.5,0-1-0.1-1.4-0.4c-0.4-0.3-0.7-0.7-0.9-1.3
		C142.8,81.2,142.7,80.6,142.7,79.8z M143.6,79.8c0,0.6,0.1,1.1,0.2,1.5c0.2,0.4,0.4,0.8,0.6,1c0.3,0.2,0.6,0.3,0.9,0.3
		c0.3,0,0.7-0.1,0.9-0.3c0.3-0.2,0.5-0.6,0.6-1c0.2-0.4,0.2-0.9,0.2-1.5c0-0.6-0.1-1.1-0.2-1.5c-0.2-0.4-0.4-0.8-0.6-1
		c-0.3-0.2-0.6-0.4-0.9-0.4c-0.4,0-0.7,0.1-0.9,0.4c-0.3,0.2-0.5,0.6-0.6,1C143.6,78.8,143.6,79.3,143.6,79.8z M156.3,75.9v1.2
		c0,0.7,0.2,1.4,0.7,2c0.5,0.6,1.1,1,1.9,1.3l-0.5,0.7c-0.6-0.2-1.1-0.5-1.5-0.9c-0.4-0.4-0.8-0.9-1-1.5c-0.2,0.6-0.6,1.2-1,1.7
		c-0.4,0.5-1,0.8-1.6,1.1l-0.5-0.7c0.8-0.3,1.4-0.8,1.9-1.4c0.5-0.7,0.7-1.4,0.7-2.2v-1.1H156.3z M154.2,84c0-0.6,0.3-1.1,0.9-1.4
		c0.6-0.3,1.4-0.5,2.5-0.5c1.1,0,1.9,0.2,2.5,0.5c0.6,0.3,0.9,0.8,0.9,1.4s-0.3,1.1-0.9,1.4c-0.6,0.3-1.5,0.5-2.5,0.5
		c-1.1,0-1.9-0.2-2.5-0.5C154.5,85,154.2,84.6,154.2,84z M155,84c0,0.4,0.2,0.7,0.7,0.9c0.5,0.2,1.1,0.3,1.9,0.3
		c0.8,0,1.4-0.1,1.9-0.3c0.5-0.2,0.7-0.5,0.7-0.9c0-0.4-0.2-0.7-0.7-0.9c-0.5-0.2-1.1-0.3-1.9-0.3c-0.8,0-1.4,0.1-1.9,0.3
		C155.3,83.3,155,83.6,155,84z M160,75.4h0.9v2.7h1.6v0.8h-1.6v2.9H160V75.4z M174.3,76.1V77c0,0.7,0,1.3,0,1.8
		c0,0.5-0.1,1.1-0.3,1.8h1.6v0.8h-4.3v4.6h-0.9v-4.6H166v-0.8h7c0.1-0.7,0.2-1.3,0.3-1.8c0-0.5,0.1-1.1,0.1-1.8v-0.2h-6.1v-0.7
		H174.3z M185.4,75.4v10.5h-0.9v-5.6h-1.5v5h-0.9v-9.7h0.9v3.9h1.5v-4.2H185.4z M176.9,76.6h4V83h-4V76.6z M180.1,82.3v-5h-2.3v5
		H180.1z M193.5,76.3v1.9c0,0.6,0.1,1.2,0.4,1.9c0.3,0.6,0.6,1.2,1,1.6c0.4,0.5,0.9,0.8,1.4,1.1l-0.5,0.7c-0.6-0.3-1.1-0.7-1.6-1.3
		c-0.5-0.6-0.8-1.3-1.1-2c-0.2,0.8-0.6,1.5-1.1,2.1c-0.5,0.6-1,1.1-1.7,1.4l-0.6-0.7c0.5-0.2,1-0.6,1.4-1.1c0.4-0.5,0.8-1.1,1-1.7
		c0.3-0.6,0.4-1.3,0.4-1.9v-1.9H193.5z M197.4,75.4h0.9v10.5h-0.9V75.4z M62,96.4v0.8h-2.5v3.8h-0.9v-3.8h-2.7v3.8H55v-3.8h-2.5
		v-0.8H62z M53.5,93.1c0-0.5,0.2-0.9,0.5-1.2c0.3-0.3,0.7-0.6,1.3-0.8c0.6-0.2,1.2-0.3,1.9-0.3s1.4,0.1,1.9,0.3
		c0.6,0.2,1,0.4,1.3,0.8c0.3,0.3,0.5,0.7,0.5,1.2c0,0.5-0.2,0.9-0.5,1.2c-0.3,0.3-0.7,0.6-1.3,0.8c-0.6,0.2-1.2,0.3-1.9,0.3
		s-1.4-0.1-1.9-0.3c-0.6-0.2-1-0.4-1.3-0.8C53.7,94,53.5,93.6,53.5,93.1z M54.5,93.1c0,0.5,0.2,0.8,0.7,1.1c0.5,0.3,1.2,0.4,2,0.4
		s1.5-0.1,2-0.4c0.5-0.3,0.8-0.7,0.8-1.1c0-0.5-0.3-0.8-0.8-1.1c-0.5-0.3-1.2-0.4-2-0.4c-0.8,0-1.5,0.1-2,0.4
		C54.7,92.3,54.5,92.6,54.5,93.1z M67.3,91.9v-1.4h0.9v1.4H72v0.7h-8.5v-0.7H67.3z M63,98.9h2.5v-2c-0.4-0.2-0.7-0.4-0.9-0.6
		c-0.2-0.3-0.3-0.6-0.3-0.9c0-0.6,0.3-1.1,0.9-1.5c0.6-0.3,1.4-0.5,2.5-0.5c1.1,0,1.9,0.2,2.5,0.5s0.9,0.8,0.9,1.5
		c0,0.4-0.1,0.7-0.3,0.9c-0.2,0.3-0.5,0.5-0.9,0.6v2h2.6v0.7H63V98.9z M65.2,95.4c0,0.4,0.2,0.7,0.7,0.9c0.4,0.2,1.1,0.3,1.8,0.3
		c0.8,0,1.4-0.1,1.8-0.3c0.4-0.2,0.7-0.5,0.7-0.9c0-0.4-0.2-0.7-0.7-0.9c-0.4-0.2-1.1-0.3-1.8-0.3c-0.8,0-1.4,0.1-1.8,0.3
		C65.4,94.7,65.2,95,65.2,95.4z M69,98.9v-1.7c-0.4,0.1-0.8,0.1-1.3,0.1c-0.5,0-0.9,0-1.3-0.1v1.7H69z M82,90.4v10.5h-0.9V90.4H82z
		 M73.6,98.2c1.4-0.7,2.5-1.5,3.2-2.5c0.7-1,1.2-2.2,1.3-3.4h-4v-0.7H79c0,1.6-0.4,3-1.2,4.3c-0.8,1.3-2,2.3-3.7,3.1L73.6,98.2z
		 M92.1,90.4v3.2h1.6v0.8h-1.6v3.7h-0.9v-7.7H92.1z M84,96.1c1.3-0.4,2.3-1,3-1.7c0.8-0.7,1.2-1.6,1.3-2.5h-3.9v-0.7h4.9
		c0,1.3-0.4,2.5-1.3,3.5c-0.9,1-2.1,1.7-3.6,2.2L84,96.1z M85.6,97.3h0.9v2.6h6.1v0.7h-7V97.3z M97.4,98.9c0.3-0.3,0.8-0.7,1.4-1.3
		c0.6-0.5,1.1-1,1.5-1.4c0.4-0.4,0.7-0.7,0.9-1.1c0.3-0.4,0.4-0.8,0.4-1.1c0-0.5-0.2-0.9-0.5-1.2c-0.3-0.3-0.7-0.5-1.2-0.5
		c-0.8,0-1.4,0.4-1.8,1.3l-0.8-0.4c0.3-0.6,0.7-1.1,1.1-1.4c0.5-0.3,1-0.4,1.5-0.4c0.4,0,0.8,0.1,1.2,0.3c0.4,0.2,0.7,0.5,1,0.9
		c0.2,0.4,0.4,0.8,0.4,1.3c0,0.5-0.2,1-0.5,1.5c-0.3,0.5-0.7,0.9-1.1,1.4c-0.4,0.4-1,0.9-1.7,1.5l-0.6,0.5h3.9v0.9h-5.2V98.9z
		 M106.9,99.1c0.7,0,1.2-0.3,1.6-0.9s0.6-1.4,0.6-2.6s-0.2-2-0.6-2.5c-0.4-0.6-0.9-0.9-1.6-0.9c-0.7,0-1.3,0.3-1.6,0.9
		c-0.4,0.6-0.6,1.4-0.6,2.5s0.2,2,0.6,2.6C105.6,98.8,106.2,99.1,106.9,99.1z M103.8,95.7c0-0.9,0.1-1.6,0.4-2.3s0.6-1.1,1.1-1.5
		c0.5-0.3,1-0.5,1.6-0.5c0.6,0,1.2,0.2,1.6,0.5c0.5,0.3,0.8,0.8,1.1,1.5c0.3,0.6,0.4,1.4,0.4,2.3s-0.1,1.6-0.4,2.3
		c-0.2,0.6-0.6,1.1-1.1,1.5c-0.5,0.3-1,0.5-1.6,0.5c-0.6,0-1.2-0.2-1.6-0.5c-0.5-0.3-0.8-0.8-1.1-1.5
		C103.9,97.3,103.8,96.5,103.8,95.7z M111.2,98.9c0.3-0.3,0.8-0.7,1.4-1.3c0.6-0.5,1.1-1,1.5-1.4c0.4-0.4,0.7-0.7,0.9-1.1
		c0.3-0.4,0.4-0.8,0.4-1.1c0-0.5-0.2-0.9-0.5-1.2c-0.3-0.3-0.7-0.5-1.2-0.5c-0.8,0-1.4,0.4-1.8,1.3l-0.8-0.4
		c0.3-0.6,0.7-1.1,1.1-1.4c0.5-0.3,1-0.4,1.5-0.4c0.4,0,0.8,0.1,1.2,0.3c0.4,0.2,0.7,0.5,1,0.9c0.2,0.4,0.4,0.8,0.4,1.3
		c0,0.5-0.2,1-0.5,1.5c-0.3,0.5-0.7,0.9-1.1,1.4c-0.4,0.4-1,0.9-1.7,1.5l-0.6,0.5h3.9v0.9h-5.2V98.9z M117.7,98.9
		c0.3-0.3,0.8-0.7,1.4-1.3c0.6-0.5,1.1-1,1.5-1.4c0.4-0.4,0.7-0.7,0.9-1.1c0.3-0.4,0.4-0.8,0.4-1.1c0-0.5-0.2-0.9-0.5-1.2
		c-0.3-0.3-0.7-0.5-1.2-0.5c-0.8,0-1.4,0.4-1.8,1.3l-0.8-0.4c0.3-0.6,0.7-1.1,1.1-1.4c0.5-0.3,1-0.4,1.5-0.4c0.4,0,0.8,0.1,1.2,0.3
		c0.4,0.2,0.7,0.5,1,0.9c0.2,0.4,0.4,0.8,0.4,1.3c0,0.5-0.2,1-0.5,1.5c-0.3,0.5-0.7,0.9-1.1,1.4c-0.4,0.4-1,0.9-1.7,1.5l-0.6,0.5
		h3.9v0.9h-5.2V98.9z M124.9,99c0.2,0,0.3,0.1,0.4,0.2c0.1,0.1,0.2,0.3,0.2,0.4c0,0.2-0.1,0.3-0.2,0.4c-0.1,0.1-0.2,0.2-0.4,0.2
		c-0.2,0-0.3-0.1-0.5-0.2c-0.1-0.1-0.2-0.3-0.2-0.4c0-0.2,0.1-0.3,0.2-0.4C124.6,99,124.7,99,124.9,99z M130.4,99.1
		c0.7,0,1.2-0.3,1.6-0.9c0.4-0.6,0.6-1.4,0.6-2.6s-0.2-2-0.6-2.5c-0.4-0.6-0.9-0.9-1.6-0.9s-1.3,0.3-1.6,0.9
		c-0.4,0.6-0.6,1.4-0.6,2.5s0.2,2,0.6,2.6C129.2,98.8,129.7,99.1,130.4,99.1z M127.3,95.7c0-0.9,0.1-1.6,0.4-2.3
		c0.3-0.6,0.6-1.1,1.1-1.5c0.5-0.3,1-0.5,1.6-0.5s1.2,0.2,1.6,0.5c0.5,0.3,0.8,0.8,1.1,1.5c0.3,0.6,0.4,1.4,0.4,2.3
		s-0.1,1.6-0.4,2.3c-0.2,0.6-0.6,1.1-1.1,1.5c-0.5,0.3-1,0.5-1.6,0.5s-1.2-0.2-1.6-0.5c-0.5-0.3-0.8-0.8-1.1-1.5
		C127.5,97.3,127.3,96.5,127.3,95.7z M137.8,99.1c0.7,0,1.2-0.3,1.6-0.9s0.6-1.4,0.6-2.6s-0.2-2-0.6-2.5c-0.4-0.6-0.9-0.9-1.6-0.9
		c-0.7,0-1.3,0.3-1.6,0.9c-0.4,0.6-0.6,1.4-0.6,2.5s0.2,2,0.6,2.6C136.5,98.8,137.1,99.1,137.8,99.1z M134.7,95.7
		c0-0.9,0.1-1.6,0.4-2.3s0.6-1.1,1.1-1.5c0.5-0.3,1-0.5,1.6-0.5s1.2,0.2,1.6,0.5c0.5,0.3,0.8,0.8,1.1,1.5c0.3,0.6,0.4,1.4,0.4,2.3
		s-0.1,1.6-0.4,2.3c-0.2,0.6-0.6,1.1-1.1,1.5c-0.5,0.3-1,0.5-1.6,0.5s-1.2-0.2-1.6-0.5c-0.5-0.3-0.8-0.8-1.1-1.5
		C134.8,97.3,134.7,96.5,134.7,95.7z M142.8,99c0.2,0,0.3,0.1,0.4,0.2s0.2,0.3,0.2,0.4c0,0.2-0.1,0.3-0.2,0.4s-0.2,0.2-0.4,0.2
		c-0.2,0-0.3-0.1-0.5-0.2c-0.1-0.1-0.2-0.3-0.2-0.4c0-0.2,0.1-0.3,0.2-0.4C142.5,99,142.6,99,142.8,99z M148.3,99.1
		c0.7,0,1.2-0.3,1.6-0.9s0.6-1.4,0.6-2.6s-0.2-2-0.6-2.5c-0.4-0.6-0.9-0.9-1.6-0.9s-1.3,0.3-1.6,0.9c-0.4,0.6-0.6,1.4-0.6,2.5
		s0.2,2,0.6,2.6C147.1,98.8,147.6,99.1,148.3,99.1z M145.2,95.7c0-0.9,0.1-1.6,0.4-2.3s0.6-1.1,1.1-1.5c0.5-0.3,1-0.5,1.6-0.5
		s1.2,0.2,1.6,0.5c0.5,0.3,0.8,0.8,1.1,1.5c0.3,0.6,0.4,1.4,0.4,2.3s-0.1,1.6-0.4,2.3c-0.2,0.6-0.6,1.1-1.1,1.5
		c-0.5,0.3-1,0.5-1.6,0.5s-1.2-0.2-1.6-0.5c-0.5-0.3-0.8-0.8-1.1-1.5C145.4,97.3,145.2,96.5,145.2,95.7z M155.7,99.1
		c0.7,0,1.2-0.3,1.6-0.9c0.4-0.6,0.6-1.4,0.6-2.6s-0.2-2-0.6-2.5c-0.4-0.6-0.9-0.9-1.6-0.9s-1.3,0.3-1.6,0.9
		c-0.4,0.6-0.6,1.4-0.6,2.5s0.2,2,0.6,2.6C154.4,98.8,155,99.1,155.7,99.1z M152.6,95.7c0-0.9,0.1-1.6,0.4-2.3
		c0.3-0.6,0.6-1.1,1.1-1.5c0.5-0.3,1-0.5,1.6-0.5s1.2,0.2,1.6,0.5c0.5,0.3,0.8,0.8,1.1,1.5c0.3,0.6,0.4,1.4,0.4,2.3
		s-0.1,1.6-0.4,2.3c-0.2,0.6-0.6,1.1-1.1,1.5c-0.5,0.3-1,0.5-1.6,0.5s-1.2-0.2-1.6-0.5c-0.5-0.3-0.8-0.8-1.1-1.5
		C152.7,97.3,152.6,96.5,152.6,95.7z"/>
</g>
<g>
	<path class="st4" d="M11.2,68c6.1,0,11-4.9,11-11s-4.9-11-11-11s-11,4.9-11,11S5.1,68,11.2,68z"/>
	<path class="st8" d="M6.5,56.9l4,3.8l6-5.6"/>
</g>
</svg>
