<svg width="70" height="70" viewBox="0 0 70 70" fill="none" xmlns="http://www.w3.org/2000/svg">
<path fill-rule="evenodd" clip-rule="evenodd" d="M62.2147 57.01C67.0835 50.9974 70 43.3393 70 35C70 15.67 54.33 0 35 0C15.67 0 0 15.67 0 35C0 54.33 15.67 70 35 70C42.9342 70 50.2517 67.36 56.1221 62.9104L63.8936 65.5721L62.2147 57.01Z" fill="#E7342C"/>
<path d="M10.5671 30.2012H17.8916V33.5582H10.5671V30.2012Z" fill="#FFCBC0"/>
<path opacity="0.9" d="M24.8007 22.7441H50.0176V42.5552H24.8007V22.7441Z" fill="#FFFCFC" fill-opacity="0.3"/>
<path d="M25.1697 46.707H39.2808" stroke="white" stroke-width="1.4" stroke-linecap="round" stroke-linejoin="round"/>
<path d="M8.99128 38.5056L12.1655 26.6602H23.7095" stroke="white" stroke-width="1.4" stroke-linecap="round" stroke-linejoin="round"/>
<path d="M39.2808 46.707H25.0083" stroke="white" stroke-width="1.4" stroke-linecap="round" stroke-linejoin="round"/>
<path d="M18.145 30.4746V33.8758H11.0665" stroke="white" stroke-width="1.4" stroke-linecap="round" stroke-linejoin="round"/>
<path d="M53.5454 24.0173V22.7363H24.355V46.5155H53.5454V43.8504" stroke="white" stroke-width="1.4" stroke-linecap="round" stroke-linejoin="round"/>
<path d="M8.7683 39.0352V46.7873H24.355" stroke="white" stroke-width="1.4" stroke-linecap="round" stroke-linejoin="round"/>
<path d="M61.2314 27.0947H48.2426" stroke="white" stroke-width="1.4" stroke-linecap="round" stroke-linejoin="round"/>
<path d="M59.771 31.5635H53.1997" stroke="white" stroke-width="1.4" stroke-linecap="round" stroke-linejoin="round"/>
<path d="M57.7344 36.0244H51.7395" stroke="white" stroke-width="1.4" stroke-linecap="round" stroke-linejoin="round"/>
<path d="M58.895 40.501H56.989" stroke="white" stroke-width="1.4" stroke-linecap="round" stroke-linejoin="round"/>
<path d="M14.2487 46.5894C14.2487 49.1734 16.4315 51.2568 19.1292 51.2568C21.8269 51.2568 24.002 49.166 24.002 46.5894C24.002 44.0127 21.8192 41.9219 19.1292 41.9219C16.4392 41.9219 14.2487 44.0127 14.2487 46.5894V46.5894Z" stroke="white" stroke-width="1.4" stroke-linecap="round" stroke-linejoin="round"/>
<path d="M39.5193 46.5894C39.5193 49.1734 41.702 51.2568 44.392 51.2568C47.082 51.2568 49.2725 49.166 49.2725 46.5894C49.2725 44.0127 47.0897 41.9219 44.392 41.9219C41.6943 41.9219 39.5193 44.0127 39.5193 46.5894V46.5894Z" stroke="white" stroke-width="1.4" stroke-linecap="round" stroke-linejoin="round"/>
<path d="M48 32C52.4183 32 56 28.4183 56 24C56 19.5817 52.4183 16 48 16C43.5817 16 40 19.5817 40 24C40 28.4183 43.5817 32 48 32Z" fill="white"/>
<path d="M45.186 24.3177L47.719 26.8297L52.365 21.6807" stroke="#F60E00" stroke-width="1.5" stroke-linecap="round" stroke-linejoin="round"/>
</svg>
