<svg width="20" height="17" viewBox="0 0 20 17" fill="none" xmlns="http://www.w3.org/2000/svg">
<path d="M11.435 16.3351C10.654 17.1162 9.38765 17.1162 8.6066 16.3351L2.80833 10.5368L1.60624 9.33476C0.649809 8.37832 0.112489 7.08112 0.112489 5.72852C0.112489 4.37591 0.649809 3.07871 1.60624 2.12227C2.56268 1.16584 3.85988 0.628516 5.21249 0.628516C6.50132 0.628516 7.90444 1.45986 8.86131 2.36569C8.95452 2.45392 9.02972 2.55881 9.08806 2.67313C9.50967 3.49916 10.6604 3.5759 11.188 2.81316L11.3333 2.60306C11.3804 2.53489 11.4335 2.47101 11.4926 2.4128C12.4292 1.4889 13.518 0.628516 14.8291 0.628516C16.1817 0.628515 17.4789 1.16584 18.4354 2.12227C19.3918 3.07871 19.9291 4.37591 19.9291 5.72851C19.9291 7.08112 19.3918 8.37833 18.4354 9.33476L11.435 16.3351Z" fill="#E7342C"/>
</svg>
