<svg width="20" height="17" viewBox="0 0 20 17" fill="none" xmlns="http://www.w3.org/2000/svg">
<path d="M11.0815 15.9816C10.4957 16.5673 9.54594 16.5674 8.96015 15.9816L3.16188 10.1833L1.9598 8.98121C1.09713 8.11854 0.612489 6.94851 0.612489 5.72852C0.612489 4.50852 1.09713 3.33849 1.9598 2.47582C2.82246 1.61316 3.99249 1.12852 5.21249 1.12852C6.3155 1.12852 7.60056 1.8607 8.51758 2.72879C8.56451 2.77322 8.607 2.83045 8.64272 2.90043C9.23631 4.0634 10.8564 4.17145 11.5992 3.09759L11.7445 2.88749C11.7749 2.84352 11.8081 2.80384 11.8437 2.76877C12.7771 1.8481 13.7371 1.12852 14.8291 1.12852C16.0491 1.12851 17.2192 1.61316 18.0818 2.47582C18.9445 3.33849 19.4291 4.50852 19.4291 5.72851C19.4291 6.94851 18.9445 8.11854 18.0818 8.98121L11.0815 15.9816Z" stroke="#797979" stroke-linecap="round" stroke-linejoin="round"/>
</svg>
