<svg width="19" height="18" viewBox="0 0 19 18" fill="none" xmlns="http://www.w3.org/2000/svg">
<path d="M6.875 6.66928C6.69234 6.46217 6.37638 6.44235 6.16928 6.625C5.96217 6.80766 5.94235 7.12362 6.125 7.33072L6.875 6.66928ZM13.8776 7.32777C14.0586 7.11923 14.0363 6.80344 13.8278 6.62242C13.6192 6.4414 13.3034 6.4637 13.1224 6.67223L13.8776 7.32777ZM10.1027 10.9137L10.4803 11.2415L10.1027 10.9137ZM6.125 7.33072L9.57716 11.245L10.3272 10.5836L6.875 6.66928L6.125 7.33072ZM10.4803 11.2415L13.8776 7.32777L13.1224 6.67223L9.72509 10.5859L10.4803 11.2415ZM9.57716 11.245C9.81728 11.5173 10.2423 11.5156 10.4803 11.2415L9.72509 10.5859C9.88374 10.4032 10.1671 10.4021 10.3272 10.5836L9.57716 11.245Z" fill="#565656"/>
</svg>
