<svg width="57" height="16" viewBox="0 0 57 16" fill="none" xmlns="http://www.w3.org/2000/svg">
<path d="M20.7625 5.01601V3.91602H22.3025V5.01601H24.3595V6.05812H23.2815C23.534 6.38628 23.7296 6.75862 23.8595 7.15812C24.0064 7.60518 24.0827 8.07455 24.0855 8.54759C24.0823 9.01153 24.0149 9.4725 23.8855 9.91601C23.774 10.3061 23.595 10.6712 23.3575 10.9929C23.1434 11.2903 22.8704 11.5352 22.5575 11.7107C22.2415 11.8826 21.8902 11.9701 21.5345 11.9655C21.1681 11.9783 20.8046 11.8925 20.4785 11.716C20.1656 11.5432 19.8925 11.3003 19.6785 11.0044C19.4429 10.6782 19.266 10.3093 19.1565 9.91601C19.0319 9.47188 18.9709 9.01067 18.9755 8.54759C18.9711 8.0749 19.0438 7.60491 19.1905 7.15812C19.3201 6.75869 19.5154 6.38636 19.7675 6.05812H18.7495V5.01601H20.7625ZM21.5325 6.08128C21.2245 6.08128 20.9662 6.30689 20.7575 6.75812C20.5289 7.32264 20.4263 7.93481 20.4575 8.54759C20.428 9.13946 20.5307 9.73038 20.7575 10.2729C20.9628 10.7051 21.2195 10.9213 21.5275 10.9213C21.8355 10.9213 22.0922 10.7069 22.2975 10.2781C22.5228 9.73326 22.6262 9.14117 22.5995 8.54759C22.6284 7.92573 22.526 7.30486 22.2995 6.7297C22.0995 6.29952 21.8438 6.08444 21.5325 6.08444V6.08128ZM26.8325 8.14233V14.4002H25.3495V3.91602H26.8345V7.10022H28.2645V8.14233H26.8325ZM30.7265 10.3423H33.6905C33.8412 10.3423 33.9898 10.3346 34.1365 10.3192C34.2836 10.3039 34.4292 10.275 34.5715 10.2329C34.7302 10.1835 34.8831 10.1158 35.0275 10.0308V3.91602H36.5125V7.10022H37.9425V8.14233H36.5125V14.4002H35.0295V11.0718C34.7475 11.2006 34.4489 11.2847 34.1435 11.3213C33.8281 11.3632 33.5105 11.3846 33.1925 11.3855H29.8995C29.7412 11.3878 29.5846 11.3509 29.4423 11.2777C29.3001 11.2046 29.1761 11.0973 29.0805 10.9644C28.8621 10.6774 28.747 10.3184 28.7555 9.95075V4.37917H30.2405V9.91391C30.2372 9.97269 30.2464 10.0315 30.2673 10.0861C30.2882 10.1407 30.3204 10.1898 30.3615 10.2297C30.4668 10.3128 30.5973 10.3529 30.7285 10.3423H30.7265ZM41.1455 8.14233H38.5495V7.10022H41.5195C41.5704 6.89422 41.6108 6.6855 41.6405 6.47496C41.6697 6.26796 41.6845 6.05897 41.6845 5.8497V5.53391H38.5495V4.4918H43.2245V5.51075C43.2295 6.28045 43.1046 7.04495 42.8555 7.76865C42.6227 8.44992 42.2826 9.0851 41.8495 9.64759C41.4286 10.1915 40.9156 10.6487 40.3365 10.996C39.7521 11.348 39.1056 11.5708 38.4365 11.6507V10.6108C39.0372 10.4267 39.5889 10.0976 40.0475 9.6497C40.4947 9.21897 40.8664 8.70873 41.1455 8.14233ZM46.1945 8.14233V14.4002H44.7095V3.91602H46.1945V7.10022H47.6245V8.14233H46.1945ZM48.0645 11.8476H56.9745V12.8897H48.0645V11.8476ZM49.1755 4.49496H55.8855V5.53707H50.6605V8.40865C50.6572 8.46743 50.6664 8.52624 50.6873 8.58085C50.7082 8.63546 50.7404 8.6845 50.7815 8.72443C50.8904 8.80504 51.0229 8.84234 51.1555 8.8297H55.8855V9.8718H50.3305C50.1714 9.87377 50.014 9.83675 49.8708 9.76368C49.7277 9.6906 49.6026 9.58347 49.5055 9.45075C49.2843 9.16543 49.1673 8.80628 49.1755 8.43812V4.49496Z" fill="#1A1818"/>
<path d="M11.7908 9.50793C11.7553 9.2707 11.6908 9.03931 11.5988 8.81952C11.334 8.16239 10.8791 7.60988 10.2988 7.24057C9.84322 6.95619 9.32265 6.80788 8.79301 6.81159C8.26338 6.8153 7.74473 6.97089 7.2928 7.26163C6.86983 7.52789 6.52669 7.91423 6.30278 8.37636C6.22713 8.53365 6.16425 8.69739 6.11479 8.86583C5.97719 9.30257 5.92452 9.764 5.95991 10.2226C5.9953 10.6812 6.11802 11.1277 6.32078 11.5353C6.46004 11.7856 6.67319 11.9811 6.92778 12.0921C7.0545 12.1464 7.19147 12.1689 7.32786 12.1579C7.46425 12.1469 7.59635 12.1028 7.71379 12.029C7.8443 11.9222 7.94186 11.7772 7.99418 11.6122C8.04651 11.4471 8.05125 11.2695 8.0078 11.1016C7.90618 10.6762 7.91691 10.2296 8.0388 9.81004C8.08325 9.67161 8.1575 9.54588 8.25578 9.44267C8.31725 9.38113 8.38742 9.33 8.46379 9.2911C8.62395 9.20588 8.80538 9.17535 8.9828 9.20374C9.13618 9.23815 9.2796 9.31038 9.40129 9.4145C9.52298 9.51863 9.61945 9.65167 9.68278 9.80269C9.80655 10.1049 9.87084 10.4304 9.87178 10.7595C9.87644 12.2106 9.67213 13.654 9.26579 15.0406C9.23079 15.1816 9.1948 15.3237 9.1548 15.4616C9.1258 15.5669 9.07381 15.709 9.13881 15.8143C9.16936 15.8585 9.21134 15.8924 9.25978 15.9122C9.35118 15.9397 9.44848 15.9366 9.5381 15.9032C9.62772 15.8698 9.7052 15.8078 9.75978 15.7258C10.53 14.858 11.0967 13.8126 11.4148 12.6732C11.5488 12.2574 11.6547 11.8321 11.7318 11.4006C11.8551 10.7773 11.8757 10.1364 11.7928 9.50583" fill="#00857E"/>
<path d="M17.4886 2.90562C17.4873 2.85627 17.4764 2.80773 17.4566 2.76298C17.4368 2.71822 17.4085 2.6782 17.3735 2.64537C17.3385 2.61254 17.2975 2.5876 17.2529 2.57208C17.2084 2.55656 17.1614 2.55078 17.1146 2.5551C16.9197 2.58586 16.7307 2.6491 16.5546 2.74246C12.9883 4.08745 9.15815 4.46822 5.41563 3.84984C4.78463 3.75405 4.14564 3.61931 3.51564 3.51615C3.11564 3.44983 2.72563 3.35615 2.32463 3.32352C1.9645 3.25207 1.59204 3.32732 1.28264 3.53404C1.12456 3.71732 1.02646 3.94911 1.0027 4.19539C0.978944 4.44167 1.03077 4.68948 1.15062 4.90247C1.42171 5.38806 1.81388 5.78629 2.28462 6.05404C2.71894 6.38126 3.23492 6.56719 3.76863 6.58879C5.17863 6.49405 6.58431 6.35053 7.98564 6.15825C10.4219 5.95154 12.8219 5.4101 15.1246 4.54773C15.8696 4.23753 16.5715 3.82329 17.2116 3.31615C17.3256 3.22562 17.4896 3.0751 17.4896 2.90141" fill="#00857E"/>
<path d="M7.4507 1.64257C7.44574 1.83614 7.47765 2.02878 7.5446 2.20914C7.61154 2.38949 7.71216 2.55389 7.84047 2.69265C7.96878 2.8314 8.1222 2.9417 8.29167 3.017C8.46114 3.0923 8.64324 3.1311 8.82719 3.1311C9.01114 3.1311 9.19324 3.0923 9.36271 3.017C9.53219 2.9417 9.68561 2.8314 9.81392 2.69265C9.94223 2.55389 10.0428 2.38949 10.1098 2.20914C10.1767 2.02878 10.2086 1.83614 10.2037 1.64257C10.2028 1.52255 10.1776 1.40412 10.1297 1.2952C10.0127 1.03204 9.87867 0.903627 9.89167 0.587838C9.90867 0.166786 9.39168 0.156256 9.11168 0.156256C8.80188 0.146372 8.49404 0.211174 8.21168 0.345721C7.99156 0.463398 7.80494 0.640252 7.6707 0.858351C7.53338 1.08283 7.4579 1.343 7.45268 1.60993V1.64257" fill="#E4003F"/>
</svg>
