<svg width="24" height="22" viewBox="0 0 24 22" fill="none" xmlns="http://www.w3.org/2000/svg">
<path fill-rule="evenodd" clip-rule="evenodd" d="M19.1519 7.50978L12.2276 2.93558L5.48878 7.46974V18.2453C5.48878 18.7975 5.9365 19.2453 6.48878 19.2453H18.1519C18.7042 19.2453 19.1519 18.7975 19.1519 18.2453V7.50978ZM21.1519 8.831L22.4487 9.68768C22.9095 9.9921 23.5298 9.86531 23.8343 9.4045C24.1387 8.94369 24.0119 8.32335 23.5511 8.01893L12.8294 0.936092C12.4588 0.691312 11.9774 0.693347 11.609 0.941259L1.08288 8.02363C0.624664 8.33194 0.503137 8.95333 0.811445 9.41155C1.11975 9.86977 1.74115 9.99129 2.19936 9.68299L3.48878 8.81542V18.2453C3.48878 19.9021 4.83193 21.2453 6.48878 21.2453H18.1519C19.8087 21.2453 21.1519 19.9021 21.1519 18.2453V8.831Z" fill="#1a1a1a"/>
</svg>
