<svg width="11" height="11" viewBox="0 0 11 11" fill="none" xmlns="http://www.w3.org/2000/svg">
<mask id="path-1-inside-1_755_22209" fill="white">
<path fill-rule="evenodd" clip-rule="evenodd" d="M0.5 5.5C0.5 2.73858 2.73858 0.5 5.5 0.5C8.26142 0.5 10.5 2.73858 10.5 5.5C10.5 8.26142 8.26142 10.5 5.5 10.5C2.73858 10.5 0.5 8.26142 0.5 5.5ZM5.5 0C2.46243 0 0 2.46243 0 5.5C0 8.53757 2.46243 11 5.5 11C8.53757 11 11 8.53757 11 5.5C11 2.46243 8.53757 0 5.5 0ZM6.06211 3.24269C6.09058 3.17 6.10367 3.0922 6.10056 3.01419C6.10525 2.93454 6.09345 2.85477 6.0659 2.77988C6.03835 2.70499 5.99565 2.6366 5.94046 2.57897C5.88527 2.52134 5.81878 2.47571 5.74515 2.44495C5.67153 2.41419 5.59235 2.39895 5.51256 2.40019C5.43099 2.39632 5.34952 2.40956 5.27338 2.43908C5.19724 2.46859 5.12812 2.51372 5.07048 2.57155C5.01283 2.62939 4.96793 2.69865 4.93866 2.77489C4.9094 2.85112 4.89642 2.93264 4.90056 3.01419C4.89811 3.09409 4.91247 3.17361 4.94269 3.24761C4.97292 3.32161 5.01835 3.38844 5.07604 3.44377C5.13373 3.49911 5.20239 3.54171 5.27759 3.56883C5.35278 3.59594 5.43283 3.60697 5.51256 3.60119C5.59056 3.60443 5.66838 3.59147 5.74112 3.56313C5.81386 3.53479 5.87994 3.49169 5.93518 3.43653C5.99043 3.38138 6.03365 3.31538 6.06211 3.24269ZM5.98956 8.06419V5.18819L5.99456 5.18419C5.98109 5.06179 5.92293 4.94867 5.83122 4.86649C5.73951 4.78432 5.6207 4.73888 5.49756 4.73888C5.37442 4.73888 5.25561 4.78432 5.1639 4.86649C5.07219 4.94867 5.01403 5.06179 5.00056 5.18419V8.06419C5.01828 8.18267 5.07795 8.29084 5.1687 8.36903C5.25946 8.44723 5.37527 8.49023 5.49506 8.49023C5.61485 8.49023 5.73067 8.44723 5.82142 8.36903C5.91218 8.29084 5.97184 8.18267 5.98956 8.06419Z"/>
</mask>
<path fill-rule="evenodd" clip-rule="evenodd" d="M0.5 5.5C0.5 2.73858 2.73858 0.5 5.5 0.5C8.26142 0.5 10.5 2.73858 10.5 5.5C10.5 8.26142 8.26142 10.5 5.5 10.5C2.73858 10.5 0.5 8.26142 0.5 5.5ZM5.5 0C2.46243 0 0 2.46243 0 5.5C0 8.53757 2.46243 11 5.5 11C8.53757 11 11 8.53757 11 5.5C11 2.46243 8.53757 0 5.5 0ZM6.06211 3.24269C6.09058 3.17 6.10367 3.0922 6.10056 3.01419C6.10525 2.93454 6.09345 2.85477 6.0659 2.77988C6.03835 2.70499 5.99565 2.6366 5.94046 2.57897C5.88527 2.52134 5.81878 2.47571 5.74515 2.44495C5.67153 2.41419 5.59235 2.39895 5.51256 2.40019C5.43099 2.39632 5.34952 2.40956 5.27338 2.43908C5.19724 2.46859 5.12812 2.51372 5.07048 2.57155C5.01283 2.62939 4.96793 2.69865 4.93866 2.77489C4.9094 2.85112 4.89642 2.93264 4.90056 3.01419C4.89811 3.09409 4.91247 3.17361 4.94269 3.24761C4.97292 3.32161 5.01835 3.38844 5.07604 3.44377C5.13373 3.49911 5.20239 3.54171 5.27759 3.56883C5.35278 3.59594 5.43283 3.60697 5.51256 3.60119C5.59056 3.60443 5.66838 3.59147 5.74112 3.56313C5.81386 3.53479 5.87994 3.49169 5.93518 3.43653C5.99043 3.38138 6.03365 3.31538 6.06211 3.24269ZM5.98956 8.06419V5.18819L5.99456 5.18419C5.98109 5.06179 5.92293 4.94867 5.83122 4.86649C5.73951 4.78432 5.6207 4.73888 5.49756 4.73888C5.37442 4.73888 5.25561 4.78432 5.1639 4.86649C5.07219 4.94867 5.01403 5.06179 5.00056 5.18419V8.06419C5.01828 8.18267 5.07795 8.29084 5.1687 8.36903C5.25946 8.44723 5.37527 8.49023 5.49506 8.49023C5.61485 8.49023 5.73067 8.44723 5.82142 8.36903C5.91218 8.29084 5.97184 8.18267 5.98956 8.06419Z" fill="#919191"/>
<path d="M6.10056 3.01419L5.10229 2.95546L5.09939 3.0047L5.10135 3.05399L6.10056 3.01419ZM6.06211 3.24269L5.13096 2.87807L5.13095 2.87807L6.06211 3.24269ZM6.0659 2.77988L7.00441 2.43464L7.00441 2.43463L6.0659 2.77988ZM5.51256 2.40019L5.46512 3.39907L5.49658 3.40056L5.52808 3.40007L5.51256 2.40019ZM5.27338 2.43908L4.91196 1.50667L4.91196 1.50667L5.27338 2.43908ZM4.90056 3.01419L5.90009 3.04483L5.90134 3.00415L5.89927 2.96349L4.90056 3.01419ZM4.94269 3.24761L5.86844 2.86946L5.86844 2.86946L4.94269 3.24761ZM5.07604 3.44377L4.38382 4.16546L4.38383 4.16547L5.07604 3.44377ZM5.51256 3.60119L5.55406 2.60205L5.49712 2.59969L5.44029 2.60381L5.51256 3.60119ZM5.93518 3.43653L6.64169 4.14424L6.64169 4.14424L5.93518 3.43653ZM5.98956 5.18819L5.36478 4.4074L4.98956 4.70764V5.18819H5.98956ZM5.98956 8.06419L6.97856 8.21211L6.98956 8.13856V8.06419H5.98956ZM5.99456 5.18419L6.61935 5.96499L7.04871 5.62142L6.98856 5.07481L5.99456 5.18419ZM5.83122 4.86649L6.49854 4.12172L6.49853 4.12172L5.83122 4.86649ZM5.1639 4.86649L4.49659 4.12172L4.49659 4.12172L5.1639 4.86649ZM5.00056 5.18419L4.00656 5.07481L4.00056 5.12934V5.18419H5.00056ZM5.00056 8.06419H4.00056V8.13856L4.01156 8.21211L5.00056 8.06419ZM5.1687 8.36903L4.51598 9.12663L4.51599 9.12664L5.1687 8.36903ZM5.82142 8.36903L6.47414 9.12664L6.47414 9.12663L5.82142 8.36903ZM5.5 -0.5C2.18629 -0.5 -0.5 2.18629 -0.5 5.5H1.5C1.5 3.29086 3.29086 1.5 5.5 1.5V-0.5ZM11.5 5.5C11.5 2.18629 8.81371 -0.5 5.5 -0.5V1.5C7.70914 1.5 9.5 3.29086 9.5 5.5H11.5ZM5.5 11.5C8.81371 11.5 11.5 8.81371 11.5 5.5H9.5C9.5 7.70914 7.70914 9.5 5.5 9.5V11.5ZM-0.5 5.5C-0.5 8.81371 2.18629 11.5 5.5 11.5V9.5C3.29086 9.5 1.5 7.70914 1.5 5.5H-0.5ZM1 5.5C1 3.01472 3.01472 1 5.5 1V-1C1.91015 -1 -1 1.91015 -1 5.5H1ZM5.5 10C3.01472 10 1 7.98528 1 5.5H-1C-1 9.08985 1.91015 12 5.5 12V10ZM10 5.5C10 7.98528 7.98528 10 5.5 10V12C9.08985 12 12 9.08985 12 5.5H10ZM5.5 1C7.98528 1 10 3.01472 10 5.5H12C12 1.91015 9.08985 -1 5.5 -1V1ZM5.10135 3.05399C5.09896 2.99394 5.10904 2.93404 5.13096 2.87807L6.99327 3.6073C7.07211 3.40595 7.10837 3.19045 7.09977 2.9744L5.10135 3.05399ZM5.12739 3.12512C5.10744 3.07089 5.09889 3.01313 5.10229 2.95546L7.09883 3.07293C7.1116 2.85594 7.07946 2.63865 7.00441 2.43464L5.12739 3.12512ZM5.21822 3.27061C5.17826 3.22888 5.14734 3.17935 5.12739 3.12513L7.00441 2.43463C6.92937 2.23064 6.81304 2.04431 6.66269 1.88732L5.21822 3.27061ZM5.35965 3.36766C5.30634 3.34538 5.25819 3.31235 5.21822 3.27061L6.66269 1.88732C6.51235 1.73032 6.33122 1.60604 6.13066 1.52225L5.35965 3.36766ZM5.52808 3.40007C5.47031 3.40097 5.41297 3.38993 5.35965 3.36766L6.13066 1.52225C5.93009 1.43845 5.71439 1.39694 5.49704 1.40031L5.52808 3.40007ZM5.6348 3.37148C5.58078 3.39242 5.52298 3.40181 5.46512 3.39907L5.56 1.40132C5.339 1.39082 5.11826 1.42671 4.91196 1.50667L5.6348 3.37148ZM5.77874 3.2775C5.73784 3.31853 5.68881 3.35055 5.6348 3.37148L4.91196 1.50667C4.70567 1.58663 4.51841 1.7089 4.36222 1.8656L5.77874 3.2775ZM5.87224 3.13326C5.85148 3.18734 5.81963 3.23647 5.77874 3.2775L4.36222 1.8656C4.20603 2.0223 4.08437 2.20996 4.00509 2.41651L5.87224 3.13326ZM5.89927 2.96349C5.90221 3.02135 5.893 3.07918 5.87224 3.13326L4.00509 2.41651C3.9258 2.62307 3.89063 2.84393 3.90185 3.06489L5.89927 2.96349ZM5.86844 2.86946C5.89115 2.92505 5.90193 2.9848 5.90009 3.04483L3.90103 2.98355C3.89429 3.20338 3.93379 3.42217 4.01695 3.62577L5.86844 2.86946ZM5.76825 2.72208C5.81159 2.76365 5.84573 2.81386 5.86844 2.86946L4.01695 3.62576C4.10012 3.82936 4.22511 4.01323 4.38382 4.16546L5.76825 2.72208ZM5.61683 2.62813C5.67332 2.6485 5.72491 2.68051 5.76825 2.72208L4.38383 4.16547C4.54255 4.3177 4.73146 4.43492 4.93835 4.50953L5.61683 2.62813ZM5.44029 2.60381C5.50019 2.59947 5.56033 2.60775 5.61683 2.62813L4.93835 4.50953C5.14524 4.58413 5.36548 4.61447 5.58483 4.59858L5.44029 2.60381ZM5.37809 2.63136C5.43409 2.60954 5.49401 2.59956 5.55406 2.60205L5.47106 4.60033C5.68711 4.6093 5.90267 4.57341 6.10415 4.49491L5.37809 2.63136ZM5.22868 2.72882C5.27122 2.68636 5.32209 2.65317 5.37809 2.63136L6.10415 4.49491C6.30563 4.41641 6.48866 4.29701 6.64169 4.14424L5.22868 2.72882ZM5.13095 2.87807C5.15287 2.82211 5.18614 2.77129 5.22868 2.72883L6.64169 4.14424C6.79472 3.99147 6.91443 3.80865 6.99327 3.6073L5.13095 2.87807ZM4.98956 5.18819V8.06419H6.98956V5.18819H4.98956ZM5.36977 4.4034L5.36478 4.4074L6.61435 5.96899L6.61935 5.96499L5.36977 4.4034ZM5.1639 5.61127C5.07219 5.5291 5.01403 5.41597 5.00056 5.29357L6.98856 5.07481C6.94815 4.70761 6.77366 4.36824 6.49854 4.12172L5.1639 5.61127ZM5.49756 5.73888C5.37442 5.73888 5.25562 5.69344 5.1639 5.61127L6.49853 4.12172C6.2234 3.8752 5.86698 3.73888 5.49756 3.73888V5.73888ZM5.83122 5.61127C5.73951 5.69344 5.6207 5.73888 5.49756 5.73888V3.73888C5.12815 3.73888 4.77172 3.8752 4.49659 4.12172L5.83122 5.61127ZM5.99456 5.29357C5.98109 5.41597 5.92293 5.5291 5.83122 5.61127L4.49659 4.12172C4.22146 4.36824 4.04697 4.70761 4.00656 5.07481L5.99456 5.29357ZM6.00056 8.06419V5.18419H4.00056V8.06419H6.00056ZM5.82142 7.61144C5.91217 7.68963 5.97184 7.7978 5.98956 7.91628L4.01156 8.21211C4.06472 8.56754 4.24372 8.89206 4.51598 9.12663L5.82142 7.61144ZM5.49506 7.49023C5.61485 7.49023 5.73066 7.53324 5.82142 7.61143L4.51599 9.12664C4.78825 9.36121 5.13568 9.49023 5.49506 9.49023V7.49023ZM5.1687 7.61143C5.25946 7.53324 5.37527 7.49023 5.49506 7.49023V9.49023C5.85444 9.49023 6.20187 9.36121 6.47414 9.12664L5.1687 7.61143ZM5.00056 7.91628C5.01828 7.7978 5.07795 7.68963 5.1687 7.61144L6.47414 9.12663C6.7464 8.89206 6.9254 8.56754 6.97856 8.21211L5.00056 7.91628Z" fill="#919191" mask="url(#path-1-inside-1_755_22209)"/>
</svg>
