<svg width="16" height="16" viewBox="0 0 16 16" fill="none" xmlns="http://www.w3.org/2000/svg">
<g clip-path="url(#clip0_755_1017)">
<path d="M15.5 8C15.5 12.1421 12.1421 15.5 8 15.5C3.85786 15.5 0.5 12.1421 0.5 8C0.5 3.85786 3.85786 0.5 8 0.5C12.1421 0.5 15.5 3.85786 15.5 8Z" stroke="#1a1a1a"/>
<path d="M7.99999 15.5295C12.1584 15.5295 15.5294 12.1585 15.5294 8.00011C15.5294 3.84174 12.1584 0.470703 7.99999 0.470703C3.84161 0.470703 0.470581 3.84174 0.470581 8.00011C0.470581 12.1585 3.84161 15.5295 7.99999 15.5295Z" stroke="#1a1a1a"/>
<path d="M7.94739 4.78022C8.08141 4.77995 8.21246 4.8196 8.32386 4.8941C8.45302 4.98687 8.54481 5.12271 8.58269 5.27716L10.1008 10.7021L11.5916 5.14257C11.6015 5.07756 11.6263 5.01571 11.664 4.96184C11.7017 4.90797 11.7513 4.86353 11.809 4.83198C11.9263 4.77529 12.0605 4.76422 12.1855 4.80092C12.2485 4.80904 12.309 4.83085 12.3626 4.86484C12.4163 4.89882 12.4618 4.94415 12.4961 4.99763C12.5279 5.05451 12.5471 5.11755 12.5525 5.18249C12.5578 5.24744 12.5492 5.31278 12.5272 5.3741L10.7286 11.7477C10.6907 11.9022 10.5989 12.038 10.4697 12.1308C10.356 12.2056 10.2228 12.2452 10.0867 12.2447C9.95192 12.2443 9.82053 12.2026 9.71021 12.1252C9.58173 12.0297 9.49027 11.8927 9.45139 11.7374L7.93704 6.16751L6.37374 11.7477C6.33537 11.9032 6.24169 12.0394 6.11021 12.1308C5.99818 12.204 5.86754 12.2435 5.73374 12.2447C5.59685 12.2449 5.46316 12.2032 5.35069 12.1252C5.2222 12.0297 5.13074 11.8927 5.09186 11.7374L3.31963 5.4221C3.29737 5.35478 3.28955 5.28352 3.29669 5.21298C3.30382 5.14244 3.32575 5.07419 3.36104 5.01269C3.39776 4.95763 3.44503 4.91041 3.50012 4.87373C3.55521 4.83706 3.61702 4.81168 3.68198 4.79904C3.80944 4.7643 3.94432 4.7679 4.06974 4.80939C4.13498 4.83677 4.19186 4.88085 4.23465 4.93719C4.27744 4.99353 4.30464 5.06014 4.31351 5.13034L5.78363 10.7125L7.30551 5.27716C7.33753 5.12118 7.42857 4.9836 7.55963 4.89316C7.67537 4.81909 7.80998 4.77989 7.94739 4.78022V4.78022Z" fill="#FF5C38" stroke="#FF5C38" stroke-width="0.1"/>
<mask id="path-4-inside-1_755_1017" fill="white">
<path d="M2.82355 7.5293H4.70591V8.47047H2.82355C2.69875 8.47047 2.57905 8.42089 2.4908 8.33264C2.40255 8.24439 2.35297 8.12469 2.35297 7.99989V7.99989C2.35297 7.87508 2.40255 7.75538 2.4908 7.66713C2.57905 7.57888 2.69875 7.5293 2.82355 7.5293V7.5293Z"/>
</mask>
<path d="M2.82355 7.5293H4.70591V8.47047H2.82355C2.69875 8.47047 2.57905 8.42089 2.4908 8.33264C2.40255 8.24439 2.35297 8.12469 2.35297 7.99989V7.99989C2.35297 7.87508 2.40255 7.75538 2.4908 7.66713C2.57905 7.57888 2.69875 7.5293 2.82355 7.5293V7.5293Z" fill="#FF5C38"/>
<path d="M2.82355 7.5293V6.5293H1.82355V7.5293H2.82355ZM4.70591 7.5293H5.70591V6.5293H4.70591V7.5293ZM4.70591 8.47047V9.47047H5.70591V8.47047H4.70591ZM2.82355 8.47047V9.47047V8.47047ZM2.82355 7.5293V8.5293H3.82355V7.5293H2.82355ZM2.82355 8.5293H4.70591V6.5293H2.82355V8.5293ZM3.70591 7.5293V8.47047H5.70591V7.5293H3.70591ZM4.70591 7.47047H2.82355V9.47047H4.70591V7.47047ZM2.82355 7.47047C2.96396 7.47047 3.09862 7.52625 3.19791 7.62554L1.78369 9.03975C2.05948 9.31554 2.43353 9.47047 2.82355 9.47047V7.47047ZM3.19791 7.62554C3.29719 7.72482 3.35297 7.85948 3.35297 7.99989H1.35297C1.35297 8.38991 1.5079 8.76396 1.78369 9.03975L3.19791 7.62554ZM3.35297 7.99989C3.35297 8.14029 3.29719 8.27495 3.19791 8.37424L1.78369 6.96002C1.5079 7.23581 1.35297 7.60986 1.35297 7.99989H3.35297ZM3.19791 8.37424C3.09862 8.47352 2.96396 8.5293 2.82355 8.5293V6.5293C2.43353 6.5293 2.05948 6.68423 1.78369 6.96002L3.19791 8.37424ZM3.82355 7.5293V7.5293H1.82355V7.5293H3.82355Z" fill="#FF5C38" mask="url(#path-4-inside-1_755_1017)"/>
<mask id="path-6-inside-2_755_1017" fill="white">
<path d="M11.2941 7.5293H13.1765C13.3013 7.5293 13.421 7.57888 13.5092 7.66713C13.5975 7.75538 13.6471 7.87508 13.6471 7.99989C13.6471 8.12469 13.5975 8.24439 13.5092 8.33264C13.421 8.42089 13.3013 8.47047 13.1765 8.47047H11.2941V7.5293Z"/>
</mask>
<path d="M11.2941 7.5293H13.1765C13.3013 7.5293 13.421 7.57888 13.5092 7.66713C13.5975 7.75538 13.6471 7.87508 13.6471 7.99989C13.6471 8.12469 13.5975 8.24439 13.5092 8.33264C13.421 8.42089 13.3013 8.47047 13.1765 8.47047H11.2941V7.5293Z" fill="#FF5C38"/>
<path d="M11.2941 7.5293V6.5293H10.2941V7.5293H11.2941ZM13.1765 8.47047V9.47047V8.47047ZM11.2941 8.47047H10.2941V9.47047H11.2941V8.47047ZM11.2941 8.5293H13.1765V6.5293H11.2941V8.5293ZM13.1765 8.5293C13.0361 8.5293 12.9014 8.47352 12.8021 8.37424L14.2163 6.96002C13.9406 6.68423 13.5665 6.5293 13.1765 6.5293V8.5293ZM12.8021 8.37424C12.7028 8.27495 12.6471 8.14029 12.6471 7.99989H14.6471C14.6471 7.60986 14.4921 7.23581 14.2163 6.96002L12.8021 8.37424ZM12.6471 7.99989C12.6471 7.85948 12.7028 7.72482 12.8021 7.62554L14.2163 9.03975C14.4921 8.76396 14.6471 8.38991 14.6471 7.99989H12.6471ZM12.8021 7.62554C12.9014 7.52625 13.0361 7.47047 13.1765 7.47047V9.47047C13.5665 9.47047 13.9406 9.31554 14.2163 9.03975L12.8021 7.62554ZM13.1765 7.47047H11.2941V9.47047H13.1765V7.47047ZM12.2941 8.47047V7.5293H10.2941V8.47047H12.2941Z" fill="#FF5C38" mask="url(#path-6-inside-2_755_1017)"/>
</g>
<defs>
<clipPath id="clip0_755_1017">
<rect width="16" height="16" fill="white"/>
</clipPath>
</defs>
</svg>
