<svg width="80" height="80" viewBox="0 0 80 80" fill="none" xmlns="http://www.w3.org/2000/svg">
<circle cx="40" cy="40" r="39.5" stroke="#D8D8D8"/>
<path fill-rule="evenodd" clip-rule="evenodd" d="M30.9485 27.4918C30.2191 28.2864 29.981 29.2385 29.981 29.8479V32.4382H39.0574V29.8479C39.0574 28.6517 38.4663 27.7078 37.642 27.0483C36.807 26.3804 35.7704 26.0371 34.9772 26.0371C32.8965 26.0371 31.6642 26.7122 30.9485 27.4918ZM28.981 29.8479V32.4382H25.8984C25.3462 32.4382 24.8984 32.8859 24.8984 33.4382V52.9921C24.8984 53.5444 25.3462 53.9921 25.8984 53.9921H40.9548C40.0845 53.0769 39.5553 51.8684 39.5553 50.5435V40.1976C39.5553 38.5467 40.7878 37.1668 42.434 36.8284C42.6324 36.0006 43.0718 35.1065 43.8512 34.3283C43.9426 34.237 44.0373 34.1486 44.1353 34.0633V33.4382C44.1353 32.8859 43.6876 32.4382 43.1353 32.4382H40.0574V29.8479C40.0574 28.2852 39.2745 27.0737 38.2667 26.2675C37.2696 25.4698 36.0161 25.0371 34.9772 25.0371C32.6609 25.0371 31.1451 25.799 30.2119 26.8155C29.2924 27.8171 28.981 29.0204 28.981 29.8479ZM44.1353 38.4733H43.2194C42.2076 38.4733 41.3873 39.2453 41.3873 40.1976V50.5435C41.3873 52.0206 42.3741 53.2809 43.7611 53.7722C43.9893 53.5889 44.1353 53.3076 44.1353 52.9921V38.4733Z" fill="#919191"/>
<path fill-rule="evenodd" clip-rule="evenodd" d="M45.9669 37.8055C45.9669 37.5032 46.0951 36.9729 46.5169 36.5253C46.9153 36.1027 47.6573 35.668 49.0482 35.668C49.4958 35.668 50.1331 35.8655 50.6503 36.2685C51.1491 36.6571 51.4632 37.1742 51.4632 37.8055V38.4161H45.9669V37.8055ZM44.1348 38.4161V37.8055C44.1348 37.0899 44.4064 36.0935 45.1837 35.2687C45.9846 34.419 47.2412 33.8359 49.0482 33.8359C49.9329 33.8359 50.9611 34.1881 51.7764 34.8233C52.61 35.4728 53.2953 36.4825 53.2953 37.8055V38.4161H54.2113C55.2231 38.4161 56.0434 39.2364 56.0434 40.2482V51.2407C56.0434 53.2644 54.4029 54.9049 52.3792 54.9049H45.0509C43.0272 54.9049 41.3867 53.2644 41.3867 51.2407V40.2482C41.3867 39.2364 42.207 38.4161 43.2188 38.4161H44.1348Z" fill="#919191"/>
<circle cx="30" cy="37" r="1" fill="white"/>
<circle cx="39" cy="37" r="1" fill="white"/>
</svg>
