<svg width="8" height="10" viewBox="0 0 8 10" fill="none" xmlns="http://www.w3.org/2000/svg">
<path fill-rule="evenodd" clip-rule="evenodd" d="M4.04714 0.452148C4.37851 0.452148 4.64714 0.720778 4.64714 1.05215V5.8277L6.48593 3.98694C6.72012 3.7525 7.10002 3.7523 7.33446 3.98649C7.5689 4.22068 7.5691 4.60058 7.33491 4.83502L5.18949 6.98273L5.18921 6.98301L4.4754 7.69854C4.36296 7.81124 4.21034 7.87465 4.05114 7.87478C3.89193 7.87492 3.7392 7.81178 3.62657 7.69926L0.759909 4.83545C0.525477 4.60126 0.525288 4.22136 0.759485 3.98693C0.993683 3.7525 1.37358 3.75231 1.60801 3.9865L3.44714 5.82379V1.05215C3.44714 0.720778 3.71577 0.452148 4.04714 0.452148ZM0.694116 8.34744C0.362745 8.34744 0.0941162 8.61607 0.0941162 8.94744C0.0941162 9.27881 0.362745 9.54744 0.694116 9.54744H7.39998C7.73135 9.54744 7.99998 9.27881 7.99998 8.94744C7.99998 8.61607 7.73135 8.34744 7.39998 8.34744H0.694116Z" fill="white"/>
</svg>
