<svg width="21" height="20" viewBox="0 0 21 20" fill="none" xmlns="http://www.w3.org/2000/svg">
<path fill-rule="evenodd" clip-rule="evenodd" d="M18.4082 0.807348C18.5779 0.589527 18.5389 0.275354 18.3211 0.105623C18.1033 -0.0641082 17.7891 -0.0251236 17.6194 0.192697L15.7267 2.62156C15.557 2.83938 15.596 3.15355 15.8138 3.32328C16.0316 3.49301 16.3458 3.45403 16.5155 3.23621L18.4082 0.807348ZM12.9417 2.65229L14.7767 15.2756C14.7986 15.4262 14.6942 15.5661 14.5436 15.588C14.393 15.6099 14.2531 15.5055 14.2312 15.3549L12.3962 2.73159C12.3743 2.58096 12.4787 2.44111 12.6293 2.41921C12.7799 2.39731 12.9198 2.50167 12.9417 2.65229ZM11.4005 2.55414C11.4615 1.98929 11.8972 1.51512 12.4855 1.42961C13.1826 1.32827 13.8299 1.81127 13.9313 2.50844L15.7663 15.1317C15.8676 15.8289 15.3846 16.4762 14.6875 16.5776C14.3504 16.6266 14.025 16.5389 13.7673 16.3566C13.6109 16.3701 13.4505 16.31 13.3416 16.1809C11.5563 14.0657 8.71871 14.0168 7.15349 14.2406C7.08077 14.257 7.00877 14.2729 6.93749 14.2882L8.18432 16.526C8.63776 17.3398 8.3371 18.3673 7.51648 18.8083C6.72394 19.2342 5.73642 18.9552 5.28397 18.1775L3.18579 14.571C3.18059 14.5621 3.17571 14.5531 3.17112 14.5439C2.47798 14.4343 1.92713 14.2099 1.48909 13.8908C0.412148 13.1061 0.176479 11.8577 0.0403908 10.9215C-0.0858853 10.0529 0.0909707 9.31193 0.487765 8.70271C0.877704 8.10401 1.45814 7.66527 2.09135 7.34548C3.34964 6.71 4.92828 6.48759 6.06694 6.46597C9.40283 6.40265 10.7702 3.83245 11.3787 2.59388C11.3855 2.58018 11.3927 2.56694 11.4005 2.55414ZM2.07795 13.0825C2.69973 13.5355 3.83264 13.8174 5.97642 13.4554C6.04087 13.4298 6.10828 13.4186 6.17464 13.4206C6.2527 13.4064 6.33203 13.3913 6.41268 13.3754L5.93878 10.1155C5.89906 9.84219 6.08839 9.58846 6.36166 9.54873C6.63493 9.50901 6.88866 9.69833 6.92838 9.9716L7.39821 13.2036C8.86937 13.0543 11.2221 13.1494 13.1091 14.5867L11.6061 4.24727C10.7578 5.5741 9.23838 7.21874 6.56045 7.44174L6.5612 7.4467L6.68353 8.28825C6.72325 8.56152 6.53393 8.81526 6.26066 8.85498C5.98739 8.89471 5.73365 8.70538 5.69393 8.43211L5.5716 7.59056C5.56664 7.55648 5.56525 7.52271 5.56714 7.48962C4.594 7.55963 3.4473 7.78097 2.54216 8.2381C2.01008 8.50682 1.59006 8.84259 1.32571 9.24847C1.06821 9.64382 0.936928 10.1375 1.02999 10.7777C1.16779 11.7256 1.37174 12.568 2.07795 13.0825ZM7.31076 17.0127L5.89983 14.4804C5.34037 14.5658 4.83224 14.611 4.37069 14.6191L6.14833 17.6746C6.32967 17.9863 6.72546 18.0982 7.0431 17.9275C7.37199 17.7507 7.49249 17.3389 7.31076 17.0127ZM16.2089 8.45032C16.1749 8.17628 16.3695 7.92656 16.6435 7.89255L19.7864 7.50256C20.0604 7.46856 20.3102 7.66314 20.3442 7.93718C20.3782 8.21123 20.1836 8.46095 19.9095 8.49495L16.7666 8.88494C16.4926 8.91895 16.2429 8.72436 16.2089 8.45032ZM17.861 13.154C17.6432 12.9843 17.329 13.0233 17.1593 13.2411C16.9896 13.4589 17.0286 13.7731 17.2464 13.9428L19.896 16.0075C20.1139 16.1772 20.428 16.1382 20.5978 15.9204C20.7675 15.7026 20.7285 15.3884 20.5107 15.2187L17.861 13.154Z" fill="#1a1a1a"/>
</svg>
