<svg width="30" height="30" viewBox="0 0 30 30" fill="none" xmlns="http://www.w3.org/2000/svg">
<path fill-rule="evenodd" clip-rule="evenodd" d="M12.4284 9.9948L14.9247 6.66646L14.9247 16.4865C14.9247 16.7626 15.1486 16.9865 15.4247 16.9865C15.7008 16.9865 15.9247 16.7626 15.9247 16.4865V6.66646L18.421 9.9948C18.5866 10.2157 18.9 10.2605 19.121 10.0948C19.3419 9.92912 19.3866 9.61572 19.221 9.3948L16.225 5.40021C15.8255 4.86749 15.0252 4.86585 14.6247 5.39979L11.6284 9.3948C11.4628 9.61572 11.5075 9.92912 11.7284 10.0948C11.9494 10.2605 12.2628 10.2157 12.4284 9.9948ZM9 11.4589C7.89543 11.4589 7 12.3543 7 13.4589V22.9118C7 24.0164 7.89543 24.9118 9 24.9118H21.8492C22.9538 24.9118 23.8492 24.0164 23.8492 22.9118V13.4589C23.8492 12.3543 22.9538 11.4589 21.8492 11.4589H19.1538C18.8777 11.4589 18.6538 11.6828 18.6538 11.9589C18.6538 12.235 18.8777 12.4589 19.1538 12.4589H21.8492C22.4015 12.4589 22.8492 12.9066 22.8492 13.4589V22.9118C22.8492 23.4641 22.4015 23.9118 21.8492 23.9118H9C8.44772 23.9118 8 23.4641 8 22.9118V13.4589C8 12.9066 8.44772 12.4589 9 12.4589H11.6954C11.9715 12.4589 12.1954 12.235 12.1954 11.9589C12.1954 11.6828 11.9715 11.4589 11.6954 11.4589H9Z" fill="#797979"/>
</svg>
