<svg width="87" height="86" viewBox="0 0 87 86" fill="none" xmlns="http://www.w3.org/2000/svg">
<circle cx="43.5" cy="43" r="42" fill="white" stroke="#E2E2E2" stroke-width="2"/>
<path d="M57.5 53.2903V59.719C57.5 60.5913 57.3299 61.41 57.0159 62.1616C56.7019 62.9132 56.2571 63.5842 55.7076 64.1613C55.1581 64.725 54.4908 65.1947 53.7582 65.5034C53.0255 65.8255 52.2143 66 51.377 66H33.623C32.7726 66 31.9745 65.8255 31.2418 65.5034C30.5092 65.1813 29.855 64.725 29.2924 64.1613C28.7429 63.5976 28.285 62.9132 27.9841 62.1616C27.6701 61.41 27.5 60.5779 27.5 59.719V23.281C27.5 22.4087 27.6701 21.59 27.9841 20.8384C28.2981 20.0868 28.7429 19.4158 29.2924 18.8387C29.8419 18.275 30.5092 17.8053 31.2418 17.4966C31.9745 17.1745 32.7726 17 33.623 17H51.377C52.2274 17 53.0255 17.1745 53.7582 17.4966C54.4908 17.8187 55.145 18.275 55.7076 18.8387C56.2571 19.4024 56.715 20.0868 57.0159 20.8384C57.3299 21.59 57.5 22.4221 57.5 23.281V51.8946" stroke="#1A1A1A" stroke-width="2" stroke-linecap="round" stroke-linejoin="round"/>
<path d="M40.5 23H44.5" stroke="#1A1A1A" stroke-width="2" stroke-linecap="round" stroke-linejoin="round"/>
<path d="M33.632 42.632L35.168 42.14L35.54 43.316L34.016 43.784L35.024 45.152L34.064 45.92L33.02 44.528L31.976 45.92L31.04 45.14L32.036 43.784L30.5 43.316L30.884 42.14L32.396 42.632L32.384 41H33.644L33.632 42.632Z" fill="#E7342C"/>
<path d="M40.3 42.632L41.836 42.14L42.208 43.316L40.684 43.784L41.692 45.152L40.732 45.92L39.688 44.528L38.644 45.92L37.708 45.14L38.704 43.784L37.168 43.316L37.552 42.14L39.064 42.632L39.052 41H40.312L40.3 42.632Z" fill="#E7342C"/>
<path d="M46.9679 42.632L48.5039 42.14L48.8759 43.316L47.3519 43.784L48.3599 45.152L47.3999 45.92L46.3559 44.528L45.3119 45.92L44.3759 45.14L45.3719 43.784L43.8359 43.316L44.2199 42.14L45.7319 42.632L45.7199 41H46.9799L46.9679 42.632Z" fill="#E7342C"/>
<path d="M53.6359 42.632L55.1719 42.14L55.5439 43.316L54.0199 43.784L55.0279 45.152L54.0679 45.92L53.0239 44.528L51.9799 45.92L51.0439 45.14L52.0399 43.784L50.5039 43.316L50.8879 42.14L52.3999 42.632L52.3879 41H53.6479L53.6359 42.632Z" fill="#E7342C"/>
</svg>
