<svg width="14" height="15" viewBox="0 0 14 15" fill="none" xmlns="http://www.w3.org/2000/svg">
<circle cx="7" cy="7.50781" r="7" fill="#B3B3B3"/>
<path d="M6.52204 9.84663C6.52204 9.36652 6.59319 8.98244 6.7355 8.69437C6.8778 8.4063 7.10673 8.14064 7.42227 7.89739C7.7007 7.68614 7.91725 7.48129 8.07193 7.28285C8.23279 7.0844 8.31323 6.85395 8.31323 6.59149C8.31323 6.11778 8.1802 5.7721 7.91415 5.55445C7.65429 5.3304 7.32637 5.21838 6.93039 5.21838C6.62722 5.21838 6.36736 5.3176 6.15081 5.51604C5.94045 5.70809 5.7734 5.97695 5.64965 6.32263L5 6.07297C5.16087 5.63127 5.40835 5.25998 5.74246 4.95912C6.08275 4.65825 6.47873 4.50781 6.93039 4.50781C7.25831 4.50781 7.58005 4.58143 7.89559 4.72866C8.21732 4.8759 8.48028 5.10635 8.68445 5.42002C8.89482 5.73369 9 6.12418 9 6.59149C9 7.00758 8.88554 7.36287 8.65661 7.65733C8.43387 7.9518 8.15855 8.22386 7.83063 8.47352C7.66357 8.60155 7.53674 8.72318 7.45012 8.8384C7.3635 8.94723 7.30162 9.07846 7.2645 9.23209C7.22738 9.38573 7.20882 9.59057 7.20882 9.84663H6.52204ZM6.45708 11.0661C6.45708 10.9381 6.4942 10.8357 6.56845 10.7588C6.64269 10.6756 6.74787 10.634 6.88399 10.634C7.01392 10.634 7.11601 10.6756 7.19026 10.7588C7.2645 10.8421 7.30162 10.9445 7.30162 11.0661C7.30162 11.1941 7.2645 11.2998 7.19026 11.383C7.11601 11.4662 7.01392 11.5078 6.88399 11.5078C6.74787 11.5078 6.64269 11.4662 6.56845 11.383C6.4942 11.2998 6.45708 11.1941 6.45708 11.0661Z" fill="white"/>
</svg>
