<svg width="16" height="17" viewBox="0 0 16 17" fill="none" xmlns="http://www.w3.org/2000/svg">
<rect y="0.5" width="16" height="16" rx="8" fill="#E7342C"/>
<path d="M4.5 8.5C4.5 8.08849 4.27342 7.75028 4.01841 7.50868C3.7372 7.24227 3.5 6.89498 3.5 6.50762C3.5 5.95533 3.94772 5.5 4.5 5.5H11.5C12.0523 5.5 12.5 5.94772 12.5 6.5V10.5C12.5 11.0523 12.0523 11.5 11.5 11.5H4.44213C3.9218 11.5 3.5 11.0782 3.5 10.5579C3.5 10.1399 3.80903 9.79667 4.09763 9.49438C4.40769 9.16962 4.5 8.73978 4.5 8.5Z" fill="white"/>
<line x1="6.10297" y1="5.75" x2="6.10297" y2="11.25" stroke="#E7342C" stroke-width="0.5" stroke-linecap="round" stroke-dasharray="1 1"/>
</svg>
