<svg width="17" height="18" viewBox="0 0 17 18" fill="none" xmlns="http://www.w3.org/2000/svg">
<g clip-path="url(#clip0_990_23360)">
<path fill-rule="evenodd" clip-rule="evenodd" d="M8.4 0.5C8.89706 0.5 9.3 0.902944 9.3 1.4V11.0142L12.7615 7.55088C13.1129 7.19932 13.6827 7.19917 14.0343 7.55055C14.3858 7.90193 14.386 8.47178 14.0346 8.82334L10.2866 12.5733L10.2864 12.5735L9.0364 13.8235C8.68492 14.175 8.11508 14.175 7.7636 13.8235L2.7636 8.82351C2.41213 8.47203 2.41213 7.90219 2.7636 7.55071C3.11508 7.19924 3.68492 7.19924 4.0364 7.55071L7.5 11.0143V1.4C7.5 0.902944 7.90294 0.5 8.4 0.5ZM1.9 15.2852C1.40294 15.2852 1 15.6881 1 16.1852C1 16.6822 1.40294 17.0852 1.9 17.0852H14.9C15.3971 17.0852 15.8 16.6822 15.8 16.1852C15.8 15.6881 15.3971 15.2852 14.9 15.2852H1.9Z" fill="white"/>
</g>
<defs>
<clipPath id="clip0_990_23360">
<rect width="17" height="17" fill="white" transform="translate(0 0.5)"/>
</clipPath>
</defs>
</svg>
