<svg width="26" height="20" viewBox="0 0 26 20" fill="none" xmlns="http://www.w3.org/2000/svg">
<g clip-path="url(#clip0_583_9424)">
<path d="M18.5 10C18.5 14.1421 15.1421 17.5 11 17.5C6.85786 17.5 3.5 14.1421 3.5 10C3.5 5.85786 6.85786 2.5 11 2.5C15.1421 2.5 18.5 5.85786 18.5 10Z" stroke="#1a1a1a"/>
<path d="M11.0001 17.5295C15.1585 17.5295 18.5295 14.1585 18.5295 10.0001C18.5295 5.84174 15.1585 2.4707 11.0001 2.4707C6.84174 2.4707 3.4707 5.84174 3.4707 10.0001C3.4707 14.1585 6.84174 17.5295 11.0001 17.5295Z" stroke="#1a1a1a"/>
<path d="M10.9472 6.78022C11.0812 6.77995 11.2123 6.8196 11.3237 6.8941C11.4528 6.98687 11.5446 7.12271 11.5825 7.27716L13.1006 12.7021L14.5914 7.14257C14.6013 7.07756 14.6261 7.01571 14.6638 6.96184C14.7015 6.90797 14.7512 6.86353 14.8089 6.83198C14.9262 6.77529 15.0603 6.76422 15.1853 6.80092C15.2483 6.80904 15.3088 6.83085 15.3624 6.86484C15.4161 6.89882 15.4617 6.94415 15.4959 6.99763C15.5277 7.05451 15.5469 7.11755 15.5523 7.18249C15.5577 7.24744 15.549 7.31278 15.527 7.3741L13.7284 13.7477C13.6905 13.9022 13.5987 14.038 13.4696 14.1308C13.3559 14.2056 13.2226 14.2452 13.0865 14.2447C12.9517 14.2443 12.8203 14.2026 12.71 14.1252C12.5815 14.0297 12.4901 13.8927 12.4512 13.7374L10.9369 8.16751L9.37356 13.7477C9.33519 13.9032 9.24151 14.0394 9.11003 14.1308C8.998 14.204 8.86735 14.2435 8.73356 14.2447C8.59666 14.2449 8.46298 14.2032 8.3505 14.1252C8.22202 14.0297 8.13056 13.8927 8.09168 13.7374L6.31944 7.4221C6.29719 7.35478 6.28937 7.28352 6.29651 7.21298C6.30364 7.14244 6.32557 7.07419 6.36085 7.01269C6.39758 6.95763 6.44485 6.91041 6.49994 6.87373C6.55503 6.83706 6.61684 6.81168 6.6818 6.79904C6.80926 6.7643 6.94413 6.7679 7.06956 6.80939C7.1348 6.83677 7.19167 6.88085 7.23447 6.93719C7.27726 6.99353 7.30446 7.06014 7.31333 7.13034L8.78344 12.7125L10.3053 7.27716C10.3373 7.12118 10.4284 6.9836 10.5594 6.89316C10.6752 6.81909 10.8098 6.77989 10.9472 6.78022Z" fill="#FF5C38" stroke="#FF5C38" stroke-width="0.1"/>
<mask id="path-4-inside-1_583_9424" fill="white">
<path d="M5.82362 9.5293H7.70597V10.4705H5.82362C5.69881 10.4705 5.57911 10.4209 5.49086 10.3326C5.40261 10.2444 5.35303 10.1247 5.35303 9.99989C5.35303 9.87508 5.40261 9.75538 5.49086 9.66713C5.57911 9.57888 5.69881 9.5293 5.82362 9.5293V9.5293Z"/>
</mask>
<path d="M5.82362 9.5293H7.70597V10.4705H5.82362C5.69881 10.4705 5.57911 10.4209 5.49086 10.3326C5.40261 10.2444 5.35303 10.1247 5.35303 9.99989C5.35303 9.87508 5.40261 9.75538 5.49086 9.66713C5.57911 9.57888 5.69881 9.5293 5.82362 9.5293V9.5293Z" fill="#FF5C38"/>
<path d="M5.82362 9.5293V8.5293H4.82362V9.5293H5.82362ZM7.70597 9.5293H8.70597V8.5293H7.70597V9.5293ZM7.70597 10.4705V11.4705H8.70597V10.4705H7.70597ZM5.82362 10.4705V11.4705V10.4705ZM5.82362 9.5293V10.5293H6.82362V9.5293H5.82362ZM5.82362 10.5293H7.70597V8.5293H5.82362V10.5293ZM6.70597 9.5293V10.4705H8.70597V9.5293H6.70597ZM7.70597 9.47047H5.82362V11.4705H7.70597V9.47047ZM5.82362 9.47047C5.96402 9.47047 6.09868 9.52625 6.19797 9.62554L4.78375 11.0397C5.05954 11.3155 5.43359 11.4705 5.82362 11.4705V9.47047ZM6.19797 9.62554C6.29725 9.72482 6.35303 9.85948 6.35303 9.99989H4.35303C4.35303 10.3899 4.50796 10.764 4.78375 11.0397L6.19797 9.62554ZM6.35303 9.99989C6.35303 10.1403 6.29725 10.275 6.19797 10.3742L4.78375 8.96002C4.50796 9.23581 4.35303 9.60986 4.35303 9.99989H6.35303ZM6.19797 10.3742C6.09868 10.4735 5.96402 10.5293 5.82362 10.5293V8.5293C5.43359 8.5293 5.05954 8.68423 4.78375 8.96002L6.19797 10.3742ZM6.82362 9.5293V9.5293H4.82362V9.5293H6.82362Z" fill="#FF5C38" mask="url(#path-4-inside-1_583_9424)"/>
<mask id="path-6-inside-2_583_9424" fill="white">
<path d="M14.2939 9.5293H16.1763C16.3011 9.5293 16.4208 9.57888 16.5091 9.66713C16.5973 9.75538 16.6469 9.87508 16.6469 9.99989C16.6469 10.1247 16.5973 10.2444 16.5091 10.3326C16.4208 10.4209 16.3011 10.4705 16.1763 10.4705H14.2939V9.5293Z"/>
</mask>
<path d="M14.2939 9.5293H16.1763C16.3011 9.5293 16.4208 9.57888 16.5091 9.66713C16.5973 9.75538 16.6469 9.87508 16.6469 9.99989C16.6469 10.1247 16.5973 10.2444 16.5091 10.3326C16.4208 10.4209 16.3011 10.4705 16.1763 10.4705H14.2939V9.5293Z" fill="#FF5C38"/>
<path d="M14.2939 9.5293V8.5293H13.2939V9.5293H14.2939ZM16.1763 10.4705V11.4705V10.4705ZM14.2939 10.4705H13.2939V11.4705H14.2939V10.4705ZM14.2939 10.5293H16.1763V8.5293H14.2939V10.5293ZM16.1763 10.5293C16.0359 10.5293 15.9012 10.4735 15.8019 10.3742L17.2162 8.96002C16.9404 8.68423 16.5663 8.5293 16.1763 8.5293V10.5293ZM15.8019 10.3742C15.7027 10.275 15.6469 10.1403 15.6469 9.99989H17.6469C17.6469 9.60986 17.4919 9.23581 17.2162 8.96002L15.8019 10.3742ZM15.6469 9.99989C15.6469 9.85948 15.7027 9.72482 15.8019 9.62554L17.2162 11.0397C17.4919 10.764 17.6469 10.3899 17.6469 9.99989H15.6469ZM15.8019 9.62554C15.9012 9.52625 16.0359 9.47047 16.1763 9.47047V11.4705C16.5663 11.4705 16.9404 11.3155 17.2162 11.0397L15.8019 9.62554ZM16.1763 9.47047H14.2939V11.4705H16.1763V9.47047ZM15.2939 10.4705V9.5293H13.2939V10.4705H15.2939Z" fill="#FF5C38" mask="url(#path-6-inside-2_583_9424)"/>
</g>
<defs>
<clipPath id="clip0_583_9424">
<rect width="16" height="16" fill="white" transform="translate(3 2)"/>
</clipPath>
</defs>
</svg>
