<svg width="24" height="24" viewBox="0 0 24 24" fill="none" xmlns="http://www.w3.org/2000/svg">
<path d="M9.57197 14.5108C9.30181 14.7472 9.27443 15.1579 9.51082 15.428C9.74722 15.6982 10.1579 15.7256 10.428 15.4892L9.57197 14.5108ZM10.428 7.51083C10.1579 7.27443 9.74722 7.30181 9.51082 7.57197C9.27443 7.84214 9.30181 8.25278 9.57197 8.48918L10.428 7.51083ZM13.914 11.5753L13.486 11.0861L13.914 11.5753ZM13.914 11.4247L13.486 11.9139L13.914 11.4247ZM10.428 15.4892L14.342 12.0644L13.486 11.0861L9.57197 14.5108L10.428 15.4892ZM14.342 10.9356L10.428 7.51083L9.57197 8.48918L13.486 11.9139L14.342 10.9356ZM14.342 12.0644C14.6835 11.7656 14.6835 11.2344 14.342 10.9356L13.486 11.9139C13.2355 11.6948 13.2355 11.3052 13.486 11.0861L14.342 12.0644Z" fill="#565656"/>
</svg>
