<?xml version="1.0" encoding="utf-8"?>
<!-- Generator: Adobe Illustrator 26.3.1, SVG Export Plug-In . SVG Version: 6.00 Build 0)  -->
<svg version="1.1" id="레이어_1" xmlns="http://www.w3.org/2000/svg" xmlns:xlink="http://www.w3.org/1999/xlink" x="0px"
	 y="0px" viewBox="0 0 52 52" style="enable-background:new 0 0 52 52;" xml:space="preserve">
<style type="text/css">
	.st0{fill:#F4F4F5;}
	.st1{fill-rule:evenodd;clip-rule:evenodd;fill:#565657;}
	.st2{fill:#FFFFFF;}
</style>
<g>
	<path class="st0" d="M26,52c14.36,0,26-11.64,26-26S40.36,0,26,0S0,11.64,0,26S11.64,52,26,52z"/>
	<path class="st1" d="M17,17c-1.66,0-3,1.34-3,3v11.76c0,1.66,1.34,3,3,3h1.16l1.15,3.11c0.06,0.15,0.26,0.18,0.35,0.05l2.2-3.16H35
		c1.66,0,3-1.34,3-3V20c0-1.66-1.34-3-3-3H17z"/>
	<path class="st2" d="M25.11,28.49v-0.82c0-0.44,0.06-0.8,0.19-1.07c0.12-0.28,0.28-0.51,0.47-0.69c0.2-0.19,0.41-0.37,0.62-0.54
		c0.3-0.23,0.55-0.48,0.76-0.73c0.21-0.25,0.32-0.58,0.32-0.99c0-0.28-0.07-0.52-0.22-0.73c-0.14-0.22-0.33-0.38-0.56-0.5
		c-0.22-0.12-0.45-0.18-0.7-0.18c-0.31,0-0.58,0.06-0.82,0.19c-0.23,0.13-0.43,0.3-0.59,0.51c-0.15,0.21-0.28,0.43-0.37,0.67
		L23,23.12c0.07-0.19,0.18-0.4,0.33-0.65c0.15-0.24,0.35-0.48,0.6-0.7c0.26-0.22,0.57-0.41,0.93-0.55c0.36-0.14,0.78-0.22,1.26-0.22
		c0.54,0,1.02,0.1,1.45,0.3c0.44,0.19,0.78,0.47,1.03,0.85c0.26,0.38,0.39,0.85,0.39,1.4c0,0.44-0.07,0.81-0.2,1.11
		c-0.13,0.29-0.31,0.54-0.52,0.76c-0.2,0.22-0.42,0.42-0.66,0.62c-0.19,0.16-0.37,0.32-0.53,0.49c-0.16,0.16-0.29,0.36-0.39,0.58
		c-0.1,0.22-0.14,0.5-0.14,0.86v0.53H25.11z M25.84,31c-0.27,0-0.49-0.07-0.66-0.2c-0.16-0.14-0.24-0.33-0.24-0.55
		c0-0.22,0.09-0.4,0.26-0.54c0.17-0.15,0.39-0.23,0.65-0.23s0.47,0.08,0.63,0.23c0.17,0.14,0.26,0.32,0.26,0.54
		c0,0.22-0.08,0.41-0.24,0.55C26.33,30.93,26.11,31,25.84,31z"/>
</g>
</svg>
