<svg width="14" height="14" viewBox="0 0 14 14" fill="none" xmlns="http://www.w3.org/2000/svg">
<circle cx="7" cy="7" r="6" stroke="#606060"/>
<path d="M4.14361 4.76549L4.7531 4.16528C4.99689 3.92519 5.26102 3.99855 5.36261 4.06524L6.27684 4.96556C6.43937 5.12561 6.41228 5.36569 6.37842 5.46573L5.76893 6.06594C6.25652 7.18633 7.25879 7.86656 7.69897 8.06663L8.30846 7.46642C8.47098 7.3864 8.64706 7.43308 8.71478 7.46642L9.83217 8.46677C10.076 8.62683 10.0015 8.9336 9.93375 9.06698L9.42584 9.56715C8.85699 9.96729 8.71478 10.0006 8.71478 9.96729C7.57707 10.2074 6.2091 9.06698 5.66733 8.46677C3.79824 6.46608 3.87273 5.16563 4.14361 4.76549Z" fill="#505050"/>
</svg>
