<svg width="80" height="81" viewBox="0 0 80 81" fill="none" xmlns="http://www.w3.org/2000/svg">
<circle cx="40" cy="40.9883" r="39.5" stroke="#D8D8D8"/>
<path fill-rule="evenodd" clip-rule="evenodd" d="M30.9485 28.4801C30.2191 29.2746 29.981 30.2268 29.981 30.8362V33.4265H39.0574V30.8362C39.0574 29.64 38.4663 28.6961 37.642 28.0366C36.807 27.3686 35.7704 27.0254 34.9772 27.0254C32.8965 27.0254 31.6642 27.7005 30.9485 28.4801ZM28.981 30.8362V33.4265H25.8984C25.3462 33.4265 24.8984 33.8742 24.8984 34.4265V53.9804C24.8984 54.5327 25.3462 54.9804 25.8984 54.9804H40.9548C40.0845 54.0652 39.5553 52.8567 39.5553 51.5318V41.1859C39.5553 39.535 40.7878 38.1551 42.434 37.8167C42.6324 36.9889 43.0718 36.0948 43.8512 35.3166C43.9426 35.2253 44.0373 35.1369 44.1353 35.0516V34.4265C44.1353 33.8742 43.6876 33.4265 43.1353 33.4265H40.0574V30.8362C40.0574 29.2735 39.2745 28.062 38.2667 27.2558C37.2696 26.4581 36.0161 26.0254 34.9772 26.0254C32.6609 26.0254 31.1451 26.7872 30.2119 27.8038C29.2924 28.8054 28.981 30.0087 28.981 30.8362ZM44.1353 39.4616H43.2194C42.2076 39.4616 41.3873 40.2336 41.3873 41.1859V51.5318C41.3873 53.0089 42.3741 54.2692 43.7611 54.7605C43.9893 54.5772 44.1353 54.2958 44.1353 53.9804V39.4616Z" fill="#919191"/>
<path fill-rule="evenodd" clip-rule="evenodd" d="M45.9669 38.7937C45.9669 38.4915 46.0951 37.9611 46.5169 37.5136C46.9153 37.091 47.6573 36.6563 49.0482 36.6563C49.4958 36.6563 50.1331 36.8538 50.6503 37.2568C51.1491 37.6454 51.4632 38.1624 51.4632 38.7937V39.4044H45.9669V38.7937ZM44.1348 39.4044V38.7937C44.1348 38.0782 44.4064 37.0818 45.1837 36.257C45.9846 35.4073 47.2412 34.8242 49.0482 34.8242C49.9329 34.8242 50.9611 35.1764 51.7764 35.8116C52.61 36.4611 53.2953 37.4708 53.2953 38.7937V39.4044H54.2113C55.2231 39.4044 56.0434 40.2247 56.0434 41.2365V52.229C56.0434 54.2527 54.4029 55.8932 52.3792 55.8932H45.0509C43.0272 55.8932 41.3867 54.2527 41.3867 52.229V41.2365C41.3867 40.2247 42.207 39.4044 43.2188 39.4044H44.1348Z" fill="#919191"/>
<circle cx="30" cy="37.9883" r="1" fill="white"/>
<circle cx="39" cy="37.9883" r="1" fill="white"/>
</svg>
