<svg width="22" height="23" viewBox="0 0 22 23" fill="none" xmlns="http://www.w3.org/2000/svg">
<path fill-rule="evenodd" clip-rule="evenodd" d="M14.81 10.258H17C17.2652 10.258 17.5196 10.3634 17.7071 10.5509C17.8946 10.7385 18 10.9928 18 11.258V18.998C18 19.2633 17.8946 19.5176 17.7071 19.7051C17.5196 19.8927 17.2652 19.998 17 19.998H6C5.73478 19.998 5.48043 19.8927 5.29289 19.7051C5.10536 19.5176 5 19.2633 5 18.998V11.258C5 10.9928 5.10536 10.7385 5.29289 10.5509C5.48043 10.3634 5.73478 10.258 6 10.258H8.19V8.30804C8.19264 7.43099 8.54221 6.5906 9.16238 5.97043C9.78256 5.35025 10.6229 5.00068 11.5 4.99805C12.3775 4.99911 13.2188 5.34817 13.8394 5.96869C14.4599 6.58921 14.8089 7.4305 14.81 8.30804V10.258ZM9.86862 6.67667C9.43581 7.10948 9.19185 7.69596 9.19 8.30804V10.258H13.81V8.30804C13.8097 7.69548 13.5663 7.10808 13.1331 6.67493C12.7 6.24178 12.1126 5.99831 11.5 5.99805C10.8879 5.99989 10.3014 6.24386 9.86862 6.67667ZM6 11.258V18.998H17V11.258H6ZM11.9992 13.9786C12.2356 14.0551 12.4512 14.1851 12.6292 14.3586C12.928 14.6549 13.097 15.0577 13.0992 15.4786C13.0992 15.9029 12.9306 16.3099 12.6306 16.61C12.3305 16.91 11.9235 17.0786 11.4992 17.0786C11.0766 17.0759 10.6722 16.9062 10.3743 16.6064C10.0764 16.3067 9.90918 15.9012 9.90919 15.4786C9.90846 15.2708 9.94871 15.065 10.0276 14.8728C10.1066 14.6806 10.2226 14.5059 10.3692 14.3586C10.5471 14.1851 10.7627 14.0551 10.9992 13.9786V12.5586C11.0012 12.4266 11.0546 12.3006 11.1479 12.2073C11.2412 12.114 11.3672 12.0607 11.4992 12.0586C11.6318 12.0586 11.759 12.1112 11.8527 12.205C11.9465 12.2988 11.9992 12.426 11.9992 12.5586V13.9786ZM11.2715 16.032C11.3436 16.0624 11.421 16.0782 11.4992 16.0786C11.6583 16.0786 11.8109 16.0154 11.9234 15.9029C12.036 15.7903 12.0992 15.6377 12.0992 15.4786C12.0966 15.3212 12.0322 15.1711 11.92 15.0608C11.8077 14.9504 11.6566 14.8886 11.4992 14.8886C11.3428 14.8888 11.1929 14.9511 11.0823 15.0617C10.9717 15.1723 10.9094 15.3222 10.9092 15.4786C10.9082 15.5568 10.9227 15.6345 10.9519 15.7071C10.9811 15.7797 11.0243 15.8458 11.0792 15.9016C11.1341 15.9573 11.1994 16.0017 11.2715 16.032Z" fill="#B3B3B3"/>
</svg>
