<svg width="24" height="24" viewBox="0 0 24 24" fill="none" xmlns="http://www.w3.org/2000/svg">
<path d="M15.0108 13.928C15.2472 14.1982 15.6579 14.2256 15.928 13.9892C16.1982 13.7528 16.2256 13.3421 15.9892 13.072L15.0108 13.928ZM8.01083 13.072C7.77443 13.3421 7.80181 13.7528 8.07197 13.9892C8.34214 14.2256 8.75278 14.1982 8.98918 13.928L8.01083 13.072ZM12.0753 9.58601L11.5861 10.014L12.0753 9.58601ZM11.9247 9.58601L12.4139 10.014L11.9247 9.58601ZM15.9892 13.072L12.5644 9.15798L11.5861 10.014L15.0108 13.928L15.9892 13.072ZM11.4356 9.15798L8.01083 13.072L8.98918 13.928L12.4139 10.014L11.4356 9.15798ZM12.5644 9.15798C12.2656 8.81649 11.7344 8.81649 11.4356 9.15798L12.4139 10.014C12.1948 10.2645 11.8052 10.2645 11.5861 10.014L12.5644 9.15798Z" fill="#565656"/>
</svg>
