<svg width="16" height="16" viewBox="0 0 16 16" fill="none" xmlns="http://www.w3.org/2000/svg">
<path fill-rule="evenodd" clip-rule="evenodd" d="M8.4052 1.22885C8.44867 1.1742 8.49544 1.12066 8.54568 1.06868C9.00929 0.589015 9.72016 0.292241 10.7077 0.401551C10.7277 0.403767 10.7476 0.40719 10.7672 0.411801C11.0806 0.485534 11.5321 0.66969 11.9157 0.998136C12.3089 1.33478 12.6533 1.84615 12.6533 2.54558C12.6533 2.55821 12.6528 2.57083 12.6518 2.58343C12.6266 2.91601 12.5165 3.41209 12.2553 3.85328C12.1603 4.01358 12.0415 4.17216 11.896 4.31298H14.9047C15.457 4.31298 15.9047 4.76069 15.9047 5.31298V6.33193C15.9047 6.70216 15.7035 7.0254 15.4045 7.19827V13.0458C15.4045 14.4265 14.2852 15.5458 12.9045 15.5458H9.65265H7.15205H3.64965C2.26894 15.5458 1.14965 14.4265 1.14965 13.0458V7.30058C0.718037 7.18978 0.399048 6.79811 0.399048 6.33193V5.31298C0.399048 4.76069 0.846763 4.31298 1.39905 4.31298H4.95059C4.78629 4.16485 4.65384 3.99385 4.54973 3.8203C4.28765 3.38344 4.1771 2.89209 4.15172 2.5622C4.15074 2.54944 4.15025 2.53665 4.15025 2.52385C4.15025 1.82855 4.49712 1.32172 4.89024 0.989531C5.27398 0.665263 5.72512 0.483789 6.03772 0.411214C6.05709 0.406715 6.07672 0.403377 6.09649 0.401217C7.08165 0.293594 7.79145 0.585426 8.25554 1.05932C8.30932 1.11424 8.35913 1.17092 8.4052 1.22885ZM9.26472 1.76365C9.48758 1.53307 9.87297 1.3229 10.5661 1.39215C10.7537 1.44113 11.0354 1.56091 11.2654 1.75776C11.4931 1.95273 11.6474 2.20036 11.6531 2.52698C11.6337 2.74392 11.5559 3.07159 11.3948 3.3438C11.2345 3.61443 11.0237 3.78494 10.7309 3.81248C10.0517 3.87636 9.36867 3.86851 8.9019 3.84527V2.56393C8.92006 2.34298 9.02333 2.0134 9.26472 1.76365ZM6.23632 1.39205C6.93208 1.32334 7.31863 1.53185 7.54107 1.75899C7.78131 2.00431 7.88355 2.32717 7.90161 2.54251V3.80009C7.43459 3.82302 6.75137 3.83076 6.07196 3.76769C5.77653 3.74027 5.56617 3.57076 5.40726 3.30586C5.24708 3.03887 5.16981 2.71755 5.15042 2.50503C5.1562 2.18783 5.30804 1.9457 5.53567 1.75335C5.76565 1.55902 6.04791 1.44052 6.23632 1.39205ZM9.866 5.31298H6.73739V6.33193H9.866V5.31298ZM10.866 6.33193V5.31298H14.9047V6.33193H10.866ZM1.39905 5.31298H5.73739V6.33193H1.39905V5.31298ZM10.1527 14.5458H12.9045C13.7329 14.5458 14.4045 13.8742 14.4045 13.0458V7.33193H10.1527V14.5458ZM9.15265 7.33193V14.5458H7.65205V7.33193H9.15265ZM6.65205 14.5458V7.33193H2.14965V13.0458C2.14965 13.8742 2.82122 14.5458 3.64965 14.5458H6.65205Z" fill="#FF5C38"/>
</svg>
