<svg width="43" height="32" viewBox="0 0 43 32" fill="none" xmlns="http://www.w3.org/2000/svg">
<path fill-rule="evenodd" clip-rule="evenodd" d="M8.2001 7.2C7.97918 7.2 7.8001 7.37908 7.8001 7.6V11.1722C7.8001 11.318 7.88878 11.4886 8.07323 11.6037C9.22245 12.3209 10.9614 13.8758 10.9614 16.0838C10.9614 17.2123 10.398 19.5507 8.15948 20.6329C7.91384 20.7517 7.8001 20.9495 7.8001 21.109V24.5676C7.8001 24.7885 7.97918 24.9676 8.2001 24.9676H14.6376V23.487C14.6376 23.1556 14.9062 22.887 15.2376 22.887C15.569 22.887 15.8376 23.1556 15.8376 23.487V24.9676H34.6515C34.8724 24.9676 35.0515 24.7885 35.0515 24.5676V7.6C35.0515 7.37909 34.8724 7.2 34.6515 7.2H15.8376V8.68063C15.8376 9.012 15.569 9.28063 15.2376 9.28063C14.9062 9.28063 14.6376 9.012 14.6376 8.68063V7.2H8.2001ZM6.6001 7.6C6.6001 6.71635 7.31644 6 8.2001 6H34.6515C35.5351 6 36.2515 6.71634 36.2515 7.6V24.5676C36.2515 25.4512 35.5351 26.1676 34.6515 26.1676H8.2001C7.31644 26.1676 6.6001 25.4512 6.6001 24.5676V21.109C6.6001 20.3813 7.08403 19.82 7.63714 19.5526C9.29882 18.7492 9.76136 16.9652 9.76136 16.0838C9.76136 14.522 8.49304 13.2802 7.43793 12.6218C6.96514 12.3267 6.6001 11.8011 6.6001 11.1722V7.6ZM15.2376 11.0419C15.569 11.0419 15.8376 11.3105 15.8376 11.6419V14.6032C15.8376 14.9345 15.569 15.2032 15.2376 15.2032C14.9062 15.2032 14.6376 14.9345 14.6376 14.6032V11.6419C14.6376 11.3105 14.9062 11.0419 15.2376 11.0419ZM15.2376 16.9644C15.569 16.9644 15.8376 17.2331 15.8376 17.5644V20.5257C15.8376 20.8571 15.569 21.1257 15.2376 21.1257C14.9062 21.1257 14.6376 20.8571 14.6376 20.5257V17.5644C14.6376 17.2331 14.9062 16.9644 15.2376 16.9644ZM27.1497 14.2762C27.384 14.0419 27.384 13.662 27.1497 13.4277C26.9154 13.1934 26.5355 13.1934 26.3011 13.4277L21.4663 18.2626C21.2319 18.4969 21.2319 18.8768 21.4663 19.1111C21.7006 19.3454 22.0805 19.3454 22.3148 19.1111L27.1497 14.2762ZM23.1915 13.852C23.1915 14.3656 22.7752 14.7818 22.2617 14.7818C21.7482 14.7818 21.3319 14.3656 21.3319 13.852C21.3319 13.3385 21.7482 12.9223 22.2617 12.9223C22.7752 12.9223 23.1915 13.3385 23.1915 13.852ZM26.7256 19.6168C27.2391 19.6168 27.6554 19.2005 27.6554 18.687C27.6554 18.1735 27.2391 17.7572 26.7256 17.7572C26.2121 17.7572 25.7958 18.1735 25.7958 18.687C25.7958 19.2005 26.2121 19.6168 26.7256 19.6168Z" fill="#1a1a1a"/>
</svg>
