<svg width="21" height="22" viewBox="0 0 21 22" fill="none" xmlns="http://www.w3.org/2000/svg">
<path d="M5.17 16.188C3.98594 15.6726 2.96871 14.8378 2.23222 13.7771C1.49574 12.7163 1.06907 11.4715 1 10.182C1 6.215 5.134 3 10.233 3C15.332 3 19.466 6.215 19.466 10.182C19.466 14.149 15.332 17.364 10.233 17.364C9.57691 17.3638 8.92198 17.3089 8.275 17.2L4.775 20.132L5.17 16.188Z" fill="#3B1D1A"/>
<path d="M6.52177 8.00059H3.82177C3.75962 7.99769 3.69753 8.00742 3.63926 8.0292C3.58098 8.05099 3.52773 8.08438 3.48273 8.12733C3.43772 8.17029 3.4019 8.22191 3.37743 8.27911C3.35295 8.33631 3.34033 8.39788 3.34033 8.4601C3.34033 8.52231 3.35295 8.58387 3.37743 8.64106C3.4019 8.69826 3.43772 8.7499 3.48273 8.79286C3.52773 8.83581 3.58098 8.86919 3.63926 8.89097C3.69753 8.91276 3.75962 8.92248 3.82177 8.91958H4.70077V12.1526C4.70129 12.2712 4.74866 12.3849 4.83257 12.4688C4.91647 12.5527 5.03012 12.6001 5.14877 12.6006H5.24877C5.36751 12.6003 5.4813 12.553 5.56526 12.4691C5.64922 12.3851 5.69651 12.2713 5.69677 12.1526V8.91559H6.52677C6.58892 8.91849 6.65101 8.90876 6.70928 8.88697C6.76756 8.86519 6.8208 8.8318 6.86581 8.78885C6.91081 8.74589 6.94664 8.69426 6.97112 8.63707C6.99559 8.57987 7.00821 8.5183 7.00821 8.45608C7.00821 8.39387 6.99559 8.33231 6.97112 8.27511C6.94664 8.21792 6.91081 8.16627 6.86581 8.12332C6.8208 8.08036 6.76756 8.04699 6.70928 8.0252C6.65101 8.00342 6.58892 7.99369 6.52677 7.99659L6.52177 8.00059Z" fill="#FAE300"/>
<path d="M13.0168 11.7415H11.7598V8.43555C11.7598 8.30294 11.7071 8.17577 11.6133 8.082C11.5195 7.98823 11.3924 7.93555 11.2598 7.93555C11.1272 7.93555 11 7.98823 10.9062 8.082C10.8125 8.17577 10.7598 8.30294 10.7598 8.43555V11.9995C10.7602 12.0264 10.7629 12.0531 10.7678 12.0795C10.7626 12.1059 10.7599 12.1327 10.7598 12.1595C10.7596 12.2144 10.7703 12.2687 10.7912 12.3194C10.8121 12.3701 10.8428 12.4162 10.8816 12.4551C10.9203 12.4939 10.9663 12.5247 11.017 12.5457C11.0676 12.5667 11.1219 12.5775 11.1768 12.5775H13.0138C13.1245 12.5775 13.2307 12.5336 13.309 12.4553C13.3873 12.377 13.4313 12.2708 13.4313 12.16C13.4313 12.0493 13.3873 11.9431 13.309 11.8648C13.2307 11.7865 13.1245 11.7426 13.0138 11.7426L13.0168 11.7415Z" fill="#FAE300"/>
<path d="M17.0329 11.8916L15.6329 10.0526L16.8979 8.78665C16.9803 8.7043 17.0266 8.59261 17.0266 8.47615C17.0266 8.35969 16.9803 8.248 16.8979 8.16565C16.8156 8.0833 16.7039 8.03703 16.5874 8.03703C16.471 8.03703 16.3593 8.0833 16.2769 8.16565L14.7109 9.73164V8.43164C14.7109 8.29903 14.6583 8.17186 14.5645 8.07809C14.4707 7.98433 14.3435 7.93164 14.2109 7.93164C14.0783 7.93164 13.9511 7.98433 13.8574 8.07809C13.7636 8.17186 13.7109 8.29903 13.7109 8.43164V12.1046C13.7109 12.2373 13.7636 12.3644 13.8574 12.4582C13.9511 12.552 14.0783 12.6046 14.2109 12.6046C14.3435 12.6046 14.4707 12.552 14.5645 12.4582C14.6583 12.3644 14.7109 12.2373 14.7109 12.1046V10.9716L14.9959 10.6866L16.3209 12.4247C16.3561 12.4715 16.4002 12.5109 16.4506 12.5407C16.5011 12.5705 16.5568 12.59 16.6148 12.5982C16.6728 12.6065 16.7319 12.6032 16.7886 12.5886C16.8453 12.574 16.8986 12.5483 16.9454 12.5132C16.9923 12.478 17.0317 12.4339 17.0615 12.3835C17.0912 12.333 17.1108 12.2772 17.119 12.2192C17.1272 12.1612 17.1239 12.1022 17.1093 12.0455C17.0947 11.9888 17.0691 11.9355 17.0339 11.8886L17.0329 11.8916Z" fill="#FAE300"/>
<path d="M10.3898 12.0106L9.04275 8.32657C8.98824 8.20636 8.89904 8.10518 8.7866 8.03605C8.67417 7.96691 8.54361 7.93297 8.41174 7.93857C8.26612 7.93015 8.12198 7.97149 8.00296 8.05581C7.88393 8.14012 7.7971 8.2624 7.75674 8.40256C7.74698 8.42241 7.7383 8.44278 7.73074 8.46357L6.40675 12.0156C6.38705 12.0709 6.37845 12.1296 6.38144 12.1883C6.38442 12.247 6.39892 12.3045 6.42413 12.3575C6.44934 12.4106 6.48476 12.4582 6.52836 12.4976C6.57196 12.537 6.6229 12.5674 6.67825 12.5871C6.7336 12.6068 6.79229 12.6154 6.85096 12.6124C6.90964 12.6094 6.96716 12.5949 7.02023 12.5697C7.0733 12.5445 7.12088 12.509 7.16026 12.4654C7.19964 12.4218 7.23006 12.3709 7.24975 12.3156L7.47874 11.6616H9.32174L9.55075 12.3156C9.57045 12.3709 9.60086 12.4218 9.64024 12.4654C9.67962 12.509 9.7272 12.5445 9.78027 12.5697C9.83334 12.5949 9.89084 12.6094 9.94952 12.6124C10.0082 12.6154 10.0669 12.6068 10.1223 12.5871C10.1776 12.5674 10.2285 12.537 10.2721 12.4976C10.3157 12.4582 10.3511 12.4106 10.3764 12.3575C10.4016 12.3045 10.4161 12.247 10.4191 12.1883C10.422 12.1296 10.4134 12.0709 10.3938 12.0156L10.3898 12.0106ZM7.76675 10.8176L8.38576 9.05057H8.40574L9.02475 10.8156L7.76675 10.8176Z" fill="#FAE300"/>
</svg>
