<svg width="19" height="19" viewBox="0 0 19 19" fill="none" xmlns="http://www.w3.org/2000/svg">
<circle cx="9.5" cy="10.5" r="5.25" stroke="#919191" stroke-width="0.5"/>
<path d="M9.53331 8.10162L9.50484 8.10044L9.47642 8.1025C9.46651 8.10322 9.45656 8.10185 9.44721 8.09848C9.43786 8.0951 9.42932 8.08981 9.42215 8.08293C9.41497 8.07605 9.40932 8.06774 9.40557 8.05853C9.40181 8.04933 9.40002 8.03944 9.40033 8.02951L9.40095 8.00917L9.39992 7.98884C9.39932 7.97699 9.4012 7.96515 9.40545 7.95407C9.40971 7.94299 9.41623 7.93293 9.42461 7.92453C9.43298 7.91612 9.44302 7.90957 9.45409 7.90528C9.46515 7.90099 9.47699 7.89907 9.48884 7.89963L9.50457 7.90038L9.52032 7.90013C9.53133 7.89996 9.54225 7.90206 9.5524 7.90631C9.56256 7.91055 9.57173 7.91684 9.57934 7.92479C9.58695 7.93274 9.59284 7.94217 9.59664 7.9525C9.60044 7.96283 9.60207 7.97383 9.60142 7.98482L10.1006 8.01419L9.60096 8.03409C9.60131 8.04307 9.59981 8.05202 9.59653 8.06038C9.59326 8.06874 9.58829 8.07634 9.58193 8.08268C9.57558 8.08902 9.56797 8.09398 9.55961 8.09724C9.55124 8.10051 9.54228 8.102 9.53331 8.10162Z" fill="#919191" stroke="#919191"/>
</svg>
