<svg width="14" height="14" viewBox="0 0 14 14" fill="none" xmlns="http://www.w3.org/2000/svg">
<path d="M7 14C8.85595 13.9982 10.6354 13.2602 11.9477 11.9481C13.2601 10.6359 13.9982 8.8568 14 7.00115C13.9988 5.14511 13.261 3.3654 11.9485 2.05276C10.6361 0.740119 8.85635 0.00183605 7 0C5.14365 0.00183605 3.36389 0.740119 2.05146 2.05276C0.739041 3.3654 0.0012236 5.14511 0 7.00115C0.00183546 8.8568 0.739923 10.6359 2.05228 11.9481C3.36464 13.2602 5.14405 13.9982 7 14ZM7 13.5171C6.14385 13.5178 5.29595 13.3498 4.5048 13.0227C3.71365 12.6955 2.99477 12.2156 2.38927 11.6104C1.78378 11.0053 1.30355 10.2867 0.976057 9.49576C0.648563 8.70486 0.480231 7.85716 0.480687 7.00115C0.479927 6.14495 0.648035 5.29701 0.975392 4.50584C1.30275 3.71466 1.78293 2.9958 2.38845 2.39037C2.99398 1.78494 3.71297 1.30484 4.50427 0.977542C5.29557 0.650239 6.14366 0.482158 7 0.482918C7.85634 0.482158 8.70443 0.650239 9.49573 0.977542C10.287 1.30484 11.006 1.78494 11.6115 2.39037C12.2171 2.9958 12.6973 3.71466 13.0246 4.50584C13.352 5.29701 13.5201 6.14495 13.5193 7.00115C13.5198 7.85716 13.3514 8.70486 13.0239 9.49576C12.6965 10.2867 12.2162 11.0053 11.6107 11.6104C11.0052 12.2156 10.2863 12.6955 9.4952 13.0227C8.70405 13.3498 7.85615 13.5178 7 13.5171ZM6.47425 10.4555H7.54077V5.04869H6.47425V10.4555ZM7.01502 4.01238C7.10573 4.0219 7.19742 4.01232 7.28419 3.98425C7.37096 3.95617 7.45089 3.91023 7.51882 3.84939C7.58675 3.78854 7.64118 3.71415 7.67859 3.63098C7.71601 3.54782 7.73558 3.45775 7.73605 3.36656C7.73748 3.27353 7.71944 3.18124 7.6831 3.09559C7.64676 3.00994 7.59293 2.93282 7.52504 2.86919C7.45716 2.80556 7.37672 2.75681 7.28889 2.72607C7.20106 2.69534 7.10778 2.68329 7.01502 2.69071C6.92418 2.68589 6.83332 2.69993 6.74818 2.73196C6.66303 2.76399 6.58545 2.81331 6.52031 2.8768C6.45518 2.9403 6.4039 3.0166 6.36972 3.10089C6.33555 3.18518 6.3192 3.27564 6.32172 3.36656C6.32114 3.45561 6.33904 3.54381 6.37431 3.62558C6.40957 3.70736 6.46143 3.78092 6.52659 3.84162C6.59176 3.90233 6.66882 3.94884 6.75289 3.97824C6.83696 4.00763 6.92622 4.01925 7.01502 4.01238Z" fill="#777777"/>
</svg>
