<svg width="19" height="16" viewBox="0 0 19 16" fill="none" xmlns="http://www.w3.org/2000/svg">
<path fill-rule="evenodd" clip-rule="evenodd" d="M15.6792 6.81569C15.6792 7.09183 15.9031 7.31569 16.1792 7.31569C16.4554 7.31569 16.6792 7.09183 16.6792 6.81569V5.13346H18.4251C18.7012 5.13346 18.9251 4.9096 18.9251 4.63346C18.9251 4.35732 18.7012 4.13346 18.4251 4.13346H16.6792V2.45117C16.6792 2.17503 16.4554 1.95117 16.1792 1.95117C15.9031 1.95117 15.6792 2.17503 15.6792 2.45117V4.13346H13.9336C13.6575 4.13346 13.4336 4.35732 13.4336 4.63346C13.4336 4.9096 13.6575 5.13346 13.9336 5.13346H15.6792V6.81569ZM0.970215 4.43326C0.970215 3.60483 1.64179 2.93326 2.47021 2.93326H13.0732C13.3493 2.93326 13.5732 3.15712 13.5732 3.43326C13.5732 3.7094 13.3493 3.93326 13.0732 3.93326H2.47021C2.19407 3.93326 1.97021 4.15711 1.97021 4.43326V12.8467C3.83129 11.7036 6.14114 10.0456 6.67849 9.65693C6.92642 9.47759 7.2501 9.48609 7.48733 9.65075L10.3517 11.6389L13.0841 9.97945C13.3073 9.84385 13.5875 9.84385 13.8108 9.97945L16.3161 11.501V8.52519C16.3161 8.24905 16.5399 8.02519 16.8161 8.02519C17.0922 8.02519 17.3161 8.24905 17.3161 8.52519V14.4357C17.3161 15.2641 16.6445 15.9357 15.8161 15.9357H2.47021C1.64179 15.9357 0.970215 15.2641 0.970215 14.4357V4.43326ZM12.6099 13.2063L11.2507 12.2629L13.4474 10.9287L16.1822 12.5897C16.2249 12.6156 16.27 12.6344 16.3161 12.6464V14.4357C16.3161 14.7118 16.0922 14.9357 15.8161 14.9357H2.47021C2.19407 14.9357 1.97021 14.7118 1.97021 14.4357V14.0135C3.78708 12.9472 6.26022 11.1899 7.09059 10.5927L12.0397 14.0278C12.2665 14.1852 12.5781 14.129 12.7355 13.9021C12.893 13.6753 12.8367 13.3637 12.6099 13.2063ZM7.95898 7.43415C7.95898 7.12109 8.22424 6.84302 8.58185 6.84302C8.93946 6.84302 9.20472 7.12109 9.20472 7.43415C9.20472 7.7472 8.93946 8.02527 8.58185 8.02527C8.22424 8.02527 7.95898 7.7472 7.95898 7.43415ZM8.58185 5.84302C7.69918 5.84302 6.95898 6.54197 6.95898 7.43415C6.95898 8.32632 7.69918 9.02527 8.58185 9.02527C9.46453 9.02527 10.2047 8.32632 10.2047 7.43415C10.2047 6.54197 9.46453 5.84302 8.58185 5.84302Z" fill="white"/>
</svg>
