<svg width="20" height="21" viewBox="0 0 20 21" fill="none" xmlns="http://www.w3.org/2000/svg">
<g clip-path="url(#clip0_1030_9805)">
<path fill-rule="evenodd" clip-rule="evenodd" d="M9.79976 20.5883C15.2121 20.5883 19.5998 16.2007 19.5998 10.7883C19.5998 5.37589 15.2121 0.988281 9.79976 0.988281C4.38737 0.988281 -0.000244141 5.37589 -0.000244141 10.7883C-0.000244141 16.2007 4.38737 20.5883 9.79976 20.5883ZM17.7998 10.7883C17.7998 15.2066 14.218 18.7883 9.79976 18.7883C5.38148 18.7883 1.79976 15.2066 1.79976 10.7883C1.79976 6.37 5.38148 2.78828 9.79976 2.78828C14.218 2.78828 17.7998 6.37 17.7998 10.7883ZM13.936 8.75769C14.2875 8.40621 14.2875 7.83637 13.936 7.48489C13.5845 7.13342 13.0147 7.13342 12.6632 7.48489L8.44469 11.7034L6.58035 9.96334C6.21697 9.62419 5.64746 9.64383 5.30831 10.0072C4.96916 10.3706 4.9888 10.9401 5.35217 11.2792L7.85217 13.6126L8.48783 14.2058L9.10266 13.591L13.936 8.75769Z" fill="white"/>
</g>
<defs>
<clipPath id="clip0_1030_9805">
<rect width="20" height="20" fill="white" transform="translate(0 0.988281)"/>
</clipPath>
</defs>
</svg>
