<svg width="21" height="20" viewBox="0 0 21 20" fill="none" xmlns="http://www.w3.org/2000/svg">
<path d="M8 6.57227H5.81442C5.52606 6.57227 5.25174 6.69675 5.06185 6.91376L1.54342 10.9348C1.22792 11.2954 1.21249 11.8291 1.50664 12.2073L5.06039 16.7764C5.24984 17.02 5.54115 17.1624 5.84974 17.1624H19C19.5523 17.1624 20 16.7147 20 16.1624V7.57227C20 7.01998 19.5523 6.57227 19 6.57227H14.5" stroke="#1a1a1a" stroke-linecap="round"/>
<circle cx="3.80357" cy="11.6551" r="0.934426" stroke="#1a1a1a"/>
<path d="M1 9.16406L2.86885 10.7214" stroke="#1a1a1a" stroke-linecap="round"/>
<path d="M6.3514 10.6706L6.87775 9.26696C6.90413 9.19662 6.94602 9.13312 7.0003 9.0812L14.0818 2.30763C14.5801 1.80927 15.3277 1.99607 15.6391 2.30754C16.1375 2.8059 15.8468 3.65736 15.6391 3.86501L8.87014 10.634C8.81525 10.6889 8.74834 10.7302 8.6747 10.7548L6.97768 11.3205C6.57866 11.4535 6.20371 11.0644 6.3514 10.6706Z" stroke="#1a1a1a"/>
<path d="M12.2129 9.99805H17.1965" stroke="#1a1a1a" stroke-linecap="round"/>
<path d="M12.2129 11.8672H17.1965" stroke="#1a1a1a" stroke-linecap="round"/>
<path d="M9.09863 13.4238H17.5085" stroke="#1a1a1a" stroke-linecap="round"/>
<path d="M13.459 3.24609L14.7049 4.492" stroke="#1a1a1a"/>
</svg>
