<svg width="80" height="81" viewBox="0 0 80 81" fill="none" xmlns="http://www.w3.org/2000/svg">
<circle cx="40" cy="40.998" r="39.5" stroke="#D8D8D8"/>
<path d="M25.7246 37.2948V33.7227C25.7246 33.1704 26.1723 32.7227 26.7246 32.7227H53.176C53.7283 32.7227 54.176 33.1704 54.176 33.7227V50.6903C54.176 51.2425 53.7283 51.6903 53.176 51.6903H26.7246C26.1723 51.6903 25.7246 51.2425 25.7246 50.6903V47.2317C25.7246 46.7881 26.0234 46.4085 26.4228 46.2154C28.3729 45.2726 28.8859 43.2115 28.8859 42.2065C28.8859 40.3216 27.3823 38.9232 26.2801 38.2354C25.9515 38.0303 25.7246 37.6822 25.7246 37.2948Z" fill="#919191"/>
<line x1="33.8621" y1="33.4227" x2="33.8621" y2="50.9902" stroke="white" stroke-width="1.4" stroke-linecap="round" stroke-dasharray="3 3"/>
<path d="M45.2499 39.9746L40.415 44.8095" stroke="white" stroke-width="1.4" stroke-linecap="round" stroke-linejoin="round"/>
<circle cx="40.7862" cy="39.9747" r="0.929784" fill="white"/>
<circle cx="45.2501" cy="44.8087" r="0.929784" fill="white"/>
</svg>
