<svg width="80" height="81" viewBox="0 0 80 81" fill="none" xmlns="http://www.w3.org/2000/svg">
<circle cx="40" cy="40.9902" r="39.5" stroke="#D8D8D8"/>
<path fill-rule="evenodd" clip-rule="evenodd" d="M46.8034 25.5574L24.842 46.944C24.5861 47.1933 24.4016 47.5065 24.3077 47.8512L23.0731 52.3832C22.6478 53.9443 24.1558 55.3379 25.6786 54.7912L30.1806 53.1748C30.4445 53.08 30.6854 52.9309 30.8879 52.737L52.838 31.721C53.6456 30.9478 53.6625 29.6628 52.8755 28.8686L49.6194 25.5825C48.8467 24.8027 47.5899 24.7915 46.8034 25.5574ZM31.0195 55.1887C30.5225 55.1887 30.1195 55.5916 30.1195 56.0887C30.1195 56.5857 30.5225 56.9887 31.0195 56.9887H56.0983C56.5954 56.9887 56.9983 56.5857 56.9983 56.0887C56.9983 55.5916 56.5954 55.1887 56.0983 55.1887H31.0195Z" fill="#919191"/>
</svg>
