<svg width="43" height="32" viewBox="0 0 43 32" fill="none" xmlns="http://www.w3.org/2000/svg">
<path fill-rule="evenodd" clip-rule="evenodd" d="M7.5 5.59063H10.3957C10.566 5.59063 10.7176 5.6984 10.7735 5.85922L11.7837 8.76361L13.95 18.175C14.1172 18.9014 14.7639 19.4161 15.5093 19.4161H28.949C29.6914 19.4161 30.3364 18.9053 30.5064 18.1826L32.4403 9.96373C32.6766 8.9594 31.9146 7.99727 30.8828 7.99727H12.7877L11.9069 5.46499C11.6832 4.82174 11.0768 4.39062 10.3957 4.39062H7.5V5.59063ZM15.1195 17.9058L13.1149 9.19727H30.8828C31.1407 9.19727 31.3313 9.4378 31.2722 9.68888L29.3383 17.9077C29.2958 18.0884 29.1346 18.2161 28.949 18.2161H15.5093C15.3229 18.2161 15.1613 18.0874 15.1195 17.9058ZM16.7728 21.9731C15.8009 21.9731 15.0131 22.7609 15.0131 23.7328C15.0131 24.7046 15.8009 25.4924 16.7728 25.4924C17.7446 25.4924 18.5324 24.7046 18.5324 23.7328C18.5324 22.7609 17.7446 21.9731 16.7728 21.9731ZM13.8131 23.7328C13.8131 22.0982 15.1382 20.7731 16.7728 20.7731C18.4073 20.7731 19.7324 22.0982 19.7324 23.7328C19.7324 25.3673 18.4073 26.6924 16.7728 26.6924C15.1382 26.6924 13.8131 25.3673 13.8131 23.7328ZM27.4261 21.9731C26.4542 21.9731 25.6664 22.7609 25.6664 23.7328C25.6664 24.7046 26.4542 25.4924 27.4261 25.4924C28.3979 25.4924 29.1857 24.7046 29.1857 23.7328C29.1857 22.7609 28.3979 21.9731 27.4261 21.9731ZM24.4664 23.7328C24.4664 22.0982 25.7915 20.7731 27.4261 20.7731C29.0607 20.7731 30.3857 22.0982 30.3857 23.7328C30.3857 25.3673 29.0607 26.6924 27.4261 26.6924C25.7915 26.6924 24.4664 25.3673 24.4664 23.7328Z" fill="#1a1a1a"/>
</svg>
