<?xml version="1.0" encoding="utf-8"?>
<!-- Generator: Adobe Illustrator 26.3.1, SVG Export Plug-In . SVG Version: 6.00 Build 0)  -->
<svg version="1.1" id="레이어_1" xmlns="http://www.w3.org/2000/svg" xmlns:xlink="http://www.w3.org/1999/xlink" x="0px"
	 y="0px" viewBox="0 0 52 52" style="enable-background:new 0 0 52 52;" xml:space="preserve">
<style type="text/css">
	.st0{fill:#F4F4F5;}
	.st1{fill:#565657;}
	.st2{fill:#FFFFFF;}
</style>
<g>
	<path class="st0" d="M26,52.01c14.36,0,26-11.64,26-26s-11.64-26-26-26s-26,11.64-26,26S11.64,52.01,26,52.01z"/>
	<path class="st1" d="M16,18.01h19c1.1,0,2,0.9,2,2v12c0,1.1-0.9,2-2,2H16c-1.1,0-2-0.9-2-2v-12C14,18.9,14.9,18.01,16,18.01z"/>
	<path class="st2" d="M18,25.01v-7h5v7l-2.5-2L18,25.01z"/>
</g>
</svg>
