<svg width="30" height="31" viewBox="0 0 30 31" fill="none" xmlns="http://www.w3.org/2000/svg">
<path d="M6.37457 2.95738C7.95397 1.87203 10.5097 3.09137 12.2767 2.71619C14.1069 2.33335 15.9563 0.199017 17.7673 0.535917C19.5783 0.872816 20.5432 3.52016 22.113 4.53851C23.6273 5.5205 26.4511 5.3042 27.5366 6.87767C28.6221 8.45114 27.4007 11.0162 27.7836 12.783C28.1664 14.613 30.301 16.4621 29.9641 18.2729C29.6271 20.0837 26.9795 21.0485 25.961 22.6182C24.9789 24.1323 25.1953 26.9557 23.6216 28.0411C22.0479 29.1264 19.4845 27.909 17.7194 28.2823C15.8873 28.6651 14.038 30.7995 12.227 30.4645C10.4159 30.1295 9.45105 27.4783 7.88122 26.46C6.36692 25.478 3.54314 25.6943 2.45766 24.1208C1.37219 22.5473 2.58976 19.9842 2.21645 18.2193C1.83357 16.3874 -0.301017 14.5383 0.0359209 12.7275C0.372859 10.9166 3.02051 9.95188 4.03898 8.38223C5.01533 6.8681 4.79326 4.04656 6.37457 2.95738Z" fill="#E7342C"/>
<path d="M10.6155 18.612L9.13549 18.612L6.07949 14.108L6.07949 18.612L4.97549 18.612L4.97549 12.612L6.39949 12.612L9.51949 17.108L9.51949 12.612L10.6155 12.612L10.6155 18.612ZM15.7653 13.676L12.6613 13.676L12.6613 14.988L15.5013 14.988L15.5013 16.068L12.6613 16.068L12.6613 17.54L15.7653 17.54L15.7653 18.612L11.5813 18.612L11.5813 12.612L15.7653 12.612L15.7653 13.676ZM23.1849 18.612L22.1289 18.612L20.8409 14.444L19.3209 18.612L18.2969 18.612L16.3609 12.612L17.4809 12.612L18.8649 16.948L20.2409 12.612L21.4089 12.612L22.6969 16.948L23.9769 12.612L25.0889 12.612L23.1849 18.612Z" fill="white"/>
</svg>
