<svg width="24" height="24" viewBox="0 0 24 24" fill="none" xmlns="http://www.w3.org/2000/svg">
<path d="M8.98917 9.07197C8.75278 8.80181 8.34214 8.77443 8.07197 9.01082C7.80181 9.24722 7.77443 9.65786 8.01083 9.92803L8.98917 9.07197ZM15.9892 9.92803C16.2256 9.65786 16.1982 9.24722 15.928 9.01082C15.6579 8.77443 15.2472 8.80181 15.0108 9.07197L15.9892 9.92803ZM11.9247 13.414L12.4139 12.986L11.9247 13.414ZM12.0753 13.414L11.5861 12.986L12.0753 13.414ZM8.01083 9.92803L11.4356 13.842L12.4139 12.986L8.98917 9.07197L8.01083 9.92803ZM12.5644 13.842L15.9892 9.92803L15.0108 9.07197L11.5861 12.986L12.5644 13.842ZM11.4356 13.842C11.7344 14.1835 12.2656 14.1835 12.5644 13.842L11.5861 12.986C11.8052 12.7355 12.1948 12.7355 12.4139 12.986L11.4356 13.842Z" fill="#565656"/>
</svg>
