<svg width="20" height="19" viewBox="0 0 20 19" fill="none" xmlns="http://www.w3.org/2000/svg">
<path d="M5.39635 5.75C5.39635 4.92157 4.72478 4.25 3.89635 4.25H3.27599C3.02199 4.25 2.77215 4.3145 2.54989 4.43745L1.47436 5.03243C0.816449 5.39639 0.529634 6.19121 0.803536 6.89142L1.00853 7.41546C1.23449 7.99311 1.91314 8.24515 2.46138 7.95501C2.47092 7.94996 2.47658 7.94967 2.48017 7.94983C2.48516 7.95005 2.49201 7.95172 2.49921 7.95605C2.50641 7.96039 2.51108 7.96566 2.51361 7.96997C2.51544 7.97307 2.51783 7.9782 2.51783 7.989V14.3338C2.51783 15.1287 3.16221 15.7731 3.95709 15.7731C4.75197 15.7731 5.39635 15.1287 5.39635 14.3338V5.75Z" stroke="#1a1a1a"/>
<path d="M18.6962 5.75C18.6962 4.92157 18.0246 4.25 17.1962 4.25H16.5758C16.3218 4.25 16.072 4.3145 15.8497 4.43745L14.7742 5.03243C14.1163 5.39639 13.8294 6.19121 14.1033 6.89142L14.3083 7.41546C14.5343 7.99311 15.2129 8.24515 15.7612 7.95501C15.7707 7.94996 15.7764 7.94967 15.78 7.94983C15.785 7.95005 15.7918 7.95172 15.799 7.95605C15.8062 7.96039 15.8109 7.96566 15.8134 7.96997C15.8152 7.97307 15.8176 7.9782 15.8176 7.989V14.3338C15.8176 15.1287 16.462 15.7731 17.2569 15.7731C18.0518 15.7731 18.6962 15.1287 18.6962 14.3338V5.75Z" stroke="#1a1a1a"/>
<path fill-rule="evenodd" clip-rule="evenodd" d="M9.525 7.67266C9.525 7.42413 9.72647 7.22266 9.975 7.22266C10.2235 7.22266 10.425 7.42413 10.425 7.67266C10.425 7.92118 10.2235 8.12266 9.975 8.12266C9.72647 8.12266 9.525 7.92118 9.525 7.67266ZM9.975 6.22266C9.17419 6.22266 8.525 6.87184 8.525 7.67266C8.525 8.47347 9.17419 9.12266 9.975 9.12266C10.7758 9.12266 11.425 8.47347 11.425 7.67266C11.425 6.87184 10.7758 6.22266 9.975 6.22266ZM9.525 12.2765C9.525 12.028 9.72647 11.8265 9.975 11.8265C10.2235 11.8265 10.425 12.028 10.425 12.2765C10.425 12.525 10.2235 12.7265 9.975 12.7265C9.72647 12.7265 9.525 12.525 9.525 12.2765ZM9.975 10.8265C9.17419 10.8265 8.525 11.4757 8.525 12.2765C8.525 13.0773 9.17419 13.7265 9.975 13.7265C10.7758 13.7265 11.425 13.0773 11.425 12.2765C11.425 11.4757 10.7758 10.8265 9.975 10.8265Z" fill="#1a1a1a"/>
</svg>
