<svg width="80" height="80" viewBox="0 0 80 80" fill="none" xmlns="http://www.w3.org/2000/svg">
<circle cx="40" cy="40" r="39.5" stroke="#D8D8D8"/>
<path d="M41.0424 54.214C40.2613 54.995 38.995 54.995 38.214 54.214L29.0513 45.0513L27.2885 43.2885C25.8859 41.8859 25.0979 39.9836 25.0979 38C25.0979 36.0164 25.8859 34.1141 27.2885 32.7115C28.691 31.309 30.5933 30.521 32.5769 30.521C34.4669 30.521 36.5246 31.7401 37.9278 33.0685C38.0645 33.1979 38.1748 33.3517 38.2603 33.5194C38.8786 34.7307 40.5661 34.8432 41.3398 33.7247L41.554 33.415C41.6224 33.3161 41.6994 33.2234 41.7851 33.139C43.159 31.7836 44.756 30.521 46.6794 30.521C48.663 30.521 50.5653 31.309 51.9679 32.7115C53.3705 34.1141 54.1584 36.0164 54.1584 38C54.1584 39.9836 53.3705 41.8859 51.9679 43.2885L41.0424 54.214Z" fill="#919191"/>
</svg>
