<svg width="20" height="20" viewBox="0 0 20 20" fill="none" xmlns="http://www.w3.org/2000/svg">
<path d="M8 18C6.14348 18 4.36354 17.2625 3.05078 15.9497C1.73803 14.637 1 12.8565 1 11C1 9.14349 1.73803 7.36305 3.05078 6.05029C4.36354 4.73754 6.14348 4 8 4H9C10.6302 3.99956 12.209 4.56792 13.4648 5.60742C14.7207 6.64693 15.5747 8.09223 15.8789 9.69385L18.1953 10.9819L15.875 12.3218C15.5677 13.9198 14.7137 15.3612 13.459 16.3975C12.2043 17.4337 10.6273 18.0002 9 18H8Z" fill="white" stroke="#AAAAAA" stroke-linejoin="round"/>
<path d="M5 12C5.55228 12 6 11.5523 6 11C6 10.4477 5.55228 10 5 10C4.44772 10 4 10.4477 4 11C4 11.5523 4.44772 12 5 12Z" fill="white"/>
<path d="M5 11.5C5.27614 11.5 5.5 11.2761 5.5 11C5.5 10.7239 5.27614 10.5 5 10.5C4.72386 10.5 4.5 10.7239 4.5 11C4.5 11.2761 4.72386 11.5 5 11.5Z" stroke="#AAAAAA"/>
<path d="M8.5 12C9.05228 12 9.5 11.5523 9.5 11C9.5 10.4477 9.05228 10 8.5 10C7.94772 10 7.5 10.4477 7.5 11C7.5 11.5523 7.94772 12 8.5 12Z" fill="white"/>
<path d="M8.5 11.5C8.77614 11.5 9 11.2761 9 11C9 10.7239 8.77614 10.5 8.5 10.5C8.22386 10.5 8 10.7239 8 11C8 11.2761 8.22386 11.5 8.5 11.5Z" stroke="#AAAAAA"/>
<path d="M12 12C12.5523 12 13 11.5523 13 11C13 10.4477 12.5523 10 12 10C11.4477 10 11 10.4477 11 11C11 11.5523 11.4477 12 12 12Z" fill="white"/>
<path d="M12 11.5C12.2761 11.5 12.5 11.2761 12.5 11C12.5 10.7239 12.2761 10.5 12 10.5C11.7239 10.5 11.5 10.7239 11.5 11C11.5 11.2761 11.7239 11.5 12 11.5Z" stroke="#AAAAAA"/>
</svg>
