<svg width="12" height="12" viewBox="0 0 12 12" fill="none" xmlns="http://www.w3.org/2000/svg">
<g clip-path="url(#clip0_54_52433)">
<path d="M6 0C2.68634 0 0 2.68634 0 6C0 9.31366 2.68634 12 6 12C9.31366 12 12 9.31366 12 6C12 2.68634 9.31366 0 6 0ZM3.89698 8.53506C3.89698 8.8196 3.66546 9.05133 3.38071 9.05133H2.99623C2.71169 9.05133 2.47996 8.81981 2.47996 8.53506V5.24466C2.47996 4.96012 2.71148 4.72838 2.99623 4.72838H3.38071C3.66525 4.72838 3.89698 4.95991 3.89698 5.24466V8.53485V8.53506ZM8.93253 5.97507H8.93023L8.83385 5.9715C8.99078 6.09198 9.0968 6.27658 9.0968 6.46829C9.0968 6.8094 8.83322 7.08702 8.50929 7.08702L8.49295 7.08639C8.6174 7.18676 8.7075 7.33112 8.7075 7.49057C8.7075 7.78035 8.48352 8.01774 8.20799 8.01963C8.20464 8.01963 8.20108 8.01963 8.19772 8.01942L8.04477 8.00936C8.17342 8.11433 8.26729 8.26351 8.26729 8.42338C8.26729 8.71504 8.04163 8.95244 7.76442 8.95244H4.62132C4.31583 8.95244 4.06754 8.70394 4.06754 8.39866V5.29138C4.06754 4.98589 4.31604 4.7376 4.62132 4.7376H4.92639C4.92764 4.7376 4.92806 4.73697 4.92827 4.73677C5.11664 4.52326 6.04798 3.41046 5.89419 2.46026C5.88392 2.39635 5.88371 2.33392 5.89377 2.27504L5.89461 2.27064C5.91954 2.12544 6.00901 2.00286 6.13368 1.94273C6.32058 1.85284 6.48233 1.91067 6.57787 2.10176C6.6422 2.23041 7.19472 3.39663 6.81736 4.73425C6.81736 4.73488 6.81694 4.73551 6.81778 4.73656C6.81862 4.7376 6.81925 4.7376 6.81967 4.7376H8.93253C9.25646 4.7376 9.52004 5.01523 9.52004 5.35633C9.52004 5.69744 9.25646 5.97507 8.93253 5.97507Z" fill="#E7342C" fill-opacity="0.6"/>
</g>
<defs>
<clipPath id="clip0_54_52433">
<rect width="12" height="12" fill="white"/>
</clipPath>
</defs>
</svg>
