<svg width="15" height="16" viewBox="0 0 15 16" fill="none" xmlns="http://www.w3.org/2000/svg">
<path d="M0 8C0 3.85786 3.35786 0.5 7.5 0.5C11.6421 0.5 15 3.85786 15 8C15 12.1421 11.6421 15.5 7.5 15.5C3.35786 15.5 0 12.1421 0 8Z" fill="#FF5C38"/>
<path d="M4.77778 8C4.77778 7.66416 4.60876 7.3869 4.41547 7.18648C4.19282 6.95562 4 6.67024 4 6.3495C4 5.88033 4.38033 5.5 4.8495 5.5H10C10.5523 5.5 11 5.94772 11 6.5V9.5C11 10.0523 10.5523 10.5 10 10.5H4.79185C4.35452 10.5 4 10.1455 4 9.70815C4 9.36251 4.25413 9.07513 4.47889 8.81255C4.70878 8.54396 4.77778 8.19588 4.77778 8Z" fill="white"/>
<line x1="6.07988" y1="5.75" x2="6.07988" y2="10.25" stroke="#FF5C38" stroke-width="0.5" stroke-linecap="round" stroke-dasharray="1 1"/>
</svg>
