<?xml version="1.0" encoding="utf-8"?>
<!-- Generator: Adobe Illustrator 26.3.1, SVG Export Plug-In . SVG Version: 6.00 Build 0)  -->
<svg version="1.1" id="레이어_1" xmlns="http://www.w3.org/2000/svg" xmlns:xlink="http://www.w3.org/1999/xlink" x="0px"
	 y="0px" viewBox="0 0 52 52" style="enable-background:new 0 0 52 52;" xml:space="preserve">
<style type="text/css">
	.st0{fill:#F4F4F5;}
	.st1{fill:#565657;}
</style>
<g>
	<path class="st0" d="M26,52c14.36,0,26-11.64,26-26S40.36,0,26,0S0,11.64,0,26S11.64,52,26,52z"/>
	<path class="st1" d="M34.14,34.27l-3.27-3.72c-0.2-0.23-0.48-0.37-0.78-0.4c-0.3-0.03-0.6,0.05-0.84,0.24l-1.56,1.18
		c-0.1,0.08-0.22,0.11-0.34,0.11s-0.24-0.06-0.33-0.14l-0.19-0.18c-1.07-0.85-1.94-1.92-2.54-3.15c-1.34-2.33-1.63-2.82-1.82-3.65
		l-0.06-0.25c-0.03-0.12-0.02-0.25,0.04-0.36c0.06-0.11,0.15-0.2,0.26-0.24l1.8-0.76c0.28-0.12,0.5-0.34,0.63-0.61
		s0.14-0.59,0.05-0.87l-1.59-4.69c-0.1-0.29-0.31-0.53-0.58-0.68c-0.27-0.14-0.59-0.18-0.88-0.09l-1.93,0.55
		c-0.61,0.17-1.12,0.56-1.44,1.1c-1.19,2.02-1.71,5.36,2.35,12.39c3.23,5.6,5.99,7.16,8.25,7.76c0.52,0.14,1.05,0.21,1.59,0.21
		c0.63-0.01,1.23-0.26,1.67-0.7l1.45-1.39c0.22-0.21,0.35-0.5,0.36-0.81C34.45,34.8,34.34,34.5,34.14,34.27z"/>
</g>
</svg>
