<svg width="74" height="74" viewBox="0 0 74 74" fill="none" xmlns="http://www.w3.org/2000/svg">
<g clip-path="url(#clip0_615_61307)">
<path d="M36.9592 -0.0351562C16.5582 -0.0351562 -0.0361328 16.5591 -0.0361328 36.9602C-0.0361328 57.3613 16.5582 73.9556 36.9592 73.9556C57.3603 73.9556 73.9546 57.3613 73.9546 36.9602C73.9546 16.5591 57.3603 -0.0351562 36.9592 -0.0351562ZM71.0199 43.2538C70.4424 46.377 69.4524 49.3706 68.0971 52.1402C65.5749 57.2906 61.8153 61.722 57.2071 65.0456C57.9496 64.5152 58.6685 63.9495 59.3639 63.3602C59.3874 63.0538 59.411 62.7473 59.411 62.4056C59.411 59.5652 58.3385 57.9741 57.6432 56.9134C57.1599 56.1945 57.0539 56.0413 57.0539 55.3459C57.0539 54.6506 57.1482 54.5091 57.6432 53.7784C58.3503 52.7177 59.411 51.1266 59.411 48.2863C59.411 48.0034 59.3874 47.7559 59.3757 47.4966C59.3403 47.0606 59.2932 46.6598 59.2107 46.2945C58.8689 44.6445 58.1617 43.572 57.6314 42.7941C57.1482 42.0752 57.0539 41.922 57.0539 41.2384C57.0539 40.5548 57.1482 40.4016 57.6314 39.6709C58.3267 38.6338 59.3521 37.0663 59.3992 34.3438C59.741 33.6956 59.9532 32.9531 59.9532 32.1634C59.9532 31.6802 59.5524 31.2795 59.0692 31.2795C58.586 31.2795 58.1853 31.6802 58.1853 32.1634C58.1853 33.7073 57.0421 34.9566 55.6278 34.9566C54.2135 34.9566 53.0703 33.7073 53.0703 32.1634C53.0703 31.6802 52.6696 31.2795 52.1864 31.2795C51.7032 31.2795 51.3024 31.6802 51.3024 32.1634C51.3024 33.2123 51.656 34.167 52.2217 34.9448C52.1392 35.1688 51.9978 35.3809 51.7503 35.7581C51.0432 36.8188 49.9707 38.4098 49.9707 41.2502C49.9707 44.0906 51.0432 45.6816 51.7503 46.7423C52.2335 47.4613 52.3278 47.6145 52.3278 48.2981C52.3278 48.9816 52.2335 49.1348 51.7503 49.8656C51.0432 50.9263 49.9707 52.5173 49.9707 55.3577C49.9707 58.1981 51.0432 59.8009 51.7385 60.8498C52.2217 61.5688 52.3278 61.722 52.3278 62.4173C52.3278 63.1127 52.2335 63.2541 51.7385 63.9848C51.0667 64.9866 50.0885 66.4952 49.9824 69.0645C45.9635 70.7027 41.5674 71.622 36.9592 71.622C32.351 71.622 27.8017 70.6791 23.7121 68.982C23.5942 66.4716 22.6278 64.9866 21.9678 63.9966C21.4846 63.2777 21.3785 63.1245 21.3785 62.4291C21.3785 61.7338 21.4728 61.5806 21.9678 60.8616C22.6749 59.8009 23.7357 58.2098 23.7357 55.3695C23.7357 52.5291 22.6632 50.9381 21.956 49.8773C21.4728 49.1584 21.3785 49.0052 21.3785 48.3098C21.3785 47.6145 21.4728 47.4731 21.956 46.7541C22.6632 45.6934 23.7357 44.1023 23.7357 41.262C23.7357 38.4216 22.6632 36.8306 21.956 35.7698C21.7085 35.4045 21.5671 35.1806 21.4846 34.9566C21.4728 34.9802 21.4492 34.992 21.4374 35.0038C22.0267 34.2259 22.3921 33.2477 22.3921 32.1752C22.3921 31.692 21.9914 31.2913 21.5082 31.2913C21.0249 31.2913 20.6242 31.692 20.6242 32.1752C20.6242 33.7191 19.481 34.9684 18.0667 34.9684C16.6524 34.9684 15.5092 33.7191 15.5092 32.1752C15.5092 31.692 15.1085 31.2913 14.6253 31.2913C14.1421 31.2913 13.7414 31.692 13.7414 32.1752C13.7414 32.9766 13.9535 33.7191 14.3071 34.3791C14.3542 37.1016 15.3796 38.6573 16.0749 39.6945C16.5582 40.4134 16.6524 40.5666 16.6524 41.262C16.6524 41.9573 16.5582 42.0988 16.0749 42.8177C15.3678 43.8784 14.2953 45.4695 14.2953 48.3098C14.2953 51.1502 15.3678 52.7413 16.0632 53.802C16.5464 54.5209 16.6524 54.6741 16.6524 55.3695C16.6524 56.0648 16.5582 56.2181 16.0632 56.937C15.356 57.9977 14.2953 59.5888 14.2953 62.4291C14.2953 62.7002 14.3071 62.9477 14.3307 63.1952C10.8185 60.1663 7.91922 56.442 5.85672 52.2463C4.41887 49.3234 3.38172 46.1648 2.81601 42.8531C2.48601 40.9438 2.30922 38.9873 2.30922 36.9838C2.32101 17.8673 17.8546 2.32199 36.9592 2.32199C56.0639 2.32199 71.5974 17.8673 71.5974 36.9602C71.5974 39.1052 71.3853 41.2031 71.0199 43.2538ZM57.1953 65.0573C55.7221 66.1181 54.1664 67.0727 52.5399 67.8859C54.1664 67.0609 55.7221 66.1181 57.1953 65.0573ZM52.8582 35.6402C52.8582 35.6402 52.9053 35.6873 52.9289 35.6991C52.9053 35.6756 52.8817 35.652 52.8582 35.6402ZM53.6007 36.1706C53.6007 36.1706 53.7067 36.2413 53.7657 36.2648C53.7067 36.2413 53.6596 36.2059 53.6007 36.1706ZM54.4492 36.5359C54.5199 36.5595 54.5907 36.5831 54.6614 36.6066C54.5907 36.5948 54.5199 36.5595 54.4492 36.5359ZM49.9942 69.0527C50.8428 68.7109 51.6678 68.3338 52.481 67.9213C51.6678 68.3338 50.8428 68.7109 49.9942 69.0527ZM55.616 36.7245C55.8753 36.7245 56.1346 36.6891 56.3821 36.642C56.1346 36.6891 55.8753 36.7245 55.616 36.7245ZM56.606 36.5948C56.7946 36.5477 56.9714 36.4888 57.1364 36.4181C56.9596 36.4888 56.7828 36.5477 56.606 36.5948ZM57.431 36.2884C57.5842 36.2059 57.7374 36.1234 57.8789 36.0291C57.7374 36.1234 57.5842 36.2059 57.431 36.2884ZM58.2324 35.7698C58.2324 35.7698 58.3267 35.6873 58.3857 35.6402C58.3385 35.6873 58.2914 35.7345 58.2324 35.7698ZM18.0785 36.7245C18.0785 36.7245 18.1021 36.7245 18.1257 36.7245C18.1139 36.7245 18.1021 36.7245 18.0903 36.7245H18.0785ZM19.0214 36.6066C19.1157 36.5831 19.1982 36.5477 19.2807 36.5241C19.1864 36.5477 19.1039 36.5948 19.0214 36.6066ZM19.9171 36.2766C19.9878 36.2413 20.0585 36.1941 20.1292 36.147C20.0585 36.1941 19.9878 36.2295 19.9171 36.2766ZM20.7421 35.7345C20.7421 35.7345 20.8364 35.652 20.8717 35.6166C20.8246 35.652 20.7774 35.6991 20.7421 35.7345ZM18.0667 36.7245C17.8192 36.7245 17.5717 36.6891 17.336 36.642C17.5717 36.6891 17.8192 36.7245 18.0667 36.7245ZM17.0767 36.5831C16.9117 36.5359 16.7585 36.4888 16.6053 36.4298C16.7585 36.4888 16.9117 36.5477 17.0767 36.5831ZM16.0867 36.1823C16.0042 36.1352 15.9217 36.0998 15.851 36.0409C15.9335 36.0881 16.0042 36.1352 16.0867 36.1823ZM15.4267 35.7345L15.3796 35.6991L15.4267 35.7345Z" fill="#51617D"/>
<path d="M36.9245 43.6914C31.1731 43.6914 27.5431 49.49 30.4306 51.741C32.6463 53.4618 34.0016 50.8218 36.9363 50.8218C39.8709 50.8218 40.8727 53.6739 43.4066 51.741C46.3177 49.5135 43.0884 43.6914 36.9127 43.6914H36.9245Z" fill="#51617D"/>
</g>
<defs>
<clipPath id="clip0_615_61307">
<rect width="74" height="74" fill="white"/>
</clipPath>
</defs>
</svg>
