<svg width="27" height="20" viewBox="0 0 27 20" fill="none" xmlns="http://www.w3.org/2000/svg">
<path fill-rule="evenodd" clip-rule="evenodd" d="M5.12061 5V5.9728C5.12061 6.24894 4.89675 6.4728 4.62061 6.4728C4.34446 6.4728 4.12061 6.24894 4.12061 5.9728V4.9C4.12061 4.40294 4.52355 4 5.02061 4H16.2894C16.7864 4 17.1894 4.40294 17.1894 4.9V7.0166H19.5837C19.9072 7.0166 20.2058 7.19022 20.3658 7.47136L22.5024 11.2247C22.5797 11.3604 22.6203 11.5138 22.6203 11.6699V13.7544C22.6203 14.2515 22.2173 14.6544 21.7203 14.6544H20.9134C20.8902 14.6544 20.8674 14.6528 20.845 14.6498C20.6297 15.4091 19.9314 15.9654 19.1031 15.9654C18.2748 15.9654 17.5764 15.409 17.3612 14.6497C17.3388 14.6527 17.316 14.6543 17.2928 14.6543H16.7161C16.7072 14.6548 16.6983 14.655 16.6894 14.655C16.6804 14.655 16.6715 14.6548 16.6626 14.6543H11.2584C11.2352 14.6543 11.2124 14.6527 11.19 14.6497C10.9748 15.409 10.2764 15.9654 9.4481 15.9654C8.62001 15.9654 7.92179 15.4094 7.70637 14.6503C7.68395 14.6534 7.66106 14.655 7.63779 14.655H5.02061C4.52355 14.655 4.12061 14.252 4.12061 13.755V11.7412C4.12061 11.4651 4.34446 11.2412 4.62061 11.2412C4.89675 11.2412 5.12061 11.4651 5.12061 11.7412V13.655H7.63779C7.66107 13.655 7.68398 13.6566 7.70641 13.6596C7.92188 12.9007 8.62007 12.3447 9.4481 12.3447C10.2759 12.3447 10.9739 12.9003 11.1896 13.659C11.2121 13.6559 11.2351 13.6543 11.2584 13.6543H16.1894V7.51759L16.1894 7.5166L16.1894 7.51561V5H5.12061ZM17.3616 13.659C17.5773 12.9003 18.2753 12.3447 19.1031 12.3447C19.9309 12.3447 20.629 12.9004 20.8446 13.6591C20.8671 13.656 20.8901 13.6544 20.9134 13.6544H21.6203V11.6964L19.5255 8.0166H17.1894V13.6543H17.2928C17.3161 13.6543 17.3391 13.6559 17.3616 13.659ZM5.12061 7.5166C5.12061 7.24046 4.89675 7.0166 4.62061 7.0166C4.34446 7.0166 4.12061 7.24046 4.12061 7.5166V9.93035C4.12061 10.2065 4.34446 10.4304 4.62061 10.4304C4.89675 10.4304 5.12061 10.2065 5.12061 9.93035V7.5166ZM9.4481 14.9654C9.89563 14.9654 10.2584 14.6026 10.2584 14.155C10.2584 13.7075 9.89563 13.3447 9.4481 13.3447C9.00058 13.3447 8.63779 13.7075 8.63779 14.155C8.63779 14.6026 9.00058 14.9654 9.4481 14.9654ZM19.9134 14.155C19.9134 14.6026 19.5506 14.9654 19.1031 14.9654C18.6556 14.9654 18.2928 14.6026 18.2928 14.155C18.2928 13.7075 18.6556 13.3447 19.1031 13.3447C19.5506 13.3447 19.9134 13.7075 19.9134 14.155Z" fill="#1a1a1a"/>
<path d="M1 8.12109H2.81031" stroke="#FF5C38" stroke-linecap="round"/>
<path d="M2.8103 6.31055H7.03436" stroke="#FF5C38" stroke-linecap="round"/>
<path d="M3.41376 9.93164H9.44813" stroke="#FF5C38" stroke-linecap="round"/>
<path d="M1.60345 11.7412H5.82752" stroke="#FF5C38" stroke-linecap="round"/>
</svg>
