<svg width="16" height="16" viewBox="0 0 16 16" fill="none" xmlns="http://www.w3.org/2000/svg">
<path fill-rule="evenodd" clip-rule="evenodd" d="M5.65332 1.72266C5.65332 1.44651 5.87718 1.22266 6.15332 1.22266H9.84563C10.1218 1.22266 10.3456 1.44651 10.3456 1.72266C10.3456 1.9988 10.1218 2.22266 9.84563 2.22266H6.15332C5.87718 2.22266 5.65332 1.9988 5.65332 1.72266ZM2.02003 4.06881H1.23047C0.954326 4.06881 0.730469 3.84495 0.730469 3.56881C0.730469 3.29267 0.954326 3.06881 1.23047 3.06881H2.45821H2.4659H13.5339H13.5416H14.7689C15.0451 3.06881 15.2689 3.29267 15.2689 3.56881C15.2689 3.84495 15.0451 4.06881 14.7689 4.06881H13.9797L12.7156 14.1822C12.6468 14.7327 12.1788 15.1458 11.6241 15.1458H4.37571C3.82095 15.1458 3.35301 14.7327 3.2842 14.1822L2.02003 4.06881ZM3.02781 4.06881L4.27648 14.0582C4.28274 14.1082 4.32528 14.1458 4.37571 14.1458H11.6241C11.6745 14.1458 11.717 14.1082 11.7233 14.0582L12.972 4.06881H3.02781ZM9.10693 6.62939C9.32785 6.62939 9.50693 6.80848 9.50693 7.02939V10.7217C9.50693 10.9426 9.32785 11.1217 9.10693 11.1217C8.88602 11.1217 8.70693 10.9426 8.70693 10.7217V7.02939C8.70693 6.80848 8.88602 6.62939 9.10693 6.62939ZM6.64561 6.62949C6.86652 6.62949 7.04561 6.80858 7.04561 7.02949V10.7218C7.04561 10.9427 6.86652 11.1218 6.64561 11.1218C6.42469 11.1218 6.24561 10.9427 6.24561 10.7218V7.02949C6.24561 6.80858 6.42469 6.62949 6.64561 6.62949Z" fill="#797979"/>
</svg>
