<svg width="43" height="32" viewBox="0 0 43 32" fill="none" xmlns="http://www.w3.org/2000/svg">
<path d="M21.9254 25.3245C21.3787 25.8713 20.4923 25.8713 19.9455 25.3245L12.4799 17.8589L10.9999 16.3789C9.93491 15.3139 9.33659 13.8694 9.33659 12.3633C9.33659 10.8571 9.93491 9.41264 10.9999 8.34762C12.0649 7.2826 13.5094 6.68428 15.0156 6.68428C16.3794 6.68428 17.9652 7.58882 19.0955 8.65877C19.1547 8.71484 19.208 8.78678 19.2527 8.87433C19.9781 10.2956 21.9582 10.4277 22.8659 9.11528L23.0448 8.85661L22.5514 8.5153L23.0448 8.85661C23.0828 8.80173 23.1243 8.75211 23.1688 8.70821C24.3181 7.5746 25.5041 6.68428 26.8554 6.68428C28.3616 6.68428 29.806 7.2826 30.871 8.34762C31.9361 9.41264 32.5344 10.8571 32.5344 12.3633C32.5344 13.8694 31.9361 15.3139 30.871 16.3789L21.9254 25.3245Z" stroke="#1a1a1a" stroke-width="1.2" stroke-linecap="round" stroke-linejoin="round"/>
</svg>
