<svg width="20" height="20" viewBox="0 0 20 20" fill="none" xmlns="http://www.w3.org/2000/svg">
<path d="M4.8724 14.9475C2.35369 13.5906 0.690918 11.2633 0.690918 8.61694C0.690918 4.43905 4.83632 1.05273 9.94991 1.05273C15.0635 1.05273 19.2089 4.43905 19.2089 8.61694C19.2089 12.7948 15.0635 16.1812 9.94991 16.1812C9.29206 16.1816 8.63531 16.1246 7.98646 16.0106L4.47851 19.099L4.8724 14.9475Z" stroke="#1a1a1a" stroke-linecap="round" stroke-linejoin="round"/>
<path fill-rule="evenodd" clip-rule="evenodd" d="M5.81564 10.1587C6.27232 10.1587 6.64252 9.76991 6.64252 9.2903C6.64252 8.81068 6.27232 8.42188 5.81564 8.42188C5.35897 8.42188 4.98877 8.81068 4.98877 9.2903C4.98877 9.76991 5.35897 10.1587 5.81564 10.1587ZM9.82492 10.1587C10.2816 10.1587 10.6518 9.76991 10.6518 9.2903C10.6518 8.81068 10.2816 8.42188 9.82492 8.42188C9.36825 8.42188 8.99805 8.81068 8.99805 9.2903C8.99805 9.76991 9.36825 10.1587 9.82492 10.1587ZM14.6606 9.2903C14.6606 9.76991 14.2904 10.1587 13.8337 10.1587C13.377 10.1587 13.0068 9.76991 13.0068 9.2903C13.0068 8.81068 13.377 8.42188 13.8337 8.42188C14.2904 8.42188 14.6606 8.81068 14.6606 9.2903Z" fill="#1a1a1a"/>
</svg>
