<?xml version="1.0" encoding="utf-8"?>
<!-- Generator: Adobe Illustrator 26.3.1, SVG Export Plug-In . SVG Version: 6.00 Build 0)  -->
<svg version="1.1" id="레이어_1" xmlns="http://www.w3.org/2000/svg" xmlns:xlink="http://www.w3.org/1999/xlink" x="0px"
	 y="0px" viewBox="0 0 80 17" style="enable-background:new 0 0 80 17;" xml:space="preserve">
<style type="text/css">
	.st0{fill:#DBDFE5;}
</style>
<path class="st0" d="M7.55,1.08c0.04-0.09,0.1-0.16,0.18-0.21C7.81,0.81,7.91,0.79,8,0.79c0.1,0,0.19,0.03,0.27,0.08
	c0.08,0.05,0.14,0.13,0.18,0.21l1.83,3.99c0.04,0.08,0.09,0.14,0.16,0.19c0.07,0.05,0.15,0.08,0.23,0.09l4.29,0.55
	c0.09,0.01,0.18,0.05,0.25,0.11c0.07,0.06,0.13,0.14,0.16,0.23c0.03,0.09,0.03,0.19,0.01,0.28c-0.02,0.09-0.07,0.17-0.14,0.24
	L12.08,9.8c-0.06,0.06-0.1,0.13-0.13,0.21c-0.03,0.08-0.03,0.16-0.02,0.24l0.81,4.35c0.02,0.09,0.01,0.19-0.03,0.28
	c-0.04,0.09-0.1,0.16-0.17,0.22c-0.08,0.06-0.17,0.09-0.26,0.09c-0.1,0.01-0.19-0.02-0.27-0.06l-3.76-2.12
	C8.17,12.97,8.09,12.95,8,12.95c-0.09,0-0.17,0.02-0.25,0.06l-3.76,2.12c-0.08,0.05-0.18,0.07-0.27,0.06
	c-0.1-0.01-0.19-0.04-0.26-0.09c-0.08-0.06-0.14-0.13-0.17-0.22c-0.04-0.09-0.04-0.19-0.03-0.28l0.81-4.35
	c0.02-0.08,0.01-0.17-0.02-0.24C4.03,9.93,3.98,9.86,3.92,9.8L0.76,6.76C0.69,6.69,0.64,6.61,0.62,6.52
	C0.59,6.43,0.6,6.33,0.63,6.24c0.03-0.09,0.08-0.17,0.16-0.23c0.07-0.06,0.16-0.1,0.25-0.11l4.29-0.55
	c0.08-0.01,0.16-0.04,0.23-0.09c0.07-0.05,0.12-0.12,0.16-0.19L7.55,1.08z"/>
<path class="st0" d="M23.55,1.08c0.04-0.09,0.1-0.16,0.18-0.21c0.08-0.05,0.17-0.08,0.27-0.08c0.1,0,0.19,0.03,0.27,0.08
	c0.08,0.05,0.14,0.13,0.18,0.21l1.83,3.99c0.04,0.08,0.09,0.14,0.16,0.19c0.07,0.05,0.15,0.08,0.23,0.09l4.29,0.55
	c0.09,0.01,0.18,0.05,0.25,0.11c0.07,0.06,0.13,0.14,0.16,0.23c0.03,0.09,0.03,0.19,0.01,0.28c-0.02,0.09-0.07,0.17-0.14,0.24
	L28.08,9.8c-0.06,0.06-0.1,0.13-0.13,0.21c-0.03,0.08-0.03,0.16-0.02,0.24l0.81,4.35c0.02,0.09,0.01,0.19-0.03,0.28
	s-0.1,0.16-0.17,0.22c-0.08,0.06-0.17,0.09-0.26,0.09c-0.1,0.01-0.19-0.02-0.27-0.06l-3.76-2.12c-0.07-0.04-0.16-0.06-0.25-0.06
	s-0.17,0.02-0.25,0.06l-3.76,2.12c-0.08,0.05-0.18,0.07-0.27,0.06c-0.1-0.01-0.19-0.04-0.26-0.09c-0.08-0.06-0.14-0.13-0.17-0.22
	c-0.04-0.09-0.04-0.19-0.03-0.28l0.81-4.35c0.02-0.08,0.01-0.17-0.02-0.24c-0.03-0.08-0.07-0.15-0.13-0.21l-3.17-3.04
	c-0.07-0.07-0.12-0.15-0.14-0.24c-0.02-0.09-0.02-0.19,0.01-0.28c0.03-0.09,0.08-0.17,0.16-0.23c0.07-0.06,0.16-0.1,0.25-0.11
	l4.29-0.55c0.08-0.01,0.16-0.04,0.23-0.09c0.07-0.05,0.12-0.12,0.16-0.19L23.55,1.08z"/>
<path class="st0" d="M39.55,1.08c0.04-0.09,0.1-0.16,0.18-0.21c0.08-0.05,0.17-0.08,0.27-0.08c0.1,0,0.19,0.03,0.27,0.08
	c0.08,0.05,0.14,0.13,0.18,0.21l1.83,3.99c0.04,0.08,0.09,0.14,0.16,0.19c0.07,0.05,0.15,0.08,0.23,0.09l4.29,0.55
	c0.09,0.01,0.18,0.05,0.25,0.11c0.07,0.06,0.13,0.14,0.16,0.23c0.03,0.09,0.03,0.19,0.01,0.28s-0.07,0.17-0.14,0.24L44.08,9.8
	c-0.06,0.06-0.1,0.13-0.13,0.21c-0.03,0.08-0.03,0.16-0.02,0.24l0.81,4.35c0.02,0.09,0.01,0.19-0.03,0.28
	c-0.04,0.09-0.1,0.16-0.17,0.22c-0.08,0.06-0.17,0.09-0.26,0.09c-0.1,0.01-0.19-0.02-0.27-0.06l-3.76-2.12
	c-0.07-0.04-0.16-0.06-0.25-0.06c-0.09,0-0.17,0.02-0.25,0.06l-3.76,2.12c-0.08,0.05-0.18,0.07-0.27,0.06
	c-0.1-0.01-0.19-0.04-0.26-0.09c-0.08-0.06-0.14-0.13-0.17-0.22c-0.04-0.09-0.04-0.19-0.03-0.28l0.81-4.35
	c0.02-0.08,0.01-0.17-0.02-0.24c-0.03-0.08-0.07-0.15-0.13-0.21l-3.17-3.04c-0.07-0.07-0.12-0.15-0.14-0.24
	c-0.02-0.09-0.02-0.19,0.01-0.28c0.03-0.09,0.08-0.17,0.16-0.23c0.07-0.06,0.16-0.1,0.25-0.11l4.29-0.55
	c0.08-0.01,0.16-0.04,0.23-0.09c0.07-0.05,0.12-0.12,0.16-0.19L39.55,1.08z"/>
<path class="st0" d="M55.55,1.08c0.04-0.09,0.1-0.16,0.18-0.21c0.08-0.05,0.17-0.08,0.27-0.08c0.1,0,0.19,0.03,0.27,0.08
	c0.08,0.05,0.14,0.13,0.18,0.21l1.83,3.99c0.04,0.08,0.09,0.14,0.16,0.19c0.07,0.05,0.15,0.08,0.23,0.09l4.29,0.55
	c0.09,0.01,0.18,0.05,0.25,0.11c0.07,0.06,0.13,0.14,0.16,0.23c0.03,0.09,0.03,0.19,0.01,0.28s-0.07,0.17-0.14,0.24L60.08,9.8
	c-0.06,0.06-0.1,0.13-0.13,0.21c-0.03,0.08-0.03,0.16-0.02,0.24l0.81,4.35c0.02,0.09,0.01,0.19-0.03,0.28
	c-0.04,0.09-0.1,0.16-0.17,0.22c-0.08,0.06-0.17,0.09-0.26,0.09c-0.1,0.01-0.19-0.02-0.27-0.06l-3.76-2.12
	c-0.07-0.04-0.16-0.06-0.25-0.06c-0.09,0-0.17,0.02-0.25,0.06l-3.76,2.12c-0.08,0.05-0.18,0.07-0.27,0.06
	c-0.1-0.01-0.19-0.04-0.26-0.09c-0.08-0.06-0.14-0.13-0.17-0.22c-0.04-0.09-0.04-0.19-0.03-0.28l0.81-4.35
	c0.02-0.08,0.01-0.17-0.02-0.24c-0.03-0.08-0.07-0.15-0.13-0.21l-3.17-3.04c-0.07-0.07-0.12-0.15-0.14-0.24
	c-0.02-0.09-0.02-0.19,0.01-0.28c0.03-0.09,0.08-0.17,0.16-0.23c0.07-0.06,0.16-0.1,0.25-0.11l4.29-0.55
	c0.08-0.01,0.16-0.04,0.23-0.09c0.07-0.05,0.12-0.12,0.16-0.19L55.55,1.08z"/>
<path class="st0" d="M71.55,1.08c0.04-0.09,0.1-0.16,0.18-0.21c0.08-0.05,0.17-0.08,0.27-0.08c0.1,0,0.19,0.03,0.27,0.08
	c0.08,0.05,0.14,0.13,0.18,0.21l1.83,3.99c0.04,0.08,0.09,0.14,0.16,0.19c0.07,0.05,0.15,0.08,0.23,0.09l4.29,0.55
	c0.09,0.01,0.18,0.05,0.25,0.11c0.07,0.06,0.13,0.14,0.16,0.23c0.03,0.09,0.03,0.19,0.01,0.28c-0.02,0.09-0.07,0.17-0.14,0.24
	L76.08,9.8c-0.06,0.06-0.1,0.13-0.13,0.21c-0.03,0.08-0.03,0.16-0.02,0.24l0.81,4.35c0.02,0.09,0.01,0.19-0.03,0.28
	s-0.1,0.16-0.17,0.22c-0.08,0.06-0.17,0.09-0.26,0.09c-0.1,0.01-0.19-0.02-0.27-0.06l-3.76-2.12c-0.07-0.04-0.16-0.06-0.25-0.06
	s-0.17,0.02-0.25,0.06l-3.76,2.12c-0.08,0.05-0.18,0.07-0.27,0.06c-0.1-0.01-0.19-0.04-0.26-0.09c-0.08-0.06-0.14-0.13-0.17-0.22
	c-0.04-0.09-0.04-0.19-0.03-0.28l0.81-4.35c0.02-0.08,0.01-0.17-0.02-0.24c-0.03-0.08-0.07-0.15-0.13-0.21l-3.17-3.04
	c-0.07-0.07-0.12-0.15-0.14-0.24c-0.02-0.09-0.02-0.19,0.01-0.28c0.03-0.09,0.08-0.17,0.16-0.23c0.07-0.06,0.16-0.1,0.25-0.11
	l4.29-0.55c0.08-0.01,0.16-0.04,0.23-0.09s0.12-0.12,0.16-0.19L71.55,1.08z"/>
</svg>
