<svg width="30" height="31" viewBox="0 0 30 31" fill="none" xmlns="http://www.w3.org/2000/svg">
<path d="M6.37457 2.95152C7.95397 1.86617 10.5097 3.08551 12.2767 2.71033C14.1069 2.32749 15.9563 0.193158 17.7673 0.530057C19.5783 0.866957 20.5432 3.5143 22.113 4.53266C23.6273 5.51464 26.4511 5.29834 27.5366 6.87181C28.6221 8.44528 27.4007 11.0103 27.7836 12.7771C28.1664 14.6071 30.301 16.4562 29.9641 18.2671C29.6271 20.0779 26.9795 21.0427 25.961 22.6123C24.9789 24.1264 25.1953 26.9499 23.6216 28.0352C22.0479 29.1206 19.4845 27.9031 17.7194 28.2764C15.8873 28.6593 14.038 30.7936 12.227 30.4586C10.4159 30.1236 9.45105 27.4725 7.88122 26.4541C6.36692 25.4721 3.54314 25.6884 2.45766 24.1149C1.37219 22.5415 2.58976 19.9784 2.21645 18.2135C1.83357 16.3816 -0.301017 14.5324 0.0359209 12.7216C0.372859 10.9108 3.02051 9.94602 4.03898 8.37637C5.01533 6.86224 4.79326 4.0407 6.37457 2.95152Z" fill="#FF5C38"/>
<path d="M10.7201 12.6061L9.62405 12.6061L9.62405 17.1661L6.37605 12.6061L4.95205 12.6061L4.95205 18.6061L6.05605 18.6061L6.05605 14.0381L9.24005 18.6061L10.7201 18.6061L10.7201 12.6061ZM15.8669 12.6061L11.6829 12.6061L11.6829 18.6061L15.8669 18.6061L15.8669 17.5341L12.7629 17.5341L12.7629 16.0621L15.6029 16.0621L15.6029 14.9821L12.7629 14.9821L12.7629 13.6701L15.8669 13.6701L15.8669 12.6061ZM25.1123 12.6061L24.0003 12.6061L22.7203 16.9421L21.4323 12.6061L20.2643 12.6061L18.8883 16.9421L17.5043 12.6061L16.3843 12.6061L18.3203 18.6061L19.3443 18.6061L20.8643 14.4381L22.1523 18.6061L23.2083 18.6061L25.1123 12.6061Z" fill="white"/>
</svg>
