<svg width="16" height="16" viewBox="0 0 16 16" fill="none" xmlns="http://www.w3.org/2000/svg">
<path d="M5.67884 5.43963L5.41009 5.72798C5.1836 5.97098 5.19606 6.35244 5.43792 6.57999L9.69749 10.5876C9.93934 10.8152 10.319 10.8027 10.5455 10.5597L10.8142 10.2713C11.0407 10.0283 11.0283 9.64686 10.7864 9.4193L6.52685 5.41167C6.28499 5.18411 5.90532 5.19664 5.67884 5.43963Z" fill="#E7342C"/>
<path d="M10.0452 6.9218C10.4848 6.9218 10.8412 6.56373 10.8412 6.12203C10.8412 5.68033 10.4848 5.32227 10.0452 5.32227C9.60553 5.32227 9.24915 5.68033 9.24915 6.12203C9.24915 6.56373 9.60553 6.9218 10.0452 6.9218Z" fill="#E7342C"/>
<path d="M10.8326 8.51445L9.40771 6.60277L10.8412 6.10547V8.51123L10.8326 8.51445Z" fill="#E7342C"/>
<path d="M6.06298 10.6816C6.5026 10.6816 6.85899 10.3235 6.85899 9.8818C6.85899 9.4401 6.5026 9.08203 6.06298 9.08203C5.62335 9.08203 5.26697 9.4401 5.26697 9.8818C5.26697 10.3235 5.62335 10.6816 6.06298 10.6816Z" fill="#E7342C"/>
<path d="M5.27554 7.49023L6.70043 9.40192L5.26697 9.89922V7.49346L5.27554 7.49023Z" fill="#E7342C"/>
<circle cx="8" cy="8" r="7" stroke="#E7342C"/>
<circle cx="8" cy="8" r="6" stroke="#E7342C" stroke-opacity="0.6" stroke-width="0.5"/>
</svg>
