<svg width="238" height="228" viewBox="0 0 238 228" fill="none" xmlns="http://www.w3.org/2000/svg">
<rect width="238" height="228" rx="10" fill="black" fill-opacity="0.6"/>
<path fill-rule="evenodd" clip-rule="evenodd" d="M82.2177 65.0693C82.7096 64.585 82.7096 63.7997 82.2177 63.3154C81.7257 62.8311 80.9281 62.8311 80.4362 63.3154L73.1094 70.5288L72.3634 71.2632C72.2838 71.3416 72.2838 71.4699 72.3634 71.5482L73.0931 72.2666C73.1167 72.2918 73.1413 72.3161 73.1669 72.3393L80.5181 79.5768C81.0101 80.0611 81.8077 80.0611 82.2996 79.5768C82.7916 79.0924 82.7916 78.3072 82.2996 77.8228L77.4106 73.0095C77.2831 72.8839 77.372 72.667 77.5509 72.667H100.935C101.63 72.667 102.194 72.1117 102.194 71.4267C102.194 70.7418 101.63 70.1865 100.935 70.1865H77.5082C77.3293 70.1865 77.2404 69.9695 77.3679 69.844L82.2177 65.0693Z" fill="#FF5046"/>
<path fill-rule="evenodd" clip-rule="evenodd" d="M155.977 77.8233C155.485 78.3076 155.485 79.0928 155.977 79.5772C156.469 80.0615 157.266 80.0615 157.758 79.5772L165.085 72.3638L165.831 71.6294C165.911 71.551 165.911 71.4227 165.831 71.3443L165.101 70.6259C165.078 70.6007 165.053 70.5765 165.027 70.5533L157.676 63.3158C157.184 62.8315 156.387 62.8315 155.895 63.3158C155.403 63.8002 155.403 64.5854 155.895 65.0697L160.784 69.8831C160.911 70.0086 160.822 70.2256 160.643 70.2256L137.26 70.2256C136.564 70.2256 136 70.7809 136 71.4658C136 72.1508 136.564 72.706 137.26 72.706L160.686 72.7061C160.865 72.7061 160.954 72.923 160.826 73.0486L155.977 77.8233Z" fill="#FF5046"/>
<path d="M118.766 106C115.419 105.85 112.263 104.394 109.974 101.942C106.551 98.3638 99.5646 85.9038 99.5646 85.9038C99.5646 85.9038 98.0479 83.526 99.9862 81.9841C101.925 80.4423 103.101 80.8127 104.812 82.5508C106.511 84.2699 108.584 87.0973 109.855 88.558V65.4503C109.855 65.4503 109.791 62.0221 113.15 62.0001C116.509 61.9781 116.423 65.4493 116.423 65.4493V75.1479C116.422 74.7187 116.506 74.2936 116.672 73.8979C116.838 73.5021 117.081 73.1438 117.388 72.8441C117.694 72.5444 118.058 72.3095 118.457 72.1534C118.856 71.9972 119.282 71.923 119.71 71.935C123.072 71.912 122.979 75.3852 122.979 75.3852V83.9955V78.4889C122.979 78.4889 122.913 75.0648 126.276 75.0398C129.639 75.0148 129.549 78.4889 129.549 78.4889V81.5927C129.642 79.6473 131.395 78.1275 134.054 79.0266C136.236 79.7625 135.992 82.696 135.992 82.696C135.992 82.696 135.425 94.323 135.292 95.5294C135.16 96.7359 135.187 98.3778 132.469 102.09C129.751 105.803 123.94 105.995 123.94 105.995L118.766 106Z" fill="white"/>
<path d="M54.6351 149.384V151.944C54.6351 154.52 53.0031 157.176 50.9871 158.2L51.7391 159.192C53.3071 158.344 54.6191 156.552 55.2431 154.488C55.8671 156.44 57.1631 158.104 58.6671 158.904L59.4031 157.944C57.4671 156.952 55.8351 154.424 55.8351 151.944V149.384H54.6351ZM60.6991 162.2H61.9151V154.904H64.2351V153.864H61.9151V148.168H60.6991V162.2ZM65.6914 149.352V150.344H68.9394V151.176C68.9394 153.176 67.4674 154.984 65.3874 155.72L66.0114 156.696C67.6594 156.088 68.9714 154.824 69.5794 153.224C70.2034 154.696 71.4994 155.864 73.1154 156.424L73.7234 155.464C71.6754 154.776 70.1714 153.08 70.1714 151.176V150.344H73.3714V149.352H65.6914ZM67.6754 161.864H77.0674V160.856H68.8754V157.48H67.6754V161.864ZM75.4034 158.44H76.6194V148.184H75.4034V158.44ZM89.3718 148.152V162.2H90.6038V148.152H89.3718ZM79.6758 154.12C79.6758 157.096 81.1638 159 83.2278 159C85.2918 159 86.7798 157.096 86.7798 154.12C86.7798 151.144 85.2918 149.256 83.2278 149.256C81.1638 149.256 79.6758 151.144 79.6758 154.12ZM80.8598 154.12C80.8598 151.832 81.8358 150.344 83.2278 150.344C84.6358 150.344 85.6118 151.832 85.6118 154.12C85.6118 156.424 84.6358 157.928 83.2278 157.928C81.8358 157.928 80.8598 156.424 80.8598 154.12ZM100.564 149.256C98.5317 149.256 97.0917 151.144 97.0917 154.12C97.0917 157.096 98.5317 159 100.564 159C101.908 159 102.996 158.168 103.572 156.76H107.14V162.2H108.34V148.152H107.14V151.32H103.508C102.9 150.008 101.844 149.256 100.564 149.256ZM98.2277 154.12C98.2277 151.832 99.1877 150.344 100.564 150.344C101.924 150.344 102.884 151.832 102.884 154.12C102.884 156.424 101.924 157.928 100.564 157.928C99.1877 157.928 98.2277 156.424 98.2277 154.12ZM103.844 152.312H107.14V155.752H103.892C103.988 155.256 104.052 154.712 104.052 154.12C104.052 153.464 103.988 152.856 103.844 152.312ZM121.092 148.152V153.576H118.388V154.584H121.092V162.2H122.308V148.152H121.092ZM111.3 150.472H116.372V153.368H111.332V158.808H112.388C114.932 158.808 116.724 158.728 118.82 158.36L118.724 157.336C116.708 157.72 114.964 157.8 112.548 157.8V154.36H117.556V149.464H111.3V150.472ZM128.796 149.208V150.216H131.964V150.824C131.964 152.856 130.508 154.664 128.428 155.384L129.068 156.36C130.716 155.752 131.996 154.504 132.588 152.888C133.196 154.296 134.412 155.4 135.98 155.928L136.572 154.984C134.54 154.312 133.18 152.664 133.18 150.808V150.216H136.3V149.208H128.796ZM130.284 159.576C130.284 161.192 132.028 162.152 134.876 162.152C137.708 162.152 139.468 161.192 139.468 159.576C139.468 157.96 137.708 157.016 134.876 157.016C132.028 157.016 130.284 157.96 130.284 159.576ZM131.468 159.576C131.468 158.568 132.78 157.992 134.876 157.992C136.972 157.992 138.268 158.568 138.268 159.576C138.268 160.568 136.972 161.176 134.876 161.176C132.78 161.176 131.468 160.568 131.468 159.576ZM138.108 156.616H139.34V152.776H141.42V151.752H139.34V148.168H138.108V156.616ZM152.7 148.184V158.424H153.916V148.184H152.7ZM142.796 152.6C142.796 154.616 144.364 156.04 146.428 156.04C148.524 156.04 150.076 154.616 150.076 152.6C150.076 150.584 148.524 149.16 146.428 149.16C144.364 149.16 142.796 150.584 142.796 152.6ZM143.98 152.6C143.98 151.208 145.036 150.216 146.428 150.216C147.836 150.216 148.892 151.208 148.892 152.6C148.892 153.992 147.836 154.984 146.428 154.984C145.036 154.984 143.98 153.992 143.98 152.6ZM144.972 161.864H154.364V160.856H146.172V157.384H144.972V161.864ZM166.708 153.688V154.712H170.436V156.6H171.652V148.184H170.436V150.792H167.188C167.3 150.296 167.364 149.768 167.364 149.224H161.06V150.232H166.052C165.812 152.68 163.7 154.616 160.34 155.592L160.836 156.568C163.828 155.656 165.972 154.024 166.884 151.768H170.436V153.688H166.708ZM162.468 159.432C162.468 161.112 164.276 162.104 167.108 162.104C169.94 162.104 171.716 161.112 171.716 159.432C171.716 157.752 169.94 156.744 167.108 156.744C164.276 156.744 162.468 157.752 162.468 159.432ZM163.668 159.432C163.668 158.36 165.012 157.72 167.108 157.72C169.188 157.72 170.532 158.36 170.532 159.432C170.532 160.488 169.188 161.144 167.108 161.144C165.012 161.144 163.668 160.488 163.668 159.432ZM174.117 156.184V157.208H179.813V162.168H181.013V157.208H186.805V156.184H174.117ZM175.557 151.8C175.557 153.672 177.509 154.872 180.421 154.872C183.349 154.872 185.301 153.672 185.301 151.8C185.301 149.912 183.349 148.744 180.421 148.744C177.509 148.744 175.557 149.912 175.557 151.8ZM176.789 151.8C176.789 150.552 178.261 149.704 180.421 149.704C182.597 149.704 184.069 150.552 184.069 151.8C184.069 153.048 182.597 153.864 180.421 153.864C178.261 153.864 176.789 153.048 176.789 151.8ZM35.5813 173.464V174.488H38.7333V174.68C38.7333 176.6 37.2293 178.248 35.1653 178.92L35.7733 179.88C37.4213 179.336 38.7493 178.152 39.3573 176.632C39.9653 178.04 41.2133 179.128 42.8293 179.64L43.4213 178.696C41.3893 178.056 39.9493 176.472 39.9493 174.68V174.488H43.0693V173.464H35.5813ZM34.9253 182.216L35.0853 183.24C37.5013 183.24 40.8133 183.24 43.7893 182.68L43.6933 181.784C42.5093 181.96 41.2133 182.056 39.9493 182.12V179.288H38.7333V182.168C37.3573 182.216 36.0453 182.216 34.9253 182.216ZM44.6053 186.184H45.8053V179.032H48.0773V178.008H45.8053V172.152H44.6053V186.184ZM49.0697 180.184V181.208H54.7657V186.168H55.9657V181.208H61.7577V180.184H49.0697ZM50.5097 175.8C50.5097 177.672 52.4617 178.872 55.3737 178.872C58.3017 178.872 60.2537 177.672 60.2537 175.8C60.2537 173.912 58.3017 172.744 55.3737 172.744C52.4617 172.744 50.5097 173.912 50.5097 175.8ZM51.7417 175.8C51.7417 174.552 53.2137 173.704 55.3737 173.704C57.5497 173.704 59.0217 174.552 59.0217 175.8C59.0217 177.048 57.5497 177.864 55.3737 177.864C53.2137 177.864 51.7417 177.048 51.7417 175.8ZM63.0541 183.432V184.44H75.7421V183.432H69.9661V180.76H74.4941V179.768H65.8541V177.432H74.1741V173.208H64.6221V174.216H72.9581V176.456H64.6541V180.76H68.7661V183.432H63.0541ZM90.2779 172.168V186.2H91.4779V179.16H93.7179V178.136H91.4779V172.168H90.2779ZM80.5659 182.456L80.7579 183.48C83.1899 183.48 86.4859 183.448 89.5099 182.92L89.3979 182.024C88.1979 182.2 86.9019 182.296 85.6059 182.36V180.856C87.2219 180.664 88.2779 179.688 88.2779 178.296C88.2779 176.728 86.9499 175.704 84.9979 175.704C83.0459 175.704 81.7179 176.728 81.7179 178.296C81.7179 179.704 82.7899 180.664 84.4059 180.856V182.408C83.0299 182.456 81.7019 182.456 80.5659 182.456ZM80.8059 174.856H89.1899V173.88H85.6059V172.184H84.4059V173.88H80.8059V174.856ZM82.8539 178.296C82.8539 177.32 83.7019 176.648 84.9979 176.648C86.2779 176.648 87.1419 177.32 87.1419 178.296C87.1419 179.272 86.2779 179.928 84.9979 179.928C83.7019 179.928 82.8539 179.272 82.8539 178.296ZM95.3663 173.4V179.928H101.718V178.664H104.998V182.408H106.214V172.184H104.998V174.664H101.718V173.4H95.3663ZM96.5343 178.952V174.376H100.55V178.952H96.5343ZM97.2543 185.864H106.55V184.856H98.4543V181.496H97.2543V185.864ZM101.718 177.656V175.672H104.998V177.656H101.718ZM115.015 172.424C111.927 172.424 110.119 173.272 110.119 174.84C110.119 176.408 111.927 177.288 115.015 177.288C118.103 177.288 119.927 176.408 119.927 174.84C119.927 173.272 118.103 172.424 115.015 172.424ZM108.695 179.224H121.351V178.248H108.695V179.224ZM110.231 181.384H118.535V182.68H110.279V186.008H120.151V185.064H111.463V183.576H119.719V180.472H110.231V181.384ZM111.351 174.84C111.351 173.896 112.727 173.336 115.015 173.336C117.319 173.336 118.679 173.896 118.679 174.84C118.679 175.816 117.319 176.344 115.015 176.344C112.727 176.344 111.351 175.816 111.351 174.84ZM127.103 172.952V178.664H133.615V172.952H127.103ZM128.271 177.672V173.928H132.415V177.672H128.271ZM128.783 181.064H136.623V182.536H128.815V186.008H138.303V185.032H130.015V183.448H137.823V180.104H128.783V181.064ZM136.607 179.384H137.823V172.184H136.607V179.384ZM144.095 173.256C142.063 173.256 140.623 175.144 140.623 178.12C140.623 181.096 142.063 183 144.095 183C146.031 183 147.439 181.272 147.567 178.536H150.671V186.2H151.871V172.152H150.671V177.544H147.567C147.391 174.904 145.999 173.256 144.095 173.256ZM141.759 178.12C141.759 175.832 142.719 174.344 144.095 174.344C145.455 174.344 146.399 175.832 146.399 178.12C146.399 180.424 145.455 181.928 144.095 181.928C142.719 181.928 141.759 180.424 141.759 178.12ZM158.023 183.368V184.392H170.711V183.368H164.935V180.328H169.175V173.16H167.975V175.704H160.743V173.16H159.527V180.328H163.735V183.368H158.023ZM160.743 179.32V176.712H167.975V179.32H160.743ZM177.527 177.224V178.216H179.895V185.464H181.031V172.488H179.895V177.224H177.527ZM171.863 182.232L172.647 183.144C174.039 182.296 175.063 180.696 175.575 178.84C176.071 180.536 177.031 182.04 178.375 182.84L179.063 181.896C177.239 180.792 176.151 178.376 176.151 176.152V173.496H174.967V176.2C174.967 178.616 173.783 181.096 171.863 182.232ZM182.743 186.184H183.927V172.152H182.743V186.184ZM185.992 183.368V184.392H198.68V183.368H195.528V179.544C196.696 178.92 197.4 177.928 197.4 176.68C197.4 174.488 195.288 173.08 192.312 173.08C189.352 173.08 187.24 174.488 187.24 176.68C187.24 177.928 187.944 178.936 189.128 179.56V183.368H185.992ZM188.408 176.68C188.408 175.096 190.056 174.04 192.312 174.04C194.584 174.04 196.2 175.096 196.2 176.68C196.2 178.248 194.584 179.288 192.312 179.288C190.056 179.288 188.408 178.248 188.408 176.68ZM190.328 183.368V180.008C190.92 180.168 191.592 180.248 192.312 180.248C193.032 180.248 193.704 180.168 194.312 180.008V183.368H190.328ZM200.344 183.768V185H201.624V183.768H200.344Z" fill="white"/>
</svg>
