<svg width="80" height="81" viewBox="0 0 80 81" fill="none" xmlns="http://www.w3.org/2000/svg">
<rect y="0.993164" width="80" height="80.001" rx="6" fill="#F4F4F4"/>
<path d="M39.5 41.9932V33.9932H31.5C31.2348 33.9932 30.9805 33.8877 30.793 33.7002C30.6054 33.5127 30.5 33.2584 30.5 32.9932C30.5 32.7279 30.6054 32.4737 30.793 32.2861C30.9805 32.0986 31.2348 31.9932 31.5 31.9932H39.5V23.9932C39.5 23.7279 39.6054 23.4737 39.793 23.2861C39.9805 23.0986 40.2348 22.9932 40.5 22.9932C40.7652 22.9932 41.0195 23.0986 41.207 23.2861C41.3946 23.4737 41.5 23.7279 41.5 23.9932V31.9932H49.5C49.7652 31.9932 50.0195 32.0986 50.207 32.2861C50.3946 32.4737 50.5 32.7279 50.5 32.9932C50.5 33.2584 50.3946 33.5127 50.207 33.7002C50.0195 33.8877 49.7652 33.9932 49.5 33.9932H41.5V41.9932C41.5 42.2584 41.3946 42.5127 41.207 42.7002C41.0195 42.8877 40.7652 42.9932 40.5 42.9932C40.2348 42.9932 39.9805 42.8877 39.793 42.7002C39.6054 42.5127 39.5 42.2584 39.5 41.9932Z" fill="#B1B1B1"/>
<path d="M31.7767 52.0401H30.8107L28.9067 53.1041L29.3407 53.9721L30.8107 53.1741V61.8401H31.7767V52.0401ZM40.744 51.2981H39.75L36.81 62.6661H37.818L40.744 51.2981ZM48.8227 55.6661C48.2907 55.6661 47.7447 55.7921 47.2967 56.0161L47.3807 52.9781H51.4267V52.0401H46.4147L46.2887 56.9681L46.9887 57.3741C47.4507 56.9401 48.2067 56.6461 48.8507 56.6461C49.9987 56.6461 51.0067 57.5421 51.0067 58.8301C51.0067 60.0201 50.0407 60.9581 48.8507 60.9581C47.9687 60.9581 47.0587 60.4821 46.6387 59.8801L46.4707 59.6281L45.6027 60.1041C45.6727 60.2301 45.7567 60.3561 45.7987 60.4121C46.4287 61.3641 47.7167 61.9521 48.8507 61.9521C50.5587 61.9521 51.9867 60.6221 51.9867 58.8301C51.9867 57.1081 50.5307 55.6661 48.8227 55.6661Z" fill="#797979"/>
</svg>
