<svg width="15" height="15" viewBox="0 0 15 15" fill="none" xmlns="http://www.w3.org/2000/svg">
<path fill-rule="evenodd" clip-rule="evenodd" d="M1.46563 7.0264C1.46563 4.26485 3.7043 2.02617 6.46585 2.02617C9.2274 2.02617 11.4661 4.26485 11.4661 7.0264C11.4661 9.78795 9.2274 12.0266 6.46585 12.0266C3.7043 12.0266 1.46563 9.78795 1.46563 7.0264ZM6.46585 0.826172C3.04156 0.826172 0.265625 3.60211 0.265625 7.0264C0.265625 10.4507 3.04156 13.2266 6.46585 13.2266C8.1577 13.2266 9.69129 12.549 10.81 11.4503C10.8337 11.4882 10.862 11.524 10.8949 11.5569L13.8817 14.5437C14.116 14.778 14.4959 14.778 14.7302 14.5437C14.9645 14.3094 14.9645 13.9295 14.7302 13.6952L11.7434 10.7084C11.6858 10.6508 11.6195 10.6074 11.5487 10.5781C12.2529 9.57217 12.6661 8.34754 12.6661 7.0264C12.6661 3.60211 9.89015 0.826172 6.46585 0.826172Z" fill="#919191"/>
</svg>
