<svg width="16" height="14" viewBox="0 0 16 14" fill="none" xmlns="http://www.w3.org/2000/svg">
<path d="M11.9988 13.5007H2.86433C2.65199 13.5007 2.46718 13.3534 2.41737 13.1436L1.06732 7.37451C1.00833 7.12489 1.16169 6.87395 1.40811 6.81553C1.65452 6.75578 1.90225 6.91112 1.95992 7.16074L3.22609 12.5726H11.6357L12.9019 7.16074C12.9609 6.91112 13.2073 6.75578 13.4537 6.81553C13.7001 6.87528 13.8535 7.12489 13.7945 7.37451L12.4445 13.1436C12.396 13.3534 12.2111 13.5007 11.9975 13.5007H11.9988Z" fill="#E7342C"/>
<path d="M4.6408 8.88491C4.58837 8.88491 4.53594 8.87561 4.48351 8.85703L1.35742 7.70321C1.11887 7.61558 0.99697 7.3487 1.08348 7.10705C1.16999 6.8654 1.43344 6.74192 1.672 6.82955L4.46516 7.85988L7.07614 4.03464C7.22032 3.82352 7.50606 3.77041 7.71446 3.91647C7.92287 4.06252 7.9753 4.35197 7.83112 4.56308L5.0196 8.68309C4.93178 8.81188 4.78891 8.88358 4.64211 8.88358L4.6408 8.88491Z" fill="#E7342C"/>
<path d="M10.2438 8.88578C10.0957 8.88578 9.95286 8.81275 9.86504 8.68396L7.07449 4.56395C6.93162 4.35284 6.98405 4.06339 7.19377 3.91733C7.40218 3.77261 7.68792 3.82572 7.8321 4.03816L10.4221 7.86075L13.214 6.83042C13.4525 6.74279 13.716 6.86627 13.8025 7.10792C13.889 7.34957 13.7671 7.61645 13.5285 7.70408L10.4024 8.85789C10.3513 8.87648 10.2976 8.88578 10.2452 8.88578H10.2438Z" fill="#E7342C"/>
<path d="M7.45252 3.51399C6.63201 3.51399 5.96484 2.83817 5.96484 2.007C5.96484 1.17582 6.63201 0.5 7.45252 0.5C8.27304 0.5 8.9402 1.17582 8.9402 2.007C8.9402 2.83817 8.27304 3.51399 7.45252 3.51399V3.51399ZM7.45252 1.29665C7.06586 1.29665 6.75128 1.61531 6.75128 2.007C6.75128 2.39868 7.06586 2.71734 7.45252 2.71734C7.83919 2.71734 8.15376 2.39868 8.15376 2.007C8.15376 1.61531 7.83919 1.29665 7.45252 1.29665Z" fill="#E7342C"/>
<path d="M13.8876 6.57358C13.2728 6.57358 12.7734 6.06771 12.7734 5.44499C12.7734 4.82228 13.2728 4.31641 13.8876 4.31641C14.5023 4.31641 15.0017 4.82228 15.0017 5.44499C15.0017 6.06771 14.5023 6.57358 13.8876 6.57358ZM13.8876 5.11306C13.7067 5.11306 13.5599 5.26176 13.5599 5.44499C13.5599 5.62822 13.7067 5.77693 13.8876 5.77693C14.0684 5.77693 14.2152 5.62822 14.2152 5.44499C14.2152 5.26176 14.0684 5.11306 13.8876 5.11306Z" fill="#E7342C"/>
<path d="M1.11412 6.57358C0.499388 6.57358 0 6.06771 0 5.44499C0 4.82228 0.499388 4.31641 1.11412 4.31641C1.72885 4.31641 2.22824 4.82228 2.22824 5.44499C2.22824 6.06771 1.72885 6.57358 1.11412 6.57358ZM1.11412 5.11306C0.93324 5.11306 0.786438 5.26176 0.786438 5.44499C0.786438 5.62822 0.93324 5.77693 1.11412 5.77693C1.295 5.77693 1.4418 5.62822 1.4418 5.44499C1.4418 5.26176 1.295 5.11306 1.11412 5.11306Z" fill="#E7342C"/>
<path d="M12.3471 11.9451H2.51529C2.29771 11.9451 2.12207 11.7672 2.12207 11.5468C2.12207 11.3264 2.29771 11.1484 2.51529 11.1484H12.3471C12.5647 11.1484 12.7403 11.3264 12.7403 11.5468C12.7403 11.7672 12.5647 11.9451 12.3471 11.9451Z" fill="#E7342C"/>
</svg>
