<svg width="64" height="23" viewBox="0 0 64 23" fill="none" xmlns="http://www.w3.org/2000/svg">
<path fill-rule="evenodd" clip-rule="evenodd" d="M13.408 14.728C13.716 13.832 13.884 12.628 13.968 11.368H18.28C18.168 14 17.552 16.324 16.488 18.2L20.268 22.54H15.088L13.744 21C12.344 22.288 10.356 22.932 8.004 22.932C3.412 22.932 0.5 20.356 0.5 16.408C0.5 13.804 1.76 11.676 4.336 10.276C2.74 8.568 2.096 6.916 2.096 5.236C2.096 1.988 4.616 0 8.256 0C11.896 0 14.416 1.988 14.416 5.236V6.048H10.076V5.32C10.076 4.172 9.432 3.5 8.256 3.5C7.108 3.5 6.436 4.172 6.436 5.32C6.436 6.244 6.772 7.084 7.836 8.316L13.408 14.728ZM6.66 12.964C5.428 13.888 4.896 15.036 4.896 16.352C4.896 18.424 6.38 19.376 8.2 19.376C9.46 19.376 10.552 19.012 11.308 18.228L6.66 12.964ZM36.2638 14.324L33.1238 22.604H30.2238L27.0838 14.324V22.604H23.4038V6.64404H27.0638L31.6838 18.764L36.2638 6.64404H39.9438V22.604H36.2638V14.324ZM48.8152 22.604C48.6752 22.304 48.5752 21.804 48.5552 21.264C48.1552 22.184 47.0552 22.884 45.4552 22.884C43.1752 22.884 41.6152 21.504 41.6152 19.284C41.6152 17.044 43.1352 15.664 45.4552 15.664C46.9152 15.664 48.1152 16.244 48.5552 17.264V15.024C48.5552 14.144 48.0752 13.504 47.1352 13.504C46.2352 13.504 45.7752 14.004 45.6952 14.784H42.1552C42.2552 12.524 43.8952 10.924 47.1352 10.924C50.3952 10.924 52.1152 12.644 52.1152 15.024V20.884C52.1152 21.524 52.2352 22.224 52.4352 22.604H48.8152ZM45.1752 19.284C45.1752 20.144 45.7552 20.604 46.8752 20.604C47.9752 20.604 48.5552 20.144 48.5552 19.284C48.5552 18.424 48.0152 17.944 46.8752 17.944C45.7352 17.944 45.1752 18.424 45.1752 19.284ZM57.7037 22.604V6.64404H54.1637V22.604H57.7037ZM63.2701 6.64404V22.604H59.7301V6.64404H63.2701Z" fill="url(#paint0_linear_704_21396)"/>
<defs>
<linearGradient id="paint0_linear_704_21396" x1="0.323975" y1="0.483888" x2="67.8239" y2="25.4838" gradientUnits="userSpaceOnUse">
<stop stop-color="#FF5C38"/>
<stop offset="1" stop-color="#FDAD36"/>
</linearGradient>
</defs>
</svg>
