<svg width="82" height="15" viewBox="0 0 82 15" fill="none" xmlns="http://www.w3.org/2000/svg">
<g clip-path="url(#clip0_2282_39803)">
<path d="M27.5256 4.90144C27.1383 3.62989 26.1701 2.83001 24.6811 2.83001C23.2869 2.83001 22.3015 3.31907 22.3015 4.37543C22.3015 5.37094 22.9405 5.66438 25.6881 6.25125C28.61 6.85768 30.2732 7.89231 30.2732 10.4137C30.2732 13.3263 28.2033 14.8109 24.6618 14.8109C22.2326 14.8109 20.578 13.9827 19.5474 12.4547C19.0052 11.6505 19.3559 10.5441 20.2639 10.2224C20.9051 9.99418 21.6086 10.2528 21.9809 10.8267C22.6177 11.8135 23.5515 12.2286 24.8167 12.2286C26.4412 12.2286 27.3319 11.7005 27.3319 10.6267C27.3319 9.55294 26.4993 9.21821 23.771 8.57483C20.7329 7.87058 19.3602 6.79682 19.3602 4.6254C19.3602 1.77146 21.3332 0.267334 24.7586 0.267334C27.8935 0.267334 29.7116 2.00621 30.2732 3.96245L27.5256 4.90144Z" fill="#414141"/>
<path d="M42.8515 1.69538C42.8515 2.39745 42.2878 2.96694 41.5928 2.96694H38.4192V14.6565H35.536V2.96476H31.1058V0.423828H41.5928C42.2878 0.423828 42.8515 0.993311 42.8515 1.69538Z" fill="#414141"/>
<path d="M43.3765 7.54022C43.3765 2.16491 46.5501 0.269531 49.8765 0.269531C53.2029 0.269531 56.3786 2.16491 56.3786 7.54022C56.3786 12.9155 53.2244 14.8109 49.8765 14.8109C46.5286 14.8109 43.3765 12.896 43.3765 7.54022ZM53.4568 7.54022C53.4568 4.64716 52.297 2.86915 49.8765 2.86915C47.4559 2.86915 46.3156 4.64716 46.3156 7.54022C46.3156 10.4333 47.4559 12.1917 49.8765 12.1917C52.297 12.1917 53.4568 10.4137 53.4568 7.54022Z" fill="#414141"/>
<path d="M70.1576 14.6544H66.984L64.2751 9.2595H61.4501V14.6544H58.5669V1.93013C58.5669 1.09764 59.2339 0.423828 60.058 0.423828H64.2558C67.0615 0.423828 69.6154 1.55627 69.6154 4.84058C69.6154 6.91202 68.6106 8.12488 67.1583 8.73132L70.1576 14.6544ZM61.4501 2.96476V6.71857H64.2558C65.764 6.71857 66.6742 6.11213 66.6742 4.84275C66.6742 3.57337 65.764 2.96694 64.2558 2.96694H61.4501V2.96476Z" fill="#414141"/>
<path d="M74.9966 12.1135H82V14.6544H72.1134V1.93016C72.1134 1.09984 72.7804 0.426025 73.6023 0.426025H81.6128V2.96479H74.9966V6.20997H80.8791V8.73134H74.9966V12.1135Z" fill="#414141"/>
<path d="M1.04986 0.65167L0.467473 1.27995C-0.186379 1.98532 -0.150402 3.0926 0.547831 3.75313L11.934 14.5246C12.6323 15.1851 13.7283 15.1488 14.3822 14.4434L14.9646 13.8151C15.6184 13.1098 15.5825 12.0025 14.8842 11.3419L3.49803 0.57049C2.7998 -0.0900436 1.70372 -0.0536983 1.04986 0.65167Z" fill="#E7342C"/>
<path d="M4.27525 11.1594H4.2774L0.0193645 6.89258L0 6.8991V12.6504H0.00215161C0.0279709 13.9524 1.08011 15.0001 2.37538 15.0001C3.67065 15.0001 4.75075 13.9263 4.75075 12.6004C4.75075 12.0592 4.57217 11.5615 4.2731 11.1615L4.27525 11.1594Z" fill="#E7342C"/>
<path d="M11.1562 3.84075H11.154L15.4121 8.10752L15.4314 8.101V2.34966H15.4293C15.4034 1.04767 14.3513 0 13.056 0C11.7608 0 10.6807 1.07376 10.6807 2.39965C10.6807 2.94088 10.8592 3.43863 11.1583 3.83857L11.1562 3.84075Z" fill="#E7342C"/>
</g>
<defs>
<clipPath id="clip0_2282_39803">
<rect width="82" height="15" fill="white"/>
</clipPath>
</defs>
</svg>
