<svg width="82" height="15" viewBox="0 0 82 15" fill="none" xmlns="http://www.w3.org/2000/svg">
<g clip-path="url(#clip0_3347_48119)">
<path d="M4.14843 11.2612L4.11725 11.2251L0.016627 7.04468L0 7.05105L0.0103918 12.671V12.7029C0.0374107 14.0659 1.2013 15.1423 2.57302 14.9831C3.58727 14.8642 4.42069 14.0447 4.57241 13.015C4.6701 12.3483 4.50175 11.7411 4.14843 11.2612Z" fill="#E7342C"/>
<path d="M10.5103 3.73877L10.7452 4.03176C10.8013 4.10183 10.8595 4.16765 10.9218 4.22922L14.6296 7.99779L14.6463 7.99142V2.29503C14.6192 0.864036 13.3369 -0.252737 11.8758 0.0487493C10.926 0.244078 10.2235 1.0169 10.0842 1.99567C9.99071 2.65809 10.1591 3.26106 10.5103 3.73665V3.73877Z" fill="#E7342C"/>
<path d="M1.52212 0.521046L0.480152 1.58546C-0.128589 2.20731 -0.128589 3.21554 0.480152 3.83739L10.9366 14.5191C11.5453 15.1409 12.5323 15.1409 13.141 14.5191L14.183 13.4546C14.7917 12.8328 14.7917 11.8246 14.183 11.2027L3.72656 0.521046C3.11782 -0.100808 2.13086 -0.100808 1.52212 0.521046Z" fill="#E7342C"/>
<path d="M27.6569 4.83847C27.2703 3.55609 26.3059 2.7493 24.8199 2.7493C23.4295 2.7493 22.4464 3.24186 22.4464 4.30768C22.4464 5.31193 23.0845 5.60917 25.8238 6.20152C28.7376 6.81299 30.3982 7.85758 30.3982 10.4011C30.3982 13.3395 28.3323 14.8385 24.8012 14.8385C22.3778 14.8385 20.7276 14.0041 19.6988 12.4627C19.1584 11.6516 19.5076 10.537 20.4138 10.21C21.0539 9.98072 21.7543 10.2397 22.1263 10.8194C22.7602 11.813 23.6934 12.2355 24.955 12.2355C26.5761 12.2355 27.4636 11.7026 27.4636 10.6198C27.4636 9.53698 26.6343 9.1994 23.9117 8.54972C20.8814 7.84059 19.5097 6.75566 19.5097 4.56671C19.5097 1.68772 21.4779 0.169678 24.8947 0.169678C28.0227 0.169678 29.835 1.92339 30.3962 3.89579L27.6548 4.84271L27.6569 4.83847Z" fill="#414141"/>
<path d="M42.9454 1.60513C42.9454 2.31214 42.3842 2.88751 41.6901 2.88751H38.5247V14.6794H35.6482V2.88539H31.2275V0.322754H41.6901C42.3821 0.322754 42.9454 0.896002 42.9454 1.60513Z" fill="#414141"/>
<path d="M43.4691 7.50098C43.4691 2.07848 46.6345 0.165527 49.9536 0.165527C53.2728 0.165527 56.4402 2.07848 56.4402 7.50098C56.4402 12.9235 53.2936 14.8364 49.9536 14.8364C46.6137 14.8364 43.4691 12.9044 43.4691 7.50098ZM53.5243 7.50098C53.5243 4.58166 52.3666 2.78761 49.9536 2.78761C47.5406 2.78761 46.4017 4.58166 46.4017 7.50098C46.4017 10.4203 47.5406 12.1931 49.9536 12.1931C52.3666 12.1931 53.5243 10.3991 53.5243 7.50098Z" fill="#414141"/>
<path d="M70.1845 14.6773H67.0192L64.3173 9.2357H61.499V14.6773H58.6226V1.8408C58.6226 1.00216 59.2876 0.322754 60.1086 0.322754H64.2965C67.0961 0.322754 69.6421 1.46713 69.6421 4.77923C69.6421 6.8684 68.6382 8.09133 67.1917 8.7028L70.1825 14.6773H70.1845ZM61.499 2.88539V6.67095H64.2986C65.8033 6.67095 66.7116 6.05948 66.7116 4.77711C66.7116 3.49473 65.8054 2.88326 64.2986 2.88326H61.499V2.88539Z" fill="#414141"/>
<path d="M75.0126 12.1147H82.0001V14.6773H72.1361V1.8408C72.1361 1.00216 72.8012 0.322754 73.6221 0.322754H81.6135V2.88539H75.0126V6.15927H80.8798V8.7028H75.0126V12.1147Z" fill="#414141"/>
</g>
<defs>
<clipPath id="clip0_3347_48119">
<rect width="82" height="15" fill="white"/>
</clipPath>
</defs>
</svg>
