<svg width="13" height="12" viewBox="0 0 13 12" fill="none" xmlns="http://www.w3.org/2000/svg">
<path fill-rule="evenodd" clip-rule="evenodd" d="M8.33331 5.41666C8.33331 7.4417 6.6917 9.08331 4.66666 9.08331C2.64162 9.08331 1 7.4417 1 5.41666C1 3.39162 2.64162 1.75 4.66666 1.75C6.6917 1.75 8.33331 3.39162 8.33331 5.41666ZM7.98876 8.69406C7.14256 9.55172 5.96669 10.0833 4.66666 10.0833C2.08933 10.0833 0 7.99398 0 5.41666C0 2.83933 2.08933 0.75 4.66666 0.75C7.24398 0.75 9.33331 2.83933 9.33331 5.41666C9.33331 6.33383 9.06872 7.18921 8.61171 7.91062L11.9607 10.3463C12.1841 10.5087 12.2334 10.8214 12.071 11.0447C11.9086 11.2681 11.5959 11.3174 11.3726 11.155L7.98876 8.69406Z" fill="#1a1a1a"/>
</svg>
