<svg width="42" height="42" viewBox="0 0 42 42" fill="none" xmlns="http://www.w3.org/2000/svg">
<circle cx="21" cy="21" r="21" fill="#FD531E"/>
<path d="M15.297 25.132H13.845V21.256H9.51298V25.132H8.07298V16.204H9.51298V19.84H13.845V16.204H15.297V25.132ZM21.3352 21.424C21.2952 21.008 21.1352 20.676 20.8552 20.428C20.5832 20.18 20.2152 20.056 19.7512 20.056C19.2872 20.056 18.8992 20.172 18.5872 20.404C18.2752 20.636 18.0872 20.976 18.0232 21.424H21.3352ZM16.6792 21.964C16.6792 21.372 16.7992 20.836 17.0392 20.356C17.2872 19.868 17.6392 19.48 18.0952 19.192C18.5592 18.904 19.1072 18.76 19.7392 18.76C20.5792 18.76 21.1952 18.96 21.5872 19.36C21.9792 19.76 22.2472 20.132 22.3912 20.476C22.5192 20.796 22.6032 21.148 22.6432 21.532C22.6912 21.908 22.7072 22.26 22.6912 22.588H18.0232C18.1192 22.988 18.3112 23.304 18.5992 23.536C18.8872 23.76 19.2712 23.872 19.7512 23.872C20.1432 23.872 20.4552 23.808 20.6872 23.68C20.9272 23.544 21.0872 23.38 21.1672 23.188L22.4272 23.752C22.2352 24.144 21.9112 24.476 21.4552 24.748C20.9992 25.02 20.4272 25.156 19.7392 25.156C19.1072 25.156 18.5592 25.012 18.0952 24.724C17.6392 24.436 17.2872 24.052 17.0392 23.572C16.7992 23.084 16.6792 22.548 16.6792 21.964ZM25.2002 15.952V25.156H23.7722V15.952H25.2002ZM28.0244 15.952V25.156H26.5964V15.952H28.0244ZM32.1382 23.812C32.6662 23.812 33.0902 23.64 33.4102 23.296C33.7382 22.944 33.9022 22.5 33.9022 21.964C33.9022 21.436 33.7382 21 33.4102 20.656C33.0902 20.304 32.6662 20.128 32.1382 20.128C31.6102 20.128 31.1822 20.304 30.8542 20.656C30.5342 21 30.3742 21.436 30.3742 21.964C30.3742 22.5 30.5342 22.944 30.8542 23.296C31.1822 23.64 31.6102 23.812 32.1382 23.812ZM29.0542 21.964C29.0542 21.388 29.1822 20.856 29.4382 20.368C29.7022 19.872 30.0662 19.48 30.5302 19.192C31.0022 18.904 31.5382 18.76 32.1382 18.76C32.7622 18.76 33.3062 18.904 33.7702 19.192C34.2422 19.48 34.6022 19.868 34.8502 20.356C35.0982 20.844 35.2222 21.38 35.2222 21.964C35.2222 22.548 35.0982 23.084 34.8502 23.572C34.6022 24.06 34.2422 24.448 33.7702 24.736C33.3062 25.024 32.7622 25.168 32.1382 25.168C31.5382 25.168 31.0022 25.024 30.5302 24.736C30.0662 24.448 29.7022 24.06 29.4382 23.572C29.1822 23.076 29.0542 22.54 29.0542 21.964Z" fill="white"/>
</svg>
