<?xml version="1.0" encoding="utf-8"?>
<!-- Generator: Adobe Illustrator 26.2.1, SVG Export Plug-In . SVG Version: 6.00 Build 0)  -->
<svg version="1.1" id="레이어_1" xmlns="http://www.w3.org/2000/svg" xmlns:xlink="http://www.w3.org/1999/xlink" x="0px"
	 y="0px" viewBox="0 0 328 116" style="enable-background:new 0 0 328 116;" xml:space="preserve">
<style type="text/css">
	.st0{clip-path:url(#SVGID_00000011018718489335197480000008346535575887262127_);}
	.st1{fill-rule:evenodd;clip-rule:evenodd;fill:#FFFFFF;}
	.st2{fill-rule:evenodd;clip-rule:evenodd;fill:#FFFFFF;filter:url(#Adobe_OpacityMaskFilter);}
	.st3{mask:url(#path-1-inside-1_1036_9799_00000047771021901589744000000007950163943370374322_);fill:#FF5C38;}
	.st4{fill:#FF5C38;}
</style>
<g>
	<defs>
		<rect id="SVGID_1_" y="1" width="328" height="115"/>
	</defs>
	<clipPath id="SVGID_00000156584956101318245830000001885441700337514127_">
		<use xlink:href="#SVGID_1_"  style="overflow:visible;"/>
	</clipPath>
	<g style="clip-path:url(#SVGID_00000156584956101318245830000001885441700337514127_);">
		<path class="st1" d="M6,1C2.7,1,0,3.7,0,7v39c7.1,0,12.8,5.8,12.8,13c0,7.2-5.7,13-12.8,13v37c0,3.3,2.7,6,6,6h312
			c3.3,0,6-2.7,6-6V7c0-3.3-2.7-6-6-6H6z"/>
		<defs>
			<filter id="Adobe_OpacityMaskFilter" filterUnits="userSpaceOnUse" x="-1" y="0" width="326" height="116">
				<feColorMatrix  type="matrix" values="1 0 0 0 0  0 1 0 0 0  0 0 1 0 0  0 0 0 1 0"/>
			</filter>
		</defs>
		
			<mask maskUnits="userSpaceOnUse" x="-1" y="0" width="326" height="116" id="path-1-inside-1_1036_9799_00000047771021901589744000000007950163943370374322_">
			<path class="st2" d="M6,1C2.7,1,0,3.7,0,7v39c7.1,0,12.8,5.8,12.8,13c0,7.2-5.7,13-12.8,13v37c0,3.3,2.7,6,6,6h312
				c3.3,0,6-2.7,6-6V7c0-3.3-2.7-6-6-6H6z"/>
		</mask>
		<path class="st3" d="M0,46h-1v1h1L0,46z M0,72l0-1l-1,0v1H0z M1,7c0-2.8,2.2-5,5-5V0C2.1,0-1,3.1-1,7H1z M1,46V7h-2v39H1z M0,47
			c6.5,0,11.8,5.4,11.8,12h2c0-7.7-6.2-14-13.8-14L0,47z M11.8,59c0,6.6-5.3,12-11.8,12l0,2c7.7,0,13.8-6.3,13.8-14H11.8z M1,109V72
			h-2v37H1z M6,114c-2.8,0-5-2.2-5-5h-2c0,3.9,3.1,7,7,7V114z M318,114H6v2h312V114z M323,109c0,2.8-2.2,5-5,5v2c3.9,0,7-3.1,7-7
			H323z M323,7v102h2V7H323z M318,2c2.8,0,5,2.2,5,5h2c0-3.9-3.1-7-7-7V2z M6,2h312V0H6V2z"/>
		<path class="st4" d="M284,2h34c3.3,0,6,2.7,6,6v101c0,3.3-2.7,6-6,6h-34V2z"/>
	</g>
</g>
<g>
	<path class="st1" d="M304,68.3c5.4,0,9.8-4.4,9.8-9.8c0-5.4-4.4-9.8-9.8-9.8c-5.4,0-9.8,4.4-9.8,9.8
		C294.2,63.9,298.6,68.3,304,68.3z M312,58.5c0,4.4-3.6,8-8,8c-4.4,0-8-3.6-8-8c0-4.4,3.6-8,8-8C308.4,50.5,312,54.1,312,58.5z
		 M308.1,56.5c0.4-0.4,0.4-0.9,0-1.3c-0.4-0.4-0.9-0.4-1.3,0l-4.2,4.2l-1.9-1.7c-0.4-0.3-0.9-0.3-1.3,0c-0.3,0.4-0.3,0.9,0,1.3
		l2.5,2.3l0.6,0.6l0.6-0.6L308.1,56.5z"/>
</g>
</svg>
