<svg width="42" height="42" viewBox="0 0 42 42" fill="none" xmlns="http://www.w3.org/2000/svg">
<circle cx="21" cy="21" r="21" fill="#FF5C38"/>
<path d="M15.3497 16.204H13.8977V19.84H9.56572V16.204H8.12572V25.132H9.56572V21.256H13.8977V25.132H15.3497V16.204ZM21.4468 21.268H18.1468C18.4468 20.5 18.9628 20.056 19.8508 20.056C20.6188 20.056 21.1228 20.476 21.4468 21.268ZM16.7788 21.964C16.7788 23.692 17.8828 25.156 19.8388 25.156C21.9028 25.156 22.4788 23.74 22.4788 23.74L21.2188 23.188C21.2188 23.188 20.9908 23.872 19.8508 23.872C18.8668 23.872 18.3268 23.296 18.1468 22.516H22.7908C22.7908 22.516 22.9588 21.352 22.5148 20.476C22.4908 20.416 21.9268 18.76 19.8388 18.76C17.8828 18.76 16.7788 20.224 16.7788 21.964ZM23.8718 15.952V25.156H25.2998V15.952H23.8718ZM26.696 15.952V25.156H28.124V15.952H26.696ZM32.1658 23.812C31.0858 23.812 30.4738 23.02 30.4738 21.964C30.4738 20.92 31.0858 20.128 32.1658 20.128C33.2458 20.128 33.8578 20.92 33.8578 21.964C33.8578 23.02 33.2458 23.812 32.1658 23.812ZM29.1538 21.964C29.1538 23.692 30.3058 25.168 32.1658 25.168C34.0378 25.168 35.1778 23.692 35.1778 21.964C35.1778 20.236 34.0378 18.76 32.1658 18.76C30.3058 18.76 29.1538 20.236 29.1538 21.964Z" fill="white"/>
</svg>
