<svg width="140" height="140" viewBox="0 0 140 140" fill="none" xmlns="http://www.w3.org/2000/svg">
<circle opacity="0.6" cx="70" cy="70" r="70" fill="#1A1A1A"/>
<path d="M69.5608 68.4882C68.975 69.074 68.0252 69.074 67.4395 68.4882L56.6268 57.6756L54.589 55.6378C53.0614 54.1102 52.2032 52.0383 52.2032 49.8779C52.2032 47.7176 53.0614 45.6457 54.589 44.1181C56.1166 42.5905 58.1885 41.7323 60.3489 41.7323C62.3517 41.7323 64.6169 43.0473 66.1993 44.5484C66.3053 44.6489 66.3954 44.7726 66.4679 44.9147L66.5329 45.0419C67.3928 46.7266 69.7397 46.8831 70.8157 45.3275L71.1536 44.839C71.2052 44.7643 71.2625 44.6957 71.3249 44.634C72.915 43.0623 74.6384 41.7323 76.6513 41.7323C78.8117 41.7323 80.8836 42.5905 82.4112 44.1181C83.9388 45.6457 84.797 47.7176 84.797 49.8779C84.797 52.0383 83.9388 54.1102 82.4112 55.6378L69.5608 68.4882Z" stroke="white" stroke-linecap="round" stroke-linejoin="round"/>
<path d="M47.8047 82.892H46.7827L43.2127 89.402L39.6007 82.892H38.5927V93H39.6007V84.992L42.7927 90.76H43.6327L46.7967 84.992V93H47.8047V82.892ZM58.7053 82.892H57.5293L54.1833 88.002L50.8513 82.892H49.6613L53.6793 89.052V93H54.6873V89.052L58.7053 82.892ZM60.5578 82.626V83.508H62.1118V84.082C62.1118 85.23 61.5378 86.854 60.1518 87.596L60.7118 88.38C61.6778 87.862 62.2798 86.924 62.6018 85.93C62.8678 86.924 63.3998 87.918 64.3658 88.478C65.3318 87.932 65.8638 86.952 66.1298 85.958C66.4518 86.952 67.0538 87.862 68.0198 88.38L68.5798 87.596C67.1938 86.868 66.6198 85.286 66.6198 84.082V83.508H68.1178V82.626H64.6738V83.508H65.5978V84.082C65.5978 85.034 65.3318 86.42 64.3658 87.316C63.3998 86.392 63.1198 84.964 63.1198 84.082V83.508H64.0578V82.626H60.5578ZM62.2798 93.854H70.3578V89.64H62.2798V93.854ZM63.3298 92.986V90.494H69.3218V92.986H63.3298ZM69.2938 88.968H70.3578V81.772H69.2938V88.968ZM75.6567 83.886V84.768H81.7467V83.886H79.2267V82.136H78.1767V83.886H75.6567ZM76.0767 88.38C76.0767 90.046 77.1827 91.166 78.6947 91.166C80.2347 91.166 81.3267 90.046 81.3267 88.38C81.3267 86.756 80.2347 85.608 78.6947 85.608C77.1827 85.608 76.0767 86.756 76.0767 88.38ZM77.0427 88.38C77.0427 87.316 77.7287 86.518 78.6947 86.518C79.6747 86.518 80.3747 87.316 80.3747 88.38C80.3747 89.5 79.6747 90.284 78.6947 90.284C77.7287 90.284 77.0427 89.5 77.0427 88.38ZM82.3627 93.42H83.3847V87.834H85.0087V94.036H86.0167V81.758H85.0087V86.952H83.3847V82.066H82.3627V93.42ZM97.273 81.758V94.036H98.309V81.758H97.273ZM87.753 90.774L88.425 91.572C89.657 90.788 90.539 89.36 90.973 87.666C91.407 89.234 92.261 90.55 93.451 91.264L94.095 90.494C92.429 89.514 91.491 87.4 91.491 85.258V84.096H93.717V83.228H88.089V84.096H90.441V85.258C90.441 87.526 89.447 89.752 87.753 90.774ZM92.751 87.064H94.823V93.392H95.817V82.066H94.823V86.196H92.751V87.064Z" fill="white"/>
</svg>
