<svg width="140" height="140" viewBox="0 0 140 140" fill="none" xmlns="http://www.w3.org/2000/svg">
<circle opacity="0.6" cx="70" cy="70" r="70" fill="#1A1A1A"/>
<path d="M70.9143 55.8418C70.1333 56.6228 68.867 56.6228 68.0859 55.8418L57.2733 45.0292L55.2355 42.9913C53.6141 41.37 52.7032 39.1709 52.7032 36.8779C52.7032 34.585 53.6141 32.3859 55.2355 30.7645C56.8569 29.1431 59.0559 28.2323 61.3489 28.2323C63.5378 28.2323 65.9211 29.6468 67.5434 31.1856C67.6954 31.3297 67.8181 31.5009 67.9133 31.6874L67.9782 31.8146C68.6661 33.1624 70.5437 33.2876 71.4045 32.0431L71.7424 31.5545C71.8108 31.4556 71.8878 31.363 71.9734 31.2784C73.5661 29.7041 75.4185 28.2323 77.6513 28.2323C79.9443 28.2323 82.1434 29.1431 83.7648 30.7645C85.3861 32.3859 86.297 34.585 86.297 36.8779C86.297 39.1709 85.3861 41.37 83.7648 42.9913L70.9143 55.8418Z" fill="#FF5C38"/>
<path d="M48.8047 69.892H47.7827L44.2127 76.402L40.6007 69.892H39.5927V80H40.6007V71.992L43.7927 77.76H44.6327L47.7967 71.992V80H48.8047V69.892ZM59.7053 69.892H58.5293L55.1833 75.002L51.8513 69.892H50.6613L54.6793 76.052V80H55.6873V76.052L59.7053 69.892ZM61.5578 69.626V70.508H63.1118V71.082C63.1118 72.23 62.5378 73.854 61.1518 74.596L61.7118 75.38C62.6778 74.862 63.2798 73.924 63.6018 72.93C63.8678 73.924 64.3998 74.918 65.3658 75.478C66.3318 74.932 66.8638 73.952 67.1298 72.958C67.4518 73.952 68.0538 74.862 69.0198 75.38L69.5798 74.596C68.1938 73.868 67.6198 72.286 67.6198 71.082V70.508H69.1178V69.626H65.6738V70.508H66.5978V71.082C66.5978 72.034 66.3318 73.42 65.3658 74.316C64.3998 73.392 64.1198 71.964 64.1198 71.082V70.508H65.0578V69.626H61.5578ZM63.2798 80.854H71.3578V76.64H63.2798V80.854ZM64.3298 79.986V77.494H70.3218V79.986H64.3298ZM70.2938 75.968H71.3578V68.772H70.2938V75.968ZM76.6707 74.624V75.506H87.7307V74.624H76.6707ZM78.0007 78.81C78.0007 80.21 79.5687 80.994 82.1867 80.994C84.8047 80.994 86.3727 80.21 86.3727 78.81C86.3727 77.396 84.8047 76.598 82.1867 76.598C79.5687 76.598 78.0007 77.396 78.0007 78.81ZM78.0707 73.434H86.4287V72.566H79.1207V70.144H86.3447V69.276H78.0707V73.434ZM79.0647 78.81C79.0647 77.928 80.2547 77.438 82.1867 77.438C84.1187 77.438 85.2947 77.928 85.2947 78.81C85.2947 79.664 84.1187 80.168 82.1867 80.168C80.2547 80.168 79.0647 79.664 79.0647 78.81ZM88.893 75.52V76.402H99.995V75.52H94.955V74.204H98.819V73.364H91.371V72.034H98.567V69.094H90.307V69.934H97.517V71.236H90.335V74.204H93.905V75.52H88.893ZM90.125 78.222H97.573V80.91H98.623V77.368H90.125V78.222Z" fill="white"/>
<path d="M52.6314 98.376V108.9H53.5554V103.308H55.2834V102.528H53.5554V98.376H52.6314ZM45.9114 106.356H50.8074V99.264H49.8954V102.072H46.8234V99.264H45.9114V106.356ZM46.8234 105.6V102.792H49.8954V105.6H46.8234ZM55.9917 106.824V107.58H65.5077V106.824H61.1757V104.82H64.5717V104.076H58.0917V102.324H64.3317V99.156H57.1677V99.912H63.4197V101.592H57.1917V104.82H60.2757V106.824H55.9917ZM73.62 98.364V108.888H74.532V103.428H76.236V102.66H74.532V98.364H73.62ZM66.564 106.164L67.068 106.872C70.452 105.18 71.832 102.48 71.832 99.504H67.032V100.26H70.92C70.716 102.756 69.252 104.808 66.564 106.164ZM84.6843 98.364V108.888H85.5843V98.364H84.6843ZM77.1243 106.176L77.6043 106.908C81.0963 105.192 82.5003 102.528 82.5003 99.504H77.5923V100.26H81.5763C81.3843 102.78 79.9443 104.82 77.1243 106.176Z" fill="white"/>
<path d="M91 101.5L94 104L91 101.5ZM91 106.5L94 104L91 106.5Z" stroke="#F9F9F9" stroke-width="0.8" stroke-linecap="round" stroke-linejoin="round"/>
<rect x="39.3" y="93.3" width="60.4" height="21.4" rx="5.7" stroke="white" stroke-width="0.6"/>
</svg>
