<svg width="39" height="38" viewBox="0 0 39 38" fill="none" xmlns="http://www.w3.org/2000/svg">
<g opacity="0.2">
<path d="M4.20041 2.72183L2.53747 4.50603C1.13606 6.00962 1.21317 8.36994 2.7097 9.77795L29.0664 34.5758C30.5629 35.9838 32.9121 35.9063 34.3135 34.4027L35.9765 32.6185C37.3779 31.115 37.3008 28.7546 35.8042 27.3466L9.44758 2.54879C7.95105 1.14078 5.60182 1.21825 4.20041 2.72183Z" fill="white"/>
<path d="M31.2174 11.8817C33.9377 11.8817 36.1429 9.66612 36.1429 6.93304C36.1429 4.19997 33.9377 1.98437 31.2174 1.98437C28.4972 1.98437 26.292 4.19997 26.292 6.93304C26.292 9.66612 28.4972 11.8817 31.2174 11.8817Z" fill="white"/>
<path d="M36.0902 21.7282L27.2734 9.89936L36.1432 6.82227V21.7082L36.0902 21.7282Z" fill="white"/>
<path d="M6.57778 35.1434C9.29802 35.1434 11.5032 32.9278 11.5032 30.1948C11.5032 27.4617 9.29802 25.2461 6.57778 25.2461C3.85754 25.2461 1.65234 27.4617 1.65234 30.1948C1.65234 32.9278 3.85754 35.1434 6.57778 35.1434Z" fill="white"/>
<path d="M1.70538 15.3965L10.5221 27.2253L1.65234 30.3024L1.65234 15.4165L1.70538 15.3965Z" fill="white"/>
</g>
</svg>
