<svg width="21" height="20" viewBox="0 0 21 20" fill="none" xmlns="http://www.w3.org/2000/svg">
<path d="M2.19937 1.56314L1.47418 2.33186C0.660014 3.1949 0.704812 4.54969 1.57424 5.35788L15.7522 18.5371C16.6216 19.3453 17.9865 19.3008 18.8006 18.4378L19.5258 17.6691C20.34 16.806 20.2952 15.4512 19.4258 14.643L5.24779 1.46381C4.37836 0.655625 3.01354 0.700094 2.19937 1.56314Z" fill="#E7342C"/>
<path d="M6.21607 14.4188H6.21875L0.916691 9.19824L0.892578 9.20622V16.2432H0.895257C0.927407 17.8362 2.23752 19.1181 3.85037 19.1181C5.46322 19.1181 6.80816 17.8043 6.80816 16.182C6.80816 15.5198 6.58579 14.9108 6.21339 14.4214L6.21607 14.4188Z" fill="#E7342C"/>
<path d="M14.784 5.46491H14.7813L20.0834 10.6855L20.1075 10.6775V3.64051H20.1048C20.0726 2.04749 18.7625 0.765625 17.1497 0.765625C15.5368 0.765625 14.1919 2.0794 14.1919 3.70168C14.1919 4.36389 14.4143 4.97291 14.7867 5.46225L14.784 5.46491Z" fill="#E7342C"/>
</svg>
