<svg width="19" height="19" viewBox="0 0 19 19" fill="none" xmlns="http://www.w3.org/2000/svg">
<g clip-path="url(#clip0_3215_10588)">
<path d="M5.38082 14.2638L5.34038 14.2181L0.0215664 8.92285L0 8.93092L0.013479 16.0495V16.0899C0.0485244 17.8164 1.55817 19.1799 3.3374 18.9782C4.65295 18.8276 5.73397 17.7895 5.93076 16.4852C6.05746 15.6408 5.8391 14.8716 5.38082 14.2638Z" fill="#E7342C"/>
<path d="M13.6326 4.73573L13.9372 5.10685C14.01 5.1956 14.0855 5.27897 14.1664 5.35696L18.9757 10.1305L18.9973 10.1224V2.90699C18.9622 1.0944 17.2989 -0.320182 15.4038 0.0617003C14.1718 0.309117 13.2606 1.28803 13.08 2.5278C12.9587 3.36687 13.177 4.13063 13.6326 4.73304V4.73573Z" fill="#E7342C"/>
<path d="M1.97429 0.66009L0.622779 2.00835C-0.166802 2.79603 -0.166802 4.07311 0.622779 4.86079L14.1855 18.3909C14.9751 19.1786 16.2553 19.1786 17.0449 18.3909L18.3964 17.0426C19.1859 16.255 19.1859 14.9779 18.3964 14.1902L4.83362 0.66009C4.04403 -0.127592 2.76387 -0.127592 1.97429 0.66009Z" fill="#E7342C"/>
</g>
<defs>
<clipPath id="clip0_3215_10588">
<rect width="19" height="19" fill="white"/>
</clipPath>
</defs>
</svg>
