<svg width="70" height="70" viewBox="0 0 70 70" fill="none" xmlns="http://www.w3.org/2000/svg">
<path fill-rule="evenodd" clip-rule="evenodd" d="M62.2154 57.0092C67.0837 50.9968 70 43.339 70 35C70 15.67 54.33 0 35 0C15.67 0 0 15.67 0 35C0 54.33 15.67 70 35 70C42.9339 70 50.2512 67.3601 56.1215 62.9109L63.8945 65.5731L62.2154 57.0092Z" fill="#E7342C"/>
<g clip-path="url(#clip0_3369_55124)">
<path d="M35.4383 45.9049C29.7736 45.9049 25.1654 41.3707 25.1654 35.7969C25.1654 35.7798 25.1673 35.7621 25.1673 35.745H28.8021L22.401 27.6191L16 35.745H18.9716C18.9716 35.7621 18.971 35.7798 18.971 35.7969C18.971 44.7316 26.3584 52.0005 35.4389 52.0005C39.1822 52.0005 42.7103 50.7955 45.6422 48.5162L41.8015 43.7342C39.9745 45.1547 37.7746 45.9055 35.4389 45.9055L35.4383 45.9049Z" fill="white"/>
<path d="M52.028 36.2555C52.028 36.2384 52.0287 36.2207 52.0287 36.2036C52.0287 27.2689 44.6412 20 35.5608 20C31.8174 20 28.2893 21.205 25.3574 23.4843L29.1982 28.2663C31.0252 26.8458 33.225 26.095 35.5608 26.095C41.2254 26.095 45.8336 30.6292 45.8336 36.203C45.8336 36.2201 45.8317 36.2378 45.8317 36.2548H42.1969L48.598 44.3807L54.999 36.2548H52.0274L52.028 36.2555Z" fill="white"/>
</g>
<defs>
<clipPath id="clip0_3369_55124">
<rect width="39" height="32" fill="white" transform="translate(16 20)"/>
</clipPath>
</defs>
</svg>
