<svg width="22" height="22" viewBox="0 0 22 22" fill="none" xmlns="http://www.w3.org/2000/svg">
<circle cx="11" cy="11" r="11" fill="#E84A8C"/>
<path fill-rule="evenodd" clip-rule="evenodd" d="M9.01313 6.81055C9.01313 6.5344 9.23699 6.31055 9.51313 6.31055H12.4516C12.7278 6.31055 12.9516 6.5344 12.9516 6.81055V7.25781H9.01313V6.81055ZM8.49806 8.25781L8.51313 8.25804L8.5282 8.25781H13.4366L13.4516 8.25804L13.4667 8.25781H15.5384C15.8145 8.25781 16.0384 8.48167 16.0384 8.75781V9.30557H5.92676V8.75781C5.92676 8.48167 6.15062 8.25781 6.42676 8.25781H8.49806ZM5.92676 10.1056V10.6039H16.0384V10.1056H5.92676ZM5.92676 11.4039H16.0384V14.5478C16.0384 14.8239 15.8145 15.0478 15.5384 15.0478H6.42676C6.15062 15.0478 5.92676 14.8239 5.92676 14.5478V11.4039ZM8.01313 7.25781V6.81055C8.01313 5.98212 8.6847 5.31055 9.51313 5.31055H12.4516C13.2801 5.31055 13.9516 5.98212 13.9516 6.81055V7.25781H15.5384C16.3668 7.25781 17.0384 7.92939 17.0384 8.75781V14.5478C17.0384 15.3762 16.3668 16.0478 15.5384 16.0478H6.42676C5.59833 16.0478 4.92676 15.3762 4.92676 14.5478V8.75781C4.92676 7.92939 5.59833 7.25781 6.42676 7.25781H8.01313Z" fill="white"/>
</svg>
