<svg width="32" height="32" viewBox="0 0 32 32" fill="none" xmlns="http://www.w3.org/2000/svg">
<circle cx="16" cy="16" r="16" fill="#FF5C38"/>
<path fill-rule="evenodd" clip-rule="evenodd" d="M21.0086 13.5566L15.7529 9.42718L10.4971 13.5567C10.5361 13.6439 10.5577 13.7405 10.5577 13.8421V21.3952H20.9479V13.8421C20.9479 13.7404 20.9696 13.6438 21.0086 13.5566ZM22.3479 14.6089L23.5736 15.572C23.8776 15.8108 24.3176 15.758 24.5565 15.454C24.7953 15.15 24.7425 14.71 24.4385 14.4711L16.5561 8.27779C16.0847 7.9074 15.4212 7.9074 14.9498 8.27779L7.06736 14.4711C6.76337 14.71 6.71056 15.15 6.94941 15.454C7.18826 15.758 7.62832 15.8108 7.93231 15.572L9.15774 14.6091V21.4952C9.15774 22.2132 9.73977 22.7952 10.4577 22.7952H21.0479C21.7659 22.7952 22.3479 22.2132 22.3479 21.4952V14.6089Z" fill="white"/>
</svg>
