<svg width="22" height="22" viewBox="0 0 22 22" fill="none" xmlns="http://www.w3.org/2000/svg">
<circle cx="11" cy="11" r="11" fill="#E7342C"/>
<path fill-rule="evenodd" clip-rule="evenodd" d="M11.1122 7.02137C11.1485 6.99288 11.1996 6.99288 11.2358 7.02137L14.7644 9.79383C14.7402 9.85256 14.7268 9.91691 14.7268 9.98438V15.0584C14.7268 15.1136 14.682 15.1584 14.6268 15.1584H7.72109C7.66586 15.1584 7.62109 15.1136 7.62109 15.0584V9.98438C7.62109 9.91694 7.60774 9.85262 7.58354 9.79392L11.1122 7.02137ZM6.62109 10.5501L5.80893 11.1883C5.5918 11.3589 5.27747 11.3211 5.10686 11.104C4.93626 10.8869 4.97397 10.5725 5.19111 10.4019L10.4944 6.23505C10.8933 5.92165 11.4548 5.92165 11.8536 6.23505L17.1569 10.4019C17.3741 10.5725 17.4118 10.8869 17.2412 11.104C17.0706 11.3211 16.7563 11.3589 16.5391 11.1883L15.7268 10.55V15.0584C15.7268 15.6659 15.2343 16.1584 14.6268 16.1584H7.72109C7.11358 16.1584 6.62109 15.6659 6.62109 15.0584V10.5501Z" fill="white"/>
</svg>
