<svg width="32" height="32" viewBox="0 0 32 32" fill="none" xmlns="http://www.w3.org/2000/svg">
<circle cx="16" cy="16" r="16" fill="#3653EB"/>
<path fill-rule="evenodd" clip-rule="evenodd" d="M20.9033 13.5765C20.9033 16.2843 18.7082 18.4795 16.0003 18.4795C13.2924 18.4795 11.0973 16.2843 11.0973 13.5765C11.0973 10.8686 13.2924 8.67344 16.0003 8.67344C18.7082 8.67344 20.9033 10.8686 20.9033 13.5765ZM16.7005 19.841C19.852 19.4927 22.3033 16.8209 22.3033 13.5765C22.3033 10.0954 19.4814 7.27344 16.0003 7.27344C12.5192 7.27344 9.69727 10.0954 9.69727 13.5765C9.69727 16.821 12.1488 19.4929 15.3005 19.8411V25.5521C15.3005 25.9387 15.6139 26.2521 16.0005 26.2521C16.3871 26.2521 16.7005 25.9387 16.7005 25.5521V19.841Z" fill="white"/>
</svg>
