<svg width="22" height="22" viewBox="0 0 22 22" fill="none" xmlns="http://www.w3.org/2000/svg">
<circle cx="11" cy="11" r="11" fill="#3653EB"/>
<path fill-rule="evenodd" clip-rule="evenodd" d="M14.3327 9.33333C14.3327 11.1743 12.8403 12.6667 10.9993 12.6667C9.1584 12.6667 7.66602 11.1743 7.66602 9.33333C7.66602 7.49238 9.1584 6 10.9993 6C12.8403 6 14.3327 7.49238 14.3327 9.33333ZM11.4995 13.6381C13.6572 13.3901 15.3327 11.5574 15.3327 9.33333C15.3327 6.9401 13.3926 5 10.9993 5C8.60612 5 6.66602 6.9401 6.66602 9.33333C6.66602 11.5575 8.34171 13.3903 10.4995 13.6382V17.5667C10.4995 17.8429 10.7234 18.0667 10.9995 18.0667C11.2757 18.0667 11.4995 17.8429 11.4995 17.5667V13.6381Z" fill="white"/>
</svg>
