<svg width="32" height="32" viewBox="0 0 32 32" fill="none" xmlns="http://www.w3.org/2000/svg">
<circle cx="16" cy="16" r="16" fill="#E84A8C"/>
<path fill-rule="evenodd" clip-rule="evenodd" d="M13.4845 10.6551C13.4845 10.4894 13.6188 10.3551 13.7845 10.3551H18.5062C18.6719 10.3551 18.8062 10.4894 18.8062 10.6551V11.605H13.4845V10.6551ZM12.7508 13.005C12.762 13.0055 12.7732 13.0058 12.7845 13.0058C12.7958 13.0058 12.807 13.0055 12.8181 13.005H19.4725C19.4837 13.0055 19.4949 13.0058 19.5062 13.0058C19.5175 13.0058 19.5287 13.0055 19.5399 13.005H22.7077C22.8734 13.005 23.0077 13.1393 23.0077 13.305V14.5563H9.28379V13.305C9.28379 13.1393 9.4181 13.005 9.58379 13.005H12.7508ZM9.28379 15.3563V16.3234H23.0077V15.3563H9.28379ZM9.28379 17.1234H23.0077V21.9078C23.0077 22.0735 22.8734 22.2078 22.7077 22.2078H9.58379C9.4181 22.2078 9.28379 22.0735 9.28379 21.9078V17.1234ZM12.0845 11.605V10.6551C12.0845 9.7162 12.8456 8.95508 13.7845 8.95508H18.5062C19.4451 8.95508 20.2062 9.71619 20.2062 10.6551V11.605H22.7077C23.6466 11.605 24.4077 12.3661 24.4077 13.305V21.9078C24.4077 22.8467 23.6466 23.6078 22.7077 23.6078H9.58379C8.6449 23.6078 7.88379 22.8467 7.88379 21.9078V13.305C7.88379 12.3661 8.6449 11.605 9.58379 11.605H12.0845Z" fill="white"/>
</svg>
