<?xml version="1.0" encoding="utf-8"?>
<!-- Generator: Adobe Illustrator 26.3.1, SVG Export Plug-In . SVG Version: 6.00 Build 0)  -->
<svg version="1.1" id="레이어_1" xmlns="http://www.w3.org/2000/svg" xmlns:xlink="http://www.w3.org/1999/xlink" x="0px"
	 y="0px" viewBox="0 0 103 36" style="enable-background:new 0 0 103 36;" xml:space="preserve">
<style type="text/css">
	.st0{fill:#797979;}
</style>
<path class="st0" d="M32.26,18.27v0.88h2.27v4.24h1.01v-11.3h-1.01v3.11h-1.88c0.11-0.6,0.17-1.23,0.17-1.86h-4.69v0.87h3.64
	c-0.2,2.58-1.53,4.82-4.16,6.41l0.62,0.77c2.31-1.4,3.64-3.25,4.23-5.32h2.07v2.2H32.26z M36.98,24.04H38V11.76h-1.02V24.04z
	 M40.26,12.91v0.9h2.76v0.17c0,1.68-1.32,3.12-3.12,3.71l0.53,0.84c1.44-0.48,2.6-1.51,3.14-2.84c0.53,1.23,1.62,2.18,3.04,2.63
	l0.52-0.83c-1.78-0.56-3.04-1.95-3.04-3.51V13.8h2.73v-0.9H40.26z M39.68,20.56l0.14,0.9c2.11,0,5.01,0,7.62-0.49l-0.08-0.78
	c-1.04,0.15-2.17,0.24-3.28,0.29V18h-1.06v2.52C41.81,20.56,40.66,20.56,39.68,20.56z M48.15,24.04h1.05v-6.26h1.99v-0.9H49.2v-5.12
	h-1.05V24.04z M61.01,11.76v12.29h1.08V11.76H61.01z M52.52,16.98c0,2.6,1.3,4.27,3.11,4.27s3.11-1.67,3.11-4.27
	s-1.3-4.26-3.11-4.26S52.52,14.38,52.52,16.98z M53.56,16.98c0-2,0.85-3.3,2.07-3.3c1.23,0,2.09,1.3,2.09,3.3
	c0,2.02-0.85,3.33-2.09,3.33C54.41,20.31,53.56,19,53.56,16.98z M69.31,16.63v0.88h1.92v5.88h0.99V12.07h-0.99v4.56H69.31z
	 M64.21,20.7l0.64,0.81c1.2-0.74,2.09-2.13,2.52-3.71c0.43,1.48,1.32,2.76,2.52,3.42l0.6-0.78c-1.62-0.9-2.65-2.93-2.65-4.89v-0.62
	h2.31v-0.88h-2.3v-1.83h-1.02v1.83h-2.31v0.88h2.31v0.62C66.84,17.58,65.86,19.72,64.21,20.7z M73.68,24.04h1.04V11.76h-1.04V24.04z
	"/>
</svg>
