<?xml version="1.0" encoding="utf-8"?>
<!-- Generator: Adobe Illustrator 26.3.1, SVG Export Plug-In . SVG Version: 6.00 Build 0)  -->
<svg version="1.1" id="레이어_1" xmlns="http://www.w3.org/2000/svg" xmlns:xlink="http://www.w3.org/1999/xlink" x="0px"
	 y="0px" viewBox="0 0 103 36" style="enable-background:new 0 0 103 36;" xml:space="preserve">
<style type="text/css">
	.st0{fill:#E7342C;}
</style>
<path class="st0" d="M36.14,11.63v9.16h1.74v-9.16H36.14z M27.45,17.71l0.88,1.39c1.46-0.52,2.46-1.55,3.01-2.84
	c0.55,1.2,1.51,2.14,2.93,2.63l0.88-1.39c-2.03-0.67-2.94-2.3-2.94-3.95v-1.23h-1.76v1.23C30.44,15.24,29.53,16.99,27.45,17.71z
	 M29.56,23.95h8.64v-1.4h-6.9v-2.63h-1.74V23.95z M39.68,17.61v1.37h11.37v-1.37h-2.62v-1.53c0.92-0.41,1.46-1.05,1.46-1.88
	c0-1.48-1.76-2.39-4.52-2.39c-2.76,0-4.52,0.91-4.52,2.39c0,0.81,0.52,1.46,1.43,1.88v1.53H39.68z M41,21.91
	c0,1.46,1.62,2.28,4.34,2.28s4.35-0.83,4.35-2.28c0-1.44-1.64-2.27-4.35-2.27S41,20.47,41,21.91z M42.64,14.21
	c0-0.7,0.99-1.06,2.73-1.06c1.75,0,2.73,0.36,2.73,1.06c0,0.73-0.98,1.09-2.73,1.09C43.63,15.3,42.64,14.94,42.64,14.21z
	 M42.75,21.91c0-0.64,0.9-0.97,2.59-0.97c1.71,0,2.59,0.32,2.59,0.97c0,0.64-0.88,0.95-2.59,0.95
	C43.65,22.86,42.75,22.55,42.75,21.91z M44.01,17.61v-1.08c0.42,0.06,0.87,0.08,1.36,0.08c0.48,0,0.92-0.03,1.33-0.08v1.08H44.01z
	 M58.42,12.84h-5.75v1.39h4.03c-0.04,0.6-0.13,1.18-0.27,1.71L52,16.21l0.21,1.48l3.7-0.35c-0.7,1.4-1.93,2.58-4.02,3.61l0.92,1.33
	C57.48,19.93,58.42,16.7,58.42,12.84z M60,24.18h1.75v-6.3h1.76v-1.43h-1.76V11.6H60V24.18z M65.51,12.67v6.16h8.79v-1.39h-7.07
	v-3.37h6.97v-1.4H65.51z M64.17,22.65h11.37v-1.41H64.17V22.65z"/>
</svg>
