<?xml version="1.0" encoding="utf-8"?>
<!-- Generator: Adobe Illustrator 26.3.1, SVG Export Plug-In . SVG Version: 6.00 Build 0)  -->
<svg version="1.1" id="레이어_1" xmlns="http://www.w3.org/2000/svg" xmlns:xlink="http://www.w3.org/1999/xlink" x="0px"
	 y="0px" viewBox="0 0 103 36" style="enable-background:new 0 0 103 36;" xml:space="preserve">
<style type="text/css">
	.st0{fill:#797979;}
</style>
<path class="st0" d="M36.55,11.79v8.97h1.06v-8.97H36.55z M27.74,18.14L28.3,19c1.44-0.59,2.55-1.81,3.07-3.33
	c0.53,1.43,1.62,2.55,3.04,3.11l0.56-0.85c-1.81-0.66-3.08-2.35-3.08-4.21v-1.25h-1.08v1.25C30.81,15.64,29.58,17.44,27.74,18.14z
	 M29.79,23.76H38v-0.88h-7.15v-2.93h-1.06V23.76z M39.82,17.86v0.87H50.9v-0.87h-2.76v-1.75c0.97-0.39,1.51-1.02,1.51-1.85
	c0-1.43-1.64-2.25-4.3-2.25s-4.28,0.83-4.28,2.25c0,0.83,0.55,1.47,1.51,1.85v1.75H39.82z M41.17,21.84c0,1.39,1.55,2.17,4.19,2.17
	c2.62,0,4.19-0.78,4.19-2.17c0-1.39-1.57-2.17-4.19-2.17C42.72,19.67,41.17,20.45,41.17,21.84z M42.15,14.26
	c0-0.9,1.25-1.43,3.21-1.43c1.97,0,3.21,0.53,3.21,1.43c0,0.91-1.23,1.44-3.21,1.44C43.39,15.71,42.15,15.17,42.15,14.26z
	 M42.23,21.84c0-0.85,1.19-1.34,3.12-1.34c1.93,0,3.11,0.49,3.11,1.34s-1.18,1.34-3.11,1.34C43.42,23.18,42.23,22.69,42.23,21.84z
	 M43.63,17.86v-1.46c0.5,0.1,1.09,0.14,1.72,0.14c0.64,0,1.22-0.04,1.74-0.14v1.46H43.63z M58.35,13.05h-5.5v0.88h4.45
	c-0.04,0.76-0.17,1.48-0.38,2.18l-4.69,0.32l0.17,0.95l4.2-0.41c-0.74,1.65-2.11,3.08-4.41,4.19l0.59,0.84
	C57.14,19.82,58.35,16.59,58.35,13.05z M60.39,24.04h1.06v-6.37h1.99v-0.9h-1.99v-5.01h-1.06V24.04z M65.71,12.92v5.63h8.4v-0.88
	h-7.35v-3.88h7.22v-0.87H65.71z M64.3,22.34h11.1v-0.87H64.3V22.34z"/>
</svg>
