<?xml version="1.0" encoding="utf-8"?>
<!-- Generator: Adobe Illustrator 26.3.1, SVG Export Plug-In . SVG Version: 6.00 Build 0)  -->
<svg version="1.1" id="레이어_1" xmlns="http://www.w3.org/2000/svg" xmlns:xlink="http://www.w3.org/1999/xlink" x="0px"
	 y="0px" viewBox="0 0 102 36" style="enable-background:new 0 0 102 36;" xml:space="preserve">
<style type="text/css">
	.st0{fill-rule:evenodd;clip-rule:evenodd;fill:#797979;}
</style>
<path class="st0" d="M53.52,18.03V18c-0.01-0.66,0.11-1.32,0.36-1.94c0.25-0.61,0.62-1.17,1.09-1.64c0.47-0.47,1.03-0.83,1.65-1.08
	c0.62-0.24,1.28-0.36,1.94-0.34c1.16-0.05,2.3,0.3,3.23,0.98c0.13,0.1,0.23,0.23,0.3,0.37c0.07,0.15,0.11,0.31,0.11,0.47
	c0,0.14-0.03,0.27-0.08,0.4c-0.05,0.13-0.13,0.24-0.23,0.34c-0.1,0.1-0.21,0.17-0.34,0.22s-0.26,0.08-0.4,0.08
	c-0.23,0-0.45-0.07-0.64-0.21c-0.56-0.45-1.26-0.69-1.98-0.69c-0.38,0.01-0.76,0.09-1.11,0.25c-0.35,0.16-0.67,0.38-0.93,0.66
	c-0.26,0.28-0.46,0.61-0.6,0.97c-0.13,0.36-0.19,0.74-0.17,1.13V18c-0.02,0.39,0.03,0.77,0.16,1.13c0.13,0.36,0.33,0.7,0.59,0.98
	c0.26,0.28,0.58,0.51,0.93,0.67c0.35,0.16,0.73,0.24,1.12,0.25c0.77,0.02,1.52-0.25,2.1-0.76c0.1-0.09,0.21-0.15,0.34-0.19
	s0.26-0.06,0.39-0.05c0.13,0.01,0.26,0.05,0.37,0.11c0.12,0.06,0.22,0.14,0.3,0.24s0.15,0.22,0.19,0.34
	c0.04,0.12,0.05,0.26,0.04,0.39c-0.01,0.13-0.05,0.26-0.11,0.37c-0.06,0.12-0.15,0.22-0.25,0.3c-0.73,0.62-1.63,1.03-2.58,1.17
	c-0.95,0.14-1.93,0-2.8-0.39c-0.88-0.39-1.63-1.03-2.16-1.83C53.84,19.93,53.54,18.99,53.52,18.03L53.52,18.03z M36.24,21.47
	l3.37-7.61c0.1-0.25,0.27-0.47,0.49-0.62c0.22-0.15,0.49-0.23,0.75-0.23h0.12c0.27,0,0.53,0.08,0.75,0.23
	c0.22,0.15,0.39,0.37,0.48,0.62l3.37,7.61c0.07,0.13,0.11,0.28,0.11,0.43c0,0.13-0.02,0.27-0.07,0.39
	c-0.05,0.12-0.12,0.24-0.22,0.33c-0.09,0.1-0.21,0.17-0.33,0.22s-0.26,0.08-0.39,0.08c-0.23,0-0.45-0.07-0.63-0.2
	c-0.18-0.13-0.32-0.32-0.39-0.53L43,20.66h-4.25l-0.68,1.59c-0.08,0.2-0.21,0.37-0.39,0.48c-0.18,0.12-0.38,0.18-0.59,0.18
	c-0.13,0-0.26-0.03-0.38-0.08c-0.12-0.05-0.23-0.12-0.32-0.22c-0.09-0.09-0.16-0.2-0.21-0.32c-0.05-0.12-0.07-0.25-0.07-0.38
	C36.12,21.76,36.16,21.61,36.24,21.47z M42.22,18.79l-1.34-3.19l-1.34,3.19H42.22z M28.92,14.14c0-0.14,0.03-0.28,0.08-0.41
	c0.05-0.13,0.13-0.25,0.23-0.35c0.1-0.1,0.22-0.18,0.35-0.23c0.13-0.05,0.27-0.08,0.41-0.08h2.89c2.31,0,3.7,1.37,3.7,3.34v0.03
	c0,2.24-1.74,3.4-3.91,3.4h-1.62v2c0,0.28-0.11,0.55-0.31,0.75c-0.2,0.2-0.47,0.31-0.75,0.31c-0.28,0-0.55-0.11-0.75-0.31
	c-0.2-0.2-0.31-0.47-0.31-0.75L28.92,14.14z M32.73,17.96c0.21,0.03,0.42,0.01,0.62-0.05c0.2-0.06,0.39-0.16,0.55-0.3
	c0.16-0.14,0.29-0.31,0.38-0.5c0.09-0.19,0.14-0.4,0.14-0.61v-0.03c0-0.95-0.66-1.46-1.73-1.46h-1.64v2.96H32.73z M44.81,14.86
	l3.12,4.24v2.75c0,0.28,0.11,0.55,0.31,0.75c0.2,0.2,0.47,0.31,0.75,0.31s0.55-0.11,0.75-0.31c0.2-0.2,0.31-0.47,0.31-0.75v-2.79
	l3.12-4.21c0.17-0.21,0.26-0.47,0.28-0.75c0.01-0.14-0.01-0.28-0.06-0.4c-0.05-0.13-0.13-0.25-0.22-0.34
	c-0.1-0.1-0.21-0.17-0.34-0.22c-0.13-0.05-0.27-0.07-0.4-0.06c-0.21,0.01-0.42,0.07-0.6,0.18c-0.18,0.11-0.33,0.27-0.43,0.45
	l-2.39,3.41l-2.35-3.38c-0.1-0.19-0.25-0.35-0.44-0.47c-0.18-0.11-0.4-0.18-0.61-0.18c-0.14,0-0.27,0.02-0.4,0.07
	c-0.13,0.05-0.24,0.12-0.34,0.22c-0.1,0.09-0.18,0.21-0.23,0.33c-0.05,0.13-0.08,0.26-0.09,0.4C44.55,14.38,44.64,14.65,44.81,14.86
	z M62.84,18v0.03c0.06,1.32,0.63,2.58,1.59,3.49c0.96,0.92,2.24,1.42,3.56,1.42c1.33,0,2.6-0.52,3.56-1.44
	c0.96-0.92,1.52-2.17,1.57-3.5v-0.03c-0.06-1.32-0.63-2.58-1.59-3.49c-0.96-0.91-2.24-1.42-3.56-1.42c-1.33,0-2.6,0.52-3.56,1.44
	C63.45,15.42,62.89,16.67,62.84,18z M70.89,18v0.03c0.02,0.39-0.05,0.78-0.19,1.15c-0.14,0.37-0.35,0.7-0.62,0.98
	c-0.27,0.28-0.6,0.5-0.96,0.66c-0.36,0.15-0.75,0.23-1.14,0.23c-0.39,0-0.78-0.08-1.15-0.24c-0.36-0.15-0.69-0.38-0.96-0.66
	s-0.49-0.62-0.63-0.99c-0.14-0.37-0.21-0.76-0.19-1.15v-0.03c-0.02-0.39,0.05-0.78,0.19-1.15c0.14-0.37,0.35-0.7,0.62-0.98
	c0.27-0.28,0.6-0.51,0.96-0.66c0.36-0.15,0.75-0.23,1.14-0.23c0.39,0,0.78,0.08,1.15,0.24c0.36,0.15,0.69,0.38,0.96,0.66
	c0.27,0.28,0.49,0.62,0.63,0.99C70.84,17.21,70.9,17.6,70.89,18z"/>
</svg>
