<?xml version="1.0" encoding="utf-8"?>
<!-- Generator: Adobe Illustrator 26.3.1, SVG Export Plug-In . SVG Version: 6.00 Build 0)  -->
<svg version="1.1" id="레이어_1" xmlns="http://www.w3.org/2000/svg" xmlns:xlink="http://www.w3.org/1999/xlink" x="0px"
	 y="0px" viewBox="0 0 102 36" style="enable-background:new 0 0 102 36;" xml:space="preserve">
<style type="text/css">
	.st0{fill:#E7342C;}
</style>
<path class="st0" d="M20.84,18.66v1.4h4.76v4.12h1.74v-4.12h4.87v-1.4H20.84z M22.16,17.29h8.68v-5.04h-8.68V17.29z M23.87,15.93
	v-2.31h5.28v2.31H23.87z M33.07,18.1v1.37h11.35V18.1H39.6v-0.8h3.6v-1.33h-6.99v-0.73h6.59v-1.27h-6.59v-0.7h6.89v-1.33h-8.62v5.36
	h3.4v0.8H33.07z M34.38,22.12c0,1.34,1.6,2.06,4.34,2.06c2.76,0,4.35-0.71,4.35-2.06c0-1.33-1.6-2.06-4.35-2.06
	C35.98,20.06,34.38,20.79,34.38,22.12z M36.13,22.12c0-0.53,0.83-0.77,2.59-0.77s2.6,0.24,2.6,0.77c0,0.55-0.84,0.77-2.6,0.77
	S36.13,22.66,36.13,22.12z M45.61,12.47v1.4h2.53c-0.01,1.6-0.94,3.22-2.98,3.89l0.87,1.37c1.48-0.49,2.48-1.5,3.04-2.76
	c0.55,1.08,1.48,1.92,2.87,2.34l0.83-1.37c-1.97-0.59-2.84-2-2.86-3.47h2.48v-1.4H45.61z M46.86,21.74c0,1.53,1.62,2.45,4.23,2.45
	s4.24-0.92,4.24-2.45c0-1.51-1.64-2.42-4.24-2.42S46.86,20.23,46.86,21.74z M48.58,21.74c0-0.73,0.9-1.06,2.51-1.06
	c1.64,0,2.52,0.34,2.52,1.06s-0.88,1.09-2.52,1.09C49.47,22.83,48.58,22.47,48.58,21.74z M53.44,19.08h1.75v-3.11h1.68v-1.43h-1.68
	v-2.91h-1.75V19.08z M66.23,11.63v6.73h1.75v-6.73H66.23z M57.75,15.1c0,1.74,1.47,2.97,3.4,2.97c1.95,0,3.42-1.23,3.42-2.97
	c0-1.72-1.47-2.94-3.42-2.94C59.22,12.16,57.75,13.38,57.75,15.1z M59.46,15.1c0-0.95,0.71-1.53,1.69-1.53
	c0.99,0,1.71,0.57,1.71,1.53c0,0.97-0.71,1.51-1.71,1.51C60.17,16.62,59.46,16.07,59.46,15.1z M59.67,24.04h8.32v-5.11h-1.72v1.22
	h-4.89v-1.22h-1.71V24.04z M61.37,22.65v-1.18h4.89v1.18H61.37z M71.19,12.21v1.37h6.92c0,0.88-0.04,1.86-0.32,3.14h-7.99v1.39
	h11.37v-1.39h-1.64c0.29-1.44,0.29-2.53,0.29-3.53v-0.98H71.19z M71.13,24.04h8.64v-4.59h-8.64V24.04z M72.84,22.66v-1.85h5.22v1.85
	H72.84z"/>
</svg>
