<?xml version="1.0" encoding="utf-8"?>
<!-- Generator: Adobe Illustrator 26.3.1, SVG Export Plug-In . SVG Version: 6.00 Build 0)  -->
<svg version="1.1" id="레이어_1" xmlns="http://www.w3.org/2000/svg" xmlns:xlink="http://www.w3.org/1999/xlink" x="0px"
	 y="0px" viewBox="0 0 103 36" style="enable-background:new 0 0 103 36;" xml:space="preserve">
<style type="text/css">
	.st0{fill:#797979;}
</style>
<path class="st0" d="M22.04,13.14v0.87h9.86v-0.87h-4.38v-1.46h-1.05v1.46H22.04z M21.47,20.48h2.9v3.58h1.08v-3.58h3.14v3.58h1.06
	v-3.58h2.93V19.6h-11.1V20.48z M23.04,16.73c0,1.3,1.47,2.04,3.96,2.04c2.48,0,3.96-0.74,3.96-2.04c0-1.29-1.48-2-3.96-2
	C24.51,14.73,23.04,15.44,23.04,16.73z M24.14,16.73c0-0.76,1.05-1.19,2.86-1.19c1.82,0,2.86,0.43,2.86,1.19
	c0,0.78-1.04,1.22-2.86,1.22C25.19,17.95,24.14,17.51,24.14,16.73z M43.09,11.76v4.94h-1.79v-4.65H40.3v11.34h0.99v-5.8h1.79v6.44
	h1.02V11.76H43.09z M34.17,20.98h0.8c1.85,0,3.08-0.06,4.55-0.36l-0.11-0.9c-1.34,0.31-2.52,0.36-4.19,0.36v-5.95h3.5v-0.85h-4.55
	V20.98z M46.96,12.35v0.85h1.89v2.86h-1.83v0.85h3.93v1.51h-5.01v0.88h11.07v-0.88H52v-1.51h3.91v-0.85h-1.83V13.2h1.88v-0.85H46.96
	z M47.38,23.76h8.39v-0.88h-7.34V20.4h-1.05V23.76z M49.92,16.06V13.2h3.09v2.86H49.92z M67.18,11.77v1.79h-2.81
	c0.07-0.38,0.11-0.77,0.11-1.18h-5.46v0.88h4.3c-0.2,1.97-1.93,3.47-4.91,4.17l0.36,0.87c2.7-0.64,4.61-1.96,5.35-3.91h3.07v1.51
	h-3.25v0.83h3.25v1.29h1.06v-6.26H67.18z M60.38,19.47h6.82v1.29h-6.78v3.15h8.25v-0.85h-7.21v-1.47h6.79v-2.97h-7.87V19.47z
	 M79.79,11.76v12.28h1.04V11.76H79.79z M70.27,20.77l0.67,0.8c1.23-0.78,2.11-2.21,2.55-3.91c0.43,1.57,1.29,2.88,2.48,3.6
	l0.64-0.77c-1.67-0.98-2.6-3.09-2.6-5.24V14.1h2.23v-0.87h-5.63v0.87h2.35v1.16C72.96,17.53,71.97,19.75,70.27,20.77z M75.27,17.06
	h2.07v6.33h0.99V12.07h-0.99v4.13h-2.07V17.06z"/>
</svg>
