<?xml version="1.0" encoding="utf-8"?>
<!-- Generator: Adobe Illustrator 26.3.1, SVG Export Plug-In . SVG Version: 6.00 Build 0)  -->
<svg version="1.1" id="레이어_1" xmlns="http://www.w3.org/2000/svg" xmlns:xlink="http://www.w3.org/1999/xlink" x="0px"
	 y="0px" viewBox="0 0 102 36" style="enable-background:new 0 0 102 36;" xml:space="preserve">
<style type="text/css">
	.st0{fill:#797979;}
</style>
<path class="st0" d="M20.97,18.9v0.88h4.98v4.24H27v-4.24h5.07V18.9H20.97z M22.38,17.22h8.25v-4.76h-8.25V17.22z M23.42,16.38
	v-3.07h6.17v3.07H23.42z M33.21,18.28v0.87h11.06v-0.87h-5.01v-1.25h3.71V16.2h-7.24v-1.23h6.85v-0.83h-6.85v-1.16h7.18v-0.84h-8.25
	v4.9h3.54v1.25H33.21z M34.55,22.05c0,1.27,1.51,1.95,4.19,1.95s4.19-0.67,4.19-1.95c0-1.29-1.51-1.96-4.19-1.96
	S34.55,20.76,34.55,22.05z M35.61,22.05c0-0.74,1.13-1.15,3.12-1.15c1.97,0,3.12,0.41,3.12,1.15c0,0.76-1.15,1.15-3.12,1.15
	C36.75,23.2,35.61,22.8,35.61,22.05z M45.72,12.68v0.88h2.77v0.53c0,1.78-1.27,3.36-3.09,3.99l0.56,0.85
	c1.44-0.53,2.56-1.62,3.08-3.04c0.53,1.23,1.6,2.2,2.97,2.66l0.52-0.83c-1.78-0.59-2.97-2.03-2.97-3.65v-0.52h2.73v-0.88H45.72z
	 M47.02,21.75c0,1.41,1.53,2.25,4.02,2.25c2.48,0,4.02-0.84,4.02-2.25s-1.54-2.24-4.02-2.24C48.55,19.51,47.02,20.34,47.02,21.75z
	 M48.06,21.75c0-0.88,1.15-1.39,2.98-1.39s2.97,0.5,2.97,1.39c0,0.87-1.13,1.4-2.97,1.4S48.06,22.62,48.06,21.75z M53.87,19.16h1.08
	V15.8h1.82v-0.9h-1.82v-3.14h-1.08V19.16z M66.64,11.79v6.55h1.08v-6.55H66.64z M57.97,15.17c0,1.68,1.34,2.83,3.18,2.83
	c1.85,0,3.19-1.15,3.19-2.83c0-1.65-1.34-2.8-3.19-2.8C59.32,12.37,57.97,13.52,57.97,15.17z M59.02,15.17
	c0-1.13,0.9-1.92,2.13-1.92c1.26,0,2.16,0.78,2.16,1.92c0,1.13-0.9,1.92-2.16,1.92C59.92,17.09,59.02,16.31,59.02,15.17z
	 M59.85,23.85h7.87v-4.89h-1.05v1.53H60.9v-1.53h-1.05V23.85z M60.9,23v-1.65h5.77V23H60.9z M71.34,12.43v0.87h7.2v0.03
	c0,0.95,0,2.07-0.36,3.63h-8.26v0.87h11.1v-0.87h-1.78c0.34-1.54,0.34-2.66,0.34-3.63v-0.9H71.34z M71.29,23.85h8.33v-4.34h-8.33
	V23.85z M72.32,23v-2.62h6.26V23H72.32z"/>
</svg>
