<?xml version="1.0" encoding="utf-8"?>
<!-- Generator: Adobe Illustrator 26.3.1, SVG Export Plug-In . SVG Version: 6.00 Build 0)  -->
<svg version="1.1" id="레이어_1" xmlns="http://www.w3.org/2000/svg" xmlns:xlink="http://www.w3.org/1999/xlink" x="0px"
	 y="0px" viewBox="0 0 102 36" style="enable-background:new 0 0 102 36;" xml:space="preserve">
<style type="text/css">
	.st0{fill:#797979;}
	.st1{fill:#FFFFFF;}
</style>
<path class="st0" d="M51.16,14.1h3.12c0.43-0.01,0.87,0.05,1.28,0.19c0.33,0.11,0.64,0.29,0.9,0.52c0.24,0.22,0.42,0.49,0.53,0.79
	c0.12,0.32,0.18,0.65,0.18,0.99v0.25c0,0.34-0.06,0.68-0.19,1c-0.12,0.31-0.31,0.59-0.55,0.82c-0.26,0.24-0.57,0.43-0.9,0.56
	c-0.4,0.14-0.82,0.21-1.25,0.21h-1.92v3.39h-1.2L51.16,14.1z M52.36,15.14v3.24h1.71c1.26,0,1.88-0.52,1.88-1.56V16.6
	c0.02-0.21-0.01-0.41-0.09-0.61c-0.08-0.19-0.2-0.36-0.36-0.5c-0.38-0.26-0.84-0.39-1.3-0.36L52.36,15.14z M60.22,22.91
	c-0.57,0.03-1.14-0.14-1.59-0.5c-0.2-0.17-0.35-0.38-0.45-0.62c-0.1-0.24-0.15-0.49-0.13-0.75v-0.33c-0.01-0.26,0.04-0.51,0.13-0.75
	c0.1-0.24,0.25-0.45,0.43-0.63c0.52-0.4,1.18-0.59,1.84-0.53h1.68v-0.39c0.01-0.18-0.01-0.36-0.06-0.52
	c-0.06-0.17-0.14-0.33-0.26-0.46c-0.29-0.24-0.67-0.35-1.04-0.32c-0.34-0.01-0.69,0.05-1.01,0.18c-0.31,0.13-0.61,0.3-0.89,0.48
	l-0.58-0.87c0.34-0.23,0.7-0.43,1.09-0.59c0.45-0.17,0.92-0.26,1.4-0.25c0.34,0,0.69,0.04,1.01,0.14c0.29,0.08,0.56,0.22,0.79,0.41
	c0.22,0.18,0.4,0.41,0.52,0.66c0.13,0.28,0.19,0.58,0.19,0.89v4.63h-1.12v-0.8h-0.01c-0.07,0.12-0.16,0.24-0.26,0.33
	c-0.11,0.1-0.23,0.19-0.36,0.26c-0.18,0.1-0.37,0.17-0.57,0.22C60.72,22.89,60.47,22.92,60.22,22.91z M62.13,19.81h-1.66
	c-0.35-0.03-0.7,0.06-0.98,0.27c-0.1,0.09-0.18,0.21-0.23,0.34c-0.05,0.13-0.07,0.26-0.07,0.4v0.17c-0.01,0.14,0.01,0.27,0.07,0.4
	c0.06,0.12,0.15,0.23,0.26,0.3c0.24,0.15,0.52,0.23,0.81,0.22c0.26,0,0.51-0.03,0.76-0.1c0.21-0.07,0.41-0.17,0.59-0.31
	c0.15-0.11,0.27-0.25,0.34-0.42c0.08-0.19,0.11-0.4,0.1-0.61L62.13,19.81z M67.16,21.49l1.74-5.28h1.23l-3.43,9.34l-1.06-0.38
	l0.86-2.26l-2.4-6.71h1.27l1.75,5.28H67.16z"/>
<path class="st0" d="M46.92,11H31.84v15h15.08V11z"/>
<path class="st1" d="M35.56,15v6.91h2.56v-3.52l2.46,3.52h2.59V15h-2.59v3.57L38.12,15L35.56,15z"/>
</svg>
