<?xml version="1.0" encoding="utf-8"?>
<!-- Generator: Adobe Illustrator 26.3.1, SVG Export Plug-In . SVG Version: 6.00 Build 0)  -->
<svg version="1.1" id="레이어_1" xmlns="http://www.w3.org/2000/svg" xmlns:xlink="http://www.w3.org/1999/xlink" x="0px"
	 y="0px" viewBox="0 0 103 36" style="enable-background:new 0 0 103 36;" xml:space="preserve">
<style type="text/css">
	.st0{fill-rule:evenodd;clip-rule:evenodd;fill:#E7342C;}
</style>
<path class="st0" d="M24,22.03h1.16V12L24,12.25V22.03z M29.2,15.58l-0.92-0.66l-2.69,3.52l3.06,3.75l0.9-0.69l-2.6-3.11L29.2,15.58
	z M30.57,19.29c-0.12,0.28-0.18,0.58-0.16,0.89l0,0c-0.02,0.27,0.01,0.53,0.1,0.78c0.09,0.25,0.24,0.48,0.42,0.67
	c0.19,0.19,0.42,0.33,0.67,0.42c0.25,0.09,0.52,0.13,0.78,0.1c0.38-0.01,0.76-0.08,1.12-0.23c0.4-0.16,0.77-0.37,1.11-0.64
	l0.14,0.76h0.86V17.6c0-1.75-0.82-2.62-2.46-2.62c-0.4,0-0.79,0.06-1.17,0.16c-0.39,0.11-0.77,0.26-1.12,0.46l0.34,0.82
	c0.3-0.13,0.6-0.24,0.92-0.32c0.31-0.08,0.63-0.12,0.95-0.13c0.95,0,1.42,0.53,1.42,1.6v0.44h-1.34c-0.89,0-1.58,0.18-2.04,0.55
	C30.88,18.76,30.7,19.01,30.57,19.29z M33.09,21.15c-0.16,0.04-0.33,0.06-0.5,0.06h-0.01c-0.71,0-1.07-0.36-1.07-1.09
	c-0.02-0.19,0.01-0.38,0.09-0.55c0.07-0.17,0.19-0.33,0.34-0.45c0.29-0.21,0.74-0.32,1.35-0.32h1.22v1.62
	c-0.13,0.12-0.26,0.22-0.41,0.31c-0.15,0.1-0.32,0.18-0.49,0.25C33.44,21.05,33.27,21.11,33.09,21.15z M39.07,22.03h-1.16v-9.78
	L39.07,12V22.03z M42.19,14.92l0.92,0.66l-2.24,2.81l2.59,3.11l-0.9,0.69l-3.06-3.75L42.19,14.92z M44.48,19.29
	c-0.12,0.28-0.18,0.58-0.16,0.89l-0.01,0c-0.02,0.27,0.01,0.53,0.1,0.78c0.09,0.25,0.24,0.48,0.42,0.67
	c0.19,0.19,0.42,0.33,0.67,0.42c0.25,0.09,0.52,0.13,0.78,0.1c0.38-0.01,0.77-0.08,1.12-0.23c0.4-0.16,0.77-0.37,1.11-0.64
	l0.14,0.76h0.86V17.6c0-1.75-0.82-2.62-2.46-2.62c-0.4,0-0.79,0.06-1.17,0.16c-0.39,0.11-0.77,0.26-1.12,0.46l0.34,0.82
	c0.3-0.13,0.6-0.24,0.92-0.32c0.31-0.08,0.63-0.12,0.96-0.13c0.94,0,1.42,0.53,1.42,1.6v0.44h-1.33c-0.89,0-1.57,0.18-2.05,0.55
	C44.79,18.76,44.6,19.01,44.48,19.29z M47,21.15c-0.16,0.04-0.33,0.06-0.5,0.06c-0.72,0-1.08-0.36-1.08-1.09
	c-0.02-0.19,0.02-0.38,0.09-0.55c0.07-0.17,0.19-0.33,0.34-0.45c0.29-0.21,0.74-0.32,1.35-0.32h1.22v1.62
	c-0.12,0.12-0.26,0.22-0.4,0.31c-0.15,0.1-0.32,0.18-0.49,0.25C47.35,21.05,47.18,21.11,47,21.15z M54.5,15
	c0.96,0,1.72,0.31,2.27,0.94c0.55,0.62,0.82,1.52,0.82,2.68c0,1.15-0.27,2.03-0.82,2.64c-0.54,0.62-1.3,0.92-2.27,0.92
	c-0.96,0-1.72-0.31-2.27-0.92c-0.55-0.61-0.82-1.49-0.82-2.64c0-1.16,0.28-2.06,0.83-2.68c0.28-0.31,0.63-0.56,1.02-0.72
	C53.66,15.05,54.08,14.98,54.5,15z M54.5,15.93c-0.27-0.01-0.54,0.04-0.79,0.16c-0.24,0.12-0.45,0.3-0.61,0.52
	c-0.32,0.46-0.49,1.13-0.49,2c0,0.88,0.16,1.53,0.49,1.97c0.17,0.21,0.39,0.38,0.63,0.49c0.24,0.11,0.51,0.17,0.78,0.17
	c0.27,0,0.53-0.06,0.78-0.17c0.24-0.11,0.46-0.28,0.63-0.49c0.32-0.44,0.48-1.1,0.49-1.97c0-0.87-0.16-1.54-0.49-2
	c-0.16-0.22-0.37-0.4-0.62-0.52C55.05,15.98,54.77,15.92,54.5,15.93z M61.16,24.69V22.1c0.35,0.09,0.71,0.13,1.07,0.13
	c1.9,0,3.23-1.47,3.23-3.76c0.01-2.19-0.85-3.54-2.66-3.54c-0.36-0.01-0.72,0.06-1.06,0.2c-0.34,0.14-0.64,0.35-0.89,0.61
	l-0.23-0.61h-1.3v9.57H61.16z M61.16,20.81v-4.14c0.32-0.16,0.68-0.25,1.04-0.25c1.05,0,1.39,0.77,1.39,2.05
	c0,1.46-0.52,2.38-1.83,2.38C61.55,20.84,61.35,20.83,61.16,20.81z M69.47,17.82h1.05v-0.23c0-0.76-0.43-1.11-1.18-1.11
	c-0.66,0.02-1.31,0.17-1.9,0.46l-0.51-1.24c0.77-0.49,1.66-0.76,2.57-0.77c1.77,0,2.74,0.94,2.74,2.72v4.39h-1.3l-0.19-0.58
	c-0.75,0.54-1.43,0.77-2.05,0.77c-1.36,0-2.11-0.81-2.11-2.18C66.59,18.59,67.6,17.82,69.47,17.82z M70.52,20.26V19h-0.85
	c-0.95,0-1.43,0.34-1.43,1.02c0,0.52,0.27,0.77,0.81,0.77C69.59,20.78,70.1,20.59,70.52,20.26z M75.29,24.99
	c1.13-0.69,1.9-1.95,2.54-3.67L80,15.37l-1.81-0.51l-1.56,5.45l-1.57-5.43l-1.83,0.49l2.45,6.69c-0.39,0.72-0.91,1.35-1.53,1.87
	L75.29,24.99z"/>
</svg>
