<?xml version="1.0" encoding="utf-8"?>
<!-- Generator: Adobe Illustrator 26.3.1, SVG Export Plug-In . SVG Version: 6.00 Build 0)  -->
<svg version="1.1" id="레이어_1" xmlns="http://www.w3.org/2000/svg" xmlns:xlink="http://www.w3.org/1999/xlink" x="0px"
	 y="0px" viewBox="0 0 103 36" style="enable-background:new 0 0 103 36;" xml:space="preserve">
<style type="text/css">
	.st0{fill:#E7342C;}
</style>
<path class="st0" d="M32.25,18.09v1.39h1.79v4.13h1.62V11.9h-1.62v3.07h-1.29c0.07-0.59,0.11-1.2,0.11-1.85h-4.86v1.4h3.15
	c-0.24,2.48-1.33,4.31-3.85,5.84l0.98,1.22c2.35-1.4,3.63-3.15,4.19-5.24h1.57v1.75H32.25z M36.62,24.18h1.65V11.62h-1.65V24.18z
	 M40.08,12.63v1.41h2.49c-0.08,1.4-1.02,2.73-2.94,3.32l0.85,1.36c1.44-0.45,2.45-1.36,3.01-2.52c0.55,1.05,1.51,1.88,2.91,2.28
	l0.81-1.34c-1.86-0.55-2.77-1.79-2.86-3.09h2.48v-1.41H40.08z M39.57,20.37l0.2,1.4c2.1,0.01,4.91,0.01,7.53-0.48l-0.13-1.27
	c-0.91,0.13-1.88,0.21-2.84,0.27v-2.13H42.6v2.18C41.5,20.37,40.47,20.37,39.57,20.37z M47.85,24.18h1.72v-6.13h1.69V16.6h-1.69
	v-4.98h-1.72V24.18z M60.6,11.6v12.6h1.74V11.6H60.6z M52.31,16.97c0,2.76,1.4,4.49,3.29,4.49s3.29-1.74,3.29-4.49
	c0-2.74-1.4-4.47-3.29-4.47S52.31,14.22,52.31,16.97z M53.99,16.97c0-1.88,0.64-2.88,1.61-2.88s1.61,1.01,1.61,2.88
	c0,1.89-0.64,2.91-1.61,2.91S53.99,18.86,53.99,16.97z M69.29,16.41v1.4h1.46v5.78h1.62V11.84h-1.62v4.56H69.29z M63.97,20.49
	l0.97,1.3c1.15-0.66,1.89-1.79,2.32-3.14c0.43,1.23,1.18,2.25,2.3,2.84l0.94-1.29c-1.76-0.94-2.45-2.87-2.45-4.77v-0.28h1.99v-1.41
	h-1.97v-1.69h-1.65v1.69h-1.99v1.41h1.99v0.28C66.41,17.39,65.75,19.44,63.97,20.49z M73.28,24.18h1.67V11.62h-1.67V24.18z"/>
</svg>
