<?xml version="1.0" encoding="utf-8"?>
<!-- Generator: Adobe Illustrator 26.3.1, SVG Export Plug-In . SVG Version: 6.00 Build 0)  -->
<svg version="1.1" id="레이어_1" xmlns="http://www.w3.org/2000/svg" xmlns:xlink="http://www.w3.org/1999/xlink" x="0px"
	 y="0px" viewBox="0 0 103 36" style="enable-background:new 0 0 103 36;" xml:space="preserve">
<style type="text/css">
	.st0{fill:#E7342C;}
</style>
<path class="st0" d="M21.88,12.91v1.36H32.1v-1.36h-4.23v-1.3h-1.72v1.3H21.88z M21.34,21.05H24v3.16h1.75v-3.16h2.56v3.16h1.75
	v-3.16h2.65v-1.4H21.34V21.05z M22.73,16.88c0,1.39,1.6,2.16,4.28,2.16s4.28-0.77,4.28-2.16c0-1.36-1.6-2.1-4.28-2.1
	S22.73,15.52,22.73,16.88z M24.54,16.88c0-0.56,0.83-0.83,2.48-0.83c1.67,0,2.48,0.27,2.48,0.83c0,0.6-0.81,0.87-2.48,0.87
	C25.36,17.75,24.54,17.48,24.54,16.88z M42.69,11.62v4.86h-1.2v-4.62h-1.6v11.72h1.6v-5.7h1.2v6.3h1.65V11.62H42.69z M33.94,21.33
	h0.88c1.62,0,2.95-0.06,4.47-0.35l-0.13-1.41c-1.2,0.22-2.3,0.29-3.5,0.32v-5.4h2.91v-1.4h-4.63V21.33z M46.8,12.11v1.37h1.65v2.18
	h-1.54v1.37h3.7v1.16h-4.8v1.39h11.37V18.2h-4.84v-1.16h3.72v-1.37h-1.54v-2.18h1.64v-1.37H46.8z M47.2,23.95h8.68v-1.4h-6.96v-2.13
	H47.2V23.95z M50.17,15.66v-2.18h2.62v2.18H50.17z M66.8,11.62v1.6h-2.35c0.06-0.35,0.08-0.71,0.08-1.09h-5.6v1.39h3.68
	c-0.21,1.51-1.53,2.73-4.4,3.32l0.57,1.4c2.74-0.6,4.54-1.79,5.31-3.68h2.7v1.11h-2.84v1.32h2.84v0.97h1.75v-6.31H66.8z
	 M60.28,19.78h6.52v0.76h-6.5v3.53h8.5v-1.37h-6.78v-0.87h6.52v-3.42h-8.27V19.78z M79.4,11.62v12.56h1.67V11.62H79.4z M70.05,20.54
	l1.04,1.27c1.16-0.71,1.9-1.96,2.32-3.43c0.43,1.34,1.16,2.46,2.28,3.12l1.02-1.25c-1.82-1.06-2.46-3.18-2.46-5.26v-0.69h1.88v-1.4
	h-5.61v1.4h2.04v0.69C72.56,17.13,71.88,19.39,70.05,20.54z M75.22,17.34h1.65v6.24h1.62V11.84h-1.62v4.09h-1.65V17.34z"/>
</svg>
