<svg width="14" height="14" viewBox="0 0 14 14" fill="none" xmlns="http://www.w3.org/2000/svg">
<path fill-rule="evenodd" clip-rule="evenodd" d="M6.29956 12.3669C6.29956 12.7535 6.61296 13.0669 6.99956 13.0669C7.38616 13.0669 7.69956 12.7535 7.69956 12.3669V7.69974H12.3667C12.7533 7.69974 13.0667 7.38634 13.0667 6.99974C13.0667 6.61314 12.7533 6.29974 12.3667 6.29974H7.69956V1.63359C7.69956 1.24699 7.38616 0.933594 6.99956 0.933594C6.61296 0.933594 6.29956 1.247 6.29956 1.63359V6.29974H1.63335C1.24675 6.29974 0.93335 6.61314 0.93335 6.99974C0.93335 7.38634 1.24675 7.69974 1.63335 7.69974H6.29956V12.3669Z" fill="#1A1A1A"/>
</svg>
