<svg width="14" height="14" viewBox="0 0 14 14" fill="none" xmlns="http://www.w3.org/2000/svg">
<path fill-rule="evenodd" clip-rule="evenodd" d="M6.2998 12.3669C6.2998 12.7535 6.61321 13.0669 6.9998 13.0669C7.3864 13.0669 7.6998 12.7535 7.6998 12.3669V7.69974H12.3669C12.7535 7.69974 13.0669 7.38634 13.0669 6.99974C13.0669 6.61314 12.7535 6.29974 12.3669 6.29974H7.6998V1.63359C7.6998 1.24699 7.3864 0.933594 6.9998 0.933594C6.6132 0.933594 6.2998 1.247 6.2998 1.63359V6.29974H1.63359C1.24699 6.29974 0.933594 6.61314 0.933594 6.99974C0.933594 7.38634 1.24699 7.69974 1.63359 7.69974H6.2998V12.3669Z" fill="#1a1a1a"/>
</svg>
