<svg width="70" height="70" viewBox="0 0 70 70" fill="none" xmlns="http://www.w3.org/2000/svg">
<path fill-rule="evenodd" clip-rule="evenodd" d="M62.2146 57.0102C67.0834 50.9976 70 43.3394 70 35C70 15.67 54.33 0 35 0C15.67 0 0 15.67 0 35C0 54.33 15.67 70 35 70C42.9338 70 50.251 67.3602 56.1212 62.9111L63.8936 65.5731L62.2146 57.0102Z" fill="#E7342C"/>
<path d="M28.3683 28.6847L27.6004 29.5085C26.9533 30.2028 26.9889 31.2927 27.6799 31.9428L39.8501 43.3932C40.5411 44.0434 41.6259 44.0076 42.273 43.3133L43.0408 42.4895C43.6879 41.7952 43.6523 40.7053 42.9613 40.0552L30.7911 28.6048C30.1001 27.9546 29.0153 27.9904 28.3683 28.6847Z" fill="white"/>
<path d="M40.8427 32.9197C42.0987 32.9197 43.117 31.8967 43.117 30.6347C43.117 29.3727 42.0987 28.3496 40.8427 28.3496C39.5866 28.3496 38.5684 29.3727 38.5684 30.6347C38.5684 31.8967 39.5866 32.9197 40.8427 32.9197Z" fill="white"/>
<path d="M43.0946 37.4707L39.0234 32.0087L43.119 30.5879V37.4615L43.0946 37.4707Z" fill="white"/>
<path d="M29.4647 43.6619C30.7208 43.6619 31.7391 42.6388 31.7391 41.3768C31.7391 40.1148 30.7208 39.0918 29.4647 39.0918C28.2087 39.0918 27.1904 40.1148 27.1904 41.3768C27.1904 42.6388 28.2087 43.6619 29.4647 43.6619Z" fill="white"/>
<path d="M27.2149 34.5449L31.286 40.0069L27.1904 41.4277V34.5541L27.2149 34.5449Z" fill="white"/>
<circle cx="35" cy="36" r="20" stroke="white" stroke-width="2"/>
<circle cx="35" cy="36" r="17" stroke="white"/>
</svg>
