<?xml version="1.0" encoding="utf-8"?>
<!-- Generator: Adobe Illustrator 26.3.1, SVG Export Plug-In . SVG Version: 6.00 Build 0)  -->
<svg version="1.1" id="레이어_1" xmlns="http://www.w3.org/2000/svg" xmlns:xlink="http://www.w3.org/1999/xlink" x="0px"
	 y="0px" viewBox="0 0 292 114" style="enable-background:new 0 0 292 114;" xml:space="preserve">
<style type="text/css">
	.st0{fill-rule:evenodd;clip-rule:evenodd;fill:#FFFFFF;}
	.st1{fill-rule:evenodd;clip-rule:evenodd;fill:#FFFFFF;filter:url(#Adobe_OpacityMaskFilter);}
	.st2{mask:url(#path-1-inside-1_994_26957_00000176745289891307356880000014749650014673022117_);fill:#E7342C;}
	.st3{fill:#E7342C;}
	.st4{fill:#FFFFFF;}
</style>
<path class="st0" d="M6,0C2.7,0,0,2.7,0,6v39c6.8,0,12.4,5.8,12.4,13S6.8,71,0,71v37c0,3.3,2.7,6,6,6h280c3.3,0,6-2.7,6-6V6
	c0-3.3-2.7-6-6-6H6z"/>
<defs>
	<filter id="Adobe_OpacityMaskFilter" filterUnits="userSpaceOnUse" x="-1" y="-1" width="294" height="116">
		<feColorMatrix  type="matrix" values="1 0 0 0 0  0 1 0 0 0  0 0 1 0 0  0 0 0 1 0"/>
	</filter>
</defs>
<mask maskUnits="userSpaceOnUse" x="-1" y="-1" width="294" height="116" id="path-1-inside-1_994_26957_00000176745289891307356880000014749650014673022117_">
	<path class="st1" d="M6,0C2.7,0,0,2.7,0,6v39c6.8,0,12.4,5.8,12.4,13S6.8,71,0,71v37c0,3.3,2.7,6,6,6h280c3.3,0,6-2.7,6-6V6
		c0-3.3-2.7-6-6-6H6z"/>
</mask>
<path class="st2" d="M0,45h-1v1h1L0,45z M0,71l0-1h-1v1H0z M1,6c0-2.8,2.2-5,5-5v-2C2.1-1-1,2.1-1,6H1z M1,45V6h-2v39H1z M0,46
	c6.2,0,11.4,5.3,11.4,12h2c0-7.7-5.9-14-13.4-14L0,46z M11.4,58c0,6.7-5.1,12-11.4,12l0,2c7.4,0,13.4-6.3,13.4-14H11.4z M1,108V71
	h-2v37H1z M6,113c-2.8,0-5-2.2-5-5h-2c0,3.9,3.1,7,7,7V113z M286,113H6v2h280V113z M291,108c0,2.8-2.2,5-5,5v2c3.9,0,7-3.1,7-7H291z
	 M291,6v102h2V6H291z M286,1c2.8,0,5,2.2,5,5h2c0-3.9-3.1-7-7-7V1z M6,1h280v-2H6V1z"/>
<path class="st3" d="M252,1h34c3.3,0,6,2.7,6,6v101c0,3.3-2.7,6-6,6h-34V1z"/>
<path class="st4" d="M278.1,95.8c0,0.8-0.2,1.6-0.6,2.2c-0.4,0.6-0.9,1.1-1.6,1.5c-0.7,0.4-1.4,0.5-2.2,0.5s-1.5-0.2-2.2-0.5
	c-0.7-0.4-1.2-0.9-1.6-1.5c-0.4-0.6-0.6-1.4-0.6-2.2c0-0.6,0.1-1.1,0.3-1.7c0.2-0.5,0.5-1,0.9-1.4l0.6,0.6c-0.3,0.3-0.6,0.7-0.7,1.1
	c-0.2,0.4-0.3,0.8-0.3,1.3c0,0.7,0.2,1.3,0.5,1.8c0.3,0.5,0.7,0.9,1.3,1.2c0.5,0.3,1.1,0.4,1.8,0.4c0.7,0,1.3-0.1,1.8-0.4
	c0.5-0.3,1-0.7,1.3-1.2c0.3-0.5,0.5-1.1,0.5-1.8c0-0.5-0.1-0.9-0.3-1.3c-0.2-0.4-0.4-0.8-0.8-1.1l0.6-0.6c0.4,0.4,0.7,0.8,1,1.4
	C278,94.7,278.1,95.3,278.1,95.8z M277.2,80.8c0-0.6-0.2-1.2-0.5-1.7c-0.3-0.5-0.7-0.9-1.3-1.2c-0.5-0.3-1.1-0.4-1.8-0.4
	c-0.6,0-1.2,0.1-1.8,0.4c-0.5,0.3-1,0.7-1.3,1.2c-0.3,0.5-0.5,1.1-0.5,1.7c0,0.6,0.2,1.2,0.5,1.8c0.3,0.5,0.7,0.9,1.3,1.2
	c0.5,0.3,1.1,0.4,1.8,0.4s1.3-0.1,1.8-0.4c0.5-0.3,1-0.7,1.3-1.2C277.1,82.1,277.2,81.5,277.2,80.8z M273.7,85.1
	c-0.8,0-1.5-0.2-2.2-0.5c-0.7-0.4-1.2-0.9-1.6-1.5c-0.4-0.6-0.6-1.4-0.6-2.2c0-0.8,0.2-1.5,0.6-2.2c0.4-0.6,0.9-1.2,1.6-1.5
	c0.7-0.4,1.4-0.6,2.2-0.6c0.8,0,1.6,0.2,2.2,0.6c0.7,0.4,1.2,0.9,1.6,1.5c0.4,0.6,0.6,1.4,0.6,2.2c0,0.8-0.2,1.5-0.6,2.2
	c-0.4,0.6-0.9,1.2-1.6,1.5C275.2,84.9,274.5,85.1,273.7,85.1z M277.2,65.2c0,0.5-0.1,0.9-0.3,1.3c-0.2,0.4-0.5,0.7-0.9,0.9
	c-0.4,0.2-0.8,0.3-1.3,0.3h-5.3v0.9h5.3c0.6,0,1.2-0.1,1.8-0.4c0.5-0.3,0.9-0.7,1.2-1.2c0.3-0.5,0.5-1.1,0.5-1.7s-0.2-1.1-0.5-1.7
	c-0.3-0.5-0.7-0.9-1.2-1.2c-0.5-0.3-1.1-0.5-1.8-0.5h-5.3v0.9h5.3c0.5,0,0.9,0.1,1.3,0.3s0.7,0.5,0.9,0.9
	C277.1,64.3,277.2,64.7,277.2,65.2z M273.8,50.1c0-0.3-0.1-0.6-0.3-0.9c-0.2-0.3-0.4-0.5-0.7-0.7c-0.3-0.2-0.6-0.3-0.9-0.3
	c-0.3,0-0.6,0.1-0.9,0.3c-0.3,0.2-0.5,0.4-0.7,0.7c-0.2,0.3-0.3,0.6-0.3,0.9v2.4h3.6V50.1z M269.3,53.4v-3.3c0-0.5,0.1-0.9,0.4-1.3
	c0.2-0.4,0.6-0.7,1-0.9c0.4-0.2,0.9-0.4,1.3-0.4c0.5,0,0.9,0.1,1.3,0.4c0.4,0.2,0.7,0.5,1,0.9c0.2,0.4,0.4,0.8,0.4,1.3v2.4h3.4v0.9
	H269.3z M277.2,35.6c0-0.6-0.2-1.2-0.5-1.7c-0.3-0.5-0.7-0.9-1.3-1.2c-0.5-0.3-1.1-0.4-1.8-0.4c-0.6,0-1.2,0.1-1.8,0.4
	c-0.5,0.3-1,0.7-1.3,1.2c-0.3,0.5-0.5,1.1-0.5,1.7c0,0.6,0.2,1.2,0.5,1.8c0.3,0.5,0.7,0.9,1.3,1.2c0.5,0.3,1.1,0.4,1.8,0.4
	s1.3-0.1,1.8-0.4c0.5-0.3,1-0.7,1.3-1.2C277.1,36.8,277.2,36.3,277.2,35.6z M273.7,39.9c-0.8,0-1.5-0.2-2.2-0.5
	c-0.7-0.4-1.2-0.9-1.6-1.5c-0.4-0.6-0.6-1.4-0.6-2.2c0-0.8,0.2-1.5,0.6-2.2c0.4-0.6,0.9-1.2,1.6-1.5c0.7-0.4,1.4-0.6,2.2-0.6
	c0.8,0,1.6,0.2,2.2,0.6c0.7,0.4,1.2,0.9,1.6,1.5c0.4,0.6,0.6,1.4,0.6,2.2c0,0.8-0.2,1.5-0.6,2.2c-0.4,0.6-0.9,1.2-1.6,1.5
	C275.2,39.7,274.5,39.9,273.7,39.9z M278,16.5v0.9l-7.2,5.3h7.2v0.9h-8.7v-0.9l7.2-5.3h-7.2v-0.9H278z"/>
</svg>
