<svg width="24" height="24" viewBox="0 0 24 24" fill="none" xmlns="http://www.w3.org/2000/svg">
<path d="M16.4116 13.1763H18.7646V21.4116" stroke="#FF5C38" stroke-width="1.4" stroke-linejoin="round"/>
<path d="M21.4118 20.4119C21.4118 20.9642 20.9641 21.4119 20.4118 21.4119H15.353C14.8007 21.4119 14.353 20.9642 14.353 20.4119V9.88327C14.353 9.72802 14.3892 9.57491 14.4586 9.43606L16.988 4.37724C17.3565 3.64019 18.4083 3.64019 18.7769 4.37723L21.3063 9.43606C21.3757 9.57491 21.4118 9.72802 21.4118 9.88327V20.4119Z" stroke="#FF5C38" stroke-width="1.4" stroke-linejoin="round"/>
<path d="M13.3531 9.64697H3.58838C3.03609 9.64697 2.58838 10.0947 2.58838 10.647V20.4117C2.58838 20.964 3.03609 21.4117 3.58838 21.4117H13.3531C13.9054 21.4117 14.3531 20.964 14.3531 20.4117V10.647C14.3531 10.0947 13.9054 9.64697 13.3531 9.64697Z" stroke="#FF5C38" stroke-width="1.4" stroke-linejoin="round"/>
<path d="M14.6295 9.09442C14.4601 9.4332 14.1138 9.6472 13.7351 9.6472H4.08838C3.3748 9.6472 2.89085 8.92128 3.1653 8.26259L5.27315 3.20376C5.42842 2.83112 5.79252 2.58838 6.19622 2.58838H16.2645C17.0078 2.58838 17.4913 3.37069 17.1589 4.03559L14.6295 9.09442Z" fill="#E6E6E6" stroke="#FF5C38" stroke-width="1.4" stroke-linejoin="round"/>
<path d="M5.5293 12.5884V14.9413" stroke="#FF5C38" stroke-width="1.4" stroke-linejoin="round"/>
<path d="M8.4707 12.5884V14.9413" stroke="#FF5C38" stroke-width="1.4" stroke-linejoin="round"/>
<path d="M11.4116 12.5884V14.9413" stroke="#FF5C38" stroke-width="1.4" stroke-linejoin="round"/>
</svg>
