<?xml version="1.0" encoding="utf-8"?>
<!-- Generator: Adobe Illustrator 26.3.1, SVG Export Plug-In . SVG Version: 6.00 Build 0)  -->
<svg version="1.1" id="레이어_1" xmlns="http://www.w3.org/2000/svg" xmlns:xlink="http://www.w3.org/1999/xlink" x="0px"
	 y="0px" viewBox="0 0 22 22" style="enable-background:new 0 0 22 22;" xml:space="preserve">
<style type="text/css">
	.st0{fill:#CCCCCC;}
</style>
<g>
	<path class="st0" d="M11,22C4.93,22,0,17.07,0,11S4.93,0,11,0c6.07,0,11,4.93,11,11S17.07,22,11,22z M11,1C5.49,1,1,5.49,1,11
		c0,5.51,4.49,10,10,10s10-4.49,10-10C21,5.49,16.51,1,11,1z"/>
	<path class="st0" d="M10.33,15.55c-0.2,0-0.4-0.07-0.55-0.22l-4-3.82c-0.32-0.31-0.33-0.81-0.03-1.13c0.3-0.32,0.81-0.33,1.13-0.03
		l3.45,3.3l5.45-5.1c0.32-0.3,0.83-0.29,1.13,0.04c0.3,0.32,0.29,0.83-0.04,1.13l-6,5.62C10.72,15.48,10.52,15.55,10.33,15.55z"/>
</g>
</svg>
