<svg width="24" height="24" viewBox="0 0 24 24" fill="none" xmlns="http://www.w3.org/2000/svg">
<path d="M15 5H4C3.44772 5 3 5.44772 3 6V16C3 16.5523 3.44772 17 4 17H15C15.5523 17 16 16.5523 16 16V6C16 5.44772 15.5523 5 15 5Z" stroke="#FF5C38" stroke-width="1.4" stroke-linejoin="round"/>
<path d="M16 8H18.8256C19.1691 8 19.4886 8.17633 19.6717 8.467L22.8461 13.5062C22.9467 13.6658 23 13.8506 23 14.0392V16C23 16.5523 22.5523 17 22 17H16" stroke="#FF5C38" stroke-width="1.4" stroke-linejoin="round"/>
<path d="M18 20C19.1046 20 20 19.1046 20 18C20 16.8954 19.1046 16 18 16C16.8954 16 16 16.8954 16 18C16 19.1046 16.8954 20 18 20Z" fill="#E4E4E4" stroke="#FF5C38" stroke-width="1.4" stroke-linejoin="round"/>
<path d="M7 20C8.10457 20 9 19.1046 9 18C9 16.8954 8.10457 16 7 16C5.89543 16 5 16.8954 5 18C5 19.1046 5.89543 20 7 20Z" fill="#E4E4E4" stroke="#FF5C38" stroke-width="1.4" stroke-linejoin="round"/>
<path d="M16 13H3" stroke="#FF5C38" stroke-width="1.4" stroke-linejoin="round"/>
<path d="M5 7H1" stroke="#FF5C38" stroke-width="1.4" stroke-linecap="round"/>
<path d="M7 9H2" stroke="#FF5C38" stroke-width="1.4" stroke-linecap="round"/>
<path d="M5 11H1" stroke="#FF5C38" stroke-width="1.4" stroke-linecap="round"/>
</svg>
