<svg width="24" height="24" viewBox="0 0 24 24" fill="none" xmlns="http://www.w3.org/2000/svg">
<path d="M11.6002 18.2588C11.6355 18.2588 11.6355 18.2588 11.6002 18.2588C11.5649 18.2588 11.5649 18.2823 11.6002 18.2588Z" fill="#E6E6E6" stroke="#565656" stroke-width="1.4" stroke-linejoin="round"/>
<path d="M11.5999 2.58838C10.0246 2.60546 8.52055 3.24682 7.41771 4.37172C6.31487 5.49661 5.70341 7.01313 5.71752 8.58839C5.71631 9.49548 5.87562 10.3956 6.18811 11.2472C7.05869 14.0648 11.2352 17.8354 11.5999 18.2354C11.9646 17.8295 16.1352 14.0648 17.0058 11.2648C17.3198 10.4074 17.4811 9.50153 17.4822 8.58839C17.4963 7.01313 16.8849 5.49661 15.782 4.37172C14.6792 3.24682 13.1751 2.60546 11.5999 2.58838ZM11.5999 11.2178C11.0182 11.2178 10.4495 11.0453 9.96584 10.7221C9.48217 10.3989 9.1052 9.93959 8.88259 9.40216C8.65998 8.86473 8.60173 8.27333 8.71521 7.7028C8.8287 7.13227 9.10883 6.60822 9.52016 6.19688C9.93149 5.78555 10.4555 5.50542 11.0261 5.39194C11.5966 5.27845 12.188 5.33671 12.7254 5.55932C13.2628 5.78193 13.7222 6.15891 14.0454 6.64259C14.3686 7.12626 14.5411 7.69489 14.5411 8.2766C14.5411 9.05665 14.2312 9.80475 13.6796 10.3563C13.128 10.9079 12.3799 11.2178 11.5999 11.2178Z" fill="#E6E6E6" stroke="#565656" stroke-width="1.4" stroke-linejoin="round"/>
<path d="M13.8178 16.1177H16.8801C17.2928 16.1177 17.6632 16.3713 17.8124 16.7561L19.0898 20.0502C19.344 20.7056 18.8604 21.4118 18.1575 21.4118H5.04871C4.34576 21.4118 3.86221 20.7056 4.11636 20.0502L5.39374 16.7561C5.54298 16.3713 5.91333 16.1177 6.3261 16.1177H9.51779" stroke="#565656" stroke-width="1.4" stroke-linejoin="round"/>
</svg>
