<svg width="16" height="13" viewBox="0 0 16 13" fill="none" xmlns="http://www.w3.org/2000/svg">
<path d="M9.25305 11.4246C8.66726 12.0104 7.71751 12.0104 7.13173 11.4246L3.03051 7.3234L2.11127 6.40416C1.47365 5.76654 1.11543 4.90174 1.11543 4C1.11543 3.09826 1.47365 2.23346 2.11127 1.59584C2.74889 0.958214 3.6137 0.600001 4.51543 0.6C5.31519 0.6 6.2701 1.13657 6.96198 1.79153C6.98698 1.8152 7.01177 1.84775 7.03376 1.89083L7.47911 1.66353L7.03376 1.89083C7.52815 2.85944 8.87751 2.94943 9.49614 2.05504L9.60726 1.89437C9.62658 1.86645 9.64728 1.8418 9.66895 1.82043C10.382 1.11714 11.0858 0.6 11.8693 0.6C12.7711 0.6 13.6359 0.958213 14.2735 1.59584C14.9111 2.23346 15.2693 3.09826 15.2693 4C15.2693 4.90174 14.9111 5.76654 14.2735 6.40416L9.25305 11.4246Z" fill="#E7382D" stroke="#E7382D" stroke-linecap="round" stroke-linejoin="round"/>
</svg>
