<?xml version="1.0" encoding="utf-8"?>
<!-- Generator: Adobe Illustrator 26.3.1, SVG Export Plug-In . SVG Version: 6.00 Build 0)  -->
<svg version="1.1" id="레이어_1" xmlns="http://www.w3.org/2000/svg" xmlns:xlink="http://www.w3.org/1999/xlink" x="0px"
	 y="0px" viewBox="0 0 15 15" style="enable-background:new 0 0 15 15;" xml:space="preserve">
<style type="text/css">
	.st0{fill-rule:evenodd;clip-rule:evenodd;fill:#D9372E;}
</style>
<path class="st0" d="M1.38,6.75c0-2.76,2.24-5,5-5s5,2.24,5,5s-2.24,5-5,5S1.38,9.51,1.38,6.75z M6.38,0.55
	c-3.42,0-6.2,2.78-6.2,6.2c0,3.42,2.78,6.2,6.2,6.2c1.69,0,3.23-0.68,4.34-1.78c0.02,0.04,0.05,0.07,0.08,0.11l2.99,2.99
	c0.23,0.23,0.61,0.23,0.85,0c0.23-0.23,0.23-0.61,0-0.85l-2.99-2.99c-0.06-0.06-0.12-0.1-0.19-0.13c0.7-1.01,1.12-2.23,1.12-3.55
	C12.58,3.33,9.8,0.55,6.38,0.55z"/>
</svg>
