<svg width="195" height="40" viewBox="0 0 195 40" fill="none" xmlns="http://www.w3.org/2000/svg">
<mask id="path-1-inside-1_25_342" fill="white">
<path fill-rule="evenodd" clip-rule="evenodd" d="M7.10185 24.8889L1 21.366C0.333333 20.9811 0.333333 20.0189 1 19.634L6.84974 16.2566C8.60239 7.00011 16.7337 0 26.5 0H174.5C185.546 0 194.5 8.95431 194.5 20C194.5 31.0457 185.546 40 174.5 40H26.5C17.1409 40 9.28319 33.5714 7.10185 24.8889Z"/>
</mask>
<path fill-rule="evenodd" clip-rule="evenodd" d="M7.10185 24.8889L1 21.366C0.333333 20.9811 0.333333 20.0189 1 19.634L6.84974 16.2566C8.60239 7.00011 16.7337 0 26.5 0H174.5C185.546 0 194.5 8.95431 194.5 20C194.5 31.0457 185.546 40 174.5 40H26.5C17.1409 40 9.28319 33.5714 7.10185 24.8889Z" fill="#F9F9F9"/>
<path d="M7.10185 24.8889L9.04157 24.4016L8.83523 23.5803L8.10185 23.1569L7.10185 24.8889ZM1 21.366L-1.72853e-06 23.0981L2.38419e-07 23.0981L1 21.366ZM1 19.634L-2.38419e-07 17.9019H-1.72853e-06L1 19.634ZM6.84974 16.2566L7.84974 17.9887L8.64417 17.53L8.81483 16.6287L6.84974 16.2566ZM8.10185 23.1569L2 19.634L2.38419e-07 23.0981L6.10185 26.621L8.10185 23.1569ZM2 19.634C2.66667 20.0189 2.66667 20.9811 2 21.366L-1.72853e-06 17.9019C-2 19.0566 -2 21.9434 -1.72853e-06 23.0981L2 19.634ZM2 21.366L7.84974 17.9887L5.84974 14.5246L-2.38419e-07 17.9019L2 21.366ZM8.81483 16.6287C10.392 8.29896 17.7125 2 26.5 2V-2C15.7549 -2 6.81279 5.70126 4.88466 15.8845L8.81483 16.6287ZM26.5 2H174.5V-2H26.5V2ZM174.5 2C184.441 2 192.5 10.0589 192.5 20H196.5C196.5 7.84974 186.65 -2 174.5 -2V2ZM192.5 20C192.5 29.9411 184.441 38 174.5 38V42C186.65 42 196.5 32.1503 196.5 20H192.5ZM174.5 38H26.5V42H174.5V38ZM26.5 38C18.0795 38 11.0048 32.2161 9.04157 24.4016L5.16213 25.3763C7.56154 34.9267 16.2022 42 26.5 42V38Z" fill="#E7342D" mask="url(#path-1-inside-1_25_342)"/>
</svg>
