<svg width="70" height="70" viewBox="0 0 70 70" fill="none" xmlns="http://www.w3.org/2000/svg">
<path fill-rule="evenodd" clip-rule="evenodd" d="M62.2147 57.01C67.0835 50.9974 70 43.3393 70 35C70 15.67 54.33 0 35 0C15.67 0 0 15.67 0 35C0 54.33 15.67 70 35 70C42.9342 70 50.2517 67.36 56.1221 62.9104L63.8936 65.5721L62.2147 57.01Z" fill="#E7342C"/>
<g clip-path="url(#clip0_2253_57539)">
<path d="M50.7835 44.7793C50.6316 44.402 50.3892 44.0669 50.0913 43.7926C49.9435 43.6566 49.7825 43.5354 49.6123 43.4292C49.4375 43.3201 49.2537 43.2353 49.0665 43.1514C48.6631 42.97 48.3281 42.6711 48.0443 42.3348C47.7789 42.0206 47.5569 41.6711 47.3691 41.305C47.1773 40.9312 47.0206 40.5394 46.8872 40.141C46.7532 39.7405 46.6425 39.3325 46.545 38.9216C46.4443 38.498 46.3541 38.0712 46.2761 37.6427C46.1833 37.132 46.1105 36.6178 46.0498 36.1021C45.9889 35.5839 45.94 35.0642 45.8951 34.5443C45.8506 34.0278 45.81 33.5107 45.7654 32.9942C45.722 32.491 45.6792 31.987 45.6159 31.4858C45.5624 31.063 45.4882 30.6429 45.3945 30.2274C45.2993 29.8064 45.184 29.39 45.0486 28.9803C44.912 28.5671 44.7553 28.1605 44.5779 27.7633C44.4013 27.368 44.2046 26.982 43.9869 26.6084C43.7707 26.2369 43.5338 25.8775 43.2761 25.5341C43.0202 25.1932 42.7439 24.8683 42.4465 24.5633C42.1406 24.2493 41.8122 23.9577 41.4648 23.6912C41.1123 23.4209 40.7408 23.1764 40.354 22.9585C39.969 22.7415 39.5693 22.5514 39.159 22.3882C38.7478 22.2247 38.3257 22.0881 37.8972 21.9791C37.7155 21.9328 37.5309 21.8833 37.3451 21.8564C37.2643 21.8445 37.1829 21.8341 37.1018 21.8237C37.0429 21.8162 36.984 21.8083 36.9253 21.8008C36.9072 21.7985 36.8387 21.7988 36.831 21.7858C36.8241 21.7742 36.831 21.736 36.831 21.723V20.7183C36.831 20.6952 36.8272 20.6683 36.831 20.6451C36.8333 20.6307 36.8433 20.6205 36.8517 20.6078C36.8819 20.5621 36.9109 20.5155 36.9385 20.4681C36.9937 20.3729 37.0432 20.2742 37.086 20.1726C37.1749 19.9623 37.2353 19.7395 37.2597 19.512C37.3003 19.133 37.2404 18.7435 37.0926 18.3928C36.9558 18.0682 36.7433 17.7771 36.4767 17.5479C36.2093 17.3176 35.889 17.1512 35.5471 17.0664C35.1917 16.9782 34.815 16.9779 34.4593 17.0655C34.1177 17.1497 33.7973 17.3158 33.5299 17.5456C33.2645 17.7736 33.0526 18.0629 32.9154 18.3859C32.7665 18.7366 32.7089 19.122 32.7435 19.5013C32.7633 19.7209 32.8145 19.938 32.897 20.1422C32.9381 20.2438 32.9867 20.3422 33.0425 20.4365C33.0695 20.4822 33.0983 20.5268 33.1288 20.5705C33.1431 20.591 33.1653 20.6124 33.1756 20.635C33.1788 20.642 33.1774 20.6367 33.1785 20.6414C33.1828 20.6599 33.1785 20.6842 33.1785 20.703V21.7091C33.1785 21.7288 33.1854 21.7635 33.1785 21.7823C33.1731 21.7973 33.1509 21.7919 33.1339 21.7939C33.075 21.8008 33.0163 21.8078 32.9574 21.8153C32.8737 21.8257 32.7897 21.8367 32.7064 21.8489C32.5456 21.8723 32.3869 21.9108 32.229 21.949C31.7971 22.0534 31.3718 22.1854 30.9566 22.3445C30.544 22.5028 30.1414 22.6883 29.7532 22.9004C29.365 23.1125 28.9915 23.3512 28.6364 23.6157C28.2824 23.8795 27.9477 24.1689 27.6354 24.4814C27.3346 24.7823 27.0546 25.1041 26.7952 25.4415C26.5338 25.7818 26.2931 26.1385 26.0734 26.5075C25.852 26.879 25.6516 27.2627 25.4716 27.6562C25.291 28.0503 25.1309 28.4539 24.9911 28.8645C24.8514 29.2748 24.7317 29.6918 24.6322 30.114C24.5345 30.5292 24.4565 30.9493 24.3993 31.3724C24.3329 31.8622 24.2906 32.3559 24.2475 32.8484C24.2018 33.3686 24.1609 33.8892 24.1167 34.4097C24.0727 34.9259 24.0255 35.4421 23.9671 35.9569C23.9085 36.4746 23.838 36.991 23.7486 37.5044C23.6721 37.9427 23.5812 38.3791 23.4809 38.8122C23.386 39.2214 23.2793 39.6279 23.1502 40.0278C23.0205 40.4297 22.8681 40.8253 22.6815 41.2043C22.4995 41.5741 22.2841 41.9286 22.0259 42.2495C21.7527 42.5889 21.4318 42.8973 21.0428 43.0982C20.9479 43.1471 20.8487 43.1858 20.752 43.231C20.6609 43.2735 20.5717 43.3201 20.4846 43.3704C20.3095 43.4717 20.1433 43.5883 19.9897 43.72C19.6841 43.9818 19.4293 44.3051 19.2617 44.6731C19.0745 45.0843 18.9945 45.5426 19.0003 45.9931C19.006 46.4385 19.0909 46.902 19.283 47.3054C19.3727 47.4943 19.4929 47.6705 19.6461 47.8132C19.8066 47.9625 20.0004 48.0632 20.2112 48.119C20.4352 48.1783 20.6681 48.1917 20.8984 48.1986C21.1592 48.2067 21.42 48.2119 21.6811 48.218C22.2091 48.2301 22.7367 48.2411 23.2647 48.2487C23.796 48.2565 24.3274 48.2602 24.8588 48.2602C25.3885 48.2602 25.9182 48.2602 26.4478 48.2602C26.9775 48.2602 27.5072 48.2602 28.0368 48.2602C28.5685 48.2602 29.1002 48.2602 29.6319 48.2602H40.3448C40.8765 48.2602 41.4082 48.2602 41.9399 48.2602C42.4675 48.2602 42.9955 48.2602 43.5231 48.2602C44.0548 48.2602 44.5862 48.2602 45.1179 48.2602C45.6475 48.2602 46.1769 48.2565 46.7063 48.2487C47.236 48.2408 47.7659 48.2299 48.2956 48.2171C48.5576 48.211 48.8192 48.2053 49.0812 48.1977C49.3118 48.1911 49.5447 48.1792 49.7693 48.1228C49.9812 48.0695 50.1773 47.972 50.3404 47.8245C50.4953 47.6841 50.6173 47.5091 50.7087 47.3213C50.8053 47.1228 50.8718 46.9075 50.9192 46.6919C50.9684 46.4688 50.9948 46.2408 50.9991 46.0125C51.0069 45.593 50.9402 45.1685 50.7835 44.7787C50.4824 44.0305 51.0814 45.5192 50.7835 44.7787V44.7793Z" fill="white"/>
<path d="M39.5726 49.5742C39.5726 51.4666 37.5252 53.0005 34.9997 53.0005C32.4741 53.0005 30.4268 51.4666 30.4268 49.5742H39.5723H39.5726Z" fill="white"/>
</g>
<path d="M27.436 22.2029C27.4075 22.1666 27.3788 22.1305 27.3503 22.0942C27.1751 21.8694 26.8192 21.8077 26.5666 21.9676C23.1928 24.0973 21.2339 27.5903 21.2078 31.5232C21.2057 31.8178 21.4496 32.0794 21.737 32.1036C21.7835 32.1079 21.8301 32.1122 21.8766 32.1164C22.1645 32.1409 22.388 31.9411 22.3899 31.673C22.4139 28.0479 24.2195 24.8285 27.3292 22.8655C27.5591 22.7203 27.6114 22.4282 27.436 22.2031L27.436 22.2029Z" fill="white"/>
<path d="M42.5807 22.1928C42.6093 22.1566 42.6382 22.1207 42.6668 22.0845C42.8427 21.8603 43.1988 21.7998 43.4509 21.9606C46.8173 24.102 48.7637 27.6018 48.7762 31.5347C48.7772 31.8294 48.5324 32.0901 48.2449 32.1133C48.1985 32.1175 48.1518 32.1216 48.1053 32.1257C47.8173 32.1491 47.5946 31.9485 47.5935 31.6804C47.5819 28.055 45.7878 24.8294 42.6849 22.8556C42.4555 22.7096 42.4042 22.4173 42.5804 22.1928L42.5807 22.1928Z" fill="white"/>
<defs>
<clipPath id="clip0_2253_57539">
<rect width="32" height="36" fill="white" transform="translate(19 17)"/>
</clipPath>
</defs>
</svg>
