<svg width="15" height="14" viewBox="0 0 15 14" fill="none" xmlns="http://www.w3.org/2000/svg">
<path d="M3.11593 14C3.18114 14 3.24635 13.9853 3.30654 13.9534L7.49875 11.7951L11.691 13.9534C11.8289 14.0245 11.9969 14.0135 12.1223 13.9227C12.249 13.8331 12.3117 13.681 12.2854 13.5301L11.4828 8.96196L14.8762 5.73006C14.9878 5.62331 15.0279 5.4638 14.9803 5.31902C14.9326 5.17423 14.8034 5.06748 14.6492 5.0454L9.96165 4.38037L7.86743 0.223313C7.79846 0.0858896 7.6555 0 7.5 0C7.3445 0 7.20154 0.0871166 7.13257 0.223313L5.03835 4.38037L0.350802 5.0454C0.196557 5.06748 0.0673923 5.17301 0.0197401 5.31902C-0.0279131 5.4638 0.0122156 5.62331 0.123824 5.73006L3.51722 8.96319L2.71464 13.5313C2.6883 13.6822 2.75101 13.8344 2.87766 13.9239C2.94914 13.9742 3.03316 14 3.11844 14H3.11593ZM7.49875 10.9411C7.43354 10.9411 7.36707 10.9558 7.30813 10.9877L3.66143 12.8663L4.35992 8.89202C4.38249 8.76196 4.3386 8.62945 4.24204 8.5362L1.29007 5.7227L5.36941 5.14479C5.50234 5.12638 5.61896 5.04417 5.6779 4.92515L7.5 1.30798L9.3221 4.92515C9.38104 5.04417 9.49766 5.12638 9.63059 5.14479L13.7087 5.7227L10.7567 8.5362C10.6601 8.62822 10.6163 8.76074 10.6388 8.89202L11.3373 12.8663L7.69061 10.9877C7.63042 10.9571 7.56521 10.9411 7.5 10.9411H7.49875Z" fill="#1A1A1A"/>
</svg>
