<svg width="112" height="112" viewBox="0 0 112 112" fill="none" xmlns="http://www.w3.org/2000/svg">
<circle cx="56" cy="56" r="56" fill="black" fill-opacity="0.6"/>
<path d="M34.5572 49.698V51.498H33.2432V56.016C34.0832 55.944 34.7132 55.878 35.1332 55.818L35.2772 57.474C32.8892 57.882 29.7152 58.086 25.7552 58.086L25.5212 56.286H27.2312V51.498H25.9352V49.698H34.5572ZM27.9152 59.148H30.1472V62.424H38.8772V64.206H27.9152V59.148ZM29.3912 56.232C30.1592 56.208 30.7292 56.184 31.1012 56.16V51.498H29.3912V56.232ZM36.0332 48.384H38.2652V52.956H40.4432V54.792H38.2652V60.246H36.0332V48.384ZM55.1496 48.366V64.494H53.0436V56.34H51.5856V63.756H49.4976V48.636H51.5856V54.558H53.0436V48.366H55.1496ZM41.7936 50.04H48.1296V60.444H41.7936V50.04ZM46.0596 58.698V51.786H43.8636V58.698H46.0596ZM65.446 54.162V56.142H71.638V57.906H57.058V56.142H63.196V54.162H65.446ZM57.688 53.316C59.116 53.196 60.262 52.908 61.126 52.452C61.99 51.984 62.524 51.438 62.728 50.814H58.39V49.068H70.342V50.814H65.968C66.172 51.438 66.706 51.984 67.57 52.452C68.434 52.908 69.58 53.196 71.008 53.316L70.234 55.062C68.758 54.918 67.516 54.588 66.508 54.072C65.5 53.544 64.78 52.878 64.348 52.074C63.916 52.878 63.196 53.544 62.188 54.072C61.18 54.588 59.938 54.918 58.462 55.062L57.688 53.316ZM58.732 61.668C58.732 60.768 59.224 60.072 60.208 59.58C61.192 59.088 62.56 58.842 64.312 58.842C66.076 58.842 67.45 59.088 68.434 59.58C69.418 60.072 69.91 60.768 69.91 61.668C69.91 62.58 69.418 63.282 68.434 63.774C67.45 64.266 66.076 64.512 64.312 64.512C62.548 64.512 61.174 64.266 60.19 63.774C59.218 63.282 58.732 62.58 58.732 61.668ZM60.982 61.668C60.982 62.064 61.258 62.358 61.81 62.55C62.362 62.742 63.196 62.838 64.312 62.838C65.44 62.838 66.28 62.742 66.832 62.55C67.384 62.358 67.66 62.064 67.66 61.668C67.66 60.9 66.544 60.516 64.312 60.516C62.092 60.516 60.982 60.9 60.982 61.668ZM76.5344 60.876V58.356H74.5004V52.974H83.5364V51.192H74.4644V49.428H85.7504V54.72H76.6964V56.574H86.1104V58.356H83.8244V60.876H87.4064V62.694H72.8084V60.876H76.5344ZM81.6464 60.876V58.356H78.7304V60.876H81.6464Z" fill="white"/>
</svg>
