<svg width="32" height="30" viewBox="0 0 32 30" fill="none" xmlns="http://www.w3.org/2000/svg">
<circle cx="17" cy="15" r="15" fill="black" fill-opacity="0.3"/>
<path fill-rule="evenodd" clip-rule="evenodd" d="M20.5 13C21.8807 13 23 11.8807 23 10.5C23 9.11929 21.8807 8 20.5 8C19.1193 8 18 9.11929 18 10.5C18 11.8807 19.1193 13 20.5 13ZM20.5 14C22.433 14 24 12.433 24 10.5C24 8.567 22.433 7 20.5 7C18.567 7 17 8.567 17 10.5C17 10.8882 17.0632 11.2616 17.1798 11.6105L13.5897 13.8543C13.0008 12.7509 11.8381 12 10.5 12C8.567 12 7 13.567 7 15.5C7 17.433 8.567 19 10.5 19C11.8572 19 13.034 18.2275 13.6147 17.0981L17.4407 18.7986C17.1599 19.3022 17 19.8824 17 20.5C17 22.433 18.567 24 20.5 24C22.433 24 24 22.433 24 20.5C24 18.567 22.433 17 20.5 17C19.5551 17 18.6976 17.3744 18.0679 17.983L13.9401 16.1484C13.9794 15.9383 14 15.7216 14 15.5C14 15.2668 13.9772 15.039 13.9337 14.8186L17.6322 12.507C18.2652 13.4098 19.3137 14 20.5 14ZM20.5 23C21.8807 23 23 21.8807 23 20.5C23 19.1193 21.8807 18 20.5 18C19.1193 18 18 19.1193 18 20.5C18 21.8807 19.1193 23 20.5 23ZM13 15.5C13 16.8807 11.8807 18 10.5 18C9.11929 18 8 16.8807 8 15.5C8 14.1193 9.11929 13 10.5 13C11.8807 13 13 14.1193 13 15.5Z" fill="white"/>
</svg>
