<svg width="58" height="58" viewBox="0 0 58 58" fill="none" xmlns="http://www.w3.org/2000/svg">
<path d="M8.98934 23.996C9.61468 23.996 10.184 24.122 10.6973 24.374C11.2107 24.6167 11.612 24.9573 11.9013 25.396C12.1907 25.8253 12.3353 26.3153 12.3353 26.866C12.3353 27.4073 12.1907 27.8927 11.9013 28.322C11.612 28.7513 11.2107 29.0873 10.6973 29.33C10.184 29.5727 9.61468 29.694 8.98934 29.694C8.36401 29.694 7.79468 29.5727 7.28134 29.33C6.76801 29.0873 6.36668 28.7513 6.07734 28.322C5.78801 27.8927 5.64334 27.4073 5.64334 26.866C5.64334 26.3153 5.78801 25.8253 6.07734 25.396C6.36668 24.9573 6.76801 24.6167 7.28134 24.374C7.79468 24.122 8.36401 23.996 8.98934 23.996ZM7.32334 26.866C7.32334 27.314 7.47734 27.6687 7.78534 27.93C8.10268 28.182 8.50401 28.308 8.98934 28.308C9.47468 28.308 9.87134 28.182 10.1793 27.93C10.4873 27.6687 10.6413 27.314 10.6413 26.866C10.6413 26.4087 10.4873 26.0493 10.1793 25.788C9.87134 25.5267 9.47468 25.396 8.98934 25.396C8.50401 25.396 8.10268 25.5313 7.78534 25.802C7.47734 26.0633 7.32334 26.418 7.32334 26.866ZM7.53334 30.436H15.8773V33.838H9.25534V34.692H16.1853V36.036H7.56134V32.578H14.1413V31.78H7.53334V30.436ZM14.1273 23.632H15.8773V29.918H14.1273V23.632ZM22.5137 24.612V26.46C22.5137 27.6827 22.7843 28.8027 23.3257 29.82C23.8763 30.8373 24.6557 31.5653 25.6637 32.004L24.6557 33.404C23.9557 33.0867 23.3537 32.6293 22.8497 32.032C22.3457 31.4253 21.949 30.7207 21.6597 29.918C21.3703 30.7953 20.9643 31.5607 20.4417 32.214C19.9283 32.858 19.303 33.348 18.5657 33.684L17.5297 32.256C18.5657 31.808 19.3637 31.052 19.9237 29.988C20.4837 28.924 20.7637 27.748 20.7637 26.46V24.612H22.5137ZM26.3357 23.604H28.0717V36.19H26.3357V23.604ZM41.274 29.512V30.884H36.472V31.976H39.916V36.036H31.264V31.976H34.736V30.884H29.934V29.512H41.274ZM30.928 23.982H40.252V25.354H38.628V27.314H40.168V28.7H31.012V27.314H32.552V25.354H30.928V23.982ZM38.222 34.664V33.32H32.958V34.664H38.222ZM36.906 27.314V25.354H34.302V27.314H36.906ZM50.9063 26.208V23.632H52.6423V30.002H50.9063V27.58H48.9323V26.208H50.9063ZM42.0723 28.924C43.0057 28.6253 43.729 28.1587 44.2423 27.524C44.7557 26.88 45.0217 26.1987 45.0403 25.48H42.5343V24.108H49.2683V25.48H46.7903C46.809 26.1707 47.061 26.8053 47.5463 27.384C48.0317 27.9627 48.727 28.3827 49.6323 28.644L48.8203 30.016C48.1483 29.82 47.565 29.5213 47.0703 29.12C46.585 28.7187 46.2023 28.2473 45.9223 27.706C45.6423 28.3127 45.241 28.84 44.7183 29.288C44.205 29.7267 43.5937 30.0533 42.8843 30.268L42.0723 28.924ZM44.3683 30.52H52.6423V33.866H46.1043V34.692H53.0063V36.036H44.3963V32.606H50.9203V31.864H44.3683V30.52Z" fill="white"/>
<circle cx="29" cy="29" r="28.5" stroke="white"/>
</svg>
