<svg width="58" height="58" viewBox="0 0 58 58" fill="none" xmlns="http://www.w3.org/2000/svg">
<path d="M12.4333 24.654V26.054H11.4113V29.568C12.0647 29.512 12.5547 29.4607 12.8813 29.414L12.9933 30.702C11.136 31.0193 8.66734 31.178 5.58734 31.178L5.40534 29.778H6.73534V26.054H5.72734V24.654H12.4333ZM7.26734 32.004H9.00334V34.552H15.7933V35.938H7.26734V32.004ZM8.41534 29.736C9.01268 29.7173 9.45601 29.6987 9.74534 29.68V26.054H8.41534V29.736ZM13.5813 23.632H15.3173V27.188H17.0113V28.616H15.3173V32.858H13.5813V23.632ZM28.4497 23.618V36.162H26.8117V29.82H25.6777V35.588H24.0537V23.828H25.6777V28.434H26.8117V23.618H28.4497ZM18.0617 24.92H22.9897V33.012H18.0617V24.92ZM21.3797 31.654V26.278H19.6717V31.654H21.3797ZM36.458 28.126V29.666H41.274V31.038H29.934V29.666H34.708V28.126H36.458ZM30.424 27.468C31.5347 27.3747 32.426 27.1507 33.098 26.796C33.77 26.432 34.1853 26.0073 34.344 25.522H30.97V24.164H40.266V25.522H36.864C37.0227 26.0073 37.438 26.432 38.11 26.796C38.782 27.1507 39.6733 27.3747 40.784 27.468L40.182 28.826C39.034 28.714 38.068 28.4573 37.284 28.056C36.5 27.6453 35.94 27.1273 35.604 26.502C35.268 27.1273 34.708 27.6453 33.924 28.056C33.14 28.4573 32.174 28.714 31.026 28.826L30.424 27.468ZM31.236 33.964C31.236 33.264 31.6187 32.7227 32.384 32.34C33.1493 31.9573 34.2133 31.766 35.576 31.766C36.948 31.766 38.0167 31.9573 38.782 32.34C39.5473 32.7227 39.93 33.264 39.93 33.964C39.93 34.6733 39.5473 35.2193 38.782 35.602C38.0167 35.9847 36.948 36.176 35.576 36.176C34.204 36.176 33.1353 35.9847 32.37 35.602C31.614 35.2193 31.236 34.6733 31.236 33.964ZM32.986 33.964C32.986 34.272 33.2007 34.5007 33.63 34.65C34.0593 34.7993 34.708 34.874 35.576 34.874C36.4533 34.874 37.1067 34.7993 37.536 34.65C37.9653 34.5007 38.18 34.272 38.18 33.964C38.18 33.3667 37.312 33.068 35.576 33.068C33.8493 33.068 32.986 33.3667 32.986 33.964ZM45.0823 33.348V31.388H43.5003V27.202H50.5283V25.816H43.4723V24.444H52.2503V28.56H45.2083V30.002H52.5303V31.388H50.7523V33.348H53.5383V34.762H42.1843V33.348H45.0823ZM49.0583 33.348V31.388H46.7903V33.348H49.0583Z" fill="white"/>
<circle cx="29" cy="29" r="28.5" stroke="white"/>
</svg>
