<svg width="112" height="112" viewBox="0 0 112 112" fill="none" xmlns="http://www.w3.org/2000/svg">
<circle cx="56" cy="56" r="56" fill="black" fill-opacity="0.6"/>
<path d="M30.1292 48.852C30.9332 48.852 31.6652 49.014 32.3252 49.338C32.9852 49.65 33.5012 50.088 33.8732 50.652C34.2452 51.204 34.4312 51.834 34.4312 52.542C34.4312 53.238 34.2452 53.862 33.8732 54.414C33.5012 54.966 32.9852 55.398 32.3252 55.71C31.6652 56.022 30.9332 56.178 30.1292 56.178C29.3252 56.178 28.5932 56.022 27.9332 55.71C27.2732 55.398 26.7572 54.966 26.3852 54.414C26.0132 53.862 25.8272 53.238 25.8272 52.542C25.8272 51.834 26.0132 51.204 26.3852 50.652C26.7572 50.088 27.2732 49.65 27.9332 49.338C28.5932 49.014 29.3252 48.852 30.1292 48.852ZM27.9872 52.542C27.9872 53.118 28.1852 53.574 28.5812 53.91C28.9892 54.234 29.5052 54.396 30.1292 54.396C30.7532 54.396 31.2632 54.234 31.6592 53.91C32.0552 53.574 32.2532 53.118 32.2532 52.542C32.2532 51.954 32.0552 51.492 31.6592 51.156C31.2632 50.82 30.7532 50.652 30.1292 50.652C29.5052 50.652 28.9892 50.826 28.5812 51.174C28.1852 51.51 27.9872 51.966 27.9872 52.542ZM28.2572 57.132H38.9852V61.506H30.4712V62.604H39.3812V64.332H28.2932V59.886H36.7532V58.86H28.2572V57.132ZM36.7352 48.384H38.9852V56.466H36.7352V48.384ZM47.5176 49.644V52.02C47.5176 53.592 47.8656 55.032 48.5616 56.34C49.2696 57.648 50.2716 58.584 51.5676 59.148L50.2716 60.948C49.3716 60.54 48.5976 59.952 47.9496 59.184C47.3016 58.404 46.7916 57.498 46.4196 56.466C46.0476 57.594 45.5256 58.578 44.8536 59.418C44.1936 60.246 43.3896 60.876 42.4416 61.308L41.1096 59.472C42.4416 58.896 43.4676 57.924 44.1876 56.556C44.9076 55.188 45.2676 53.676 45.2676 52.02V49.644H47.5176ZM52.4316 48.348H54.6636V64.53H52.4316V48.348ZM71.638 55.944V57.708H65.464V59.112H69.892V64.332H58.768V59.112H63.232V57.708H57.058V55.944H71.638ZM58.336 48.834H70.324V50.598H68.236V53.118H70.216V54.9H58.444V53.118H60.424V50.598H58.336V48.834ZM67.714 62.568V60.84H60.946V62.568H67.714ZM66.022 53.118V50.598H62.674V53.118H66.022ZM84.0224 51.696V48.384H86.2544V56.574H84.0224V53.46H81.4844V51.696H84.0224ZM72.6644 55.188C73.8644 54.804 74.7944 54.204 75.4544 53.388C76.1144 52.56 76.4564 51.684 76.4804 50.76H73.2584V48.996H81.9164V50.76H78.7304C78.7544 51.648 79.0784 52.464 79.7024 53.208C80.3264 53.952 81.2204 54.492 82.3844 54.828L81.3404 56.592C80.4764 56.34 79.7264 55.956 79.0904 55.44C78.4664 54.924 77.9744 54.318 77.6144 53.622C77.2544 54.402 76.7384 55.08 76.0664 55.656C75.4064 56.22 74.6204 56.64 73.7084 56.916L72.6644 55.188ZM75.6164 57.24H86.2544V61.542H77.8484V62.604H86.7224V64.332H75.6524V59.922H84.0404V58.968H75.6164V57.24Z" fill="white"/>
</svg>
