<svg width="58" height="58" viewBox="0 0 58 58" fill="none" xmlns="http://www.w3.org/2000/svg">
<path d="M16.5346 19.328L17.9486 18.418C17.6686 17.984 17.2206 17.536 16.5906 17.186C15.4566 16.528 14.1826 16.458 13.3426 16.556C12.4326 16.696 11.2146 17.228 10.7246 18.432C10.3326 19.412 10.6406 20.644 11.1866 21.302C11.2706 21.414 11.5786 21.722 12.0266 22.002C12.3906 22.254 12.8246 22.436 13.3706 22.59L14.1126 22.786C15.5966 23.192 16.0586 23.402 16.2826 23.64C16.4926 23.864 16.6606 24.298 16.4366 24.732C16.2966 24.998 16.0866 25.194 15.7646 25.376C15.4146 25.53 15.0646 25.642 14.8406 25.67C13.9866 25.81 13.4126 25.698 12.5866 25.222C11.9706 24.858 11.6906 24.382 11.5926 24.144L10.0106 24.746C10.1646 25.138 10.7106 26.062 11.7746 26.678C12.8386 27.28 13.8886 27.49 15.0366 27.322C15.5266 27.266 16.1286 27.042 16.5486 26.832C17.2066 26.468 17.7526 25.908 18.0186 25.32C18.4526 24.102 18.0186 23.038 17.5006 22.478C17.0806 22.058 16.3386 21.666 14.4906 21.176L13.7766 20.98C13.3706 20.882 13.1746 20.784 12.9366 20.63C12.7266 20.49 12.6006 20.364 12.4606 20.224C12.2086 19.902 12.1386 19.412 12.2786 19.034C12.5306 18.446 13.0626 18.264 13.5806 18.194C14.2386 18.11 15.0086 18.18 15.7786 18.628C16.1706 18.866 16.3666 19.062 16.5346 19.328ZM24.7479 25.572C22.6199 25.572 21.2199 23.976 21.2199 21.946C21.2199 19.93 22.6199 18.334 24.7479 18.334C26.8759 18.334 28.2899 19.93 28.2899 21.946C28.2899 23.976 26.8759 25.572 24.7479 25.572ZM19.5399 21.946C19.5399 24.872 21.6679 27.266 24.7479 27.266C27.8279 27.266 29.9699 24.872 29.9699 21.946C29.9699 19.034 27.8279 16.626 24.7479 16.626C21.6679 16.626 19.5399 19.034 19.5399 21.946ZM32.9933 16.738H31.2993V27.154H38.0193V25.488H32.9933V16.738ZM42.7915 25.46H41.2655V18.432H42.7915C44.7235 18.432 46.3055 20 46.3055 21.946C46.3055 23.892 44.7235 25.46 42.7915 25.46ZM39.5715 27.154H42.8195C45.6755 27.154 48.0135 24.816 48.0135 21.946C48.0135 19.076 45.6755 16.738 42.8195 16.738H39.5715V27.154ZM19.6619 40.572C17.5339 40.572 16.1339 38.976 16.1339 36.946C16.1339 34.93 17.5339 33.334 19.6619 33.334C21.7899 33.334 23.2039 34.93 23.2039 36.946C23.2039 38.976 21.7899 40.572 19.6619 40.572ZM14.4539 36.946C14.4539 39.872 16.5819 42.266 19.6619 42.266C22.7419 42.266 24.8839 39.872 24.8839 36.946C24.8839 34.034 22.7419 31.626 19.6619 31.626C16.5819 31.626 14.4539 34.034 14.4539 36.946ZM34.7501 38.01V31.738H33.0561V37.968C33.0561 39.438 31.8941 40.544 30.5781 40.544C29.1781 40.544 28.0861 39.438 28.0861 37.968V31.738H26.3921V38.01C26.3921 40.362 28.2681 42.252 30.5781 42.252C32.7621 42.252 34.7501 40.362 34.7501 38.01ZM43.745 31.738H36.297V33.39H39.195V42.154H40.889V33.39H43.745V31.738Z" fill="white"/>
<circle cx="29" cy="29" r="28.5" stroke="white"/>
</svg>
