<svg width="21" height="24" viewBox="0 0 21 24" fill="none" xmlns="http://www.w3.org/2000/svg">
<path opacity="0.9" d="M0 24V0H21V24L10.5 19L0 24Z" fill="#51617D"/>
<path d="M7.35459 15H5.71659V6.698L4.34459 7.16L3.81259 5.578L5.71659 4.892H7.35459V15ZM13.19 13.404C13.9273 13.404 14.4826 13.1287 14.856 12.578C15.2386 12.018 15.43 11.136 15.43 9.932C15.43 8.728 15.2386 7.85067 14.856 7.3C14.4826 6.74933 13.9273 6.474 13.19 6.474C12.4433 6.474 11.8786 6.74933 11.496 7.3C11.1226 7.85067 10.936 8.728 10.936 9.932C10.936 11.136 11.1226 12.018 11.496 12.578C11.8786 13.1287 12.4433 13.404 13.19 13.404ZM9.25597 9.932C9.25597 8.88667 9.41464 7.97667 9.73197 7.202C10.0586 6.42733 10.5206 5.83467 11.118 5.424C11.7153 5.004 12.406 4.794 13.19 4.794C13.974 4.794 14.66 5.004 15.248 5.424C15.8453 5.83467 16.3026 6.42733 16.62 7.202C16.9466 7.97667 17.11 8.88667 17.11 9.932C17.11 10.9773 16.9466 11.8873 16.62 12.662C16.3026 13.4367 15.8453 14.034 15.248 14.454C14.66 14.874 13.974 15.084 13.19 15.084C12.406 15.084 11.7153 14.874 11.118 14.454C10.5206 14.034 10.0586 13.4367 9.73197 12.662C9.41464 11.8873 9.25597 10.9773 9.25597 9.932Z" fill="white"/>
</svg>
