<svg width="21" height="24" viewBox="0 0 21 24" fill="none" xmlns="http://www.w3.org/2000/svg">
<path opacity="0.9" d="M0 24V0H21V24L10.5 19L0 24Z" fill="#E7342C"/>
<path d="M6.88298 13.194C7.25631 12.83 7.89098 12.2793 8.78698 11.542C9.43098 11.0193 9.93498 10.59 10.299 10.254C10.663 9.918 10.9663 9.568 11.209 9.204C11.4516 8.84 11.573 8.476 11.573 8.112C11.573 7.61733 11.4143 7.23 11.097 6.95C10.7796 6.66067 10.3923 6.516 9.93498 6.516C9.10431 6.516 8.50231 6.93133 8.12898 7.762L6.58898 7.062C6.94364 6.26867 7.44298 5.69933 8.08698 5.354C8.73098 5.00867 9.34698 4.836 9.93498 4.836C10.467 4.836 10.9896 4.976 11.503 5.256C12.0163 5.536 12.4363 5.928 12.763 6.432C13.0896 6.92667 13.253 7.48667 13.253 8.112C13.253 8.756 13.0756 9.36733 12.721 9.946C12.3663 10.5247 11.9463 11.038 11.461 11.486C10.9756 11.934 10.3083 12.5033 9.45898 13.194H13.393V14.874H6.86898V13.194H6.88298Z" fill="white"/>
</svg>
