<svg width="21" height="24" viewBox="0 0 21 24" fill="none" xmlns="http://www.w3.org/2000/svg">
<path opacity="0.9" d="M0 24V0H21V24L10.5 19L0 24Z" fill="#E7342C"/>
<path d="M12.4119 9.764C12.8879 10.044 13.2753 10.3893 13.5739 10.8C13.8819 11.2107 14.0359 11.6587 14.0359 12.144C14.0359 12.704 13.8866 13.208 13.5879 13.656C13.2986 14.0947 12.8833 14.44 12.3419 14.692C11.8099 14.944 11.1939 15.07 10.4939 15.07C9.79393 15.07 9.17793 14.944 8.64593 14.692C8.11393 14.4307 7.70326 14.0713 7.41393 13.614C7.1246 13.1473 6.97993 12.6153 6.97993 12.018H8.63193C8.63193 12.4287 8.7906 12.7833 9.10793 13.082C9.42526 13.3713 9.88726 13.516 10.4939 13.516C11.1193 13.516 11.6046 13.3713 11.9499 13.082C12.3046 12.7833 12.4819 12.4287 12.4819 12.018C12.4819 11.598 12.3186 11.2433 11.9919 10.954C11.6746 10.6647 11.1846 10.52 10.5219 10.52H9.80793V9.036H10.5499C11.1006 9.036 11.5346 8.90067 11.8519 8.63C12.1693 8.35933 12.3279 8.042 12.3279 7.678C12.3279 7.33267 12.1739 7.02933 11.8659 6.768C11.5579 6.50667 11.1333 6.376 10.5919 6.376C10.0506 6.376 9.63993 6.50667 9.35993 6.768C9.07993 7.02 8.93993 7.328 8.93993 7.692H7.28793C7.28793 7.132 7.42793 6.63733 7.70793 6.208C7.98793 5.76933 8.37526 5.42867 8.86993 5.186C9.37393 4.94333 9.94793 4.822 10.5919 4.822C11.2266 4.822 11.7913 4.94333 12.2859 5.186C12.7899 5.41933 13.1773 5.746 13.4479 6.166C13.7279 6.57667 13.8679 7.04333 13.8679 7.566C13.8679 8.00467 13.7326 8.41533 13.4619 8.798C13.1913 9.18067 12.8413 9.50267 12.4119 9.764Z" fill="white"/>
</svg>
