<svg width="21" height="24" viewBox="0 0 21 24" fill="none" xmlns="http://www.w3.org/2000/svg">
<path opacity="0.9" d="M0 24V0H21V24L10.5 19L0 24Z" fill="#51617D"/>
<path d="M8.97575 10.59L7.30975 10.534L7.51975 4.948H13.2738V6.628H9.14375L9.07375 8.532C9.52175 8.35467 9.97908 8.266 10.4458 8.266C11.0711 8.266 11.6591 8.42 12.2098 8.728C12.7698 9.02667 13.2178 9.44667 13.5538 9.988C13.8898 10.52 14.0577 11.1173 14.0577 11.78C14.0577 12.4147 13.8898 13.0027 13.5538 13.544C13.2178 14.076 12.7698 14.5007 12.2098 14.818C11.6498 15.126 11.0618 15.28 10.4458 15.28C9.91375 15.28 9.40042 15.1633 8.90575 14.93C8.42042 14.6967 8.00042 14.3747 7.64575 13.964C7.29108 13.544 7.05308 13.0773 6.93175 12.564L8.58375 12.172C8.68642 12.62 8.90108 12.97 9.22775 13.222C9.56375 13.474 9.96975 13.6 10.4458 13.6C11.0151 13.6 11.4771 13.432 11.8318 13.096C12.1958 12.76 12.3778 12.3213 12.3778 11.78C12.3778 11.2107 12.2004 10.7627 11.8458 10.436C11.4911 10.1093 11.0244 9.946 10.4458 9.946C10.1378 9.946 9.86708 9.99733 9.63375 10.1C9.40975 10.1933 9.19508 10.352 8.98975 10.576L8.97575 10.59Z" fill="white"/>
</svg>
