<svg width="21" height="24" viewBox="0 0 21 24" fill="none" xmlns="http://www.w3.org/2000/svg">
<path opacity="0.9" d="M0 24V0H21V24L10.5 19L0 24Z" fill="#51617D"/>
<path d="M10.4952 13.418C11.0739 13.418 11.5359 13.2687 11.8812 12.97C12.2266 12.662 12.3992 12.2373 12.3992 11.696C12.3992 11.1827 12.2219 10.7673 11.8672 10.45C11.5126 10.1233 11.0552 9.96 10.4952 9.96C9.93524 9.96 9.47791 10.1233 9.12324 10.45C8.77791 10.7673 8.60524 11.1827 8.60524 11.696C8.60524 12.2373 8.77324 12.662 9.10924 12.97C9.45458 13.2687 9.91658 13.418 10.4952 13.418ZM6.92524 11.696C6.92524 11.1733 7.04658 10.6833 7.28924 10.226H7.26124L10.3132 4.822H12.2452L10.2852 8.28H10.4952C11.1112 8.28 11.6946 8.434 12.2452 8.742C12.7959 9.05 13.2392 9.46533 13.5752 9.988C13.9112 10.5107 14.0792 11.08 14.0792 11.696C14.0792 12.34 13.9112 12.9233 13.5752 13.446C13.2392 13.9593 12.7959 14.3653 12.2452 14.664C11.6946 14.9533 11.1112 15.098 10.4952 15.098C9.87924 15.098 9.29591 14.9533 8.74524 14.664C8.19458 14.3653 7.75124 13.9593 7.41524 13.446C7.08858 12.9233 6.92524 12.34 6.92524 11.696Z" fill="white"/>
</svg>
