<svg width="21" height="24" viewBox="0 0 21 24" fill="none" xmlns="http://www.w3.org/2000/svg">
<path opacity="0.9" d="M0 24V0H21V24L10.5 19L0 24Z" fill="#51617D"/>
<path d="M10.5083 13.614C10.8723 13.614 11.1989 13.544 11.4883 13.404C11.7869 13.2547 12.0156 13.0633 12.1743 12.83C12.3423 12.5967 12.4263 12.3493 12.4263 12.088C12.4263 11.836 12.3423 11.5933 12.1743 11.36C12.0156 11.1267 11.7869 10.94 11.4883 10.8C11.1989 10.66 10.8723 10.59 10.5083 10.59C10.1443 10.59 9.81759 10.66 9.52826 10.8C9.23892 10.94 9.01026 11.1267 8.84226 11.36C8.67426 11.5933 8.59026 11.836 8.59026 12.088C8.59026 12.3493 8.66959 12.5967 8.82826 12.83C8.99626 13.0633 9.22492 13.2547 9.51426 13.404C9.81292 13.544 10.1443 13.614 10.5083 13.614ZM6.96626 12.144C6.96626 11.6493 7.12492 11.1873 7.44226 10.758C7.75959 10.3287 8.16559 9.97867 8.66026 9.708C8.24959 9.43733 7.90892 9.12 7.63826 8.756C7.37692 8.38267 7.24626 7.986 7.24626 7.566C7.24626 7.05267 7.39559 6.59067 7.69426 6.18C8.00226 5.76 8.40826 5.43333 8.91226 5.2C9.41626 4.95733 9.94826 4.836 10.5083 4.836C11.0776 4.836 11.6096 4.95733 12.1043 5.2C12.6083 5.43333 13.0096 5.76 13.3083 6.18C13.6163 6.59067 13.7703 7.05267 13.7703 7.566C13.7703 7.986 13.6396 8.38267 13.3783 8.756C13.1169 9.12933 12.7763 9.44667 12.3563 9.708C12.8509 9.988 13.2569 10.3427 13.5743 10.772C13.8916 11.192 14.0503 11.6493 14.0503 12.144C14.0503 12.704 13.8869 13.2127 13.5603 13.67C13.2336 14.118 12.7949 14.4727 12.2443 14.734C11.7029 14.986 11.1243 15.112 10.5083 15.112C9.89226 15.112 9.30892 14.986 8.75826 14.734C8.21692 14.4727 7.78292 14.118 7.45626 13.67C7.12959 13.2127 6.96626 12.704 6.96626 12.144ZM8.92626 7.58C8.92626 7.90667 9.07559 8.196 9.37426 8.448C9.67292 8.69067 10.0509 8.812 10.5083 8.812C10.9656 8.812 11.3436 8.69067 11.6423 8.448C11.9409 8.196 12.0903 7.90667 12.0903 7.58C12.0903 7.37467 12.0203 7.17867 11.8803 6.992C11.7496 6.796 11.5629 6.642 11.3203 6.53C11.0776 6.40867 10.8069 6.348 10.5083 6.348C10.2096 6.348 9.93892 6.40867 9.69626 6.53C9.45359 6.642 9.26226 6.796 9.12226 6.992C8.99159 7.17867 8.92626 7.37467 8.92626 7.58Z" fill="white"/>
</svg>
