<svg width="21" height="24" viewBox="0 0 21 24" fill="none" xmlns="http://www.w3.org/2000/svg">
<path opacity="0.9" d="M0 24V0H21V24L10.5 19L0 24Z" fill="#51617D"/>
<path d="M10.5092 6.446C9.93058 6.446 9.46858 6.6 9.12324 6.908C8.77791 7.20667 8.60524 7.62667 8.60524 8.168C8.60524 8.672 8.78258 9.08733 9.13724 9.414C9.49191 9.73133 9.94924 9.89 10.5092 9.89C11.0599 9.89 11.5126 9.73133 11.8672 9.414C12.2219 9.08733 12.3992 8.672 12.3992 8.168C12.3992 7.62667 12.2266 7.20667 11.8812 6.908C11.5359 6.6 11.0786 6.446 10.5092 6.446ZM6.92524 8.168C6.92524 7.524 7.09324 6.94533 7.42924 6.432C7.76524 5.90933 8.20858 5.50333 8.75924 5.214C9.30991 4.91533 9.89324 4.766 10.5092 4.766C11.1252 4.766 11.7039 4.91533 12.2452 5.214C12.7959 5.50333 13.2392 5.90933 13.5752 6.432C13.9112 6.94533 14.0792 7.524 14.0792 8.168C14.0792 8.63467 13.9766 9.08733 13.7712 9.526H13.7852L10.6772 15.042H8.74524L10.7052 11.57H10.5092C9.89324 11.57 9.30991 11.4207 8.75924 11.122C8.20858 10.814 7.76524 10.3987 7.42924 9.876C7.09324 9.35333 6.92524 8.784 6.92524 8.168Z" fill="white"/>
</svg>
