<svg width="14" height="14" viewBox="0 0 14 14" fill="none" xmlns="http://www.w3.org/2000/svg">
<g clip-path="url(#clip0_1588_8739)">
<path d="M12.4 7.96229C12.4 10.7315 10.0855 13.0008 7.2 13.0008C4.31447 13.0008 2 10.7315 2 7.96229C2 5.19308 4.31447 2.92383 7.2 2.92383C10.0855 2.92383 12.4 5.19308 12.4 7.96229Z" stroke="white"/>
<path d="M8 6.30078C8 6.02464 7.77614 5.80078 7.5 5.80078C7.22386 5.80078 7 6.02464 7 6.30078H8ZM7.5 8.15185H7V8.36535L7.15421 8.513L7.5 8.15185ZM8.35421 9.66194C8.55367 9.85291 8.87018 9.84603 9.06115 9.64657C9.25213 9.44711 9.24525 9.1306 9.04579 8.93963L8.35421 9.66194ZM7 6.30078V8.15185H8V6.30078H7ZM7.15421 8.513L8.35421 9.66194L9.04579 8.93963L7.84579 7.79069L7.15421 8.513Z" fill="white"/>
<path d="M2.4502 2.88462L4.3502 1.5" stroke="white" stroke-linecap="round"/>
<path d="M10.0498 1.5L11.9498 2.88462" stroke="white" stroke-linecap="round"/>
</g>
<defs>
<clipPath id="clip0_1588_8739">
<rect width="13" height="13" fill="white" transform="translate(0.5 0.5)"/>
</clipPath>
</defs>
</svg>
