<svg width="17" height="17" viewBox="0 0 17 17" fill="none" xmlns="http://www.w3.org/2000/svg">
<path d="M7.5 4.43548C10.648 4.35806 11.4783 1.77957 11.5 0.5C11.6296 3.76601 14.2029 4.48426 15.4866 4.43602C15.4911 4.43584 15.4955 4.43566 15.5 4.43548C15.4955 4.43567 15.4911 4.43585 15.4866 4.43602C12.168 4.57159 11.4459 7.20067 11.5 8.5C11.2659 5.24839 8.73577 4.43548 7.5 4.43548Z" fill="#E7342C" stroke="#E7342C" stroke-width="0.9" stroke-linejoin="round"/>
<path d="M7.5 14.4677C9.07398 14.429 9.48916 13.1398 9.5 12.5C9.56504 14.1387 10.8604 14.4946 11.5 14.4677C9.83496 14.5323 9.4729 15.8495 9.5 16.5C9.38293 14.8742 8.11789 14.4677 7.5 14.4677Z" fill="#E7342C" stroke="#E7342C" stroke-width="0.5" stroke-linejoin="round"/>
<path d="M1.5 10.4516C3.86098 10.3935 4.48374 8.45968 4.5 7.5C4.59756 9.95806 6.54065 10.4919 7.5 10.4516C5.00244 10.5484 4.45935 12.5242 4.5 13.5C4.32439 11.0613 2.42683 10.4516 1.5 10.4516Z" fill="#E7342C" stroke="#E7342C" stroke-width="0.6" stroke-linejoin="round"/>
</svg>
