<svg width="19" height="18" viewBox="0 0 19 18" fill="none" xmlns="http://www.w3.org/2000/svg">
<path d="M12.125 11.3307C12.3077 11.5378 12.6236 11.5576 12.8307 11.375C13.0378 11.1923 13.0576 10.8764 12.875 10.6693L12.125 11.3307ZM5.12242 10.6722C4.9414 10.8808 4.9637 11.1966 5.17223 11.3776C5.38077 11.5586 5.69656 11.5363 5.87758 11.3278L5.12242 10.6722ZM8.89733 7.08631L8.51974 6.75854L8.89733 7.08631ZM12.875 10.6693L9.42284 6.75499L8.67285 7.41644L12.125 11.3307L12.875 10.6693ZM8.51974 6.75854L5.12242 10.6722L5.87758 11.3278L9.27491 7.41407L8.51974 6.75854ZM9.42284 6.75499C9.18272 6.48273 8.75772 6.4844 8.51974 6.75854L9.27491 7.41407C9.11626 7.59683 8.83293 7.59795 8.67285 7.41644L9.42284 6.75499Z" fill="#565656"/>
</svg>
